<svg width="24" height="17" viewBox="0 0 24 17" fill="none" xmlns="http://www.w3.org/2000/svg">
<path opacity="0.1" d="M11.9995 17C21.5446 16.9465 23.2421 10.691 23.3375 10.3364C23.5131 9.67862 23.5466 8.49785 23.16 7.45675C22.9448 6.87726 22.6455 6.30173 22.6861 5.77276C22.7748 5.12683 22.9136 4.48839 23.1011 3.86292C23.4055 2.78517 23.9636 0.818868 23.9778 0.731697C24.1209 -0.145958 23.5445 -0.0607676 23.0575 0.126452C21.5355 0.700989 17.5599 2.17893 17.5599 2.17893C13.9892 0.793472 10.0108 0.793472 6.44006 2.17893C6.44006 2.17893 2.46454 0.700989 0.942524 0.121499C0.455478 -0.0637394 -0.12086 -0.15091 0.0222097 0.726744C0.0364153 0.813915 0.593475 2.78022 0.897879 3.86292C1.08799 4.48945 1.22877 5.12925 1.31897 5.77672C1.35956 6.30173 1.06023 6.87726 0.845115 7.46071C0.453449 8.49785 0.486933 9.67862 0.662473 10.3364C0.756838 10.691 2.45541 16.9465 11.9995 17Z" fill="#90007E"/>
</svg>
