<svg width="24" height="18" viewBox="0 0 24 18" fill="none" xmlns="http://www.w3.org/2000/svg">
<path d="M11.9995 17.5C21.5446 17.4465 23.2421 11.191 23.3375 10.8364C23.5131 10.1786 23.5466 8.99785 23.16 7.95675C22.9448 7.37726 22.6455 6.80173 22.6861 6.27276C22.7748 5.62683 22.9136 4.98839 23.1011 4.36292C23.4055 3.28517 23.9636 1.31887 23.9778 1.2317C24.1209 0.354042 23.5445 0.439232 23.0575 0.626452C21.5355 1.20099 17.5599 2.67893 17.5599 2.67893C13.9892 1.29347 10.0108 1.29347 6.44006 2.67893C6.44006 2.67893 2.46454 1.20099 0.942524 0.621499C0.455478 0.436261 -0.12086 0.34909 0.0222097 1.22674C0.0364153 1.31391 0.593475 3.28022 0.897879 4.36292C1.08799 4.98945 1.22877 5.62925 1.31897 6.27672C1.35956 6.80173 1.06023 7.37726 0.845115 7.96071C0.453449 8.99785 0.486933 10.1786 0.662473 10.8364C0.756838 11.191 2.45541 17.4465 11.9995 17.5Z" fill="#90007E"/>
</svg>
