<?xml version="1.0" encoding="UTF-8"?>
<!DOCTYPE svg  PUBLIC '-//W3C//DTD SVG 1.1//EN'  'http://www.w3.org/Graphics/SVG/1.1/DTD/svg11.dtd'>
<svg version="1.1" xmlns="http://www.w3.org/2000/svg">
<defs>
<font id="VAGRoundedLTCYR-Light" horiz-adv-x="204">
<font-face font-family="VAG Rounded LT CYR Light" font-weight="300" ascent="770" bbox="-119 -293 1047 935" cap-height="712" descent="-230" panose-1="2 15 5 2 2 2 4 2 2 4" underline-position="-100" underline-thickness="50" unicode-range="U+000D-FB04" units-per-em="1000" x-height="532"/>
<missing-glyph d="M263 111h-53v63h53v-63zM257 222h-46v16q0 65 24 97q12 16 33 34q44 49 46 80q0 48 -38 71q-17 9 -34 9q-60 0 -75 -74l-2 -16l-48 8q11 114 104 128q12 2 24 2q72 0 103 -59q15 -29 15 -65q0 -49 -37 -90q-10 -11 -23 -23q-38 -34 -43 -56q-3 -13 -3 -48v-14zM47 47h391 v585h-391v-585zM0 680h485v-680h-485v680z" horiz-adv-x="485"/>
<glyph d="M146 671v-630q0 -40 -34 -46q-5 -1 -10 -1q-37 0 -43 36q-1 6 -1 11v630q0 40 34 46q5 1 10 1q37 0 43 -36q1 -6 1 -11zM436 172v499q0 40 34 46q5 1 10 1q37 0 43 -36q1 -6 1 -11v-490q-2 -186 -173 -187q-55 0 -105 28q-40 23 -41 52q0 31 27 36q4 1 8 1q17 0 42 -18 q33 -23 76 -23q77 2 78 102z" glyph-name="IJ" horiz-adv-x="582" unicode="IJ"/>
<glyph d="M146 491v-450q0 -40 -34 -46q-5 -1 -10 -1q-37 0 -43 36q-1 6 -1 11v450q0 40 34 46q5 1 10 1q37 0 43 -36q1 -6 1 -11zM48 664q0 34 31 49q11 5 23 5q34 0 49 -31q5 -11 5 -23q0 -34 -31 -49q-11 -5 -23 -5q-34 0 -49 31q-5 11 -5 23zM331 491v-660q0 -40 -34 -46 q-5 -1 -10 -1q-37 0 -43 36q-1 6 -1 11v660q0 40 34 46q5 1 10 1q37 0 43 -36q1 -6 1 -11zM233 664q0 34 31 49q11 5 23 5q34 0 49 -31q5 -11 5 -23q0 -34 -31 -49q-11 -5 -23 -5q-34 0 -49 31q-5 11 -5 23z" glyph-name="ij" horiz-adv-x="389" unicode="ij"/>
<glyph d="M58 41v450q0 40 34 46q5 1 10 1q37 0 43 -36q1 -6 1 -11v-21l2 -2q55 70 147 70q88 0 140 -62q45 -54 45 -140v-295q0 -40 -34 -46q-5 -1 -10 -1q-37 0 -43 36q-1 6 -1 11v290q0 89 -70 120q-25 11 -53 11q-67 0 -101 -51q-22 -34 -22 -80v-290q0 -40 -34 -46 q-5 -1 -10 -1q-37 0 -43 36q-1 6 -1 11zM7 661l41 86q12 24 35 25q30 0 40 -24q2 -5 2 -10q-1 -15 -7 -27l-48 -89q-12 -19 -33 -20q-29 0 -36 22q-1 4 -1 7q1 17 7 30z" glyph-name="napostrophe" horiz-adv-x="538" unicode='"n'/>
<glyph d="M405 456v-415q0 -40 -34 -46q-5 -1 -10 -1q-37 0 -43 36q-1 6 -1 11v415h-143v-415q0 -40 -34 -46q-5 -1 -10 -1q-37 0 -43 36q-1 6 -1 11v415h-36q-43 2 -44 38q2 37 44 38h36v125q0 80 66 106q24 9 51 9h27q33 0 46 -23q4 -7 4 -15q-2 -37 -48 -38h-22q-35 -2 -36 -35 v-129h143v125q0 80 66 106q24 9 51 9h27q33 0 46 -23q4 -7 4 -15q-2 -37 -48 -38h-22q-35 -2 -36 -35v-129h55q43 -2 44 -38q-2 -37 -44 -38h-55z" glyph-name="f_f" horiz-adv-x="490" unicode="ff"/>
<glyph d="M405 491v-450q0 -40 -34 -46q-5 -1 -10 -1q-37 0 -43 36q-1 6 -1 11v450q0 40 34 46q5 1 10 1q37 0 43 -36q1 -6 1 -11zM307 664q0 34 31 49q11 5 23 5q34 0 49 -31q5 -11 5 -23q0 -34 -31 -49q-11 -5 -23 -5q-34 0 -49 31q-5 11 -5 23zM174 456v-415q0 -40 -34 -46 q-5 -1 -10 -1q-37 0 -43 36q-1 6 -1 11v415h-36q-43 2 -44 38q2 37 44 38h36v125q0 80 66 106q24 9 51 9h27q33 0 46 -23q4 -7 4 -15q-2 -37 -48 -38h-22q-35 -2 -36 -35v-129h55q43 -2 44 -38q-2 -37 -44 -38h-55z" glyph-name="fi" horiz-adv-x="463" unicode="fi"/>
<glyph d="M174 456v-415q0 -40 -34 -46q-5 -1 -10 -1q-37 0 -43 36q-1 6 -1 11v415h-36q-43 2 -44 38q2 37 44 38h36v125q0 80 66 106q24 9 51 9h27q33 0 46 -23q4 -7 4 -15q-2 -37 -48 -38h-22q-35 -2 -36 -35v-129h55q43 -2 44 -38q-2 -37 -44 -38h-55zM405 725v-684 q0 -40 -34 -46q-5 -1 -10 -1q-37 0 -43 36q-1 6 -1 11v684q0 40 34 46q5 1 10 1q37 0 43 -36q1 -6 1 -11z" glyph-name="fl" horiz-adv-x="463" unicode="fl"/>
<glyph d="M405 456v-415q0 -40 -34 -46q-5 -1 -10 -1q-37 0 -43 36q-1 6 -1 11v415h-143v-415q0 -40 -34 -46q-5 -1 -10 -1q-37 0 -43 36q-1 6 -1 11v415h-36q-43 2 -44 38q2 37 44 38h36v125q0 80 66 106q24 9 51 9h27q33 0 46 -23q4 -7 4 -15q-2 -37 -48 -38h-22q-35 -2 -36 -35 v-129h143v125q0 80 66 106q24 9 51 9h27q33 0 46 -23q4 -7 4 -15q-2 -37 -48 -38h-22q-35 -2 -36 -35v-129h55q43 -2 44 -38q-2 -37 -44 -38h-55zM636 491v-450q0 -40 -34 -46q-5 -1 -10 -1q-37 0 -43 36q-1 6 -1 11v450q0 40 34 46q5 1 10 1q37 0 43 -36q1 -6 1 -11z M538 664q0 34 31 49q11 5 23 5q34 0 49 -31q5 -11 5 -23q0 -34 -31 -49q-11 -5 -23 -5q-34 0 -49 31q-5 11 -5 23z" glyph-name="f_f_i" horiz-adv-x="694" unicode="ffi"/>
<glyph d="M405 456v-415q0 -40 -34 -46q-5 -1 -10 -1q-37 0 -43 36q-1 6 -1 11v415h-143v-415q0 -40 -34 -46q-5 -1 -10 -1q-37 0 -43 36q-1 6 -1 11v415h-36q-43 2 -44 38q2 37 44 38h36v125q0 80 66 106q24 9 51 9h27q33 0 46 -23q4 -7 4 -15q-2 -37 -48 -38h-22q-35 -2 -36 -35 v-129h143v125q0 80 66 106q24 9 51 9h27q33 0 46 -23q4 -7 4 -15q-2 -37 -48 -38h-22q-35 -2 -36 -35v-129h55q43 -2 44 -38q-2 -37 -44 -38h-55zM635 725v-684q0 -40 -34 -46q-5 -1 -10 -1q-37 0 -43 36q-1 6 -1 11v684q0 40 34 46q5 1 10 1q37 0 43 -36q1 -6 1 -11z" glyph-name="f_f_l" horiz-adv-x="693" unicode="ffl"/>
<glyph d="M263 111h-53v63h53v-63zM257 222h-46v16q0 65 24 97q12 16 33 34q44 49 46 80q0 48 -38 71q-17 9 -34 9q-60 0 -75 -74l-2 -16l-48 8q11 114 104 128q12 2 24 2q72 0 103 -59q15 -29 15 -65q0 -49 -37 -90q-10 -11 -23 -23q-38 -34 -43 -56q-3 -13 -3 -48v-14zM47 47h391 v585h-391v-585zM0 680h485v-680h-485v680z" glyph-name=".notdef" horiz-adv-x="485"/>
<glyph glyph-name=".null" horiz-adv-x="500"/>
<glyph glyph-name="nonmarkingreturn" horiz-adv-x="333"/>
<glyph glyph-name="CR" horiz-adv-x="0" unicode=""/>
<glyph glyph-name="space" horiz-adv-x="250" unicode=" "/>
<glyph d="M104 238v433q0 40 34 46q5 1 10 1q37 0 43 -36q1 -6 1 -11v-433q0 -40 -34 -46q-5 -1 -10 -1q-37 0 -43 36q-1 6 -1 11zM97 45q0 32 29 46q11 5 22 5q32 0 46 -29q5 -11 5 -22q0 -32 -29 -46q-11 -5 -22 -5q-32 0 -46 29q-5 11 -5 22z" glyph-name="exclam" horiz-adv-x="296" unicode="!"/>
<glyph d="M197 539v136q4 41 41 43q39 -3 41 -43v-136q-4 -41 -41 -43q-39 3 -41 43zM55 539v136q4 41 41 43q39 -3 41 -43v-136q-4 -41 -41 -43q-39 3 -41 43z" glyph-name="quotedbl" horiz-adv-x="334" unicode='"'/>
<glyph d="M381 216l-26 -186q-8 -34 -38 -36q-32 3 -34 34q0 12 5 42l20 146h-119l-26 -186q-8 -34 -38 -36q-32 3 -34 34q0 12 5 42l20 146h-61q-37 5 -41 33q2 32 41 33h70l21 148h-61q-37 5 -41 33q7 30 41 33h70l26 186q8 34 38 36q32 -3 34 -34q0 -12 -5 -42l-20 -146h119 l26 186q8 34 38 36q32 -3 34 -34q0 -12 -5 -42l-20 -146h61q37 -5 41 -33q-2 -32 -41 -33h-70l-21 -148h61q37 -5 41 -33q-7 -30 -41 -33h-70zM317 282l21 148h-119l-21 -148h119z" glyph-name="numbersign" horiz-adv-x="536" unicode="#"/>
<glyph d="M218 439v203q-64 -8 -87 -59q-9 -20 -9 -42q0 -59 71 -92q12 -5 25 -10zM218 70v277q-96 33 -131 61q-59 47 -59 127q0 71 60 127q54 49 130 56v47q2 20 21 21q20 -2 21 -21v-47q90 -7 133 -46q19 -18 20 -37q0 -27 -24 -36q-7 -3 -14 -3q-16 0 -46 20q-34 21 -69 26 v-219q99 -35 136 -65q64 -51 64 -139q0 -104 -75 -168q-52 -44 -125 -53v-51q-2 -20 -21 -21q-20 2 -21 21v47q-97 0 -161 42q-35 23 -36 47q0 32 24 40q6 2 11 2q14 0 53 -23q56 -32 109 -32zM260 332v-257q75 16 98 88q8 25 8 52q0 68 -77 105q-13 6 -29 12z" glyph-name="dollar" horiz-adv-x="481" unicode="$"/>
<glyph d="M194 434q63 0 81 72q5 21 5 43q0 76 -44 104q-19 11 -42 11q-63 0 -81 -72q-5 -21 -5 -43q0 -76 44 -104q19 -11 42 -11zM547 -6q-92 0 -132 79q-20 41 -20 90q0 92 60 139q39 30 92 30q92 0 132 -79q20 -41 20 -90q0 -92 -60 -139q-39 -30 -92 -30zM547 48q63 0 81 72 q5 21 5 43q0 76 -44 104q-19 11 -42 11q-63 0 -81 -72q-5 -21 -5 -43q0 -76 44 -104q19 -11 42 -11zM194 380q-92 0 -132 79q-20 41 -20 90q0 92 60 139q39 30 92 30q92 0 132 -79q20 -41 20 -90q0 -92 -60 -139q-39 -30 -92 -30zM209 58l266 638q14 29 35 30q29 0 34 -22 q1 -3 1 -5q-1 -11 -14 -45l-266 -638q-14 -29 -37 -30q-28 5 -33 27q1 12 14 45z" glyph-name="percent" horiz-adv-x="741" unicode="%"/>
<glyph d="M318 417l159 -188l6 8q16 21 40 60q33 54 49 62q5 2 10 2q33 -5 37 -30q-1 -50 -93 -160l87 -103q18 -22 18 -38q0 -27 -25 -34q-6 -2 -11 -2q-21 1 -34 16l-86 99q-92 -115 -220 -115q-106 0 -169 70q-50 57 -50 137q0 105 71 170q31 28 88 63q-78 81 -79 139 q0 113 113 139q28 6 61 6q81 0 127 -53q29 -33 29 -73q0 -94 -101 -159q-13 -8 -27 -16zM204 575q0 -29 53 -88q5 -6 13 -15q93 55 94 105q0 49 -49 66q-16 5 -32 5q-57 0 -74 -43q-5 -14 -5 -30zM124 211q0 -84 64 -118q33 -17 75 -17q75 0 137 62q13 14 26 29l-182 210 q-97 -55 -115 -122q-5 -20 -5 -44z" glyph-name="ampersand" horiz-adv-x="667" unicode="&amp;"/>
<glyph d="M61 539v136q4 41 41 43q39 -3 41 -43v-136q-4 -41 -41 -43q-39 3 -41 43z" glyph-name="quotesingle" unicode="'"/>
<glyph d="M65 318q0 219 58 373q18 44 44 45q32 -4 35 -29q0 -11 -14 -53q-41 -130 -41 -336q0 -207 41 -336q14 -44 14 -53q0 -25 -27 -28q-5 -1 -8 -1q-27 2 -44 45q-58 154 -58 373z" glyph-name="parenleft" horiz-adv-x="241" unicode="("/>
<glyph d="M176 318q0 -219 -58 -373q-18 -44 -44 -45q-32 4 -35 29q0 11 14 53q41 130 41 336q0 207 -41 336q-14 44 -14 53q0 25 27 28q5 1 8 1q27 -2 44 -45q58 -154 58 -373z" glyph-name="parenright" horiz-adv-x="241" unicode=")"/>
<glyph d="M150 541l-89 37q-23 11 -23 32q0 23 22 32q7 2 13 2q17 0 63 -38q22 -18 34 -27q0 9 -9 80q-2 15 -2 24q0 27 25 34q6 1 11 1q30 0 35 -27q1 -5 1 -8q0 -13 -5 -45q-6 -40 -6 -59q12 9 35 28q45 36 62 37q25 0 33 -24q2 -5 2 -10q-2 -22 -23 -32l-89 -37l89 -37 q23 -11 23 -32q0 -23 -22 -32q-7 -2 -13 -2q-17 0 -63 38q-22 18 -34 27q0 -9 9 -80q2 -15 2 -24q0 -27 -25 -34q-6 -1 -11 -1q-30 0 -35 27q-1 5 -1 8q0 13 5 45q6 40 6 59q-12 -9 -35 -28q-45 -36 -62 -37q-25 0 -33 24q-2 5 -2 10q2 22 23 32z" glyph-name="asterisk" horiz-adv-x="390" unicode="*"/>
<glyph d="M259 294v169q4 41 41 43q39 -3 41 -43v-169h169q41 -4 43 -41q-3 -39 -43 -41h-169v-169q-4 -41 -41 -43q-39 3 -41 43v169h-169q-41 4 -43 41q3 39 43 41h169z" glyph-name="plus" horiz-adv-x="600" unicode="+"/>
<glyph d="M33 -51l56 110q17 33 39 36q4 1 8 1q27 0 37 -24q3 -7 3 -14q-1 -16 -11 -37l-56 -110q-17 -33 -39 -36q-4 -1 -8 -1q-27 0 -37 24q-3 7 -3 14q1 16 11 37z" glyph-name="comma" horiz-adv-x="250" unicode=","/>
<glyph d="M279 230h-206q-27 0 -36 25q-2 7 -2 13q0 27 25 36q7 2 13 2h206q27 0 36 -25q2 -7 2 -13q0 -27 -25 -36q-7 -2 -13 -2z" glyph-name="hyphen" horiz-adv-x="352" unicode="-"/>
<glyph d="M74 45q0 32 29 46q11 5 22 5q32 0 46 -29q5 -11 5 -22q0 -32 -29 -46q-11 -5 -22 -5q-32 0 -46 29q-5 11 -5 22z" glyph-name="period" horiz-adv-x="250" unicode="."/>
<glyph d="M34 75l273 613q14 29 41 30q33 0 38 -29q1 -4 1 -8q-1 -14 -14 -44l-273 -613q-14 -29 -41 -30q-33 0 -38 29q-1 4 -1 8q1 14 14 44z" glyph-name="slash" horiz-adv-x="407" unicode="/"/>
<glyph d="M33 356q0 199 94 299q61 63 141 63q105 0 171 -102q64 -101 64 -260q0 -199 -94 -299q-61 -63 -141 -63q-105 0 -171 102q-64 101 -64 260zM127 356q0 -210 85 -269q26 -17 56 -17q79 0 116 105q25 72 25 181q0 210 -85 269q-26 17 -56 17q-79 0 -116 -105 q-25 -72 -25 -181z" glyph-name="zero" horiz-adv-x="536" unicode="0"/>
<glyph d="M164 41v595h-92q-27 0 -36 25q-2 7 -2 13q0 27 25 36q7 2 13 2h153q23 0 26 -14q1 -5 1 -10v-647q0 -40 -34 -46q-5 -1 -10 -1q-37 0 -43 36q-1 6 -1 11z" glyph-name="one" horiz-adv-x="352" unicode="1"/>
<glyph d="M182 76h270q27 0 36 -25q2 -7 2 -13q0 -27 -25 -36q-7 -2 -13 -2h-345q-42 0 -47 30q-1 4 -1 6q1 15 19 40l246 329q52 68 52 126q0 65 -53 96q-28 15 -60 15q-82 0 -115 -79q-15 -37 -15 -82q-1 -39 -39 -40q-42 2 -43 54q0 107 74 171q62 52 153 52q102 0 157 -74 q35 -46 35 -103q0 -73 -35 -128q-7 -10 -14 -19z" glyph-name="two" horiz-adv-x="536" unicode="2"/>
<glyph d="M476 210q0 -118 -91 -178q-58 -38 -136 -38q-119 0 -179 86q-29 41 -29 78q0 41 28 48q5 1 9 1q33 0 47 -40q1 -4 2 -6q32 -90 120 -91q75 0 114 59q21 33 21 73q-1 132 -124 133q-51 4 -54 38q0 27 40 37q3 0 6 1q82 18 96 78q4 17 4 37q0 74 -52 104q-22 12 -49 12 q-85 0 -99 -92l-2 -12q-7 -40 -42 -41q-32 0 -39 30q-1 6 -1 11q0 88 65 140q51 40 122 40q102 0 154 -77q31 -48 31 -107q0 -87 -67 -139q-9 -7 -17 -12q88 -26 114 -113q8 -29 8 -60z" glyph-name="three" horiz-adv-x="536" unicode="3"/>
<glyph d="M334 183h-284q-37 1 -38 31q1 17 22 51l252 413q25 40 69 40q64 -6 67 -73v-386h45q27 0 36 -25q2 -7 2 -13q0 -27 -25 -36q-7 -2 -13 -2h-45v-142q0 -40 -34 -46q-5 -1 -10 -1q-37 0 -43 36q-1 6 -1 11v142zM122 259h212v365h-2z" glyph-name="four" horiz-adv-x="536" unicode="4"/>
<glyph d="M228 636l-29 -193q39 20 94 20q91 0 144 -83q38 -59 38 -133q0 -146 -94 -213q-58 -40 -137 -40q-99 0 -164 59q-35 32 -36 59q0 29 22 37q6 1 10 1q13 0 46 -26q65 -46 123 -48q78 0 116 70q20 38 20 84q0 108 -70 140q-24 11 -53 11q-39 0 -95 -21q-17 -6 -26 -6 q-28 3 -30 27q0 9 7 59l37 249q11 21 33 23h247q27 0 36 -25q2 -7 2 -13q0 -27 -25 -36q-7 -2 -13 -2h-203z" glyph-name="five" horiz-adv-x="536" unicode="5"/>
<glyph d="M266 -6q-105 0 -166 85q-48 67 -48 160q0 224 205 421q21 20 43 38q24 20 41 20q21 0 32 -22q4 -9 4 -19q0 -16 -32 -44l-3 -3q-77 -69 -132 -160q-10 -18 -21 -38h2q55 28 113 28q99 0 149 -95q31 -61 31 -139q0 -110 -75 -178q-61 -54 -143 -54zM140 230 q0 -102 63 -139q28 -15 62 -15q87 0 115 86q10 31 10 68q0 144 -110 153q-8 1 -15 1q-86 0 -115 -85q-10 -32 -10 -69z" glyph-name="six" horiz-adv-x="536" unicode="6"/>
<glyph d="M366 636h-300q-27 0 -36 25q-2 7 -2 13q0 27 25 36q7 2 13 2h361q44 -1 45 -28q-1 -16 -17 -53l-266 -605q-15 -32 -53 -32q-19 0 -29 18q-4 8 -4 16q1 15 14 47l249 559v2z" glyph-name="seven" horiz-adv-x="500" unicode="7"/>
<glyph d="M86 555q0 95 84 140q45 23 98 23q90 0 143 -57q39 -44 39 -106q0 -84 -57 -132q-16 -13 -36 -26q81 -19 114 -100q15 -37 15 -78q0 -104 -70 -169q-60 -56 -148 -56q-116 0 -178 91q-40 59 -40 134q0 93 63 146q29 23 66 32q-73 45 -88 107q-5 24 -5 51zM168 538 q0 -70 54 -95q21 -10 46 -10q68 0 92 59q8 21 8 46q0 68 -52 94q-22 10 -48 10q-68 0 -92 -58q-8 -22 -8 -46zM144 215q0 -89 62 -127q29 -18 62 -18q66 0 102 58q22 37 22 87q0 80 -52 119q-31 23 -72 23q-77 0 -109 -71q-15 -33 -15 -71z" glyph-name="eight" horiz-adv-x="536" unicode="8"/>
<glyph d="M270 718q105 0 166 -85q48 -67 48 -160q0 -224 -205 -421q-21 -20 -43 -38q-24 -20 -41 -20q-21 0 -32 22q-4 9 -4 19q0 16 32 44l3 3q77 69 132 160q10 18 21 38h-2q-55 -28 -113 -28q-99 0 -149 95q-31 61 -31 139q0 110 75 178q61 54 143 54zM396 482q0 102 -63 139 q-28 15 -62 15q-87 0 -115 -86q-10 -31 -10 -68q0 -144 110 -153q8 -1 15 -1q86 0 115 85q10 32 10 69z" glyph-name="nine" horiz-adv-x="536" unicode="9"/>
<glyph d="M74 45q0 32 29 46q11 5 22 5q32 0 46 -29q5 -11 5 -22q0 -32 -29 -46q-11 -5 -22 -5q-32 0 -46 29q-5 11 -5 22zM74 381q0 32 29 46q11 5 22 5q32 0 46 -29q5 -11 5 -22q0 -32 -29 -46q-11 -5 -22 -5q-32 0 -46 29q-5 11 -5 22z" glyph-name="colon" horiz-adv-x="250" unicode=":"/>
<glyph d="M33 -51l56 110q17 33 39 36q4 1 8 1q27 0 37 -24q3 -7 3 -14q-1 -16 -11 -37l-56 -110q-17 -33 -39 -36q-4 -1 -8 -1q-27 0 -37 24q-3 7 -3 14q1 16 11 37zM74 381q0 32 29 46q11 5 22 5q32 0 46 -29q5 -11 5 -22q0 -32 -29 -46q-11 -5 -22 -5q-32 0 -46 29q-5 11 -5 22z " glyph-name="semicolon" horiz-adv-x="250" unicode=";"/>
<glyph d="M150 253l372 -184q28 -15 31 -32q1 -3 1 -6q0 -26 -22 -35q-6 -2 -11 -2q-13 1 -49 18l-390 195q-35 19 -36 46q2 28 36 46l390 195q38 18 49 18q22 0 30 -23q3 -7 3 -14q0 -21 -32 -38z" glyph-name="less" horiz-adv-x="600" unicode="&lt;"/>
<glyph d="M510 316h-420q-41 4 -43 41q3 39 43 41h420q41 -4 43 -41q-3 -39 -43 -41zM510 108h-420q-41 4 -43 41q3 39 43 41h420q41 -4 43 -41q-3 -39 -43 -41z" glyph-name="equal" horiz-adv-x="600" unicode="="/>
<glyph d="M78 69l372 184l-372 184q-28 15 -31 32q-1 3 -1 6q0 26 22 35q6 2 11 2q13 -1 49 -18l390 -195q35 -19 36 -46q-2 -28 -36 -46l-390 -195q-38 -18 -49 -18q-22 0 -30 23q-3 7 -3 14q0 21 32 38z" glyph-name="greater" horiz-adv-x="600" unicode="&gt;"/>
<glyph d="M258 338v-100q0 -40 -34 -46q-5 -1 -10 -1q-37 0 -43 36q-1 6 -1 11v113q0 37 11 47q13 11 59 20q91 20 92 108q0 71 -60 98q-26 12 -56 12q-85 0 -114 -77q-1 -3 -2 -5q-13 -32 -39 -33q-30 0 -40 28q-3 9 -3 18q3 72 78 117q54 34 117 34q107 0 169 -69q44 -50 44 -115 q0 -122 -105 -174q-29 -15 -63 -22zM163 45q0 32 29 46q11 5 22 5q32 0 46 -29q5 -11 5 -22q0 -32 -29 -46q-11 -5 -22 -5q-32 0 -46 29q-5 11 -5 22z" glyph-name="question" horiz-adv-x="444" unicode="?"/>
<glyph d="M466 -128q-198 0 -318 127q-113 120 -113 298q0 162 113 282q108 116 266 136q28 3 55 3q185 0 303 -104q111 -100 111 -248q0 -137 -91 -232q-6 -5 -10 -9q-73 -69 -175 -69q-76 2 -88 75q-45 -62 -115 -73q-14 -2 -26 -2q-111 0 -151 92q-17 40 -17 88q0 120 76 209 q78 88 187 89q97 -1 133 -75l10 27q15 36 44 37q29 0 36 -25q1 -6 1 -11q0 -9 -3 -16l-76 -254q-10 -34 -10 -53q3 -31 30 -33q61 0 114 69q54 72 54 161q0 140 -110 222q-92 69 -226 69q-150 0 -254 -105q-98 -100 -103 -242v-12q0 -147 101 -248q105 -100 249 -102 q144 0 248 71q15 9 27 9q23 0 30 -22q1 -5 1 -9q0 -41 -101 -80q-104 -40 -202 -40zM390 131q72 0 128 87q46 71 46 135q0 77 -55 100q-17 7 -38 7q-75 0 -128 -74q-47 -66 -47 -150q0 -61 43 -90q23 -15 51 -15z" glyph-name="at" horiz-adv-x="919" unicode="@"/>
<glyph d="M141 155l-46 -128q-14 -32 -43 -33q-33 0 -40 26q-2 6 -2 11q0 9 12 44l221 589q20 53 63 54q44 -1 63 -54l221 -589q12 -36 12 -44q0 -28 -29 -36q-7 -1 -13 -1q-31 1 -43 33l-46 128h-330zM444 231l-137 385h-2l-137 -385h276z" glyph-name="A" horiz-adv-x="612" unicode="A"/>
<glyph d="M146 636v-225h100q77 0 106 61q12 25 12 54q0 81 -68 103q-22 7 -47 7h-103zM146 339v-263h124q86 0 127 59q22 32 22 73q0 75 -62 111q-36 20 -83 20h-128zM58 48v616q6 45 47 48h155q109 0 163 -78q29 -43 29 -92q0 -89 -59 -135q-19 -14 -40 -21v-2q80 -8 125 -77 q29 -45 29 -99q0 -101 -77 -160q-63 -48 -156 -48h-169q-44 5 -47 48z" glyph-name="B" horiz-adv-x="537" unicode="B"/>
<glyph d="M125 356q0 -129 65 -212q60 -73 153 -74q67 0 140 42q38 22 51 22q29 0 34 -31q1 -5 1 -10q0 -35 -64 -65q-71 -34 -162 -34q-159 0 -246 129q-66 99 -66 233q0 156 86 258q88 103 231 104q108 0 174 -55q31 -27 32 -49q0 -33 -26 -40q-5 -2 -10 -2q-15 0 -45 25 q-51 41 -110 45h-15q-129 0 -188 -123q-35 -73 -35 -163z" glyph-name="C" horiz-adv-x="593" unicode="C"/>
<glyph d="M63 48v616q6 45 47 48h173q172 0 258 -133q58 -92 58 -219q0 -188 -105 -287q-80 -73 -199 -73h-185q-44 5 -47 48zM151 636v-560h126q148 0 203 138q25 64 25 146q0 159 -91 231q-58 45 -143 45h-120z" glyph-name="D" horiz-adv-x="630" unicode="D"/>
<glyph d="M146 315v-233h212q41 -4 43 -41q-3 -39 -43 -41h-253q-44 5 -47 48v616q6 45 47 48h253q41 -4 43 -41q-3 -39 -43 -41h-212v-233h193q41 -4 43 -41q-3 -39 -43 -41h-193z" glyph-name="E" horiz-adv-x="444" unicode="E"/>
<glyph d="M146 315v-274q0 -40 -34 -46q-5 -1 -10 -1q-37 0 -43 36q-1 6 -1 11v623q6 45 47 48h250q41 -4 43 -41q-3 -39 -43 -41h-209v-233h185q41 -4 43 -41q-3 -39 -43 -41h-185z" glyph-name="F" horiz-adv-x="407" unicode="F"/>
<glyph d="M559 326h-124q-41 4 -43 41q3 39 43 41h148q50 0 60 -36q4 -15 4 -36q0 -279 -206 -331q-45 -11 -98 -11q-157 0 -245 128q-67 99 -67 234q0 162 90 263q88 99 235 99q122 0 202 -59q41 -31 42 -55q0 -30 -27 -40q-8 -2 -15 -2q-16 0 -54 27q-64 46 -128 52q-13 1 -26 1 q-131 0 -191 -125q-34 -71 -34 -161q0 -139 71 -219q61 -67 158 -67q112 0 170 93q35 56 35 121v42z" glyph-name="G" horiz-adv-x="667" unicode="G"/>
<glyph d="M146 319v-272q-3 -51 -44 -53q-41 6 -44 53v618q3 51 44 53q41 -6 44 -53v-270h375v270q3 51 44 53q41 -6 44 -53v-618q-3 -51 -44 -53q-41 6 -44 53v272h-375z" glyph-name="H" horiz-adv-x="667" unicode="H"/>
<glyph d="M146 671v-630q0 -40 -34 -46q-5 -1 -10 -1q-37 0 -43 36q-1 6 -1 11v630q0 40 34 46q5 1 10 1q37 0 43 -36q1 -6 1 -11z" glyph-name="I" unicode="I"/>
<glyph d="M224 172v499q0 40 34 46q5 1 10 1q37 0 43 -36q1 -6 1 -11v-490q-2 -186 -173 -187q-55 0 -105 28q-40 23 -41 52q0 31 27 36q4 1 8 1q17 0 42 -18q33 -23 76 -23q77 2 78 102z" glyph-name="J" horiz-adv-x="370" unicode="J"/>
<glyph d="M146 339v-298q0 -40 -34 -46q-5 -1 -10 -1q-37 0 -43 36q-1 6 -1 11v630q0 40 34 46q5 1 10 1q37 0 43 -36q1 -6 1 -11v-260l305 279q30 27 48 28q30 0 37 -28q1 -5 1 -10q-1 -24 -18 -40l-292 -263l319 -308q18 -17 18 -36q0 -25 -26 -36q-9 -3 -17 -3q-24 1 -43 19z " glyph-name="K" horiz-adv-x="574" unicode="K"/>
<glyph d="M146 671v-589h188q41 -4 43 -41q-3 -39 -43 -41h-229q-44 5 -47 48v623q0 40 34 46q5 1 10 1q37 0 43 -36q1 -6 1 -11z" glyph-name="L" horiz-adv-x="389" unicode="L"/>
<glyph d="M200 604l-83 -572q-6 -37 -47 -38q-38 5 -41 45q0 13 5 40l97 572q13 66 69 67q48 0 63 -41q0 -3 1 -5l152 -521h2l152 521q18 44 64 46q56 0 69 -65v-2l97 -572q5 -28 5 -40q-5 -42 -41 -45q-41 2 -47 38l-83 572h-2l-170 -574q-12 -35 -45 -36q-34 2 -45 36l-170 574 h-2z" glyph-name="M" horiz-adv-x="834" unicode="M"/>
<glyph d="M146 557v-516q0 -40 -34 -46q-5 -1 -10 -1q-37 0 -43 36q-1 6 -1 11v625q2 51 40 52q27 0 48 -27q7 -8 14 -19l360 -517h2v516q0 40 34 46q5 1 10 1q37 0 43 -36q1 -6 1 -11v-625q-2 -51 -40 -52q-27 0 -48 27q-7 8 -14 19l-360 517h-2z" glyph-name="N" horiz-adv-x="668" unicode="N"/>
<glyph d="M125 356q0 -145 72 -224q57 -62 146 -62q135 0 190 132q28 68 28 154q0 145 -72 224q-57 62 -146 62q-135 0 -190 -132q-28 -68 -28 -154zM31 356q0 153 84 256q88 105 228 106q155 0 242 -125q70 -101 70 -237q0 -153 -84 -256q-88 -105 -228 -106q-155 0 -242 125 q-70 101 -70 237z" glyph-name="O" horiz-adv-x="686" unicode="O"/>
<glyph d="M146 266v-225q0 -40 -34 -46q-5 -1 -10 -1q-37 0 -43 36q-1 6 -1 11v623q6 45 47 48h174q123 0 188 -87q43 -59 43 -137q0 -103 -77 -169q-65 -53 -151 -53h-136zM146 636v-294h130q81 0 123 64q23 37 23 82q0 82 -58 123q-38 25 -92 25h-126z" glyph-name="P" horiz-adv-x="519" unicode="P"/>
<glyph d="M485 127l-59 58q-18 19 -18 33q0 29 26 38q7 2 13 2q18 -1 33 -16l49 -48q32 70 32 162q0 145 -72 224q-57 62 -146 62q-135 0 -190 -132q-28 -68 -28 -154q0 -145 72 -224q57 -62 146 -62q87 1 142 57zM612 2l-70 69q-81 -77 -199 -77q-155 0 -242 125q-70 101 -70 237 q0 153 84 256q88 105 228 106q155 0 242 -125q70 -101 70 -237q-1 -128 -62 -225l74 -73q17 -18 17 -35q0 -26 -25 -35q-7 -2 -13 -2q-18 1 -34 16z" glyph-name="Q" horiz-adv-x="685" unicode="Q"/>
<glyph d="M146 312v-271q0 -40 -34 -46q-5 -1 -10 -1q-37 0 -43 36q-1 6 -1 11v623q6 45 47 48h163q99 0 164 -64q54 -54 54 -128q0 -158 -134 -193q-28 -8 -60 -9l-38 -1l227 -249q17 -19 17 -40q0 -24 -26 -32q-7 -2 -14 -2q-22 1 -40 20zM146 636v-253h120q104 0 125 75 q7 24 7 56q0 65 -55 100q-34 22 -79 22h-118z" glyph-name="R" horiz-adv-x="519" unicode="R"/>
<glyph d="M238 718q90 0 145 -38q29 -22 30 -45q0 -27 -24 -36q-7 -3 -14 -3q-15 0 -46 20q-43 26 -94 26q-69 0 -99 -50q-14 -23 -14 -51q0 -58 71 -93q9 -4 104 -39q102 -38 136 -91q27 -42 27 -99q0 -105 -76 -169q-66 -56 -165 -56t-161 38q-36 22 -37 48q0 38 29 44q4 1 8 1 q10 0 49 -22q58 -33 113 -33q85 0 125 67q21 35 21 78q0 65 -75 101q-11 5 -105 39q-98 36 -132 86q-26 39 -26 94q0 70 59 126q61 57 151 57z" glyph-name="S" horiz-adv-x="481" unicode="S"/>
<glyph d="M178 41v589h-133q-41 4 -43 41q3 39 43 41h354q41 -4 43 -41q-3 -39 -43 -41h-133v-589q0 -40 -34 -46q-5 -1 -10 -1q-37 0 -43 36q-1 6 -1 11z" glyph-name="T" horiz-adv-x="444" unicode="T"/>
<glyph d="M58 282v389q0 40 34 46q5 1 10 1q37 0 43 -36q1 -6 1 -11v-423q0 -110 86 -155q45 -23 102 -23q114 0 162 79q26 43 26 99v423q0 40 34 46q5 1 10 1q37 0 43 -36q1 -6 1 -11v-389q0 -236 -192 -279q-39 -9 -84 -9q-198 0 -255 155q-21 57 -21 133z" glyph-name="U" horiz-adv-x="668" unicode="U"/>
<glyph d="M279 142l180 519q15 42 29 51q11 6 25 6q29 0 37 -25q2 -6 2 -11q0 -17 -6 -34l-217 -606q-14 -40 -37 -46q-7 -2 -14 -2q-32 0 -47 37q-2 5 -4 11l-217 606q-6 19 -6 34q0 24 24 33q8 3 15 3q31 0 46 -35q3 -7 8 -22l180 -519h2z" glyph-name="V" horiz-adv-x="556" unicode="V"/>
<glyph d="M208 108l164 575q12 34 45 35q34 -2 45 -35l164 -575h2l93 569q9 40 48 41q31 0 39 -29q1 -6 1 -11q0 -20 -5 -45l-108 -581q-20 -53 -63 -58q-41 0 -57 29q-7 12 -12 29l-146 522h-2l-146 -522q-14 -49 -47 -56q-10 -2 -22 -2q-50 0 -62 52q-1 3 -1 6l-108 581 q-5 27 -5 45q0 31 28 38q6 2 12 2q40 -2 48 -41l93 -569h2z" glyph-name="W" horiz-adv-x="834" unicode="W"/>
<glyph d="M297 313l-204 -291q-21 -28 -44 -28q-26 0 -37 22q-3 8 -3 15q1 16 14 36l223 315l-186 263q-14 20 -14 36q0 27 27 35q6 2 12 2q26 -2 45 -28l167 -244l167 244q21 28 45 28q28 0 37 -24q2 -7 2 -13q-1 -17 -14 -36l-186 -263l223 -315q14 -21 14 -36q0 -24 -25 -34 q-8 -3 -15 -3q-25 2 -44 28z" glyph-name="X" horiz-adv-x="594" unicode="X"/>
<glyph d="M206 41v293l-191 311q-14 23 -14 37q0 28 29 35q6 1 11 1q28 -1 44 -28l165 -269l165 269q17 28 44 28q31 0 38 -25q2 -6 2 -11q-1 -16 -14 -37l-191 -311v-293q0 -40 -34 -46q-5 -1 -10 -1q-37 0 -43 36q-1 6 -1 11z" glyph-name="Y" horiz-adv-x="500" unicode="Y"/>
<glyph d="M41 87l366 549h-323q-39 7 -43 38q0 33 35 37q4 1 8 1h389q37 0 45 -24q1 -4 1 -7q-1 -25 -22 -56l-367 -549h359q39 -7 43 -38q0 -33 -35 -37q-4 -1 -8 -1h-413q-51 1 -52 40q1 22 17 47z" glyph-name="Z" horiz-adv-x="556" unicode="Z"/>
<glyph d="M158 642v-648h34q27 0 36 -25q2 -7 2 -13q0 -27 -25 -36q-7 -2 -13 -2h-69q-44 5 -47 48v704q6 45 47 48h69q27 0 36 -25q2 -7 2 -13q0 -27 -25 -36q-7 -2 -13 -2h-34z" glyph-name="bracketleft" horiz-adv-x="241" unicode="["/>
<glyph d="M307 24l-273 613q-14 31 -14 44q0 31 31 36q4 1 8 1q28 -1 41 -30l273 -613q14 -31 14 -44q0 -31 -31 -36q-4 -1 -8 -1q-28 1 -41 30z" glyph-name="backslash" horiz-adv-x="407" unicode="\"/>
<glyph d="M83 -6v648h-34q-27 0 -36 25q-2 7 -2 13q0 27 25 36q7 2 13 2h69q44 -5 47 -48v-704q-6 -45 -47 -48h-69q-27 0 -36 25q-2 7 -2 13q0 27 25 36q7 2 13 2h34z" glyph-name="bracketright" horiz-adv-x="241" unicode="]"/>
<glyph d="M300 630l-157 -291q-22 -40 -34 -46q-7 -4 -16 -4q-29 0 -36 24q-1 5 -1 9q0 13 17 43l175 312q28 38 52 41q28 0 50 -37l2 -4l175 -312q17 -32 17 -43q0 -25 -26 -32q-6 -1 -11 -1q-20 0 -36 26q-4 6 -14 24z" glyph-name="asciicircum" horiz-adv-x="600" unicode="^"/>
<glyph d="M500 -125h-500q-26 3 -29 25q5 22 29 25h500q26 -3 29 -25q-5 -22 -29 -25z" glyph-name="underscore" horiz-adv-x="500" unicode="_"/>
<glyph d="M141 616l-115 47q-34 14 -35 37q0 25 20 37q9 5 18 5q13 -1 34 -9l115 -47q34 -14 35 -37q0 -25 -20 -37q-9 -5 -18 -5q-13 1 -34 9z" glyph-name="grave" unicode="`"/>
<glyph d="M498 495v-458q0 -34 -31 -42q-6 -1 -10 -1q-29 0 -38 26q-3 8 -3 17v37h-2q-57 -79 -145 -80q-121 0 -187 103q-47 73 -47 169q0 124 73 203q64 69 161 69q81 -1 145 -71h2v28q0 35 32 42q5 1 9 1q27 0 37 -24q4 -9 4 -19zM123 266q0 -108 57 -162q36 -34 89 -34 q96 0 131 103q15 43 15 93q0 108 -57 162q-36 34 -89 34q-96 0 -131 -103q-15 -43 -15 -93z" glyph-name="a" horiz-adv-x="556" unicode="a"/>
<glyph d="M141 266q0 -108 57 -162q36 -34 89 -34q96 0 131 103q15 43 15 93q0 108 -57 162q-36 34 -89 34q-96 0 -131 -103q-15 -43 -15 -93zM62 41v684q0 40 34 46q5 1 10 1q37 0 43 -36q1 -6 1 -11v-259h2q40 57 111 69q16 3 31 3q116 0 180 -102q47 -74 47 -170 q0 -124 -71 -203q-63 -69 -156 -69q-104 1 -142 73h-2v-26q0 -40 -34 -46q-5 -1 -10 -1q-37 0 -43 36q-1 6 -1 11z" glyph-name="b" horiz-adv-x="556" unicode="b"/>
<glyph d="M35 266q0 132 77 209q64 63 163 63q100 0 133 -41q10 -13 10 -26q0 -24 -22 -34q-7 -3 -14 -3q-13 0 -46 15q-29 13 -61 13q-94 0 -133 -96q-19 -47 -19 -100q0 -99 54 -155q40 -41 98 -41q37 0 78 21q17 9 28 9q31 -6 34 -37q0 -33 -50 -54q-38 -15 -90 -15 q-136 0 -201 113q-39 69 -39 159z" glyph-name="c" horiz-adv-x="444" unicode="c"/>
<glyph d="M415 266q0 108 -57 162q-36 34 -89 34q-96 0 -131 -103q-15 -43 -15 -93q0 -108 57 -162q36 -34 89 -34q96 0 131 103q15 43 15 93zM406 41v26h-2q-39 -72 -142 -73q-116 0 -180 102q-47 74 -47 170q0 124 71 203q63 69 156 69q83 0 134 -62q5 -6 8 -10h2v259q0 40 34 46 q5 1 10 1q37 0 43 -36q1 -6 1 -11v-684q0 -40 -34 -46q-5 -1 -10 -1q-37 0 -43 36q-1 6 -1 11z" glyph-name="d" horiz-adv-x="556" unicode="d"/>
<glyph d="M445 232h-331q0 -92 66 -136q39 -26 91 -26q76 0 138 48q31 24 42 24q23 0 30 -25q2 -7 2 -14q0 -32 -61 -67q-73 -42 -152 -42q-147 0 -210 120q-34 66 -34 152q0 124 75 203q66 69 164 69q114 0 181 -97q48 -72 48 -162q0 -40 -32 -46q-8 -1 -17 -1zM114 298h292 q0 81 -50 129q-38 35 -91 35q-105 4 -139 -97q-11 -31 -12 -67z" glyph-name="e" horiz-adv-x="520" unicode="e"/>
<glyph d="M174 456v-415q0 -40 -34 -46q-5 -1 -10 -1q-37 0 -43 36q-1 6 -1 11v415h-36q-43 2 -44 38q2 37 44 38h36v125q0 80 66 106q24 9 51 9h27q33 0 46 -23q4 -7 4 -15q-2 -37 -48 -38h-22q-35 -2 -36 -35v-129h55q43 -2 44 -38q-2 -37 -44 -38h-55z" glyph-name="f" horiz-adv-x="259" unicode="f"/>
<glyph d="M494 495v-457q0 -146 -98 -213q-59 -41 -142 -41t-155 41q-48 29 -49 56q0 34 28 40q5 1 9 1q15 0 57 -25q61 -37 117 -37q108 0 137 102q8 29 8 62v46h-2q-42 -71 -124 -76h-11q-121 0 -187 103q-47 73 -47 169q0 124 73 203q64 69 161 69q65 0 117 -47q11 -10 18 -20h2 v24q0 37 38 42q5 1 9 1q27 0 37 -24q4 -9 4 -19zM123 266q0 -108 57 -162q36 -34 89 -34q96 0 131 103q15 43 15 93q0 108 -57 162q-36 34 -89 34q-96 0 -131 -103q-15 -43 -15 -93z" glyph-name="g" horiz-adv-x="556" unicode="g"/>
<glyph d="M392 41v290q0 89 -70 120q-25 11 -53 11q-67 0 -101 -51q-22 -34 -22 -80v-290q0 -40 -34 -46q-5 -1 -10 -1q-37 0 -43 36q-1 6 -1 11v684q0 40 34 46q5 1 10 1q37 0 43 -36q1 -6 1 -11v-255l2 -2q55 70 147 70q88 0 140 -62q45 -54 45 -140v-295q0 -40 -34 -46 q-5 -1 -10 -1q-37 0 -43 36q-1 6 -1 11z" glyph-name="h" horiz-adv-x="538" unicode="h"/>
<glyph d="M146 491v-450q0 -40 -34 -46q-5 -1 -10 -1q-37 0 -43 36q-1 6 -1 11v450q0 40 34 46q5 1 10 1q37 0 43 -36q1 -6 1 -11zM48 664q0 34 31 49q11 5 23 5q34 0 49 -31q5 -11 5 -23q0 -34 -31 -49q-11 -5 -23 -5q-34 0 -49 31q-5 11 -5 23z" glyph-name="i" unicode="i"/>
<glyph d="M146 491v-660q0 -40 -34 -46q-5 -1 -10 -1q-37 0 -43 36q-1 6 -1 11v660q0 40 34 46q5 1 10 1q37 0 43 -36q1 -6 1 -11zM48 664q0 34 31 49q11 5 23 5q34 0 49 -31q5 -11 5 -23q0 -34 -31 -49q-11 -5 -23 -5q-34 0 -49 31q-5 11 -5 23z" glyph-name="j" unicode="j"/>
<glyph d="M58 41v684q0 40 34 46q5 1 10 1q37 0 43 -36q1 -6 1 -11v-375l192 161q31 26 50 27q30 0 36 -29q1 -5 1 -10q-1 -22 -22 -38l-200 -158l232 -229q21 -22 21 -45q0 -25 -25 -33q-6 -2 -12 -2q-23 0 -44 20l-7 7l-222 232v-212q0 -40 -34 -46q-5 -1 -10 -1q-37 0 -43 36 q-1 6 -1 11z" glyph-name="k" horiz-adv-x="463" unicode="k"/>
<glyph d="M146 725v-684q0 -40 -34 -46q-5 -1 -10 -1q-37 0 -43 36q-1 6 -1 11v684q0 40 34 46q5 1 10 1q37 0 43 -36q1 -6 1 -11z" glyph-name="l" unicode="l"/>
<glyph d="M373 41v298q0 89 -67 115q-22 8 -47 8q-80 0 -105 -70q-8 -24 -8 -53v-298q0 -40 -34 -46q-5 -1 -10 -1q-37 0 -43 36q-1 6 -1 11v450q0 40 34 46q5 1 10 1q37 0 43 -36q1 -6 1 -11v-16l2 -2q40 51 95 62q19 3 39 3q93 -1 146 -90q58 83 146 89q9 1 17 1q88 0 140 -62 q45 -54 45 -140v-295q0 -40 -34 -46q-5 -1 -10 -1q-37 0 -43 36q-1 6 -1 11v298q0 89 -67 115q-22 8 -47 8q-80 0 -105 -70q-8 -24 -8 -53v-298q0 -40 -34 -46q-5 -1 -10 -1q-37 0 -43 36q-1 6 -1 11z" glyph-name="m" horiz-adv-x="834" unicode="m"/>
<glyph d="M58 41v450q0 40 34 46q5 1 10 1q37 0 43 -36q1 -6 1 -11v-21l2 -2q55 70 147 70q88 0 140 -62q45 -54 45 -140v-295q0 -40 -34 -46q-5 -1 -10 -1q-37 0 -43 36q-1 6 -1 11v290q0 89 -70 120q-25 11 -53 11q-67 0 -101 -51q-22 -34 -22 -80v-290q0 -40 -34 -46 q-5 -1 -10 -1q-37 0 -43 36q-1 6 -1 11z" glyph-name="n" horiz-adv-x="538" unicode="n"/>
<glyph d="M35 266q0 124 73 203q64 69 161 69q121 0 187 -103q47 -73 47 -169q0 -124 -73 -203q-64 -69 -161 -69q-121 0 -187 103q-47 73 -47 169zM123 266q0 -108 57 -162q36 -34 89 -34q96 0 131 103q15 43 15 93q0 108 -57 162q-36 34 -89 34q-96 0 -131 -103q-15 -43 -15 -93z " glyph-name="o" horiz-adv-x="538" unicode="o"/>
<glyph d="M141 266q0 -108 57 -162q36 -34 89 -34q96 0 131 103q15 43 15 93q0 108 -57 162q-36 34 -89 34q-96 0 -131 -103q-15 -43 -15 -93zM62 -169v660q0 40 34 46q5 1 10 1q37 0 43 -36q1 -6 1 -11v-26h2q39 72 142 73q116 0 180 -102q47 -74 47 -170q0 -124 -71 -203 q-63 -69 -156 -69q-83 0 -134 62q-5 6 -8 10h-2v-235q0 -40 -34 -46q-5 -1 -10 -1q-37 0 -43 36q-1 6 -1 11z" glyph-name="p" horiz-adv-x="556" unicode="p"/>
<glyph d="M415 266q0 108 -57 162q-36 34 -89 34q-96 0 -131 -103q-15 -43 -15 -93q0 -108 57 -162q36 -34 89 -34q96 0 131 103q15 43 15 93zM35 266q0 124 71 203q63 69 156 69q104 -1 142 -73h2v26q0 40 34 46q5 1 10 1q37 0 43 -36q1 -6 1 -11v-660q0 -40 -34 -46q-5 -1 -10 -1 q-37 0 -43 36q-1 6 -1 11v235h-2q-40 -57 -111 -69q-16 -3 -31 -3q-116 0 -180 102q-47 74 -47 170z" glyph-name="q" horiz-adv-x="556" unicode="q"/>
<glyph d="M58 41v450q0 40 34 46q5 1 10 1q37 0 43 -36q1 -6 1 -11v-45h2q25 51 72 78q25 14 48 14q38 0 47 -32q2 -7 2 -13q-2 -37 -55 -48q-76 -13 -104 -82q-12 -31 -12 -69v-253q0 -40 -34 -46q-5 -1 -10 -1q-37 0 -43 36q-1 6 -1 11z" glyph-name="r" horiz-adv-x="315" unicode="r"/>
<glyph d="M46 388q0 84 81 126q46 24 100 24q74 0 133 -36q43 -27 44 -58q0 -29 -29 -35q-6 -1 -11 -1q-15 0 -44 22q-44 32 -93 32q-68 0 -87 -41q-6 -13 -6 -26q0 -35 64 -64q16 -8 51 -21q98 -38 132 -69q37 -36 37 -83q0 -99 -90 -142q-47 -22 -104 -22q-101 0 -165 49 q-34 26 -35 52q0 30 25 38q6 2 11 2q15 0 51 -25q59 -40 116 -40q66 0 93 41q10 16 10 31q0 41 -70 75q-16 8 -53 24q-96 40 -128 71q-33 33 -33 76z" glyph-name="s" horiz-adv-x="444" unicode="s"/>
<glyph d="M86 532v115q0 40 34 46q5 1 10 1q37 0 43 -36q1 -6 1 -11v-115h36q43 -2 44 -38q-2 -37 -44 -38h-36v-415q0 -40 -34 -46q-5 -1 -10 -1q-37 0 -43 36q-1 6 -1 11v415h-36q-43 2 -44 38q2 37 44 38h36z" glyph-name="t" horiz-adv-x="260" unicode="t"/>
<glyph d="M58 206v285q0 40 34 46q5 1 10 1q37 0 43 -36q1 -6 1 -11v-282q2 -138 123 -139q122 2 123 139v282q0 40 34 46q5 1 10 1q37 0 43 -36q1 -6 1 -11v-285q0 -148 -116 -195q-43 -17 -95 -17q-122 0 -177 83q-34 52 -34 129z" glyph-name="u" horiz-adv-x="538" unicode="u"/>
<glyph d="M167 32l-153 429q-9 24 -9 36q0 31 28 39q6 2 12 2q33 0 45 -31q1 -2 1 -3l121 -368h2l121 368q18 31 46 34q29 0 38 -27q2 -7 2 -14q0 -13 -9 -36l-153 -429q-11 -31 -30 -36q-8 -2 -16 -2q-30 0 -41 26q-3 5 -5 12z" glyph-name="v" horiz-adv-x="426" unicode="v"/>
<glyph d="M155 40l-146 425q-7 23 -7 34q0 27 25 36q8 3 17 3q34 0 48 -43q1 -1 1 -2l113 -363h2l111 350q14 44 29 53q10 5 23 5q29 0 42 -31q4 -10 10 -27l111 -350h2l113 363q15 44 49 45q34 0 41 -30q1 -5 1 -9q0 -12 -7 -34l-146 -425q-14 -41 -41 -45q-5 -1 -10 -1 q-34 0 -49 42q-1 2 -1 4l-114 359h-2l-114 -359q-17 -45 -50 -46q-32 0 -47 37q-2 5 -4 9z" glyph-name="w" horiz-adv-x="742" unicode="w"/>
<glyph d="M24 76l157 206l-138 181q-15 19 -15 35q0 29 25 38q6 2 12 2q22 -1 38 -20l129 -172l129 172q17 20 38 20q26 0 35 -26q2 -7 2 -14q-1 -17 -15 -35l-138 -181l157 -206q18 -25 18 -42q0 -28 -26 -37q-7 -3 -14 -3q-25 1 -39 20l-147 204l-147 -204q-15 -19 -39 -20 q-28 0 -38 26q-2 7 -2 14q1 18 18 42z" glyph-name="x" horiz-adv-x="464" unicode="x"/>
<glyph d="M179 19l-150 433q-12 36 -12 49q0 26 27 35q7 2 13 2q33 -1 44 -33l122 -365h2l120 365q12 32 42 33q27 0 37 -23q3 -7 3 -14q-1 -15 -12 -49l-222 -635q-13 -32 -43 -33q-27 0 -37 23q-3 7 -3 14q1 15 13 49z" glyph-name="y" horiz-adv-x="444" unicode="y"/>
<glyph d="M141 76h239q43 -2 44 -38q-2 -37 -44 -38h-317q-42 1 -43 31q1 20 18 45l254 380h-218q-43 2 -44 38q2 37 44 38h296q42 -1 43 -31q-1 -20 -18 -45l-257 -378z" glyph-name="z" horiz-adv-x="444" unicode="z"/>
<glyph d="M76 26v122q0 82 -13 105q-12 20 -34 27q-37 11 -42 26q-2 6 -2 12q0 23 29 34q7 2 15 4q39 10 45 68q2 20 2 64v122q2 107 102 108h38q39 -1 40 -30q-2 -29 -40 -30h-14q-35 0 -43 -34q-1 -7 -1 -14v-158q-1 -122 -91 -133v-2q90 -13 91 -133v-158q0 -40 33 -47 q6 -1 11 -1h14q39 -1 40 -30q-2 -29 -40 -30h-38q-101 2 -102 108z" glyph-name="braceleft" horiz-adv-x="241" unicode="{"/>
<glyph d="M70 -250v1000q4 41 41 43q39 -3 41 -43v-1000q-4 -41 -41 -43q-39 3 -41 43z" glyph-name="bar" horiz-adv-x="222" unicode="|"/>
<glyph d="M165 610v-122q0 -82 13 -105q12 -20 34 -27q37 -11 42 -26q2 -6 2 -12q0 -23 -29 -34q-7 -2 -15 -4q-39 -10 -45 -68q-2 -20 -2 -64v-122q-2 -107 -102 -108h-38q-39 1 -40 30q2 29 40 30h14q35 0 43 34q1 7 1 14v158q1 122 91 133v2q-90 13 -91 133v158q0 40 -33 47 q-6 1 -11 1h-14q-39 1 -40 30q2 29 40 30h38q101 -2 102 -108z" glyph-name="braceright" horiz-adv-x="241" unicode="}"/>
<glyph d="M64 210q0 48 51 87q39 28 79 28q49 0 118 -34q68 -34 91 -34q21 0 44 30q23 31 39 36q8 2 15 2q26 -1 34 -22q1 -4 1 -7q0 -48 -51 -87q-39 -28 -79 -28q-49 0 -118 34q-68 34 -91 34q-21 0 -44 -30q-23 -31 -39 -36q-8 -2 -15 -2q-26 1 -34 22q-1 4 -1 7z" glyph-name="asciitilde" horiz-adv-x="600" unicode="~"/>
<glyph glyph-name="uni00A0" horiz-adv-x="244" unicode=" "/>
<glyph d="M192 294v-433q0 -40 -34 -46q-5 -1 -10 -1q-37 0 -43 36q-1 6 -1 11v433q0 40 34 46q5 1 10 1q37 0 43 -36q1 -6 1 -11zM199 487q0 -32 -29 -46q-11 -5 -22 -5q-32 0 -46 29q-5 11 -5 22q0 32 29 46q11 5 22 5q32 0 46 -29q5 -11 5 -22z" glyph-name="exclamdown" horiz-adv-x="296" unicode="¡"/>
<glyph d="M227 -60v59q-117 21 -166 135q-26 60 -26 132q0 132 76 209q48 47 116 59v58q2 20 21 21q20 -2 21 -21v-54q108 0 140 -43q9 -12 9 -24q0 -24 -22 -34q-7 -3 -14 -3q-13 0 -46 15q-31 13 -67 13v-392q41 0 84 22q18 8 28 8q31 -6 34 -37q0 -34 -52 -54q-39 -15 -94 -15 v-54q-2 -20 -21 -21q-20 2 -21 21zM227 79v375q-76 -28 -98 -128q-6 -30 -6 -60q0 -100 55 -155q22 -22 49 -32z" glyph-name="cent" horiz-adv-x="444" unicode="¢"/>
<glyph d="M242 398h129q41 -4 43 -41q-3 -39 -43 -41h-109q7 -40 7 -66q0 -62 -50 -129q-17 -22 -36 -39h337q41 -4 43 -41q-3 -39 -43 -41h-400q-52 2 -53 42q0 16 35 53q54 56 69 98q10 28 10 58q0 40 -7 65h-101q-41 4 -43 41q3 39 43 41h77q-47 90 -49 143q0 86 81 139 q60 38 135 38q93 0 167 -66q61 -55 62 -111q0 -37 -34 -42q-4 -1 -8 -1q-25 0 -43 35q-25 47 -32 56q-37 47 -111 47q-73 0 -109 -44q-20 -25 -20 -57q0 -42 37 -108q12 -21 16 -29z" glyph-name="sterling" horiz-adv-x="593" unicode="£"/>
<glyph d="M35 172l34 35q-49 56 -49 149q1 94 49 149l-34 35q-14 14 -14 28q0 23 23 33q6 3 11 3q10 -1 21 -11l42 -43q58 54 150 54q93 -1 150 -54l42 43q11 10 21 11q17 0 29 -19q5 -9 5 -17q-1 -14 -14 -28l-34 -35q49 -56 49 -149q-1 -94 -49 -149l34 -35q14 -14 14 -28 q0 -23 -23 -33q-6 -3 -11 -3q-10 1 -21 11l-42 43q-58 -54 -150 -54q-93 1 -150 54l-42 -43q-11 -10 -21 -11q-17 0 -29 19q-5 9 -5 17q1 14 14 28zM102 356q0 -90 68 -140q44 -32 98 -32q80 0 129 62q37 47 37 110q0 90 -68 140q-44 32 -98 32q-80 0 -129 -62 q-37 -47 -37 -110z" glyph-name="currency" horiz-adv-x="536" unicode="¤"/>
<glyph d="M224 261v71h-137q-37 5 -41 33q7 30 41 33h96l-160 247q-15 23 -15 40q0 22 24 31q6 2 11 2q28 -1 46 -28l179 -269l179 269q19 27 46 28q21 0 32 -19q3 -8 3 -14q-1 -18 -15 -40l-160 -247h96q37 -5 41 -33q-7 -30 -41 -33h-137v-71h137q37 -5 41 -33q-7 -30 -41 -33 h-137v-154q0 -38 -33 -46q-6 -1 -11 -1q-35 0 -42 33q-2 7 -2 14v154h-137q-37 5 -41 33q7 30 41 33h137z" glyph-name="yen" horiz-adv-x="536" unicode="¥"/>
<glyph d="M70 368v264q4 41 41 43q39 -3 41 -43v-264q-4 -41 -41 -43q-39 3 -41 43zM70 -132v264q4 41 41 43q39 -3 41 -43v-264q-4 -41 -41 -43q-39 3 -41 43z" glyph-name="brokenbar" horiz-adv-x="222" unicode="¦"/>
<glyph d="M85 554q0 98 92 141q51 23 119 23q100 0 164 -64q40 -42 41 -87q0 -35 -27 -44q-7 -2 -13 -2q-25 0 -43 32q-23 43 -31 52q-33 37 -97 37q-76 0 -105 -44q-12 -18 -12 -40q0 -48 75 -87q20 -10 68 -31q110 -48 152 -85q60 -54 60 -129q0 -77 -66 -137q-20 -19 -43 -32 q64 -45 65 -118q0 -80 -85 -126q-58 -29 -125 -29q-123 2 -192 76q-33 37 -34 68q2 49 44 50q26 0 45 -32q25 -42 36 -53q36 -33 99 -33q88 0 116 49q8 15 8 31q0 47 -78 87q-21 10 -71 31q-115 49 -158 86q-60 53 -61 126q0 97 90 153q15 9 32 18q-54 40 -62 83 q-3 14 -3 30zM116 277q0 -52 71 -95q22 -14 53 -29l114 -56q77 58 85 108q1 9 1 18q0 51 -34 80q-21 18 -55 34l-125 58q-86 -37 -104 -84q-6 -16 -6 -34z" glyph-name="section" horiz-adv-x="556" unicode="§"/>
<glyph d="M-45 658q0 34 31 49q11 5 23 5q34 0 49 -31q5 -11 5 -23q0 -34 -31 -49q-11 -5 -23 -5q-34 0 -49 31q-5 11 -5 23zM141 658q0 34 31 49q11 5 23 5q34 0 49 -31q5 -11 5 -23q0 -34 -31 -49q-11 -5 -23 -5q-34 0 -49 31q-5 11 -5 23z" glyph-name="dieresis" unicode="¨"/>
<glyph d="M272 358q0 -82 53 -127q34 -28 77 -28q62 0 98 48q24 33 27 35q11 9 22 9q29 -4 32 -28q0 -31 -37 -70q-57 -59 -142 -60q-109 0 -169 83q-43 59 -43 138q0 116 79 178q55 43 133 43q103 0 156 -72q23 -31 23 -55q-5 -25 -33 -28q-22 0 -42 28q-24 35 -41 46 q-26 15 -63 15q-86 0 -117 -80q-13 -34 -13 -75zM400 -6q-146 0 -251 101q-103 99 -110 241q-1 11 -1 20q0 146 101 251q99 103 241 110q11 1 20 1q146 0 251 -101q103 -99 110 -241q1 -11 1 -20q0 -146 -101 -251q-99 -103 -241 -110q-11 -1 -20 -1zM400 70q116 0 199 86 q81 84 81 200q0 121 -86 205q-83 81 -194 81q-116 0 -199 -86q-81 -84 -81 -200q0 -121 86 -205q83 -81 194 -81z" glyph-name="copyright" horiz-adv-x="800" unicode="©"/>
<glyph d="M332 692v-275q-3 -24 -33 -26q-30 3 -33 26v16h-2q-32 -42 -83 -42q-86 0 -128 71q-24 41 -24 93q0 89 62 135q39 28 90 28q53 -1 83 -42h2v16q3 24 33 26q30 -3 33 -26zM184 451q50 0 73 52q10 25 10 52q0 60 -40 89q-20 14 -43 14q-50 0 -73 -53q-10 -24 -10 -50 q0 -62 41 -91q19 -13 42 -13z" glyph-name="ordfeminine" horiz-adv-x="361" unicode="ª"/>
<glyph d="M196 268l99 178q16 25 34 26q30 0 38 -24q2 -6 2 -11q-1 -13 -11 -31l-83 -138l83 -138q11 -19 11 -31q0 -28 -30 -34q-5 -1 -10 -1q-20 1 -34 26zM38 268l99 178q16 25 34 26q30 0 38 -24q2 -6 2 -11q-1 -13 -11 -31l-83 -138l83 -138q11 -19 11 -31q0 -28 -30 -34 q-5 -1 -10 -1q-20 1 -34 26z" glyph-name="guillemotleft" horiz-adv-x="407" unicode="«"/>
<glyph d="M471 316h-381q-41 4 -43 41q3 39 43 41h422q39 -3 41 -43v-204q-4 -41 -41 -43q-39 3 -41 43v165z" glyph-name="logicalnot" horiz-adv-x="600" unicode="¬"/>
<glyph d="M279 230h-206q-27 0 -36 25q-2 7 -2 13q0 27 25 36q7 2 13 2h206q27 0 36 -25q2 -7 2 -13q0 -27 -25 -36q-7 -2 -13 -2z" glyph-name="uni00AD" horiz-adv-x="352" unicode="­"/>
<glyph d="M190 519h-32v-71q-2 -15 -16 -16q-16 2 -17 16v179q2 10 12 11h66q65 0 73 -42q2 -9 2 -18q-1 -51 -51 -57l44 -68q4 -8 5 -13q-1 -7 -18 -8q-13 1 -20 11zM158 549h38q41 0 47 19q2 7 2 13q-3 27 -46 27h-41v-59zM200 356q-86 0 -140 66q-41 51 -41 115q0 86 66 140 q51 41 115 41q86 0 140 -66q41 -51 41 -115q0 -86 -66 -140q-51 -41 -115 -41zM200 394q68 0 111 56q29 39 29 87q0 71 -57 115q-38 28 -83 28q-68 0 -111 -56q-29 -39 -29 -87q0 -71 57 -115q38 -28 83 -28z" glyph-name="registered" horiz-adv-x="400" unicode="®"/>
<glyph d="M1 689h202q41 -4 43 -41q-3 -39 -43 -41h-202q-41 4 -43 41q3 39 43 41z" glyph-name="macron" unicode="¯"/>
<glyph d="M57 575q0 72 58 115q38 28 85 28q72 0 115 -58q28 -38 28 -85q0 -72 -58 -115q-38 -28 -85 -28q-72 0 -115 58q-28 38 -28 85zM111 575q0 -50 42 -76q22 -13 47 -13q50 0 76 42q13 22 13 47q0 50 -42 76q-22 13 -47 13q-50 0 -76 -42q-13 -22 -13 -47z" glyph-name="degree" horiz-adv-x="400" unicode="°"/>
<glyph d="M259 353v110q4 41 41 43q39 -3 41 -43v-110h169q41 -4 43 -41q-3 -39 -43 -41h-169v-110q-4 -41 -41 -43q-39 3 -41 43v110h-169q-41 4 -43 41q3 39 43 41h169zM510 0h-420q-41 4 -43 41q3 39 43 41h420q41 -4 43 -41q-3 -39 -43 -41z" glyph-name="plusminus" horiz-adv-x="600" unicode="±"/>
<glyph d="M131 351h148q37 -2 38 -30q-2 -29 -38 -30h-218q-28 2 -30 21q1 9 12 23l171 217q25 33 26 56q0 37 -41 47q-11 3 -23 3q-49 0 -74 -45q-10 -19 -10 -37q-1 -23 -29 -24q-30 2 -31 33q0 70 57 108q39 25 91 25q91 0 122 -62q10 -22 10 -46q-1 -41 -36 -84z" glyph-name="twosuperior" horiz-adv-x="348" unicode="²"/>
<glyph d="M164 718q86 0 118 -60q12 -23 12 -50q0 -57 -49 -88l-6 -3q64 -19 76 -79q3 -12 3 -24q0 -75 -70 -110q-38 -19 -85 -19q-81 0 -118 57q-15 24 -15 48q2 31 28 32q17 0 28 -23q1 -1 1 -2q22 -48 71 -52h10q45 0 68 38q10 18 10 38q-2 62 -67 63q-44 3 -46 25q0 21 24 27 l6 2q52 12 58 53q1 7 1 14q0 33 -33 47q-13 6 -28 6q-50 0 -63 -42q-1 -4 -2 -7q-5 -23 -29 -23q-23 4 -25 28q0 63 56 90q29 14 66 14z" glyph-name="threesuperior" horiz-adv-x="348" unicode="³"/>
<glyph d="M178 663l-115 -47q-22 -9 -34 -9q-27 0 -36 30q-2 7 -2 12q0 22 33 36q1 1 2 1l115 47q22 9 34 9q27 0 36 -30q2 -7 2 -12q0 -22 -33 -36q-1 -1 -2 -1z" glyph-name="acute" unicode="´"/>
<glyph d="M58 -169v660q0 40 34 46q5 1 10 1q37 0 43 -36q1 -6 1 -11v-282q0 -100 52 -126q28 -13 71 -13q88 0 111 58q12 31 12 81v282q0 40 34 46q5 1 10 1q37 0 43 -36q1 -6 1 -11v-450q0 -40 -34 -46q-5 -1 -10 -1q-32 1 -41 29q-49 -29 -126 -29q-81 1 -123 46v-209 q0 -40 -34 -46q-5 -1 -10 -1q-37 0 -43 36q-1 6 -1 11z" glyph-name="mu" horiz-adv-x="538" unicode="µ"/>
<glyph d="M242 -173v517q-120 0 -179 77q-35 47 -35 108q0 108 104 155q62 28 151 28h191q44 -5 47 -48v-837q-4 -41 -41 -43q-39 3 -41 43v819h-115v-819q-4 -41 -41 -43q-39 3 -41 43z" glyph-name="paragraph" horiz-adv-x="600" unicode="¶"/>
<glyph d="M71 303q0 34 31 49q11 5 23 5q34 0 49 -31q5 -11 5 -23q0 -34 -31 -49q-11 -5 -23 -5q-34 0 -49 31q-5 11 -5 23z" glyph-name="periodcentered" horiz-adv-x="250" unicode="·"/>
<glyph d="M183 0l-29 -42q16 3 21 3q45 0 63 -35q6 -11 6 -20q0 -75 -88 -85q-11 -1 -23 -1q-59 0 -71 26q-2 5 -2 9q4 23 21 27q6 0 22 -4q21 -4 30 -4q34 2 35 27q0 16 -23 18h-21q-28 1 -30 19q1 11 10 25l26 37h53z" glyph-name="cedilla" unicode="¸"/>
<glyph d="M87 652h-51q-27 2 -28 30q2 29 28 30h104q18 -2 19 -14v-377q-3 -34 -36 -36q-32 6 -36 36v331z" glyph-name="onesuperior" horiz-adv-x="229" unicode="¹"/>
<glyph d="M23 555q0 89 62 135q39 28 90 28q87 0 129 -72q23 -40 23 -91q0 -91 -64 -137q-38 -27 -88 -27q-86 0 -128 71q-24 41 -24 93zM95 555q0 -61 40 -91q18 -13 40 -13q47 0 69 51q11 25 11 53q0 60 -39 89q-19 14 -41 14q-47 0 -70 -51q-10 -25 -10 -52z" glyph-name="ordmasculine" horiz-adv-x="350" unicode="º"/>
<glyph d="M49 130l83 138l-83 138q-11 19 -11 31q0 28 30 34q5 1 10 1q20 -1 34 -26l99 -178l-99 -178q-16 -25 -34 -26q-30 0 -38 24q-2 6 -2 11q1 13 11 31zM207 130l83 138l-83 138q-11 19 -11 31q0 28 30 34q5 1 10 1q20 -1 34 -26l99 -178l-99 -178q-16 -25 -34 -26 q-30 0 -38 24q-2 6 -2 11q1 13 11 31z" glyph-name="guillemotright" horiz-adv-x="407" unicode="»"/>
<glyph d="M202 58l266 638q14 29 35 30q29 0 34 -22q1 -3 1 -5q-1 -14 -14 -45l-266 -638q-14 -29 -37 -30q-28 5 -33 27q1 12 14 45zM115 652h-51q-27 2 -28 30q2 29 28 30h104q18 -2 19 -14v-377q-3 -34 -36 -36q-32 6 -36 36v331zM646 97h-178q-21 3 -23 24q1 14 14 35l159 239 q21 31 50 32q49 -2 50 -44v-226h24q22 0 26 -23q1 -4 1 -7q0 -25 -21 -29q-3 -1 -6 -1h-24v-72q-2 -30 -36 -31q-35 2 -36 31v72zM528 157h118v198h-2z" glyph-name="onequarter" horiz-adv-x="805" unicode="¼"/>
<glyph d="M187 58l266 638q14 29 35 30q29 0 34 -22q1 -3 1 -5q-1 -14 -14 -45l-266 -638q-14 -29 -37 -30q-28 5 -33 27q1 12 14 45zM130 652h-51q-27 2 -28 30q2 29 28 30h104q18 -2 19 -14v-377q-3 -34 -36 -36q-32 6 -36 36v331zM568 60h148q37 -2 38 -30q-2 -29 -38 -30h-218 q-28 2 -30 21q1 9 12 23l171 217q25 33 26 56q0 37 -41 47q-11 3 -23 3q-49 0 -74 -45q-10 -19 -10 -37q-1 -23 -29 -24q-30 2 -31 33q0 70 57 108q39 25 91 25q91 0 122 -62q10 -22 10 -46q-1 -41 -36 -84z" glyph-name="onehalf" horiz-adv-x="805" unicode="½"/>
<glyph d="M259 58l266 638q14 29 35 30q29 0 34 -22q1 -3 1 -5q-1 -14 -14 -45l-266 -638q-14 -29 -37 -30q-28 5 -33 27q1 12 14 45zM173 718q86 0 118 -60q12 -23 12 -50q0 -57 -49 -88l-6 -3q64 -19 76 -79q3 -12 3 -24q0 -75 -70 -110q-38 -19 -85 -19q-81 0 -118 57 q-15 24 -15 48q2 31 28 32q17 0 28 -23q1 -1 1 -2q22 -48 71 -52h10q45 0 68 38q10 18 10 38q-2 62 -67 63q-44 3 -46 25q0 21 24 27l6 2q52 12 58 53q1 7 1 14q0 33 -33 47q-13 6 -28 6q-50 0 -63 -42q-1 -4 -2 -7q-5 -23 -29 -23q-23 4 -25 28q0 63 56 90q29 14 66 14z M643 97h-178q-21 3 -23 24q1 14 14 35l159 239q21 31 50 32q49 -2 50 -44v-226h24q22 0 26 -23q1 -4 1 -7q0 -25 -21 -29q-3 -1 -6 -1h-24v-72q-2 -30 -36 -31q-35 2 -36 31v72zM525 157h118v198h-2z" glyph-name="threequarters" horiz-adv-x="805" unicode="¾"/>
<glyph d="M186 194v100q0 40 34 46q5 1 10 1q37 0 43 -36q1 -6 1 -11v-113q0 -37 -11 -47q-13 -11 -59 -20q-91 -20 -92 -108q0 -71 60 -98q26 -12 56 -12q85 0 114 77q1 3 2 5q13 32 39 33q30 0 40 -28q3 -9 3 -18q-3 -72 -78 -117q-54 -34 -117 -34q-107 0 -169 69 q-44 50 -44 115q0 122 105 174q29 15 63 22zM281 487q0 -32 -29 -46q-11 -5 -22 -5q-32 0 -46 29q-5 11 -5 22q0 32 29 46q11 5 22 5q32 0 46 -29q5 -11 5 -22z" glyph-name="questiondown" horiz-adv-x="444" unicode="¿"/>
<glyph d="M141 155l-46 -128q-14 -32 -43 -33q-33 0 -40 26q-2 6 -2 11q0 9 12 44l221 589q20 53 63 54q44 -1 63 -54l221 -589q12 -36 12 -44q0 -28 -29 -36q-7 -1 -13 -1q-31 1 -43 33l-46 128h-330zM444 231l-137 385h-2l-137 -385h276zM345 776l-115 47q-34 14 -35 37 q0 25 20 37q9 5 18 5q13 -1 34 -9l115 -47q34 -14 35 -37q0 -25 -20 -37q-9 -5 -18 -5q-13 1 -34 9z" glyph-name="Agrave" horiz-adv-x="612" unicode="À"/>
<glyph d="M141 155l-46 -128q-14 -32 -43 -33q-33 0 -40 26q-2 6 -2 11q0 9 12 44l221 589q20 53 63 54q44 -1 63 -54l221 -589q12 -36 12 -44q0 -28 -29 -36q-7 -1 -13 -1q-31 1 -43 33l-46 128h-330zM444 231l-137 385h-2l-137 -385h276zM382 823l-115 -47q-22 -9 -34 -9 q-27 0 -36 30q-2 7 -2 12q0 22 33 36q1 1 2 1l115 47q22 9 34 9q27 0 36 -30q2 -7 2 -12q0 -22 -33 -36q-1 -1 -2 -1z" glyph-name="Aacute" horiz-adv-x="612" unicode="Á"/>
<glyph d="M141 155l-46 -128q-14 -32 -43 -33q-33 0 -40 26q-2 6 -2 11q0 9 12 44l221 589q20 53 63 54q44 -1 63 -54l221 -589q12 -36 12 -44q0 -28 -29 -36q-7 -1 -13 -1q-31 1 -43 33l-46 128h-330zM444 231l-137 385h-2l-137 -385h276zM177 840l129 55l129 -55q22 -11 23 -35 q0 -29 -25 -36q-6 -2 -11 -2q-11 1 -22 5l-94 37l-94 -37q-12 -5 -22 -5q-28 0 -35 27q-1 6 -1 11q1 25 23 35z" glyph-name="Acircumflex" horiz-adv-x="612" unicode="Â"/>
<glyph d="M141 155l-46 -128q-14 -32 -43 -33q-33 0 -40 26q-2 6 -2 11q0 9 12 44l221 589q20 53 63 54q44 -1 63 -54l221 -589q12 -36 12 -44q0 -28 -29 -36q-7 -1 -13 -1q-31 1 -43 33l-46 128h-330zM444 231l-137 385h-2l-137 -385h276zM157 815q0 33 40 52q24 11 53 11 q21 0 71 -14q23 -6 39 -6q13 0 40 14q12 6 22 6q19 0 29 -22q4 -9 4 -17q0 -33 -40 -52q-24 -11 -53 -11q-21 0 -71 14q-23 6 -39 6q-13 0 -40 -14q-12 -6 -22 -6q-19 0 -29 22q-4 9 -4 17z" glyph-name="Atilde" horiz-adv-x="612" unicode="Ã"/>
<glyph d="M141 155l-46 -128q-14 -32 -43 -33q-33 0 -40 26q-2 6 -2 11q0 9 12 44l221 589q20 53 63 54q44 -1 63 -54l221 -589q12 -36 12 -44q0 -28 -29 -36q-7 -1 -13 -1q-31 1 -43 33l-46 128h-330zM444 231l-137 385h-2l-137 -385h276zM159 818q0 34 31 49q11 5 23 5 q34 0 49 -31q5 -11 5 -23q0 -34 -31 -49q-11 -5 -23 -5q-34 0 -49 31q-5 11 -5 23zM345 818q0 34 31 49q11 5 23 5q34 0 49 -31q5 -11 5 -23q0 -34 -31 -49q-11 -5 -23 -5q-34 0 -49 31q-5 11 -5 23z" glyph-name="Adieresis" horiz-adv-x="612" unicode="Ä"/>
<glyph d="M141 155l-46 -128q-14 -32 -43 -33q-33 0 -40 26q-2 6 -2 11q0 9 12 44l221 589q20 53 63 54q44 -1 63 -54l221 -589q12 -36 12 -44q0 -28 -29 -36q-7 -1 -13 -1q-31 1 -43 33l-46 128h-330zM444 231l-137 385h-2l-137 -385h276zM212 828q0 52 44 80q24 14 50 14 q52 0 80 -44q14 -24 14 -50q0 -52 -44 -80q-24 -14 -50 -14q-52 0 -80 44q-14 24 -14 50zM260 828q0 -30 28 -42q9 -4 18 -4q30 0 42 28q4 9 4 18q0 30 -28 42q-9 4 -18 4q-30 0 -42 -28q-4 -9 -4 -18z" glyph-name="Aring" horiz-adv-x="612" unicode="Å"/>
<glyph d="M461 315v-233h212q41 -4 43 -41q-3 -39 -43 -41h-253q-44 5 -47 48v107h-231l-68 -133q-14 -28 -42 -28q-30 0 -39 22q-2 6 -2 10q1 16 13 41l311 607q16 32 36 36q9 2 25 2h287q41 -4 43 -41q-3 -39 -43 -41h-202v-233h193q41 -4 43 -41q-3 -39 -43 -41h-193zM373 231 v379h-2l-191 -379h193z" glyph-name="AE" horiz-adv-x="759" unicode="Æ"/>
<glyph d="M359 -5l-25 -37q16 3 21 3q45 0 63 -35q6 -11 6 -20q0 -75 -88 -85q-11 -1 -23 -1q-59 0 -71 26q-2 5 -2 9q4 23 21 27q6 0 22 -4q21 -4 30 -4q34 2 35 27q0 16 -23 18h-21q-28 1 -30 19q1 11 10 25l23 33q-145 15 -222 146q-54 94 -54 214q0 156 86 258q88 103 231 104 q108 0 174 -55q31 -27 32 -49q0 -33 -26 -40q-5 -2 -10 -2q-15 0 -45 25q-51 41 -110 45h-15q-129 0 -188 -123q-35 -73 -35 -163q0 -129 65 -212q60 -73 153 -74q67 0 140 42q38 22 51 22q29 0 34 -31q1 -5 1 -10q0 -35 -64 -65t-146 -33z" glyph-name="Ccedilla" horiz-adv-x="593" unicode="Ç"/>
<glyph d="M146 315v-233h212q41 -4 43 -41q-3 -39 -43 -41h-253q-44 5 -47 48v616q6 45 47 48h253q41 -4 43 -41q-3 -39 -43 -41h-212v-233h193q41 -4 43 -41q-3 -39 -43 -41h-193zM261 776l-115 47q-34 14 -35 37q0 25 20 37q9 5 18 5q13 -1 34 -9l115 -47q34 -14 35 -37 q0 -25 -20 -37q-9 -5 -18 -5q-13 1 -34 9z" glyph-name="Egrave" horiz-adv-x="444" unicode="È"/>
<glyph d="M146 315v-233h212q41 -4 43 -41q-3 -39 -43 -41h-253q-44 5 -47 48v616q6 45 47 48h253q41 -4 43 -41q-3 -39 -43 -41h-212v-233h193q41 -4 43 -41q-3 -39 -43 -41h-193zM298 823l-115 -47q-22 -9 -34 -9q-27 0 -36 30q-2 7 -2 12q0 22 33 36q1 1 2 1l115 47q22 9 34 9 q27 0 36 -30q2 -7 2 -12q0 -22 -33 -36q-1 -1 -2 -1z" glyph-name="Eacute" horiz-adv-x="444" unicode="É"/>
<glyph d="M146 315v-233h212q41 -4 43 -41q-3 -39 -43 -41h-253q-44 5 -47 48v616q6 45 47 48h253q41 -4 43 -41q-3 -39 -43 -41h-212v-233h193q41 -4 43 -41q-3 -39 -43 -41h-193zM93 840l129 55l129 -55q22 -11 23 -35q0 -29 -25 -36q-6 -2 -11 -2q-11 1 -22 5l-94 37l-94 -37 q-12 -5 -22 -5q-28 0 -35 27q-1 6 -1 11q1 25 23 35z" glyph-name="Ecircumflex" horiz-adv-x="444" unicode="Ê"/>
<glyph d="M146 315v-233h212q41 -4 43 -41q-3 -39 -43 -41h-253q-44 5 -47 48v616q6 45 47 48h253q41 -4 43 -41q-3 -39 -43 -41h-212v-233h193q41 -4 43 -41q-3 -39 -43 -41h-193zM75 818q0 34 31 49q11 5 23 5q34 0 49 -31q5 -11 5 -23q0 -34 -31 -49q-11 -5 -23 -5q-34 0 -49 31 q-5 11 -5 23zM261 818q0 34 31 49q11 5 23 5q34 0 49 -31q5 -11 5 -23q0 -34 -31 -49q-11 -5 -23 -5q-34 0 -49 31q-5 11 -5 23z" glyph-name="Edieresis" horiz-adv-x="444" unicode="Ë"/>
<glyph d="M146 671v-630q0 -40 -34 -46q-5 -1 -10 -1q-37 0 -43 36q-1 6 -1 11v630q0 40 34 46q5 1 10 1q37 0 43 -36q1 -6 1 -11zM141 776l-115 47q-34 14 -35 37q0 25 20 37q9 5 18 5q13 -1 34 -9l115 -47q34 -14 35 -37q0 -25 -20 -37q-9 -5 -18 -5q-13 1 -34 9z" glyph-name="Igrave" unicode="Ì"/>
<glyph d="M146 671v-630q0 -40 -34 -46q-5 -1 -10 -1q-37 0 -43 36q-1 6 -1 11v630q0 40 34 46q5 1 10 1q37 0 43 -36q1 -6 1 -11zM178 823l-115 -47q-22 -9 -34 -9q-27 0 -36 30q-2 7 -2 12q0 22 33 36q1 1 2 1l115 47q22 9 34 9q27 0 36 -30q2 -7 2 -12q0 -22 -33 -36 q-1 -1 -2 -1z" glyph-name="Iacute" unicode="Í"/>
<glyph d="M146 671v-630q0 -40 -34 -46q-5 -1 -10 -1q-37 0 -43 36q-1 6 -1 11v630q0 40 34 46q5 1 10 1q37 0 43 -36q1 -6 1 -11zM-27 840l129 55l129 -55q22 -11 23 -35q0 -29 -25 -36q-6 -2 -11 -2q-11 1 -22 5l-94 37l-94 -37q-12 -5 -22 -5q-28 0 -35 27q-1 6 -1 11 q1 25 23 35z" glyph-name="Icircumflex" unicode="Î"/>
<glyph d="M146 671v-630q0 -40 -34 -46q-5 -1 -10 -1q-37 0 -43 36q-1 6 -1 11v630q0 40 34 46q5 1 10 1q37 0 43 -36q1 -6 1 -11zM-45 818q0 34 31 49q11 5 23 5q34 0 49 -31q5 -11 5 -23q0 -34 -31 -49q-11 -5 -23 -5q-34 0 -49 31q-5 11 -5 23zM141 818q0 34 31 49q11 5 23 5 q34 0 49 -31q5 -11 5 -23q0 -34 -31 -49q-11 -5 -23 -5q-34 0 -49 31q-5 11 -5 23z" glyph-name="Idieresis" unicode="Ï"/>
<glyph d="M63 48v273h-38q-39 7 -43 38q0 33 35 37q4 1 8 1h38v267q6 45 47 48h173q172 0 258 -133q58 -92 58 -219q0 -188 -105 -287q-80 -73 -199 -73h-185q-44 5 -47 48zM151 321v-245h126q148 0 203 138q25 64 25 146q0 159 -91 231q-58 45 -143 45h-120v-239h120q39 -7 43 -38 q0 -33 -35 -37q-4 -1 -8 -1h-120z" glyph-name="Eth" horiz-adv-x="630" unicode="Ð"/>
<glyph d="M146 557v-516q0 -40 -34 -46q-5 -1 -10 -1q-37 0 -43 36q-1 6 -1 11v625q2 51 40 52q27 0 48 -27q7 -8 14 -19l360 -517h2v516q0 40 34 46q5 1 10 1q37 0 43 -36q1 -6 1 -11v-625q-2 -51 -40 -52q-27 0 -48 27q-7 8 -14 19l-360 517h-2zM185 815q0 33 40 52q24 11 53 11 q21 0 71 -14q23 -6 39 -6q13 0 40 14q12 6 22 6q19 0 29 -22q4 -9 4 -17q0 -33 -40 -52q-24 -11 -53 -11q-21 0 -71 14q-23 6 -39 6q-13 0 -40 -14q-12 -6 -22 -6q-19 0 -29 22q-4 9 -4 17z" glyph-name="Ntilde" horiz-adv-x="668" unicode="Ñ"/>
<glyph d="M125 356q0 -145 72 -224q57 -62 146 -62q135 0 190 132q28 68 28 154q0 145 -72 224q-57 62 -146 62q-135 0 -190 -132q-28 -68 -28 -154zM31 356q0 153 84 256q88 105 228 106q155 0 242 -125q70 -101 70 -237q0 -153 -84 -256q-88 -105 -228 -106q-155 0 -242 125 q-70 101 -70 237zM382 776l-115 47q-34 14 -35 37q0 25 20 37q9 5 18 5q13 -1 34 -9l115 -47q34 -14 35 -37q0 -25 -20 -37q-9 -5 -18 -5q-13 1 -34 9z" glyph-name="Ograve" horiz-adv-x="686" unicode="Ò"/>
<glyph d="M125 356q0 -145 72 -224q57 -62 146 -62q135 0 190 132q28 68 28 154q0 145 -72 224q-57 62 -146 62q-135 0 -190 -132q-28 -68 -28 -154zM31 356q0 153 84 256q88 105 228 106q155 0 242 -125q70 -101 70 -237q0 -153 -84 -256q-88 -105 -228 -106q-155 0 -242 125 q-70 101 -70 237zM419 823l-115 -47q-22 -9 -34 -9q-27 0 -36 30q-2 7 -2 12q0 22 33 36q1 1 2 1l115 47q22 9 34 9q27 0 36 -30q2 -7 2 -12q0 -22 -33 -36q-1 -1 -2 -1z" glyph-name="Oacute" horiz-adv-x="686" unicode="Ó"/>
<glyph d="M125 356q0 -145 72 -224q57 -62 146 -62q135 0 190 132q28 68 28 154q0 145 -72 224q-57 62 -146 62q-135 0 -190 -132q-28 -68 -28 -154zM31 356q0 153 84 256q88 105 228 106q155 0 242 -125q70 -101 70 -237q0 -153 -84 -256q-88 -105 -228 -106q-155 0 -242 125 q-70 101 -70 237zM214 840l129 55l129 -55q22 -11 23 -35q0 -29 -25 -36q-6 -2 -11 -2q-11 1 -22 5l-94 37l-94 -37q-12 -5 -22 -5q-28 0 -35 27q-1 6 -1 11q1 25 23 35z" glyph-name="Ocircumflex" horiz-adv-x="686" unicode="Ô"/>
<glyph d="M125 356q0 -145 72 -224q57 -62 146 -62q135 0 190 132q28 68 28 154q0 145 -72 224q-57 62 -146 62q-135 0 -190 -132q-28 -68 -28 -154zM31 356q0 153 84 256q88 105 228 106q155 0 242 -125q70 -101 70 -237q0 -153 -84 -256q-88 -105 -228 -106q-155 0 -242 125 q-70 101 -70 237zM194 815q0 33 40 52q24 11 53 11q21 0 71 -14q23 -6 39 -6q13 0 40 14q12 6 22 6q19 0 29 -22q4 -9 4 -17q0 -33 -40 -52q-24 -11 -53 -11q-21 0 -71 14q-23 6 -39 6q-13 0 -40 -14q-12 -6 -22 -6q-19 0 -29 22q-4 9 -4 17z" glyph-name="Otilde" horiz-adv-x="686" unicode="Õ"/>
<glyph d="M125 356q0 -145 72 -224q57 -62 146 -62q135 0 190 132q28 68 28 154q0 145 -72 224q-57 62 -146 62q-135 0 -190 -132q-28 -68 -28 -154zM31 356q0 153 84 256q88 105 228 106q155 0 242 -125q70 -101 70 -237q0 -153 -84 -256q-88 -105 -228 -106q-155 0 -242 125 q-70 101 -70 237zM196 818q0 34 31 49q11 5 23 5q34 0 49 -31q5 -11 5 -23q0 -34 -31 -49q-11 -5 -23 -5q-34 0 -49 31q-5 11 -5 23zM382 818q0 34 31 49q11 5 23 5q34 0 49 -31q5 -11 5 -23q0 -34 -31 -49q-11 -5 -23 -5q-34 0 -49 31q-5 11 -5 23z" glyph-name="Odieresis" horiz-adv-x="686" unicode="Ö"/>
<glyph d="M300 309l152 151q24 23 42 23q24 0 33 -24q3 -7 3 -13q-1 -20 -21 -40l-153 -153l153 -153q21 -22 21 -40q0 -24 -22 -34q-7 -3 -14 -3q-20 1 -42 23l-152 152l-152 -152q-24 -23 -42 -23q-24 0 -33 24q-3 7 -3 13q1 20 21 40l153 153l-153 153q-21 22 -21 40q0 24 22 34 q7 3 14 3q20 -1 42 -23z" glyph-name="multiply" horiz-adv-x="600" unicode="×"/>
<glyph d="M160 190l332 388q-58 64 -149 64q-135 0 -190 -132q-28 -68 -28 -154q0 -96 35 -166zM527 524l-333 -389q56 -65 149 -65q135 0 190 132q28 68 28 154q0 97 -34 168zM545 639l59 70q15 17 31 17q25 0 30 -21q1 -4 1 -7q-1 -14 -12 -26l-69 -80q70 -100 70 -236 q0 -153 -84 -256q-88 -105 -228 -106q-121 1 -202 80l-61 -72q-15 -15 -31 -16q-22 0 -28 21q-1 3 -1 6q1 14 14 30l66 77q-69 101 -69 236q0 153 84 256q88 105 228 106q120 -1 202 -79z" glyph-name="Oslash" horiz-adv-x="686" unicode="Ø"/>
<glyph d="M58 282v389q0 40 34 46q5 1 10 1q37 0 43 -36q1 -6 1 -11v-423q0 -110 86 -155q45 -23 102 -23q114 0 162 79q26 43 26 99v423q0 40 34 46q5 1 10 1q37 0 43 -36q1 -6 1 -11v-389q0 -236 -192 -279q-39 -9 -84 -9q-198 0 -255 155q-21 57 -21 133zM373 776l-115 47 q-34 14 -35 37q0 25 20 37q9 5 18 5q13 -1 34 -9l115 -47q34 -14 35 -37q0 -25 -20 -37q-9 -5 -18 -5q-13 1 -34 9z" glyph-name="Ugrave" horiz-adv-x="668" unicode="Ù"/>
<glyph d="M58 282v389q0 40 34 46q5 1 10 1q37 0 43 -36q1 -6 1 -11v-423q0 -110 86 -155q45 -23 102 -23q114 0 162 79q26 43 26 99v423q0 40 34 46q5 1 10 1q37 0 43 -36q1 -6 1 -11v-389q0 -236 -192 -279q-39 -9 -84 -9q-198 0 -255 155q-21 57 -21 133zM410 823l-115 -47 q-22 -9 -34 -9q-27 0 -36 30q-2 7 -2 12q0 22 33 36q1 1 2 1l115 47q22 9 34 9q27 0 36 -30q2 -7 2 -12q0 -22 -33 -36q-1 -1 -2 -1z" glyph-name="Uacute" horiz-adv-x="668" unicode="Ú"/>
<glyph d="M58 282v389q0 40 34 46q5 1 10 1q37 0 43 -36q1 -6 1 -11v-423q0 -110 86 -155q45 -23 102 -23q114 0 162 79q26 43 26 99v423q0 40 34 46q5 1 10 1q37 0 43 -36q1 -6 1 -11v-389q0 -236 -192 -279q-39 -9 -84 -9q-198 0 -255 155q-21 57 -21 133zM205 840l129 55 l129 -55q22 -11 23 -35q0 -29 -25 -36q-6 -2 -11 -2q-11 1 -22 5l-94 37l-94 -37q-12 -5 -22 -5q-28 0 -35 27q-1 6 -1 11q1 25 23 35z" glyph-name="Ucircumflex" horiz-adv-x="668" unicode="Û"/>
<glyph d="M58 282v389q0 40 34 46q5 1 10 1q37 0 43 -36q1 -6 1 -11v-423q0 -110 86 -155q45 -23 102 -23q114 0 162 79q26 43 26 99v423q0 40 34 46q5 1 10 1q37 0 43 -36q1 -6 1 -11v-389q0 -236 -192 -279q-39 -9 -84 -9q-198 0 -255 155q-21 57 -21 133zM187 818q0 34 31 49 q11 5 23 5q34 0 49 -31q5 -11 5 -23q0 -34 -31 -49q-11 -5 -23 -5q-34 0 -49 31q-5 11 -5 23zM373 818q0 34 31 49q11 5 23 5q34 0 49 -31q5 -11 5 -23q0 -34 -31 -49q-11 -5 -23 -5q-34 0 -49 31q-5 11 -5 23z" glyph-name="Udieresis" horiz-adv-x="668" unicode="Ü"/>
<glyph d="M206 41v293l-191 311q-14 23 -14 37q0 28 29 35q6 1 11 1q28 -1 44 -28l165 -269l165 269q17 28 44 28q31 0 38 -25q2 -6 2 -11q-1 -16 -14 -37l-191 -311v-293q0 -40 -34 -46q-5 -1 -10 -1q-37 0 -43 36q-1 6 -1 11zM326 823l-115 -47q-22 -9 -34 -9q-27 0 -36 30 q-2 7 -2 12q0 22 33 36q1 1 2 1l115 47q22 9 34 9q27 0 36 -30q2 -7 2 -12q0 -22 -33 -36q-1 -1 -2 -1z" glyph-name="Yacute" horiz-adv-x="500" unicode="Ý"/>
<glyph d="M146 524v-292h130q81 0 123 63q23 37 23 82q0 80 -57 120q-38 27 -93 27h-126zM146 156v-115q0 -40 -34 -46q-5 -1 -10 -1q-37 0 -43 36q-1 6 -1 11v630q0 40 34 46q5 1 10 1q37 0 43 -36q1 -6 1 -11v-71h133q123 0 188 -88q43 -58 43 -135q0 -102 -76 -167 q-65 -54 -152 -54h-136z" glyph-name="Thorn" horiz-adv-x="519" unicode="Þ"/>
<glyph d="M58 37v526q0 127 86 181q46 28 106 28q101 0 160 -76q39 -50 39 -106q-1 -115 -77 -168q81 -21 116 -106q18 -43 18 -92q0 -93 -58 -163q-57 -66 -140 -67q-57 1 -58 41q2 37 33 38q110 0 126 107q3 22 3 48q0 100 -72 134q-23 10 -49 12q-44 4 -45 37q0 26 21 36l24 8 q44 14 58 50q12 29 12 75q0 69 -51 101q-26 15 -58 15q-93 0 -104 -117q-2 -16 -2 -33v-509q0 -36 -34 -42q-5 -1 -10 -1q-34 0 -42 30q-2 6 -2 13z" glyph-name="germandbls" horiz-adv-x="556" unicode="ß"/>
<glyph d="M498 495v-458q0 -34 -31 -42q-6 -1 -10 -1q-29 0 -38 26q-3 8 -3 17v37h-2q-57 -79 -145 -80q-121 0 -187 103q-47 73 -47 169q0 124 73 203q64 69 161 69q81 -1 145 -71h2v28q0 35 32 42q5 1 9 1q27 0 37 -24q4 -9 4 -19zM123 266q0 -108 57 -162q36 -34 89 -34 q96 0 131 103q15 43 15 93q0 108 -57 162q-36 34 -89 34q-96 0 -131 -103q-15 -43 -15 -93zM317 616l-115 47q-34 14 -35 37q0 25 20 37q9 5 18 5q13 -1 34 -9l115 -47q34 -14 35 -37q0 -25 -20 -37q-9 -5 -18 -5q-13 1 -34 9z" glyph-name="agrave" horiz-adv-x="556" unicode="à"/>
<glyph d="M498 495v-458q0 -34 -31 -42q-6 -1 -10 -1q-29 0 -38 26q-3 8 -3 17v37h-2q-57 -79 -145 -80q-121 0 -187 103q-47 73 -47 169q0 124 73 203q64 69 161 69q81 -1 145 -71h2v28q0 35 32 42q5 1 9 1q27 0 37 -24q4 -9 4 -19zM123 266q0 -108 57 -162q36 -34 89 -34 q96 0 131 103q15 43 15 93q0 108 -57 162q-36 34 -89 34q-96 0 -131 -103q-15 -43 -15 -93zM354 663l-115 -47q-22 -9 -34 -9q-27 0 -36 30q-2 7 -2 12q0 22 33 36q1 1 2 1l115 47q22 9 34 9q27 0 36 -30q2 -7 2 -12q0 -22 -33 -36q-1 -1 -2 -1z" glyph-name="aacute" horiz-adv-x="556" unicode="á"/>
<glyph d="M498 495v-458q0 -34 -31 -42q-6 -1 -10 -1q-29 0 -38 26q-3 8 -3 17v37h-2q-57 -79 -145 -80q-121 0 -187 103q-47 73 -47 169q0 124 73 203q64 69 161 69q81 -1 145 -71h2v28q0 35 32 42q5 1 9 1q27 0 37 -24q4 -9 4 -19zM123 266q0 -108 57 -162q36 -34 89 -34 q96 0 131 103q15 43 15 93q0 108 -57 162q-36 34 -89 34q-96 0 -131 -103q-15 -43 -15 -93zM149 680l129 55l129 -55q22 -11 23 -35q0 -29 -25 -36q-6 -2 -11 -2q-11 1 -22 5l-94 37l-94 -37q-12 -5 -22 -5q-28 0 -35 27q-1 6 -1 11q1 25 23 35z" glyph-name="acircumflex" horiz-adv-x="556" unicode="â"/>
<glyph d="M498 495v-458q0 -34 -31 -42q-6 -1 -10 -1q-29 0 -38 26q-3 8 -3 17v37h-2q-57 -79 -145 -80q-121 0 -187 103q-47 73 -47 169q0 124 73 203q64 69 161 69q81 -1 145 -71h2v28q0 35 32 42q5 1 9 1q27 0 37 -24q4 -9 4 -19zM123 266q0 -108 57 -162q36 -34 89 -34 q96 0 131 103q15 43 15 93q0 108 -57 162q-36 34 -89 34q-96 0 -131 -103q-15 -43 -15 -93zM129 655q0 33 40 52q24 11 53 11q21 0 71 -14q23 -6 39 -6q13 0 40 14q12 6 22 6q19 0 29 -22q4 -9 4 -17q0 -33 -40 -52q-24 -11 -53 -11q-21 0 -71 14q-23 6 -39 6q-13 0 -40 -14 q-12 -6 -22 -6q-19 0 -29 22q-4 9 -4 17z" glyph-name="atilde" horiz-adv-x="556" unicode="ã"/>
<glyph d="M498 495v-458q0 -34 -31 -42q-6 -1 -10 -1q-29 0 -38 26q-3 8 -3 17v37h-2q-57 -79 -145 -80q-121 0 -187 103q-47 73 -47 169q0 124 73 203q64 69 161 69q81 -1 145 -71h2v28q0 35 32 42q5 1 9 1q27 0 37 -24q4 -9 4 -19zM123 266q0 -108 57 -162q36 -34 89 -34 q96 0 131 103q15 43 15 93q0 108 -57 162q-36 34 -89 34q-96 0 -131 -103q-15 -43 -15 -93zM131 658q0 34 31 49q11 5 23 5q34 0 49 -31q5 -11 5 -23q0 -34 -31 -49q-11 -5 -23 -5q-34 0 -49 31q-5 11 -5 23zM317 658q0 34 31 49q11 5 23 5q34 0 49 -31q5 -11 5 -23 q0 -34 -31 -49q-11 -5 -23 -5q-34 0 -49 31q-5 11 -5 23z" glyph-name="adieresis" horiz-adv-x="556" unicode="ä"/>
<glyph d="M498 495v-458q0 -34 -31 -42q-6 -1 -10 -1q-29 0 -38 26q-3 8 -3 17v37h-2q-57 -79 -145 -80q-121 0 -187 103q-47 73 -47 169q0 124 73 203q64 69 161 69q81 -1 145 -71h2v28q0 35 32 42q5 1 9 1q27 0 37 -24q4 -9 4 -19zM123 266q0 -108 57 -162q36 -34 89 -34 q96 0 131 103q15 43 15 93q0 108 -57 162q-36 34 -89 34q-96 0 -131 -103q-15 -43 -15 -93zM184 678q0 52 44 80q24 14 50 14q52 0 80 -44q14 -24 14 -50q0 -52 -44 -80q-24 -14 -50 -14q-52 0 -80 44q-14 24 -14 50zM232 678q0 -30 28 -42q9 -4 18 -4q30 0 42 28q4 9 4 18 q0 30 -28 42q-9 4 -18 4q-30 0 -42 -28q-4 -9 -4 -18z" glyph-name="aring" horiz-adv-x="556" unicode="å"/>
<glyph d="M123 266q0 -108 57 -162q36 -34 89 -34q96 0 131 103q15 43 15 93q0 108 -57 162q-36 34 -89 34q-96 0 -131 -103q-15 -43 -15 -93zM415 37v37h-2q-56 -79 -144 -80q-121 0 -187 103q-47 73 -47 169q0 124 73 203q64 69 161 69q81 -1 144 -71h2v28q0 35 32 42q5 1 9 1 q27 0 37 -24q4 -9 4 -19v-22h2q17 24 61 46q40 19 79 19q92 0 158 -74q66 -75 66 -185q0 -40 -32 -46q-8 -1 -17 -1h-325q3 -81 60 -127q43 -34 101 -33q69 1 126 45q32 24 44 25q23 0 30 -25q2 -7 2 -14q1 -32 -57 -68q-68 -41 -139 -41q-106 1 -157 64h-2v-21 q0 -34 -31 -42q-6 -1 -10 -1q-29 0 -38 26q-3 8 -3 17zM495 298h280q0 81 -50 129q-38 35 -91 35q-92 0 -126 -89q-13 -35 -13 -75z" glyph-name="ae" horiz-adv-x="889" unicode="æ"/>
<glyph d="M284 -5l-25 -37q16 3 21 3q45 0 63 -35q6 -11 6 -20q0 -75 -88 -85q-11 -1 -23 -1q-59 0 -71 26q-2 5 -2 9q4 23 21 27q6 0 22 -4q21 -4 30 -4q34 2 35 27q0 16 -23 18h-21q-28 1 -30 19q1 11 10 25l24 35q-119 18 -170 132q-28 61 -28 136q0 132 77 209q64 63 163 63 q100 0 133 -41q10 -13 10 -26q0 -24 -22 -34q-7 -3 -14 -3q-13 0 -46 15q-29 13 -61 13q-94 0 -133 -96q-19 -47 -19 -100q0 -99 54 -155q40 -41 98 -41q37 0 78 21q17 9 28 9q31 -6 34 -37q0 -34 -51 -54q-34 -13 -80 -14z" glyph-name="ccedilla" horiz-adv-x="444" unicode="ç"/>
<glyph d="M445 232h-331q0 -92 66 -136q39 -26 91 -26q76 0 138 48q31 24 42 24q23 0 30 -25q2 -7 2 -14q0 -32 -61 -67q-73 -42 -152 -42q-147 0 -210 120q-34 66 -34 152q0 124 75 203q66 69 164 69q114 0 181 -97q48 -72 48 -162q0 -40 -32 -46q-8 -1 -17 -1zM114 298h292 q0 81 -50 129q-38 35 -91 35q-105 4 -139 -97q-11 -31 -12 -67zM299 616l-115 47q-34 14 -35 37q0 25 20 37q9 5 18 5q13 -1 34 -9l115 -47q34 -14 35 -37q0 -25 -20 -37q-9 -5 -18 -5q-13 1 -34 9z" glyph-name="egrave" horiz-adv-x="520" unicode="è"/>
<glyph d="M445 232h-331q0 -92 66 -136q39 -26 91 -26q76 0 138 48q31 24 42 24q23 0 30 -25q2 -7 2 -14q0 -32 -61 -67q-73 -42 -152 -42q-147 0 -210 120q-34 66 -34 152q0 124 75 203q66 69 164 69q114 0 181 -97q48 -72 48 -162q0 -40 -32 -46q-8 -1 -17 -1zM114 298h292 q0 81 -50 129q-38 35 -91 35q-105 4 -139 -97q-11 -31 -12 -67zM336 663l-115 -47q-22 -9 -34 -9q-27 0 -36 30q-2 7 -2 12q0 22 33 36q1 1 2 1l115 47q22 9 34 9q27 0 36 -30q2 -7 2 -12q0 -22 -33 -36q-1 -1 -2 -1z" glyph-name="eacute" horiz-adv-x="520" unicode="é"/>
<glyph d="M445 232h-331q0 -92 66 -136q39 -26 91 -26q76 0 138 48q31 24 42 24q23 0 30 -25q2 -7 2 -14q0 -32 -61 -67q-73 -42 -152 -42q-147 0 -210 120q-34 66 -34 152q0 124 75 203q66 69 164 69q114 0 181 -97q48 -72 48 -162q0 -40 -32 -46q-8 -1 -17 -1zM114 298h292 q0 81 -50 129q-38 35 -91 35q-105 4 -139 -97q-11 -31 -12 -67zM131 680l129 55l129 -55q22 -11 23 -35q0 -29 -25 -36q-6 -2 -11 -2q-11 1 -22 5l-94 37l-94 -37q-12 -5 -22 -5q-28 0 -35 27q-1 6 -1 11q1 25 23 35z" glyph-name="ecircumflex" horiz-adv-x="520" unicode="ê"/>
<glyph d="M445 232h-331q0 -92 66 -136q39 -26 91 -26q76 0 138 48q31 24 42 24q23 0 30 -25q2 -7 2 -14q0 -32 -61 -67q-73 -42 -152 -42q-147 0 -210 120q-34 66 -34 152q0 124 75 203q66 69 164 69q114 0 181 -97q48 -72 48 -162q0 -40 -32 -46q-8 -1 -17 -1zM114 298h292 q0 81 -50 129q-38 35 -91 35q-105 4 -139 -97q-11 -31 -12 -67zM113 658q0 34 31 49q11 5 23 5q34 0 49 -31q5 -11 5 -23q0 -34 -31 -49q-11 -5 -23 -5q-34 0 -49 31q-5 11 -5 23zM299 658q0 34 31 49q11 5 23 5q34 0 49 -31q5 -11 5 -23q0 -34 -31 -49q-11 -5 -23 -5 q-34 0 -49 31q-5 11 -5 23z" glyph-name="edieresis" horiz-adv-x="520" unicode="ë"/>
<glyph d="M146 491v-450q0 -40 -34 -46q-5 -1 -10 -1q-37 0 -43 36q-1 6 -1 11v450q0 40 34 46q5 1 10 1q37 0 43 -36q1 -6 1 -11zM141 616l-115 47q-34 14 -35 37q0 25 20 37q9 5 18 5q13 -1 34 -9l115 -47q34 -14 35 -37q0 -25 -20 -37q-9 -5 -18 -5q-13 1 -34 9z" glyph-name="igrave" unicode="ì"/>
<glyph d="M146 491v-450q0 -40 -34 -46q-5 -1 -10 -1q-37 0 -43 36q-1 6 -1 11v450q0 40 34 46q5 1 10 1q37 0 43 -36q1 -6 1 -11zM178 663l-115 -47q-22 -9 -34 -9q-27 0 -36 30q-2 7 -2 12q0 22 33 36q1 1 2 1l115 47q22 9 34 9q27 0 36 -30q2 -7 2 -12q0 -22 -33 -36 q-1 -1 -2 -1z" glyph-name="iacute" unicode="í"/>
<glyph d="M146 491v-450q0 -40 -34 -46q-5 -1 -10 -1q-37 0 -43 36q-1 6 -1 11v450q0 40 34 46q5 1 10 1q37 0 43 -36q1 -6 1 -11zM-27 680l129 55l129 -55q22 -11 23 -35q0 -29 -25 -36q-6 -2 -11 -2q-11 1 -22 5l-94 37l-94 -37q-12 -5 -22 -5q-28 0 -35 27q-1 6 -1 11 q1 25 23 35z" glyph-name="icircumflex" unicode="î"/>
<glyph d="M146 491v-450q0 -40 -34 -46q-5 -1 -10 -1q-37 0 -43 36q-1 6 -1 11v450q0 40 34 46q5 1 10 1q37 0 43 -36q1 -6 1 -11zM-45 658q0 34 31 49q11 5 23 5q34 0 49 -31q5 -11 5 -23q0 -34 -31 -49q-11 -5 -23 -5q-34 0 -49 31q-5 11 -5 23zM141 658q0 34 31 49q11 5 23 5 q34 0 49 -31q5 -11 5 -23q0 -34 -31 -49q-11 -5 -23 -5q-34 0 -49 31q-5 11 -5 23z" glyph-name="idieresis" unicode="ï"/>
<glyph d="M35 262q0 119 69 198q64 71 159 72q66 0 113 -45q7 -8 13 -15l2 2q-33 88 -121 161l-87 -42q-18 -9 -29 -9q-17 0 -23 19q-1 4 -1 8q2 15 17 23l77 37q-15 12 -61 33q-31 18 -33 37q0 24 27 30q5 1 10 1q44 0 118 -49q9 -6 17 -12l92 46q18 9 29 9q23 -2 24 -24 q-1 -19 -21 -29l-78 -38q146 -131 154 -344q1 -16 1 -32q0 -192 -107 -267q-55 -38 -133 -38q-116 0 -181 101q-47 74 -47 167zM123 262q0 -98 53 -153q38 -39 93 -39q88 0 127 92q19 46 19 100q0 98 -53 153q-38 39 -93 39q-88 0 -127 -92q-19 -46 -19 -100z" glyph-name="eth" horiz-adv-x="538" unicode="ð"/>
<glyph d="M58 41v450q0 40 34 46q5 1 10 1q37 0 43 -36q1 -6 1 -11v-21l2 -2q55 70 147 70q88 0 140 -62q45 -54 45 -140v-295q0 -40 -34 -46q-5 -1 -10 -1q-37 0 -43 36q-1 6 -1 11v290q0 89 -70 120q-25 11 -53 11q-67 0 -101 -51q-22 -34 -22 -80v-290q0 -40 -34 -46 q-5 -1 -10 -1q-37 0 -43 36q-1 6 -1 11zM120 655q0 33 40 52q24 11 53 11q21 0 71 -14q23 -6 39 -6q13 0 40 14q12 6 22 6q19 0 29 -22q4 -9 4 -17q0 -33 -40 -52q-24 -11 -53 -11q-21 0 -71 14q-23 6 -39 6q-13 0 -40 -14q-12 -6 -22 -6q-19 0 -29 22q-4 9 -4 17z" glyph-name="ntilde" horiz-adv-x="538" unicode="ñ"/>
<glyph d="M35 266q0 124 73 203q64 69 161 69q121 0 187 -103q47 -73 47 -169q0 -124 -73 -203q-64 -69 -161 -69q-121 0 -187 103q-47 73 -47 169zM123 266q0 -108 57 -162q36 -34 89 -34q96 0 131 103q15 43 15 93q0 108 -57 162q-36 34 -89 34q-96 0 -131 -103q-15 -43 -15 -93z M308 616l-115 47q-34 14 -35 37q0 25 20 37q9 5 18 5q13 -1 34 -9l115 -47q34 -14 35 -37q0 -25 -20 -37q-9 -5 -18 -5q-13 1 -34 9z" glyph-name="ograve" horiz-adv-x="538" unicode="ò"/>
<glyph d="M35 266q0 124 73 203q64 69 161 69q121 0 187 -103q47 -73 47 -169q0 -124 -73 -203q-64 -69 -161 -69q-121 0 -187 103q-47 73 -47 169zM123 266q0 -108 57 -162q36 -34 89 -34q96 0 131 103q15 43 15 93q0 108 -57 162q-36 34 -89 34q-96 0 -131 -103q-15 -43 -15 -93z M345 663l-115 -47q-22 -9 -34 -9q-27 0 -36 30q-2 7 -2 12q0 22 33 36q1 1 2 1l115 47q22 9 34 9q27 0 36 -30q2 -7 2 -12q0 -22 -33 -36q-1 -1 -2 -1z" glyph-name="oacute" horiz-adv-x="538" unicode="ó"/>
<glyph d="M35 266q0 124 73 203q64 69 161 69q121 0 187 -103q47 -73 47 -169q0 -124 -73 -203q-64 -69 -161 -69q-121 0 -187 103q-47 73 -47 169zM123 266q0 -108 57 -162q36 -34 89 -34q96 0 131 103q15 43 15 93q0 108 -57 162q-36 34 -89 34q-96 0 -131 -103q-15 -43 -15 -93z M140 680l129 55l129 -55q22 -11 23 -35q0 -29 -25 -36q-6 -2 -11 -2q-11 1 -22 5l-94 37l-94 -37q-12 -5 -22 -5q-28 0 -35 27q-1 6 -1 11q1 25 23 35z" glyph-name="ocircumflex" horiz-adv-x="538" unicode="ô"/>
<glyph d="M35 266q0 124 73 203q64 69 161 69q121 0 187 -103q47 -73 47 -169q0 -124 -73 -203q-64 -69 -161 -69q-121 0 -187 103q-47 73 -47 169zM123 266q0 -108 57 -162q36 -34 89 -34q96 0 131 103q15 43 15 93q0 108 -57 162q-36 34 -89 34q-96 0 -131 -103q-15 -43 -15 -93z M120 655q0 33 40 52q24 11 53 11q21 0 71 -14q23 -6 39 -6q13 0 40 14q12 6 22 6q19 0 29 -22q4 -9 4 -17q0 -33 -40 -52q-24 -11 -53 -11q-21 0 -71 14q-23 6 -39 6q-13 0 -40 -14q-12 -6 -22 -6q-19 0 -29 22q-4 9 -4 17z" glyph-name="otilde" horiz-adv-x="538" unicode="õ"/>
<glyph d="M35 266q0 124 73 203q64 69 161 69q121 0 187 -103q47 -73 47 -169q0 -124 -73 -203q-64 -69 -161 -69q-121 0 -187 103q-47 73 -47 169zM123 266q0 -108 57 -162q36 -34 89 -34q96 0 131 103q15 43 15 93q0 108 -57 162q-36 34 -89 34q-96 0 -131 -103q-15 -43 -15 -93z M122 658q0 34 31 49q11 5 23 5q34 0 49 -31q5 -11 5 -23q0 -34 -31 -49q-11 -5 -23 -5q-34 0 -49 31q-5 11 -5 23zM308 658q0 34 31 49q11 5 23 5q34 0 49 -31q5 -11 5 -23q0 -34 -31 -49q-11 -5 -23 -5q-34 0 -49 31q-5 11 -5 23z" glyph-name="odieresis" horiz-adv-x="538" unicode="ö"/>
<glyph d="M510 212h-420q-41 4 -43 41q3 39 43 41h420q41 -4 43 -41q-3 -39 -43 -41zM228 460q0 44 38 64q17 8 34 8q44 0 64 -38q8 -17 8 -34q0 -44 -38 -64q-17 -8 -34 -8q-44 0 -64 38q-8 17 -8 34zM228 46q0 44 38 64q17 8 34 8q44 0 64 -38q8 -17 8 -34q0 -44 -38 -64 q-17 -8 -34 -8q-44 0 -64 38q-8 17 -8 34z" glyph-name="divide" horiz-adv-x="600" unicode="÷"/>
<glyph d="M41 39l45 54q-51 70 -51 173q0 124 73 203q64 69 161 69q84 -1 143 -51l41 50q16 18 31 19q24 0 30 -21q1 -4 1 -7q-1 -15 -14 -31l-48 -57q50 -76 50 -174q0 -124 -73 -203q-64 -69 -161 -69q-84 1 -142 52l-42 -51q-15 -18 -32 -19q-21 0 -29 20q-1 4 -1 8q1 15 18 35z M143 162l218 263q-36 37 -92 37q-96 0 -131 -103q-15 -43 -15 -93q0 -59 20 -104zM395 370l-218 -263q36 -37 92 -37q96 0 131 103q15 43 15 93q0 60 -20 104z" glyph-name="oslash" horiz-adv-x="538" unicode="ø"/>
<glyph d="M58 206v285q0 40 34 46q5 1 10 1q37 0 43 -36q1 -6 1 -11v-282q2 -138 123 -139q122 2 123 139v282q0 40 34 46q5 1 10 1q37 0 43 -36q1 -6 1 -11v-285q0 -148 -116 -195q-43 -17 -95 -17q-122 0 -177 83q-34 52 -34 129zM308 616l-115 47q-34 14 -35 37q0 25 20 37 q9 5 18 5q13 -1 34 -9l115 -47q34 -14 35 -37q0 -25 -20 -37q-9 -5 -18 -5q-13 1 -34 9z" glyph-name="ugrave" horiz-adv-x="538" unicode="ù"/>
<glyph d="M58 206v285q0 40 34 46q5 1 10 1q37 0 43 -36q1 -6 1 -11v-282q2 -138 123 -139q122 2 123 139v282q0 40 34 46q5 1 10 1q37 0 43 -36q1 -6 1 -11v-285q0 -148 -116 -195q-43 -17 -95 -17q-122 0 -177 83q-34 52 -34 129zM345 663l-115 -47q-22 -9 -34 -9q-27 0 -36 30 q-2 7 -2 12q0 22 33 36q1 1 2 1l115 47q22 9 34 9q27 0 36 -30q2 -7 2 -12q0 -22 -33 -36q-1 -1 -2 -1z" glyph-name="uacute" horiz-adv-x="538" unicode="ú"/>
<glyph d="M58 206v285q0 40 34 46q5 1 10 1q37 0 43 -36q1 -6 1 -11v-282q2 -138 123 -139q122 2 123 139v282q0 40 34 46q5 1 10 1q37 0 43 -36q1 -6 1 -11v-285q0 -148 -116 -195q-43 -17 -95 -17q-122 0 -177 83q-34 52 -34 129zM140 680l129 55l129 -55q22 -11 23 -35 q0 -29 -25 -36q-6 -2 -11 -2q-11 1 -22 5l-94 37l-94 -37q-12 -5 -22 -5q-28 0 -35 27q-1 6 -1 11q1 25 23 35z" glyph-name="ucircumflex" horiz-adv-x="538" unicode="û"/>
<glyph d="M58 206v285q0 40 34 46q5 1 10 1q37 0 43 -36q1 -6 1 -11v-282q2 -138 123 -139q122 2 123 139v282q0 40 34 46q5 1 10 1q37 0 43 -36q1 -6 1 -11v-285q0 -148 -116 -195q-43 -17 -95 -17q-122 0 -177 83q-34 52 -34 129zM122 658q0 34 31 49q11 5 23 5q34 0 49 -31 q5 -11 5 -23q0 -34 -31 -49q-11 -5 -23 -5q-34 0 -49 31q-5 11 -5 23zM308 658q0 34 31 49q11 5 23 5q34 0 49 -31q5 -11 5 -23q0 -34 -31 -49q-11 -5 -23 -5q-34 0 -49 31q-5 11 -5 23z" glyph-name="udieresis" horiz-adv-x="538" unicode="ü"/>
<glyph d="M179 19l-150 433q-12 36 -12 49q0 26 27 35q7 2 13 2q33 -1 44 -33l122 -365h2l120 365q12 32 42 33q27 0 37 -23q3 -7 3 -14q-1 -15 -12 -49l-222 -635q-13 -32 -43 -33q-27 0 -37 23q-3 7 -3 14q1 15 13 49zM298 663l-115 -47q-22 -9 -34 -9q-27 0 -36 30q-2 7 -2 12 q0 22 33 36q1 1 2 1l115 47q22 9 34 9q27 0 36 -30q2 -7 2 -12q0 -22 -33 -36q-1 -1 -2 -1z" glyph-name="yacute" horiz-adv-x="444" unicode="ý"/>
<glyph d="M141 266q0 -108 57 -162q36 -34 89 -34q96 0 131 103q15 43 15 93q0 108 -57 162q-36 34 -89 34q-96 0 -131 -103q-15 -43 -15 -93zM62 -169v894q0 40 34 46q5 1 10 1q37 0 43 -36q1 -6 1 -11v-260h2q39 72 142 73q116 0 180 -102q47 -74 47 -170q0 -124 -71 -203 q-63 -69 -156 -69q-83 0 -134 62q-5 6 -8 10h-2v-235q0 -40 -34 -46q-5 -1 -10 -1q-37 0 -43 36q-1 6 -1 11z" glyph-name="thorn" horiz-adv-x="556" unicode="þ"/>
<glyph d="M179 19l-150 433q-12 36 -12 49q0 26 27 35q7 2 13 2q33 -1 44 -33l122 -365h2l120 365q12 32 42 33q27 0 37 -23q3 -7 3 -14q-1 -15 -12 -49l-222 -635q-13 -32 -43 -33q-27 0 -37 23q-3 7 -3 14q1 15 13 49zM75 658q0 34 31 49q11 5 23 5q34 0 49 -31q5 -11 5 -23 q0 -34 -31 -49q-11 -5 -23 -5q-34 0 -49 31q-5 11 -5 23zM261 658q0 34 31 49q11 5 23 5q34 0 49 -31q5 -11 5 -23q0 -34 -31 -49q-11 -5 -23 -5q-34 0 -49 31q-5 11 -5 23z" glyph-name="ydieresis" horiz-adv-x="444" unicode="ÿ"/>
<glyph d="M141 155l-46 -128q-14 -32 -43 -33q-33 0 -40 26q-2 6 -2 11q0 9 12 44l221 589q20 53 63 54q44 -1 63 -54l221 -589q12 -36 12 -44q0 -28 -29 -36q-7 -1 -13 -1q-31 1 -43 33l-46 128h-330zM444 231l-137 385h-2l-137 -385h276zM206 849h202q41 -4 43 -41 q-3 -39 -43 -41h-202q-41 4 -43 41q3 39 43 41z" glyph-name="Amacron" horiz-adv-x="612" unicode="Ā"/>
<glyph d="M498 495v-458q0 -34 -31 -42q-6 -1 -10 -1q-29 0 -38 26q-3 8 -3 17v37h-2q-57 -79 -145 -80q-121 0 -187 103q-47 73 -47 169q0 124 73 203q64 69 161 69q81 -1 145 -71h2v28q0 35 32 42q5 1 9 1q27 0 37 -24q4 -9 4 -19zM123 266q0 -108 57 -162q36 -34 89 -34 q96 0 131 103q15 43 15 93q0 108 -57 162q-36 34 -89 34q-96 0 -131 -103q-15 -43 -15 -93zM171 689h202q41 -4 43 -41q-3 -39 -43 -41h-202q-41 4 -43 41q3 39 43 41z" glyph-name="amacron" horiz-adv-x="556" unicode="ā"/>
<glyph d="M141 155l-46 -128q-14 -32 -43 -33q-33 0 -40 26q-2 6 -2 11q0 9 12 44l221 589q20 53 63 54q44 -1 63 -54l221 -589q12 -36 12 -44q0 -28 -29 -36q-7 -1 -13 -1q-31 1 -43 33l-46 128h-330zM444 231l-137 385h-2l-137 -385h276zM172 857q0 29 24 35q4 1 7 1q13 0 38 -24 q35 -32 66 -33q32 0 66 33q25 23 38 24q24 0 30 -26q1 -6 1 -10q0 -50 -64 -80q-36 -17 -71 -17q-57 0 -101 36q-33 27 -34 61z" glyph-name="Abreve" horiz-adv-x="612" unicode="Ă"/>
<glyph d="M498 495v-458q0 -34 -31 -42q-6 -1 -10 -1q-29 0 -38 26q-3 8 -3 17v37h-2q-57 -79 -145 -80q-121 0 -187 103q-47 73 -47 169q0 124 73 203q64 69 161 69q81 -1 145 -71h2v28q0 35 32 42q5 1 9 1q27 0 37 -24q4 -9 4 -19zM123 266q0 -108 57 -162q36 -34 89 -34 q96 0 131 103q15 43 15 93q0 108 -57 162q-36 34 -89 34q-96 0 -131 -103q-15 -43 -15 -93zM137 697q0 29 24 35q4 1 7 1q13 0 38 -24q35 -32 66 -33q32 0 66 33q25 23 38 24q24 0 30 -26q1 -6 1 -10q0 -50 -64 -80q-36 -17 -71 -17q-57 0 -101 36q-33 27 -34 61z" glyph-name="abreve" horiz-adv-x="556" unicode="ă"/>
<glyph d="M534 2q-11 9 -17 25l-46 128h-330l-46 -128q-14 -32 -43 -33q-33 0 -40 26q-2 6 -2 11q0 9 12 44l221 589q20 53 63 54q44 -1 63 -54l221 -589q12 -36 12 -44q-1 -19 -16 -30l-25 -23q-37 -35 -37 -68q2 -33 37 -34q7 0 40 7q4 1 7 1q23 -1 24 -23q-5 -37 -85 -39 q-66 0 -90 40q-9 15 -9 33q1 45 55 84zM444 231l-137 385h-2l-137 -385h276z" glyph-name="Aogonek" horiz-adv-x="612" unicode="Ą"/>
<glyph d="M498 495v-458q-1 -26 -20 -37l-23 -22q-37 -35 -37 -68q2 -33 37 -34q7 0 40 7q4 1 7 1q23 -1 24 -23q-5 -37 -85 -39q-66 0 -90 40q-9 15 -9 33q1 45 55 84l33 24q-14 13 -14 34v37h-2q-57 -79 -145 -80q-121 0 -187 103q-47 73 -47 169q0 124 73 203q64 69 161 69 q81 -1 145 -71h2v28q0 35 32 42q5 1 9 1q27 0 37 -24q4 -9 4 -19zM123 266q0 -108 57 -162q36 -34 89 -34q96 0 131 103q15 43 15 93q0 108 -57 162q-36 34 -89 34q-96 0 -131 -103q-15 -43 -15 -93z" glyph-name="aogonek" horiz-adv-x="556" unicode="ą"/>
<glyph d="M125 356q0 -129 65 -212q60 -73 153 -74q67 0 140 42q38 22 51 22q29 0 34 -31q1 -5 1 -10q0 -35 -64 -65q-71 -34 -162 -34q-159 0 -246 129q-66 99 -66 233q0 156 86 258q88 103 231 104q108 0 174 -55q31 -27 32 -49q0 -33 -26 -40q-5 -2 -10 -2q-15 0 -45 25 q-51 41 -110 45h-15q-129 0 -188 -123q-35 -73 -35 -163zM429 823l-115 -47q-22 -9 -34 -9q-27 0 -36 30q-2 7 -2 12q0 22 33 36q1 1 2 1l115 47q22 9 34 9q27 0 36 -30q2 -7 2 -12q0 -22 -33 -36q-1 -1 -2 -1z" glyph-name="Cacute" horiz-adv-x="593" unicode="Ć"/>
<glyph d="M35 266q0 132 77 209q64 63 163 63q100 0 133 -41q10 -13 10 -26q0 -24 -22 -34q-7 -3 -14 -3q-13 0 -46 15q-29 13 -61 13q-94 0 -133 -96q-19 -47 -19 -100q0 -99 54 -155q40 -41 98 -41q37 0 78 21q17 9 28 9q31 -6 34 -37q0 -33 -50 -54q-38 -15 -90 -15 q-136 0 -201 113q-39 69 -39 159zM359 663l-115 -47q-22 -9 -34 -9q-27 0 -36 30q-2 7 -2 12q0 22 33 36q1 1 2 1l115 47q22 9 34 9q27 0 36 -30q2 -7 2 -12q0 -22 -33 -36q-1 -1 -2 -1z" glyph-name="cacute" horiz-adv-x="444" unicode="ć"/>
<glyph d="M125 356q0 -129 65 -212q60 -73 153 -74q67 0 140 42q38 22 51 22q29 0 34 -31q1 -5 1 -10q0 -35 -64 -65q-71 -34 -162 -34q-159 0 -246 129q-66 99 -66 233q0 156 86 258q88 103 231 104q108 0 174 -55q31 -27 32 -49q0 -33 -26 -40q-5 -2 -10 -2q-15 0 -45 25 q-51 41 -110 45h-15q-129 0 -188 -123q-35 -73 -35 -163zM213 840l129 55l129 -55q22 -11 23 -35q0 -29 -25 -36q-6 -2 -11 -2q-11 1 -22 5l-94 37l-94 -37q-12 -5 -22 -5q-28 0 -35 27q-1 6 -1 11q1 25 23 35z" glyph-name="Ccircumflex" horiz-adv-x="593" unicode="Ĉ"/>
<glyph d="M35 266q0 132 77 209q64 63 163 63q100 0 133 -41q10 -13 10 -26q0 -24 -22 -34q-7 -3 -14 -3q-13 0 -46 15q-29 13 -61 13q-94 0 -133 -96q-19 -47 -19 -100q0 -99 54 -155q40 -41 98 -41q37 0 78 21q17 9 28 9q31 -6 34 -37q0 -33 -50 -54q-38 -15 -90 -15 q-136 0 -201 113q-39 69 -39 159zM123 680l129 55l129 -55q22 -11 23 -35q0 -29 -25 -36q-6 -2 -11 -2q-11 1 -22 5l-94 37l-94 -37q-12 -5 -22 -5q-28 0 -35 27q-1 6 -1 11q1 25 23 35z" glyph-name="ccircumflex" horiz-adv-x="444" unicode="ĉ"/>
<glyph d="M125 356q0 -129 65 -212q60 -73 153 -74q67 0 140 42q38 22 51 22q29 0 34 -31q1 -5 1 -10q0 -35 -64 -65q-71 -34 -162 -34q-159 0 -246 129q-66 99 -66 233q0 156 86 258q88 103 231 104q108 0 174 -55q31 -27 32 -49q0 -33 -26 -40q-5 -2 -10 -2q-15 0 -45 25 q-51 41 -110 45h-15q-129 0 -188 -123q-35 -73 -35 -163zM288 818q0 34 31 49q11 5 23 5q34 0 49 -31q5 -11 5 -23q0 -34 -31 -49q-11 -5 -23 -5q-34 0 -49 31q-5 11 -5 23z" glyph-name="Cdotaccent" horiz-adv-x="593" unicode="Ċ"/>
<glyph d="M35 266q0 132 77 209q64 63 163 63q100 0 133 -41q10 -13 10 -26q0 -24 -22 -34q-7 -3 -14 -3q-13 0 -46 15q-29 13 -61 13q-94 0 -133 -96q-19 -47 -19 -100q0 -99 54 -155q40 -41 98 -41q37 0 78 21q17 9 28 9q31 -6 34 -37q0 -33 -50 -54q-38 -15 -90 -15 q-136 0 -201 113q-39 69 -39 159zM198 658q0 34 31 49q11 5 23 5q34 0 49 -31q5 -11 5 -23q0 -34 -31 -49q-11 -5 -23 -5q-34 0 -49 31q-5 11 -5 23z" glyph-name="cdotaccent" horiz-adv-x="444" unicode="ċ"/>
<glyph d="M125 356q0 -129 65 -212q60 -73 153 -74q67 0 140 42q38 22 51 22q29 0 34 -31q1 -5 1 -10q0 -35 -64 -65q-71 -34 -162 -34q-159 0 -246 129q-66 99 -66 233q0 156 86 258q88 103 231 104q108 0 174 -55q31 -27 32 -49q0 -33 -26 -40q-5 -2 -10 -2q-15 0 -45 25 q-51 41 -110 45h-15q-129 0 -188 -123q-35 -73 -35 -163zM342 767l-129 55q-22 11 -23 35q0 29 25 36q6 2 11 2q11 -1 22 -5l94 -37l94 37q12 5 22 5q28 0 35 -27q1 -6 1 -11q-1 -25 -23 -35z" glyph-name="Ccaron" horiz-adv-x="593" unicode="Č"/>
<glyph d="M35 266q0 132 77 209q64 63 163 63q100 0 133 -41q10 -13 10 -26q0 -24 -22 -34q-7 -3 -14 -3q-13 0 -46 15q-29 13 -61 13q-94 0 -133 -96q-19 -47 -19 -100q0 -99 54 -155q40 -41 98 -41q37 0 78 21q17 9 28 9q31 -6 34 -37q0 -33 -50 -54q-38 -15 -90 -15 q-136 0 -201 113q-39 69 -39 159zM252 607l-129 55q-22 11 -23 35q0 29 25 36q6 2 11 2q11 -1 22 -5l94 -37l94 37q12 5 22 5q28 0 35 -27q1 -6 1 -11q-1 -25 -23 -35z" glyph-name="ccaron" horiz-adv-x="444" unicode="č"/>
<glyph d="M63 48v616q6 45 47 48h173q172 0 258 -133q58 -92 58 -219q0 -188 -105 -287q-80 -73 -199 -73h-185q-44 5 -47 48zM151 636v-560h126q148 0 203 138q25 64 25 146q0 159 -91 231q-58 45 -143 45h-120zM265 767l-129 55q-22 11 -23 35q0 29 25 36q6 2 11 2q11 -1 22 -5 l94 -37l94 37q12 5 22 5q28 0 35 -27q1 -6 1 -11q-1 -25 -23 -35z" glyph-name="Dcaron" horiz-adv-x="630" unicode="Ď"/>
<glyph d="M415 266q0 108 -57 162q-36 34 -89 34q-96 0 -131 -103q-15 -43 -15 -93q0 -108 57 -162q36 -34 89 -34q96 0 131 103q15 43 15 93zM406 41v26h-2q-39 -72 -142 -73q-116 0 -180 102q-47 74 -47 170q0 124 71 203q63 69 156 69q83 0 134 -62q5 -6 8 -10h2v259q0 40 34 46 q5 1 10 1q37 0 43 -36q1 -6 1 -11v-684q0 -40 -34 -46q-5 -1 -10 -1q-37 0 -43 36q-1 6 -1 11zM543 661l41 86q12 24 35 25q30 0 40 -24q2 -5 2 -10q-1 -15 -7 -27l-48 -89q-12 -19 -33 -20q-29 0 -36 22q-1 4 -1 7q1 17 7 30z" glyph-name="dcaron" horiz-adv-x="556" unicode="ď"/>
<glyph d="M63 48v273h-38q-39 7 -43 38q0 33 35 37q4 1 8 1h38v267q6 45 47 48h173q172 0 258 -133q58 -92 58 -219q0 -188 -105 -287q-80 -73 -199 -73h-185q-44 5 -47 48zM151 321v-245h126q148 0 203 138q25 64 25 146q0 159 -91 231q-58 45 -143 45h-120v-239h120q39 -7 43 -38 q0 -33 -35 -37q-4 -1 -8 -1h-120z" glyph-name="Dcroat" horiz-adv-x="630" unicode="Đ"/>
<glyph d="M305 673h101v52q0 40 34 46q5 1 10 1q37 0 43 -36q1 -6 1 -11v-52h30q41 -4 43 -41q-3 -39 -43 -41h-30v-550q0 -40 -34 -46q-5 -1 -10 -1q-37 0 -43 36q-1 6 -1 11v26h-2q-39 -72 -142 -73q-116 0 -180 102q-47 74 -47 170q0 124 71 203q63 69 156 69q83 0 134 -62 q5 -6 8 -10h2v125h-101q-41 4 -43 41q3 39 43 41zM415 266q0 108 -57 162q-36 34 -89 34q-96 0 -131 -103q-15 -43 -15 -93q0 -108 57 -162q36 -34 89 -34q96 0 131 103q15 43 15 93z" glyph-name="dcroat" horiz-adv-x="556" unicode="đ"/>
<glyph d="M146 315v-233h212q41 -4 43 -41q-3 -39 -43 -41h-253q-44 5 -47 48v616q6 45 47 48h253q41 -4 43 -41q-3 -39 -43 -41h-212v-233h193q41 -4 43 -41q-3 -39 -43 -41h-193zM126 849h202q41 -4 43 -41q-3 -39 -43 -41h-202q-41 4 -43 41q3 39 43 41z" glyph-name="Emacron" horiz-adv-x="444" unicode="Ē"/>
<glyph d="M445 232h-331q0 -92 66 -136q39 -26 91 -26q76 0 138 48q31 24 42 24q23 0 30 -25q2 -7 2 -14q0 -32 -61 -67q-73 -42 -152 -42q-147 0 -210 120q-34 66 -34 152q0 124 75 203q66 69 164 69q114 0 181 -97q48 -72 48 -162q0 -40 -32 -46q-8 -1 -17 -1zM114 298h292 q0 81 -50 129q-38 35 -91 35q-105 4 -139 -97q-11 -31 -12 -67zM161 689h202q41 -4 43 -41q-3 -39 -43 -41h-202q-41 4 -43 41q3 39 43 41z" glyph-name="emacron" horiz-adv-x="520" unicode="ē"/>
<glyph d="M146 315v-233h212q41 -4 43 -41q-3 -39 -43 -41h-253q-44 5 -47 48v616q6 45 47 48h253q41 -4 43 -41q-3 -39 -43 -41h-212v-233h193q41 -4 43 -41q-3 -39 -43 -41h-193zM92 857q0 29 24 35q4 1 7 1q13 0 38 -24q35 -32 66 -33q32 0 66 33q25 23 38 24q24 0 30 -26 q1 -6 1 -10q0 -50 -64 -80q-36 -17 -71 -17q-57 0 -101 36q-33 27 -34 61z" glyph-name="Ebreve" horiz-adv-x="444" unicode="Ĕ"/>
<glyph d="M445 232h-331q0 -92 66 -136q39 -26 91 -26q76 0 138 48q31 24 42 24q23 0 30 -25q2 -7 2 -14q0 -32 -61 -67q-73 -42 -152 -42q-147 0 -210 120q-34 66 -34 152q0 124 75 203q66 69 164 69q114 0 181 -97q48 -72 48 -162q0 -40 -32 -46q-8 -1 -17 -1zM114 298h292 q0 81 -50 129q-38 35 -91 35q-105 4 -139 -97q-11 -31 -12 -67zM127 697q0 29 24 35q4 1 7 1q13 0 38 -24q35 -32 66 -33q32 0 66 33q25 23 38 24q24 0 30 -26q1 -6 1 -10q0 -50 -64 -80q-36 -17 -71 -17q-57 0 -101 36q-33 27 -34 61z" glyph-name="ebreve" horiz-adv-x="520" unicode="ĕ"/>
<glyph d="M146 315v-233h212q41 -4 43 -41q-3 -39 -43 -41h-253q-44 5 -47 48v616q6 45 47 48h253q41 -4 43 -41q-3 -39 -43 -41h-212v-233h193q41 -4 43 -41q-3 -39 -43 -41h-193zM173 818q0 34 31 49q11 5 23 5q34 0 49 -31q5 -11 5 -23q0 -34 -31 -49q-11 -5 -23 -5 q-34 0 -49 31q-5 11 -5 23z" glyph-name="Edotaccent" horiz-adv-x="444" unicode="Ė"/>
<glyph d="M445 232h-331q0 -92 66 -136q39 -26 91 -26q76 0 138 48q31 24 42 24q23 0 30 -25q2 -7 2 -14q0 -32 -61 -67q-73 -42 -152 -42q-147 0 -210 120q-34 66 -34 152q0 124 75 203q66 69 164 69q114 0 181 -97q48 -72 48 -162q0 -40 -32 -46q-8 -1 -17 -1zM114 298h292 q0 81 -50 129q-38 35 -91 35q-105 4 -139 -97q-11 -31 -12 -67zM208 658q0 34 31 49q11 5 23 5q34 0 49 -31q5 -11 5 -23q0 -34 -31 -49q-11 -5 -23 -5q-34 0 -49 31q-5 11 -5 23z" glyph-name="edotaccent" horiz-adv-x="520" unicode="ė"/>
<glyph d="M146 315v-233h212q41 -4 43 -41q-3 -39 -43 -41h-43l-24 -22q-37 -35 -37 -68q2 -33 37 -34q7 0 40 7q4 1 7 1q23 -1 24 -23q-5 -37 -85 -39q-66 0 -90 40q-9 15 -9 33q1 45 55 84l28 21h-156q-44 5 -47 48v616q6 45 47 48h253q41 -4 43 -41q-3 -39 -43 -41h-212v-233 h193q41 -4 43 -41q-3 -39 -43 -41h-193z" glyph-name="Eogonek" horiz-adv-x="444" unicode="Ę"/>
<glyph d="M445 232h-331q0 -92 66 -136q39 -26 91 -26q76 0 138 48q31 24 42 24q23 0 30 -25q2 -7 2 -14q0 -32 -61 -67t-130 -41l-18 -17q-37 -35 -37 -68q2 -33 37 -34q7 0 40 7q4 1 7 1q23 -1 24 -23q-5 -37 -85 -39q-66 0 -90 40q-9 15 -9 33q1 45 55 84l22 17 q-132 13 -185 133q-27 62 -27 137q0 124 75 203q66 69 164 69q114 0 181 -97q48 -72 48 -162q0 -40 -32 -46q-8 -1 -17 -1zM114 298h292q0 81 -50 129q-38 35 -91 35q-111 0 -142 -105q-8 -28 -9 -59z" glyph-name="eogonek" horiz-adv-x="520" unicode="ę"/>
<glyph d="M146 315v-233h212q41 -4 43 -41q-3 -39 -43 -41h-253q-44 5 -47 48v616q6 45 47 48h253q41 -4 43 -41q-3 -39 -43 -41h-212v-233h193q41 -4 43 -41q-3 -39 -43 -41h-193zM227 767l-129 55q-22 11 -23 35q0 29 25 36q6 2 11 2q11 -1 22 -5l94 -37l94 37q12 5 22 5 q28 0 35 -27q1 -6 1 -11q-1 -25 -23 -35z" glyph-name="Ecaron" horiz-adv-x="444" unicode="Ě"/>
<glyph d="M445 232h-331q0 -92 66 -136q39 -26 91 -26q76 0 138 48q31 24 42 24q23 0 30 -25q2 -7 2 -14q0 -32 -61 -67q-73 -42 -152 -42q-147 0 -210 120q-34 66 -34 152q0 124 75 203q66 69 164 69q114 0 181 -97q48 -72 48 -162q0 -40 -32 -46q-8 -1 -17 -1zM114 298h292 q0 81 -50 129q-38 35 -91 35q-105 4 -139 -97q-11 -31 -12 -67zM262 607l-129 55q-22 11 -23 35q0 29 25 36q6 2 11 2q11 -1 22 -5l94 -37l94 37q12 5 22 5q28 0 35 -27q1 -6 1 -11q-1 -25 -23 -35z" glyph-name="ecaron" horiz-adv-x="520" unicode="ě"/>
<glyph d="M559 326h-124q-41 4 -43 41q3 39 43 41h148q50 0 60 -36q4 -15 4 -36q0 -279 -206 -331q-45 -11 -98 -11q-157 0 -245 128q-67 99 -67 234q0 162 90 263q88 99 235 99q122 0 202 -59q41 -31 42 -55q0 -30 -27 -40q-8 -2 -15 -2q-16 0 -54 27q-64 46 -128 52q-13 1 -26 1 q-131 0 -191 -125q-34 -71 -34 -161q0 -139 71 -219q61 -67 158 -67q112 0 170 93q35 56 35 121v42zM223 840l129 55l129 -55q22 -11 23 -35q0 -29 -25 -36q-6 -2 -11 -2q-11 1 -22 5l-94 37l-94 -37q-12 -5 -22 -5q-28 0 -35 27q-1 6 -1 11q1 25 23 35z" glyph-name="Gcircumflex" horiz-adv-x="667" unicode="Ĝ"/>
<glyph d="M494 495v-457q0 -146 -98 -213q-59 -41 -142 -41t-155 41q-48 29 -49 56q0 34 28 40q5 1 9 1q15 0 57 -25q61 -37 117 -37q108 0 137 102q8 29 8 62v46h-2q-42 -71 -124 -76h-11q-121 0 -187 103q-47 73 -47 169q0 124 73 203q64 69 161 69q65 0 117 -47q11 -10 18 -20h2 v24q0 37 38 42q5 1 9 1q27 0 37 -24q4 -9 4 -19zM123 266q0 -108 57 -162q36 -34 89 -34q96 0 131 103q15 43 15 93q0 108 -57 162q-36 34 -89 34q-96 0 -131 -103q-15 -43 -15 -93zM173 680l129 55l129 -55q22 -11 23 -35q0 -29 -25 -36q-6 -2 -11 -2q-11 1 -22 5l-94 37 l-94 -37q-12 -5 -22 -5q-28 0 -35 27q-1 6 -1 11q1 25 23 35z" glyph-name="gcircumflex" horiz-adv-x="556" unicode="ĝ"/>
<glyph d="M559 326h-124q-41 4 -43 41q3 39 43 41h148q50 0 60 -36q4 -15 4 -36q0 -279 -206 -331q-45 -11 -98 -11q-157 0 -245 128q-67 99 -67 234q0 162 90 263q88 99 235 99q122 0 202 -59q41 -31 42 -55q0 -30 -27 -40q-8 -2 -15 -2q-16 0 -54 27q-64 46 -128 52q-13 1 -26 1 q-131 0 -191 -125q-34 -71 -34 -161q0 -139 71 -219q61 -67 158 -67q112 0 170 93q35 56 35 121v42zM217 857q0 29 24 35q4 1 7 1q13 0 38 -24q35 -32 66 -33q32 0 66 33q25 23 38 24q24 0 30 -26q1 -6 1 -10q0 -50 -64 -80q-36 -17 -71 -17q-57 0 -101 36q-33 27 -34 61z " glyph-name="Gbreve" horiz-adv-x="667" unicode="Ğ"/>
<glyph d="M494 495v-457q0 -146 -98 -213q-59 -41 -142 -41t-155 41q-48 29 -49 56q0 34 28 40q5 1 9 1q15 0 57 -25q61 -37 117 -37q108 0 137 102q8 29 8 62v46h-2q-42 -71 -124 -76h-11q-121 0 -187 103q-47 73 -47 169q0 124 73 203q64 69 161 69q65 0 117 -47q11 -10 18 -20h2 v24q0 37 38 42q5 1 9 1q27 0 37 -24q4 -9 4 -19zM123 266q0 -108 57 -162q36 -34 89 -34q96 0 131 103q15 43 15 93q0 108 -57 162q-36 34 -89 34q-96 0 -131 -103q-15 -43 -15 -93zM167 697q0 29 24 35q4 1 7 1q13 0 38 -24q35 -32 66 -33q32 0 66 33q25 23 38 24 q24 0 30 -26q1 -6 1 -10q0 -50 -64 -80q-36 -17 -71 -17q-57 0 -101 36q-33 27 -34 61z" glyph-name="gbreve" horiz-adv-x="556" unicode="ğ"/>
<glyph d="M559 326h-124q-41 4 -43 41q3 39 43 41h148q50 0 60 -36q4 -15 4 -36q0 -279 -206 -331q-45 -11 -98 -11q-157 0 -245 128q-67 99 -67 234q0 162 90 263q88 99 235 99q122 0 202 -59q41 -31 42 -55q0 -30 -27 -40q-8 -2 -15 -2q-16 0 -54 27q-64 46 -128 52q-13 1 -26 1 q-131 0 -191 -125q-34 -71 -34 -161q0 -139 71 -219q61 -67 158 -67q112 0 170 93q35 56 35 121v42zM298 818q0 34 31 49q11 5 23 5q34 0 49 -31q5 -11 5 -23q0 -34 -31 -49q-11 -5 -23 -5q-34 0 -49 31q-5 11 -5 23z" glyph-name="Gdotaccent" horiz-adv-x="667" unicode="Ġ"/>
<glyph d="M494 495v-457q0 -146 -98 -213q-59 -41 -142 -41t-155 41q-48 29 -49 56q0 34 28 40q5 1 9 1q15 0 57 -25q61 -37 117 -37q108 0 137 102q8 29 8 62v46h-2q-42 -71 -124 -76h-11q-121 0 -187 103q-47 73 -47 169q0 124 73 203q64 69 161 69q65 0 117 -47q11 -10 18 -20h2 v24q0 37 38 42q5 1 9 1q27 0 37 -24q4 -9 4 -19zM123 266q0 -108 57 -162q36 -34 89 -34q96 0 131 103q15 43 15 93q0 108 -57 162q-36 34 -89 34q-96 0 -131 -103q-15 -43 -15 -93zM248 658q0 34 31 49q11 5 23 5q34 0 49 -31q5 -11 5 -23q0 -34 -31 -49q-11 -5 -23 -5 q-34 0 -49 31q-5 11 -5 23z" glyph-name="gdotaccent" horiz-adv-x="556" unicode="ġ"/>
<glyph d="M559 326h-124q-41 4 -43 41q3 39 43 41h148q50 0 60 -36q4 -15 4 -36q0 -279 -206 -331q-45 -11 -98 -11q-157 0 -245 128q-67 99 -67 234q0 162 90 263q88 99 235 99q122 0 202 -59q41 -31 42 -55q0 -30 -27 -40q-8 -2 -15 -2q-16 0 -54 27q-64 46 -128 52q-13 1 -26 1 q-131 0 -191 -125q-34 -71 -34 -161q0 -139 71 -219q61 -67 158 -67q112 0 170 93q35 56 35 121v42zM268 -129l51 69q17 21 36 22q28 0 38 -23q3 -7 3 -14q-1 -15 -10 -26l-55 -62q-15 -17 -33 -17q-25 0 -35 20q-2 6 -2 11q1 11 7 20z" glyph-name="Gcommaaccent" horiz-adv-x="667" unicode="Ģ"/>
<glyph d="M494 495v-457q0 -146 -98 -213q-59 -41 -142 -41t-155 41q-48 29 -49 56q0 34 28 40q5 1 9 1q15 0 57 -25q61 -37 117 -37q108 0 137 102q8 29 8 62v46h-2q-42 -71 -124 -76h-11q-121 0 -187 103q-47 73 -47 169q0 124 73 203q64 69 161 69q65 0 117 -47q11 -10 18 -20h2 v24q0 37 38 42q5 1 9 1q27 0 37 -24q4 -9 4 -19zM123 266q0 -108 57 -162q36 -34 89 -34q96 0 131 103q15 43 15 93q0 108 -57 162q-36 34 -89 34q-96 0 -131 -103q-15 -43 -15 -93zM372 678l-51 -69q-17 -21 -36 -22q-27 0 -39 22q-3 7 -3 14q1 11 10 23l56 66q15 17 33 17 q25 0 35 -20q2 -6 2 -11q-1 -11 -7 -20z" glyph-name="gcommaaccent" horiz-adv-x="556" unicode="ģ"/>
<glyph d="M146 319v-272q-3 -51 -44 -53q-41 6 -44 53v618q3 51 44 53q41 -6 44 -53v-270h375v270q3 51 44 53q41 -6 44 -53v-618q-3 -51 -44 -53q-41 6 -44 53v272h-375zM203 840l129 55l129 -55q22 -11 23 -35q0 -29 -25 -36q-6 -2 -11 -2q-11 1 -22 5l-94 37l-94 -37 q-12 -5 -22 -5q-28 0 -35 27q-1 6 -1 11q1 25 23 35z" glyph-name="Hcircumflex" horiz-adv-x="667" unicode="Ĥ"/>
<glyph d="M392 41v290q0 89 -70 120q-25 11 -53 11q-67 0 -101 -51q-22 -34 -22 -80v-290q0 -40 -34 -46q-5 -1 -10 -1q-37 0 -43 36q-1 6 -1 11v684q0 40 34 46q5 1 10 1q37 0 43 -36q1 -6 1 -11v-255l2 -2q55 70 147 70q88 0 140 -62q45 -54 45 -140v-295q0 -40 -34 -46 q-5 -1 -10 -1q-37 0 -43 36q-1 6 -1 11zM81 880l129 55l129 -55q22 -11 23 -35q0 -29 -25 -36q-6 -2 -11 -2q-11 1 -22 5l-94 37l-94 -37q-12 -5 -22 -5q-28 0 -35 27q-1 6 -1 11q1 25 23 35z" glyph-name="hcircumflex" horiz-adv-x="538" unicode="ĥ"/>
<glyph d="M146 319v-272q-3 -51 -44 -53q-41 6 -44 53v618q3 51 44 53q41 -6 44 -53v-70h375v70q3 51 44 53q41 -6 44 -53v-618q-3 -51 -44 -53q-41 6 -44 53v272h-375zM146 395h375v124h-375v-124z" glyph-name="Hbar" horiz-adv-x="667" unicode="Ħ"/>
<glyph d="M392 41v290q0 89 -70 120q-25 11 -53 11q-67 0 -101 -51q-22 -34 -22 -80v-290q0 -40 -34 -46q-5 -1 -10 -1q-37 0 -43 36q-1 6 -1 11v550h-30q-41 4 -43 41q3 39 43 41h30v52q0 40 34 46q5 1 10 1q37 0 43 -36q1 -6 1 -11v-52h106q41 -4 43 -41q-3 -39 -43 -41h-106 v-121l2 -2q55 70 147 70q88 0 140 -62q45 -54 45 -140v-295q0 -40 -34 -46q-5 -1 -10 -1q-37 0 -43 36q-1 6 -1 11z" glyph-name="hbar" horiz-adv-x="538" unicode="ħ"/>
<glyph d="M146 671v-630q0 -40 -34 -46q-5 -1 -10 -1q-37 0 -43 36q-1 6 -1 11v630q0 40 34 46q5 1 10 1q37 0 43 -36q1 -6 1 -11zM-47 815q0 33 40 52q24 11 53 11q21 0 71 -14q23 -6 39 -6q13 0 40 14q12 6 22 6q19 0 29 -22q4 -9 4 -17q0 -33 -40 -52q-24 -11 -53 -11 q-21 0 -71 14q-23 6 -39 6q-13 0 -40 -14q-12 -6 -22 -6q-19 0 -29 22q-4 9 -4 17z" glyph-name="Itilde" unicode="Ĩ"/>
<glyph d="M146 491v-450q0 -40 -34 -46q-5 -1 -10 -1q-37 0 -43 36q-1 6 -1 11v450q0 40 34 46q5 1 10 1q37 0 43 -36q1 -6 1 -11zM-47 655q0 33 40 52q24 11 53 11q21 0 71 -14q23 -6 39 -6q13 0 40 14q12 6 22 6q19 0 29 -22q4 -9 4 -17q0 -33 -40 -52q-24 -11 -53 -11 q-21 0 -71 14q-23 6 -39 6q-13 0 -40 -14q-12 -6 -22 -6q-19 0 -29 22q-4 9 -4 17z" glyph-name="itilde" unicode="ĩ"/>
<glyph d="M146 671v-630q0 -40 -34 -46q-5 -1 -10 -1q-37 0 -43 36q-1 6 -1 11v630q0 40 34 46q5 1 10 1q37 0 43 -36q1 -6 1 -11zM1 849h202q41 -4 43 -41q-3 -39 -43 -41h-202q-41 4 -43 41q3 39 43 41z" glyph-name="Imacron" unicode="Ī"/>
<glyph d="M146 491v-450q0 -40 -34 -46q-5 -1 -10 -1q-37 0 -43 36q-1 6 -1 11v450q0 40 34 46q5 1 10 1q37 0 43 -36q1 -6 1 -11zM1 689h202q41 -4 43 -41q-3 -39 -43 -41h-202q-41 4 -43 41q3 39 43 41z" glyph-name="imacron" unicode="ī"/>
<glyph d="M146 671v-630q0 -40 -34 -46q-5 -1 -10 -1q-37 0 -43 36q-1 6 -1 11v630q0 40 34 46q5 1 10 1q37 0 43 -36q1 -6 1 -11zM-33 857q0 29 24 35q4 1 7 1q13 0 38 -24q35 -32 66 -33q32 0 66 33q25 23 38 24q24 0 30 -26q1 -6 1 -10q0 -50 -64 -80q-36 -17 -71 -17 q-57 0 -101 36q-33 27 -34 61z" glyph-name="Ibreve" unicode="Ĭ"/>
<glyph d="M146 491v-450q0 -40 -34 -46q-5 -1 -10 -1q-37 0 -43 36q-1 6 -1 11v450q0 40 34 46q5 1 10 1q37 0 43 -36q1 -6 1 -11zM-33 697q0 29 24 35q4 1 7 1q13 0 38 -24q35 -32 66 -33q32 0 66 33q25 23 38 24q24 0 30 -26q1 -6 1 -10q0 -50 -64 -80q-36 -17 -71 -17 q-57 0 -101 36q-33 27 -34 61z" glyph-name="ibreve" unicode="ĭ"/>
<glyph d="M146 671v-630q-1 -27 -18 -40l-25 -23q-37 -35 -37 -68q2 -33 37 -34q7 0 40 7q4 1 7 1q23 -1 24 -23q-5 -37 -85 -39q-66 0 -90 40q-9 15 -9 33q1 45 55 84l30 22q-17 13 -17 40v630q0 40 34 46q5 1 10 1q37 0 43 -36q1 -6 1 -11z" glyph-name="Iogonek" unicode="Į"/>
<glyph d="M75 2q-17 13 -17 39v450q0 40 34 46q5 1 10 1q37 0 43 -36q1 -6 1 -11v-450q-1 -29 -21 -41l-23 -22q-37 -35 -37 -68q2 -33 37 -34q7 0 40 7q4 1 7 1q23 -1 24 -23q-5 -37 -85 -39q-66 0 -90 40q-9 15 -9 33q1 45 55 84zM48 664q0 34 31 49q11 5 23 5q34 0 49 -31 q5 -11 5 -23q0 -34 -31 -49q-11 -5 -23 -5q-34 0 -49 31q-5 11 -5 23z" glyph-name="iogonek" unicode="į"/>
<glyph d="M146 671v-630q0 -40 -34 -46q-5 -1 -10 -1q-37 0 -43 36q-1 6 -1 11v630q0 40 34 46q5 1 10 1q37 0 43 -36q1 -6 1 -11zM48 818q0 34 31 49q11 5 23 5q34 0 49 -31q5 -11 5 -23q0 -34 -31 -49q-11 -5 -23 -5q-34 0 -49 31q-5 11 -5 23z" glyph-name="Idotaccent" unicode="İ"/>
<glyph d="M146 491v-450q0 -40 -34 -46q-5 -1 -10 -1q-37 0 -43 36q-1 6 -1 11v450q0 40 34 46q5 1 10 1q37 0 43 -36q1 -6 1 -11z" glyph-name="dotlessi" unicode="ı"/>
<glyph d="M224 172v499q0 40 34 46q5 1 10 1q37 0 43 -36q1 -6 1 -11v-490q-2 -186 -173 -187q-55 0 -105 28q-40 23 -41 52q0 31 27 36q4 1 8 1q17 0 42 -18q33 -23 76 -23q77 2 78 102zM139 840l129 55l129 -55q22 -11 23 -35q0 -29 -25 -36q-6 -2 -11 -2q-11 1 -22 5l-94 37 l-94 -37q-12 -5 -22 -5q-28 0 -35 27q-1 6 -1 11q1 25 23 35z" glyph-name="Jcircumflex" horiz-adv-x="370" unicode="Ĵ"/>
<glyph d="M146 491v-660q0 -40 -34 -46q-5 -1 -10 -1q-37 0 -43 36q-1 6 -1 11v660q0 40 34 46q5 1 10 1q37 0 43 -36q1 -6 1 -11zM-27 680l129 55l129 -55q22 -11 23 -35q0 -29 -25 -36q-6 -2 -11 -2q-11 1 -22 5l-94 37l-94 -37q-12 -5 -22 -5q-28 0 -35 27q-1 6 -1 11 q1 25 23 35z" glyph-name="jcircumflex" unicode="ĵ"/>
<glyph d="M146 339v-298q0 -40 -34 -46q-5 -1 -10 -1q-37 0 -43 36q-1 6 -1 11v630q0 40 34 46q5 1 10 1q37 0 43 -36q1 -6 1 -11v-260l305 279q30 27 48 28q30 0 37 -28q1 -5 1 -10q-1 -24 -18 -40l-292 -263l319 -308q18 -17 18 -36q0 -25 -26 -36q-9 -3 -17 -3q-24 1 -43 19z M206 -129l51 69q17 21 36 22q28 0 38 -23q3 -7 3 -14q-1 -15 -10 -26l-55 -62q-15 -17 -33 -17q-25 0 -35 20q-2 6 -2 11q1 11 7 20z" glyph-name="Kcommaaccent" horiz-adv-x="574" unicode="Ķ"/>
<glyph d="M58 41v684q0 40 34 46q5 1 10 1q37 0 43 -36q1 -6 1 -11v-375l192 161q31 26 50 27q30 0 36 -29q1 -5 1 -10q-1 -22 -22 -38l-200 -158l232 -229q21 -22 21 -45q0 -25 -25 -33q-6 -2 -12 -2q-23 0 -44 20l-7 7l-222 232v-212q0 -40 -34 -46q-5 -1 -10 -1q-37 0 -43 36 q-1 6 -1 11zM159 -129l51 69q17 21 36 22q28 0 38 -23q3 -7 3 -14q-1 -15 -10 -26l-55 -62q-15 -17 -33 -17q-25 0 -35 20q-2 6 -2 11q1 11 7 20z" glyph-name="kcommaaccent" horiz-adv-x="463" unicode="ķ"/>
<glyph d="M58 41v450q0 40 34 46q5 1 10 1q37 0 43 -36q1 -6 1 -11v-141l192 161q31 26 50 27q30 0 36 -29q1 -5 1 -10q-1 -22 -22 -38l-200 -158l232 -229q21 -22 21 -45q0 -25 -25 -33q-6 -2 -12 -2q-23 0 -44 20l-7 7l-222 232v-212q0 -40 -34 -46q-5 -1 -10 -1q-37 0 -43 36 q-1 6 -1 11z" glyph-name="kgreenlandic" horiz-adv-x="463" unicode="ĸ"/>
<glyph d="M146 671v-589h188q41 -4 43 -41q-3 -39 -43 -41h-229q-44 5 -47 48v623q0 40 34 46q5 1 10 1q37 0 43 -36q1 -6 1 -11zM195 823l-115 -47q-22 -9 -34 -9q-27 0 -36 30q-2 7 -2 12q0 22 33 36q1 1 2 1l115 47q22 9 34 9q27 0 36 -30q2 -7 2 -12q0 -22 -33 -36q-1 -1 -2 -1 z" glyph-name="Lacute" horiz-adv-x="389" unicode="Ĺ"/>
<glyph d="M146 725v-684q0 -40 -34 -46q-5 -1 -10 -1q-37 0 -43 36q-1 6 -1 11v684q0 40 34 46q5 1 10 1q37 0 43 -36q1 -6 1 -11zM195 843l-115 -47q-22 -9 -34 -9q-27 0 -36 30q-2 7 -2 12q0 22 33 36q1 1 2 1l115 47q22 9 34 9q27 0 36 -30q2 -7 2 -12q0 -22 -33 -36 q-1 -1 -2 -1z" glyph-name="lacute" unicode="ĺ"/>
<glyph d="M146 671v-589h188q41 -4 43 -41q-3 -39 -43 -41h-229q-44 5 -47 48v623q0 40 34 46q5 1 10 1q37 0 43 -36q1 -6 1 -11zM134 -129l51 69q17 21 36 22q28 0 38 -23q3 -7 3 -14q-1 -15 -10 -26l-55 -62q-15 -17 -33 -17q-25 0 -35 20q-2 6 -2 11q1 11 7 20z" glyph-name="Lcommaaccent" horiz-adv-x="389" unicode="Ļ"/>
<glyph d="M146 725v-684q0 -40 -34 -46q-5 -1 -10 -1q-37 0 -43 36q-1 6 -1 11v684q0 40 34 46q5 1 10 1q37 0 43 -36q1 -6 1 -11zM26 -129l51 69q17 21 36 22q28 0 38 -23q3 -7 3 -14q-1 -15 -10 -26l-55 -62q-15 -17 -33 -17q-25 0 -35 20q-2 6 -2 11q1 11 7 20z" glyph-name="lcommaaccent" unicode="ļ"/>
<glyph d="M146 671v-589h188q41 -4 43 -41q-3 -39 -43 -41h-229q-44 5 -47 48v623q0 40 34 46q5 1 10 1q37 0 43 -36q1 -6 1 -11zM219 661l41 86q12 24 35 25q30 0 40 -24q2 -5 2 -10q-1 -15 -7 -27l-48 -89q-12 -19 -33 -20q-29 0 -36 22q-1 4 -1 7q1 17 7 30z" glyph-name="Lcaron" horiz-adv-x="389" unicode="Ľ"/>
<glyph d="M146 725v-684q0 -40 -34 -46q-5 -1 -10 -1q-37 0 -43 36q-1 6 -1 11v684q0 40 34 46q5 1 10 1q37 0 43 -36q1 -6 1 -11zM194 661l41 86q12 24 35 25q30 0 40 -24q2 -5 2 -10q-1 -15 -7 -27l-48 -89q-12 -19 -33 -20q-29 0 -36 22q-1 4 -1 7q1 17 7 30z" glyph-name="lcaron" unicode="ľ"/>
<glyph d="M146 671v-589h188q41 -4 43 -41q-3 -39 -43 -41h-229q-44 5 -47 48v623q0 40 34 46q5 1 10 1q37 0 43 -36q1 -6 1 -11zM242 365q0 34 31 49q11 5 23 5q34 0 49 -31q5 -11 5 -23q0 -34 -31 -49q-11 -5 -23 -5q-34 0 -49 31q-5 11 -5 23z" glyph-name="Ldot" horiz-adv-x="389" unicode="Ŀ"/>
<glyph d="M146 725v-684q0 -40 -34 -46q-5 -1 -10 -1q-37 0 -43 36q-1 6 -1 11v684q0 40 34 46q5 1 10 1q37 0 43 -36q1 -6 1 -11zM190 368q0 34 31 49q11 5 23 5q34 0 49 -31q5 -11 5 -23q0 -34 -31 -49q-11 -5 -23 -5q-34 0 -49 31q-5 11 -5 23z" glyph-name="ldot" horiz-adv-x="286" unicode="ŀ"/>
<glyph d="M146 337v-255h188q41 -4 43 -41q-3 -39 -43 -41h-229q-44 5 -47 48v238l-13 -8q-21 -11 -37 -11q-26 0 -33 28q-2 6 -2 12q1 22 24 35l61 36v293q0 40 34 46q5 1 10 1q37 0 43 -36q1 -6 1 -11v-242l67 38q23 12 37 12q28 0 35 -26q2 -6 2 -12q-1 -23 -24 -37z" glyph-name="Lslash" horiz-adv-x="389" unicode="Ł"/>
<glyph d="M58 41v243l-21 -21q-17 -16 -33 -16q-28 0 -37 26q-2 6 -2 12q1 18 17 34l76 76v330q0 40 34 46q5 1 10 1q37 0 43 -36q1 -6 1 -11v-242l21 21q17 16 33 16q28 0 37 -26q2 -6 2 -12q-1 -18 -17 -34l-76 -76v-331q0 -40 -34 -46q-5 -1 -10 -1q-37 0 -43 36q-1 6 -1 11z " glyph-name="lslash" unicode="ł"/>
<glyph d="M146 557v-516q0 -40 -34 -46q-5 -1 -10 -1q-37 0 -43 36q-1 6 -1 11v625q2 51 40 52q27 0 48 -27q7 -8 14 -19l360 -517h2v516q0 40 34 46q5 1 10 1q37 0 43 -36q1 -6 1 -11v-625q-2 -51 -40 -52q-27 0 -48 27q-7 8 -14 19l-360 517h-2zM459 823l-115 -47q-22 -9 -34 -9 q-27 0 -36 30q-2 7 -2 12q0 22 33 36q1 1 2 1l115 47q22 9 34 9q27 0 36 -30q2 -7 2 -12q0 -22 -33 -36q-1 -1 -2 -1z" glyph-name="Nacute" horiz-adv-x="668" unicode="Ń"/>
<glyph d="M58 41v450q0 40 34 46q5 1 10 1q37 0 43 -36q1 -6 1 -11v-21l2 -2q55 70 147 70q88 0 140 -62q45 -54 45 -140v-295q0 -40 -34 -46q-5 -1 -10 -1q-37 0 -43 36q-1 6 -1 11v290q0 89 -70 120q-25 11 -53 11q-67 0 -101 -51q-22 -34 -22 -80v-290q0 -40 -34 -46 q-5 -1 -10 -1q-37 0 -43 36q-1 6 -1 11zM382 663l-115 -47q-22 -9 -34 -9q-27 0 -36 30q-2 7 -2 12q0 22 33 36q1 1 2 1l115 47q22 9 34 9q27 0 36 -30q2 -7 2 -12q0 -22 -33 -36q-1 -1 -2 -1z" glyph-name="nacute" horiz-adv-x="538" unicode="ń"/>
<glyph d="M146 557v-516q0 -40 -34 -46q-5 -1 -10 -1q-37 0 -43 36q-1 6 -1 11v625q2 51 40 52q27 0 48 -27q7 -8 14 -19l360 -517h2v516q0 40 34 46q5 1 10 1q37 0 43 -36q1 -6 1 -11v-625q-2 -51 -40 -52q-27 0 -48 27q-7 8 -14 19l-360 517h-2zM250 -129l51 69q17 21 36 22 q28 0 38 -23q3 -7 3 -14q-1 -15 -10 -26l-55 -62q-15 -17 -33 -17q-25 0 -35 20q-2 6 -2 11q1 11 7 20z" glyph-name="Ncommaaccent" horiz-adv-x="668" unicode="Ņ"/>
<glyph d="M58 41v450q0 40 34 46q5 1 10 1q37 0 43 -36q1 -6 1 -11v-21l2 -2q55 70 147 70q88 0 140 -62q45 -54 45 -140v-295q0 -40 -34 -46q-5 -1 -10 -1q-37 0 -43 36q-1 6 -1 11v290q0 89 -70 120q-25 11 -53 11q-67 0 -101 -51q-22 -34 -22 -80v-290q0 -40 -34 -46 q-5 -1 -10 -1q-37 0 -43 36q-1 6 -1 11zM191 -129l51 69q17 21 36 22q28 0 38 -23q3 -7 3 -14q-1 -15 -10 -26l-55 -62q-15 -17 -33 -17q-25 0 -35 20q-2 6 -2 11q1 11 7 20z" glyph-name="ncommaaccent" horiz-adv-x="538" unicode="ņ"/>
<glyph d="M146 557v-516q0 -40 -34 -46q-5 -1 -10 -1q-37 0 -43 36q-1 6 -1 11v625q2 51 40 52q27 0 48 -27q7 -8 14 -19l360 -517h2v516q0 40 34 46q5 1 10 1q37 0 43 -36q1 -6 1 -11v-625q-2 -51 -40 -52q-27 0 -48 27q-7 8 -14 19l-360 517h-2zM334 767l-129 55q-22 11 -23 35 q0 29 25 36q6 2 11 2q11 -1 22 -5l94 -37l94 37q12 5 22 5q28 0 35 -27q1 -6 1 -11q-1 -25 -23 -35z" glyph-name="Ncaron" horiz-adv-x="668" unicode="Ň"/>
<glyph d="M58 41v450q0 40 34 46q5 1 10 1q37 0 43 -36q1 -6 1 -11v-21l2 -2q55 70 147 70q88 0 140 -62q45 -54 45 -140v-295q0 -40 -34 -46q-5 -1 -10 -1q-37 0 -43 36q-1 6 -1 11v290q0 89 -70 120q-25 11 -53 11q-67 0 -101 -51q-22 -34 -22 -80v-290q0 -40 -34 -46 q-5 -1 -10 -1q-37 0 -43 36q-1 6 -1 11zM272 607l-129 55q-22 11 -23 35q0 29 25 36q6 2 11 2q11 -1 22 -5l94 -37l94 37q12 5 22 5q28 0 35 -27q1 -6 1 -11q-1 -25 -23 -35z" glyph-name="ncaron" horiz-adv-x="538" unicode="ň"/>
<glyph d="M506 26l-359 521v-498q-2 -54 -45 -55q-43 2 -44 55v618q0 44 35 50q5 1 9 1q29 -1 49 -30l356 -518v493q2 54 45 55q43 -2 44 -55v-698q0 -109 -76 -154q-38 -21 -86 -21q-81 0 -130 44q-21 19 -22 35q0 32 27 40q5 1 10 1q15 -1 33 -15q37 -27 79 -27q72 8 75 97v61z " glyph-name="Eng" horiz-adv-x="654" unicode="Ŋ"/>
<glyph d="M147 333v-284q-2 -54 -44 -55q-44 2 -45 55v439q2 54 45 55q43 -2 44 -55q54 55 128 55q91 0 148 -63q47 -53 47 -132v-383q0 -109 -76 -154q-38 -21 -86 -21q-81 0 -130 44q-21 19 -22 35q0 32 27 40q5 1 10 1q14 -1 33 -15q37 -27 79 -27q75 2 76 97v385q0 72 -62 99 q-25 10 -55 10q-64 0 -97 -52q-20 -32 -20 -74z" glyph-name="eng" horiz-adv-x="528" unicode="ŋ"/>
<glyph d="M125 356q0 -145 72 -224q57 -62 146 -62q135 0 190 132q28 68 28 154q0 145 -72 224q-57 62 -146 62q-135 0 -190 -132q-28 -68 -28 -154zM31 356q0 153 84 256q88 105 228 106q155 0 242 -125q70 -101 70 -237q0 -153 -84 -256q-88 -105 -228 -106q-155 0 -242 125 q-70 101 -70 237zM241 849h202q41 -4 43 -41q-3 -39 -43 -41h-202q-41 4 -43 41q3 39 43 41z" glyph-name="Omacron" horiz-adv-x="686" unicode="Ō"/>
<glyph d="M35 266q0 124 73 203q64 69 161 69q121 0 187 -103q47 -73 47 -169q0 -124 -73 -203q-64 -69 -161 -69q-121 0 -187 103q-47 73 -47 169zM123 266q0 -108 57 -162q36 -34 89 -34q96 0 131 103q15 43 15 93q0 108 -57 162q-36 34 -89 34q-96 0 -131 -103q-15 -43 -15 -93z M169 689h202q41 -4 43 -41q-3 -39 -43 -41h-202q-41 4 -43 41q3 39 43 41z" glyph-name="omacron" horiz-adv-x="538" unicode="ō"/>
<glyph d="M125 356q0 -145 72 -224q57 -62 146 -62q135 0 190 132q28 68 28 154q0 145 -72 224q-57 62 -146 62q-135 0 -190 -132q-28 -68 -28 -154zM31 356q0 153 84 256q88 105 228 106q155 0 242 -125q70 -101 70 -237q0 -153 -84 -256q-88 -105 -228 -106q-155 0 -242 125 q-70 101 -70 237zM207 857q0 29 24 35q4 1 7 1q13 0 38 -24q35 -32 66 -33q32 0 66 33q25 23 38 24q24 0 30 -26q1 -6 1 -10q0 -50 -64 -80q-36 -17 -71 -17q-57 0 -101 36q-33 27 -34 61z" glyph-name="Obreve" horiz-adv-x="686" unicode="Ŏ"/>
<glyph d="M35 266q0 124 73 203q64 69 161 69q121 0 187 -103q47 -73 47 -169q0 -124 -73 -203q-64 -69 -161 -69q-121 0 -187 103q-47 73 -47 169zM123 266q0 -108 57 -162q36 -34 89 -34q96 0 131 103q15 43 15 93q0 108 -57 162q-36 34 -89 34q-96 0 -131 -103q-15 -43 -15 -93z M135 697q0 29 24 35q4 1 7 1q13 0 38 -24q35 -32 66 -33q32 0 66 33q25 23 38 24q24 0 30 -26q1 -6 1 -10q0 -50 -64 -80q-36 -17 -71 -17q-57 0 -101 36q-33 27 -34 61z" glyph-name="obreve" horiz-adv-x="538" unicode="ŏ"/>
<glyph d="M125 356q0 -145 72 -224q57 -62 146 -62q135 0 190 132q28 68 28 154q0 145 -72 224q-57 62 -146 62q-135 0 -190 -132q-28 -68 -28 -154zM31 356q0 153 84 256q88 105 228 106q155 0 242 -125q70 -101 70 -237q0 -153 -84 -256q-88 -105 -228 -106q-155 0 -242 125 q-70 101 -70 237zM387 823l-115 -47q-22 -9 -34 -9q-27 0 -36 30q-2 7 -2 12q0 22 33 36q1 1 2 1l115 47q22 9 34 9q27 0 36 -30q2 -7 2 -12q0 -22 -33 -36q-1 -1 -2 -1zM607 823l-115 -47q-22 -9 -34 -9q-27 0 -36 30q-2 7 -2 12q0 22 33 36q1 1 2 1l115 47q22 9 34 9 q27 0 36 -30q2 -7 2 -12q0 -22 -33 -36q-1 -1 -2 -1z" glyph-name="Ohungarumlaut" horiz-adv-x="686" unicode="Ő"/>
<glyph d="M35 266q0 124 73 203q64 69 161 69q121 0 187 -103q47 -73 47 -169q0 -124 -73 -203q-64 -69 -161 -69q-121 0 -187 103q-47 73 -47 169zM123 266q0 -108 57 -162q36 -34 89 -34q96 0 131 103q15 43 15 93q0 108 -57 162q-36 34 -89 34q-96 0 -131 -103q-15 -43 -15 -93z M308 663l-115 -47q-22 -9 -34 -9q-27 0 -36 30q-2 7 -2 12q0 22 33 36q1 1 2 1l115 47q22 9 34 9q27 0 36 -30q2 -7 2 -12q0 -22 -33 -36q-1 -1 -2 -1zM528 663l-115 -47q-22 -9 -34 -9q-27 0 -36 30q-2 7 -2 12q0 22 33 36q1 1 2 1l115 47q22 9 34 9q27 0 36 -30 q2 -7 2 -12q0 -22 -33 -36q-1 -1 -2 -1z" glyph-name="ohungarumlaut" horiz-adv-x="538" unicode="ő"/>
<glyph d="M125 356q0 -145 72 -224q57 -62 146 -62q135 0 190 132q28 68 28 154q0 145 -72 224q-57 62 -146 62q-135 0 -190 -132q-28 -68 -28 -154zM554 48v56h-2q-54 -78 -148 -102q-31 -8 -61 -8q-155 0 -242 125q-70 101 -70 237q0 153 84 256q88 105 228 106q122 -1 211 -100 v46q6 45 47 48h241q41 -4 43 -41q-3 -39 -43 -41h-200v-233h193q41 -4 43 -41q-3 -39 -43 -41h-193v-233h210q41 -4 43 -41q-3 -39 -43 -41h-251q-44 5 -47 48z" glyph-name="OE" horiz-adv-x="926" unicode="Œ"/>
<glyph d="M501 298h292q0 82 -52 130q-39 34 -94 34q-90 0 -128 -82q-18 -38 -18 -82zM35 266q0 124 72 203q64 69 159 69q111 0 183 -90l10 -14q47 81 143 100q22 4 45 4q120 0 187 -100q47 -70 47 -159q0 -40 -32 -46q-8 -1 -17 -1h-331q0 -93 68 -136q41 -25 97 -24q70 1 128 46 q32 23 44 24q23 0 30 -25q2 -7 2 -14q1 -31 -58 -67q-72 -42 -150 -42q-138 0 -199 98l-4 6q-65 -91 -167 -102q-13 -2 -26 -2q-118 0 -184 102q-47 74 -47 170zM268 462q-95 0 -130 -102q-15 -43 -15 -94q0 -107 55 -161q37 -35 90 -35q95 0 130 102q15 43 15 94 q0 107 -55 161q-37 35 -90 35z" glyph-name="oe" horiz-adv-x="907" unicode="œ"/>
<glyph d="M146 312v-271q0 -40 -34 -46q-5 -1 -10 -1q-37 0 -43 36q-1 6 -1 11v623q6 45 47 48h163q99 0 164 -64q54 -54 54 -128q0 -158 -134 -193q-28 -8 -60 -9l-38 -1l227 -249q17 -19 17 -40q0 -24 -26 -32q-7 -2 -14 -2q-22 1 -40 20zM146 636v-253h120q104 0 125 75 q7 24 7 56q0 65 -55 100q-34 22 -79 22h-118zM347 823l-115 -47q-22 -9 -34 -9q-27 0 -36 30q-2 7 -2 12q0 22 33 36q1 1 2 1l115 47q22 9 34 9q27 0 36 -30q2 -7 2 -12q0 -22 -33 -36q-1 -1 -2 -1z" glyph-name="Racute" horiz-adv-x="519" unicode="Ŕ"/>
<glyph d="M58 41v450q0 40 34 46q5 1 10 1q37 0 43 -36q1 -6 1 -11v-45h2q25 51 72 78q25 14 48 14q38 0 47 -32q2 -7 2 -13q-2 -37 -55 -48q-76 -13 -104 -82q-12 -31 -12 -69v-253q0 -40 -34 -46q-5 -1 -10 -1q-37 0 -43 36q-1 6 -1 11zM261 663l-115 -47q-22 -9 -34 -9 q-27 0 -36 30q-2 7 -2 12q0 22 33 36q1 1 2 1l115 47q22 9 34 9q27 0 36 -30q2 -7 2 -12q0 -22 -33 -36q-1 -1 -2 -1z" glyph-name="racute" horiz-adv-x="315" unicode="ŕ"/>
<glyph d="M146 312v-271q0 -40 -34 -46q-5 -1 -10 -1q-37 0 -43 36q-1 6 -1 11v623q6 45 47 48h163q99 0 164 -64q54 -54 54 -128q0 -158 -134 -193q-28 -8 -60 -9l-38 -1l227 -249q17 -19 17 -40q0 -24 -26 -32q-7 -2 -14 -2q-22 1 -40 20zM146 636v-253h120q104 0 125 75 q7 24 7 56q0 65 -55 100q-34 22 -79 22h-118zM173 -129l51 69q17 21 36 22q28 0 38 -23q3 -7 3 -14q-1 -15 -10 -26l-55 -62q-15 -17 -33 -17q-25 0 -35 20q-2 6 -2 11q1 11 7 20z" glyph-name="Rcommaaccent" horiz-adv-x="519" unicode="Ŗ"/>
<glyph d="M58 41v450q0 40 34 46q5 1 10 1q37 0 43 -36q1 -6 1 -11v-45h2q25 51 72 78q25 14 48 14q38 0 47 -32q2 -7 2 -13q-2 -37 -55 -48q-76 -13 -104 -82q-12 -31 -12 -69v-253q0 -40 -34 -46q-5 -1 -10 -1q-37 0 -43 36q-1 6 -1 11zM28 -129l51 69q17 21 36 22q28 0 38 -23 q3 -7 3 -14q-1 -15 -10 -26l-55 -62q-15 -17 -33 -17q-25 0 -35 20q-2 6 -2 11q1 11 7 20z" glyph-name="rcommaaccent" horiz-adv-x="315" unicode="ŗ"/>
<glyph d="M146 312v-271q0 -40 -34 -46q-5 -1 -10 -1q-37 0 -43 36q-1 6 -1 11v623q6 45 47 48h163q99 0 164 -64q54 -54 54 -128q0 -158 -134 -193q-28 -8 -60 -9l-38 -1l227 -249q17 -19 17 -40q0 -24 -26 -32q-7 -2 -14 -2q-22 1 -40 20zM146 636v-253h120q104 0 125 75 q7 24 7 56q0 65 -55 100q-34 22 -79 22h-118zM252 767l-129 55q-22 11 -23 35q0 29 25 36q6 2 11 2q11 -1 22 -5l94 -37l94 37q12 5 22 5q28 0 35 -27q1 -6 1 -11q-1 -25 -23 -35z" glyph-name="Rcaron" horiz-adv-x="519" unicode="Ř"/>
<glyph d="M58 41v450q0 40 34 46q5 1 10 1q37 0 43 -36q1 -6 1 -11v-45h2q25 51 72 78q25 14 48 14q38 0 47 -32q2 -7 2 -13q-2 -37 -55 -48q-76 -13 -104 -82q-12 -31 -12 -69v-253q0 -40 -34 -46q-5 -1 -10 -1q-37 0 -43 36q-1 6 -1 11zM146 607l-129 55q-22 11 -23 35 q0 29 25 36q6 2 11 2q11 -1 22 -5l94 -37l94 37q12 5 22 5q28 0 35 -27q1 -6 1 -11q-1 -25 -23 -35z" glyph-name="rcaron" horiz-adv-x="315" unicode="ř"/>
<glyph d="M238 718q90 0 145 -38q29 -22 30 -45q0 -27 -24 -36q-7 -3 -14 -3q-15 0 -46 20q-43 26 -94 26q-69 0 -99 -50q-14 -23 -14 -51q0 -58 71 -93q9 -4 104 -39q102 -38 136 -91q27 -42 27 -99q0 -105 -76 -169q-66 -56 -165 -56t-161 38q-36 22 -37 48q0 38 29 44q4 1 8 1 q10 0 49 -22q58 -33 113 -33q85 0 125 67q21 35 21 78q0 65 -75 101q-11 5 -105 39q-98 36 -132 86q-26 39 -26 94q0 70 59 126q61 57 151 57zM344 823l-115 -47q-22 -9 -34 -9q-27 0 -36 30q-2 7 -2 12q0 22 33 36q1 1 2 1l115 47q22 9 34 9q27 0 36 -30q2 -7 2 -12 q0 -22 -33 -36q-1 -1 -2 -1z" glyph-name="Sacute" horiz-adv-x="481" unicode="Ś"/>
<glyph d="M46 388q0 84 81 126q46 24 100 24q74 0 133 -36q43 -27 44 -58q0 -29 -29 -35q-6 -1 -11 -1q-15 0 -44 22q-44 32 -93 32q-68 0 -87 -41q-6 -13 -6 -26q0 -35 64 -64q16 -8 51 -21q98 -38 132 -69q37 -36 37 -83q0 -99 -90 -142q-47 -22 -104 -22q-101 0 -165 49 q-34 26 -35 52q0 30 25 38q6 2 11 2q15 0 51 -25q59 -40 116 -40q66 0 93 41q10 16 10 31q0 41 -70 75q-16 8 -53 24q-96 40 -128 71q-33 33 -33 76zM326 663l-115 -47q-22 -9 -34 -9q-27 0 -36 30q-2 7 -2 12q0 22 33 36q1 1 2 1l115 47q22 9 34 9q27 0 36 -30q2 -7 2 -12 q0 -22 -33 -36q-1 -1 -2 -1z" glyph-name="sacute" horiz-adv-x="444" unicode="ś"/>
<glyph d="M238 718q90 0 145 -38q29 -22 30 -45q0 -27 -24 -36q-7 -3 -14 -3q-15 0 -46 20q-43 26 -94 26q-69 0 -99 -50q-14 -23 -14 -51q0 -58 71 -93q9 -4 104 -39q102 -38 136 -91q27 -42 27 -99q0 -105 -76 -169q-66 -56 -165 -56t-161 38q-36 22 -37 48q0 38 29 44q4 1 8 1 q10 0 49 -22q58 -33 113 -33q85 0 125 67q21 35 21 78q0 65 -75 101q-11 5 -105 39q-98 36 -132 86q-26 39 -26 94q0 70 59 126q61 57 151 57zM113 840l129 55l129 -55q22 -11 23 -35q0 -29 -25 -36q-6 -2 -11 -2q-11 1 -22 5l-94 37l-94 -37q-12 -5 -22 -5q-28 0 -35 27 q-1 6 -1 11q1 25 23 35z" glyph-name="Scircumflex" horiz-adv-x="481" unicode="Ŝ"/>
<glyph d="M46 388q0 84 81 126q46 24 100 24q74 0 133 -36q43 -27 44 -58q0 -29 -29 -35q-6 -1 -11 -1q-15 0 -44 22q-44 32 -93 32q-68 0 -87 -41q-6 -13 -6 -26q0 -35 64 -64q16 -8 51 -21q98 -38 132 -69q37 -36 37 -83q0 -99 -90 -142q-47 -22 -104 -22q-101 0 -165 49 q-34 26 -35 52q0 30 25 38q6 2 11 2q15 0 51 -25q59 -40 116 -40q66 0 93 41q10 16 10 31q0 41 -70 75q-16 8 -53 24q-96 40 -128 71q-33 33 -33 76zM93 680l129 55l129 -55q22 -11 23 -35q0 -29 -25 -36q-6 -2 -11 -2q-11 1 -22 5l-94 37l-94 -37q-12 -5 -22 -5 q-28 0 -35 27q-1 6 -1 11q1 25 23 35z" glyph-name="scircumflex" horiz-adv-x="444" unicode="ŝ"/>
<glyph d="M238 718q90 0 145 -38q29 -22 30 -45q0 -27 -24 -36q-7 -3 -14 -3q-15 0 -46 20q-43 26 -94 26q-69 0 -99 -50q-14 -23 -14 -51q0 -58 71 -93q9 -4 104 -39q102 -38 136 -91q27 -42 27 -99q0 -105 -76 -169q-49 -41 -117 -52l-27 -40q16 3 21 3q45 0 63 -35q6 -11 6 -20 q0 -75 -88 -85q-11 -1 -23 -1q-59 0 -71 26q-2 5 -2 9q4 23 21 27q6 0 22 -4q21 -4 30 -4q34 2 35 27q0 16 -23 18h-21q-28 1 -30 19q1 11 10 25l22 31q-100 2 -159 40q-31 22 -32 46q0 38 29 44q4 1 8 1q10 0 49 -22q58 -33 113 -33q85 0 125 67q21 35 21 78q0 65 -75 101 q-11 5 -105 39q-98 36 -132 86q-26 39 -26 94q0 70 59 126q61 57 151 57z" glyph-name="Scedilla" horiz-adv-x="481" unicode="Ş"/>
<glyph d="M46 388q0 84 81 126q46 24 100 24q74 0 133 -36q43 -27 44 -58q0 -29 -29 -35q-6 -1 -11 -1q-15 0 -44 22q-44 32 -93 32q-68 0 -87 -41q-6 -13 -6 -26q0 -35 64 -64q16 -8 51 -21q98 -38 132 -69q37 -36 37 -83q0 -100 -91 -142q-31 -14 -67 -19l-26 -39q16 3 21 3 q45 0 63 -35q6 -11 6 -20q0 -75 -88 -85q-11 -1 -23 -1q-59 0 -71 26q-2 5 -2 9q4 23 21 27q6 0 22 -4q21 -4 30 -4q34 2 35 27q0 16 -23 18h-21q-28 1 -30 19q1 11 10 25l22 32q-98 5 -155 53q-26 24 -27 47q0 30 25 38q6 2 11 2q15 0 51 -25q59 -40 116 -40q66 0 93 41 q10 16 10 31q0 41 -70 75q-16 8 -53 24q-96 40 -128 71q-33 33 -33 76z" glyph-name="scedilla" horiz-adv-x="444" unicode="ş"/>
<glyph d="M238 718q90 0 145 -38q29 -22 30 -45q0 -27 -24 -36q-7 -3 -14 -3q-15 0 -46 20q-43 26 -94 26q-69 0 -99 -50q-14 -23 -14 -51q0 -58 71 -93q9 -4 104 -39q102 -38 136 -91q27 -42 27 -99q0 -105 -76 -169q-66 -56 -165 -56t-161 38q-36 22 -37 48q0 38 29 44q4 1 8 1 q10 0 49 -22q58 -33 113 -33q85 0 125 67q21 35 21 78q0 65 -75 101q-11 5 -105 39q-98 36 -132 86q-26 39 -26 94q0 70 59 126q61 57 151 57zM241 767l-129 55q-22 11 -23 35q0 29 25 36q6 2 11 2q11 -1 22 -5l94 -37l94 37q12 5 22 5q28 0 35 -27q1 -6 1 -11 q-1 -25 -23 -35z" glyph-name="Scaron" horiz-adv-x="481" unicode="Š"/>
<glyph d="M46 388q0 84 81 126q46 24 100 24q74 0 133 -36q43 -27 44 -58q0 -29 -29 -35q-6 -1 -11 -1q-15 0 -44 22q-44 32 -93 32q-68 0 -87 -41q-6 -13 -6 -26q0 -35 64 -64q16 -8 51 -21q98 -38 132 -69q37 -36 37 -83q0 -99 -90 -142q-47 -22 -104 -22q-101 0 -165 49 q-34 26 -35 52q0 30 25 38q6 2 11 2q15 0 51 -25q59 -40 116 -40q66 0 93 41q10 16 10 31q0 41 -70 75q-16 8 -53 24q-96 40 -128 71q-33 33 -33 76zM222 607l-129 55q-22 11 -23 35q0 29 25 36q6 2 11 2q11 -1 22 -5l94 -37l94 37q12 5 22 5q28 0 35 -27q1 -6 1 -11 q-1 -25 -23 -35z" glyph-name="scaron" horiz-adv-x="444" unicode="š"/>
<glyph d="M178 41v589h-133q-41 4 -43 41q3 39 43 41h354q41 -4 43 -41q-3 -39 -43 -41h-133v-589q0 -40 -34 -46q-5 -1 -10 -1q-37 0 -43 36q-1 6 -1 11zM145 -129l51 69q17 21 36 22q28 0 38 -23q3 -7 3 -14q-1 -15 -10 -26l-55 -62q-15 -17 -33 -17q-25 0 -35 20q-2 6 -2 11 q1 11 7 20z" glyph-name="Tcommaaccent" horiz-adv-x="444" unicode="Ţ"/>
<glyph d="M86 532v115q0 40 34 46q5 1 10 1q37 0 43 -36q1 -6 1 -11v-115h36q43 -2 44 -38q-2 -37 -44 -38h-36v-415q0 -40 -34 -46q-5 -1 -10 -1q-37 0 -43 36q-1 6 -1 11v415h-36q-43 2 -44 38q2 37 44 38h36zM57 -129l51 69q17 21 36 22q28 0 38 -23q3 -7 3 -14q-1 -15 -10 -26 l-55 -62q-15 -17 -33 -17q-25 0 -35 20q-2 6 -2 11q1 11 7 20z" glyph-name="tcommaaccent" horiz-adv-x="260" unicode="ţ"/>
<glyph d="M178 41v589h-133q-41 4 -43 41q3 39 43 41h354q41 -4 43 -41q-3 -39 -43 -41h-133v-589q0 -40 -34 -46q-5 -1 -10 -1q-37 0 -43 36q-1 6 -1 11zM222 767l-129 55q-22 11 -23 35q0 29 25 36q6 2 11 2q11 -1 22 -5l94 -37l94 37q12 5 22 5q28 0 35 -27q1 -6 1 -11 q-1 -25 -23 -35z" glyph-name="Tcaron" horiz-adv-x="444" unicode="Ť"/>
<glyph d="M86 532v115q0 40 34 46q5 1 10 1q37 0 43 -36q1 -6 1 -11v-115h36q43 -2 44 -38q-2 -37 -44 -38h-36v-415q0 -40 -34 -46q-5 -1 -10 -1q-37 0 -43 36q-1 6 -1 11v415h-36q-43 2 -44 38q2 37 44 38h36zM221 661l41 86q12 24 35 25q30 0 40 -24q2 -5 2 -10q-1 -15 -7 -27 l-48 -89q-12 -19 -33 -20q-29 0 -36 22q-1 4 -1 7q1 17 7 30z" glyph-name="tcaron" horiz-adv-x="260" unicode="ť"/>
<glyph d="M108 503h70v127h-133q-41 4 -43 41q3 39 43 41h354q41 -4 43 -41q-3 -39 -43 -41h-133v-127h70q41 -4 43 -41q-3 -39 -43 -41h-70v-380q0 -40 -34 -46q-5 -1 -10 -1q-37 0 -43 36q-1 6 -1 11v380h-70q-41 4 -43 41q3 39 43 41z" glyph-name="Tbar" horiz-adv-x="444" unicode="Ŧ"/>
<glyph d="M86 532v115q0 40 34 46q5 1 10 1q37 0 43 -36q1 -6 1 -11v-115h36q43 -2 44 -38q-2 -37 -44 -38h-36v-65h36q43 -2 44 -38q-2 -37 -44 -38h-36v-274q0 -40 -34 -46q-5 -1 -10 -1q-37 0 -43 36q-1 6 -1 11v274h-36q-43 2 -44 38q2 37 44 38h36v65h-36q-43 2 -44 38 q2 37 44 38h36z" glyph-name="tbar" horiz-adv-x="260" unicode="ŧ"/>
<glyph d="M58 282v389q0 40 34 46q5 1 10 1q37 0 43 -36q1 -6 1 -11v-423q0 -110 86 -155q45 -23 102 -23q114 0 162 79q26 43 26 99v423q0 40 34 46q5 1 10 1q37 0 43 -36q1 -6 1 -11v-389q0 -236 -192 -279q-39 -9 -84 -9q-198 0 -255 155q-21 57 -21 133zM187 815q0 33 40 52 q24 11 53 11q21 0 71 -14q23 -6 39 -6q13 0 40 14q12 6 22 6q19 0 29 -22q4 -9 4 -17q0 -33 -40 -52q-24 -11 -53 -11q-21 0 -71 14q-23 6 -39 6q-13 0 -40 -14q-12 -6 -22 -6q-19 0 -29 22q-4 9 -4 17z" glyph-name="Utilde" horiz-adv-x="668" unicode="Ũ"/>
<glyph d="M58 206v285q0 40 34 46q5 1 10 1q37 0 43 -36q1 -6 1 -11v-282q2 -138 123 -139q122 2 123 139v282q0 40 34 46q5 1 10 1q37 0 43 -36q1 -6 1 -11v-285q0 -148 -116 -195q-43 -17 -95 -17q-122 0 -177 83q-34 52 -34 129zM123 655q0 33 40 52q24 11 53 11q21 0 71 -14 q23 -6 39 -6q13 0 40 14q12 6 22 6q19 0 29 -22q4 -9 4 -17q0 -33 -40 -52q-24 -11 -53 -11q-21 0 -71 14q-23 6 -39 6q-13 0 -40 -14q-12 -6 -22 -6q-19 0 -29 22q-4 9 -4 17z" glyph-name="utilde" horiz-adv-x="538" unicode="ũ"/>
<glyph d="M58 282v389q0 40 34 46q5 1 10 1q37 0 43 -36q1 -6 1 -11v-423q0 -110 86 -155q45 -23 102 -23q114 0 162 79q26 43 26 99v423q0 40 34 46q5 1 10 1q37 0 43 -36q1 -6 1 -11v-389q0 -236 -192 -279q-39 -9 -84 -9q-198 0 -255 155q-21 57 -21 133zM235 849h202 q41 -4 43 -41q-3 -39 -43 -41h-202q-41 4 -43 41q3 39 43 41z" glyph-name="Umacron" horiz-adv-x="668" unicode="Ū"/>
<glyph d="M58 206v285q0 40 34 46q5 1 10 1q37 0 43 -36q1 -6 1 -11v-282q2 -138 123 -139q122 2 123 139v282q0 40 34 46q5 1 10 1q37 0 43 -36q1 -6 1 -11v-285q0 -148 -116 -195q-43 -17 -95 -17q-122 0 -177 83q-34 52 -34 129zM171 689h202q41 -4 43 -41q-3 -39 -43 -41h-202 q-41 4 -43 41q3 39 43 41z" glyph-name="umacron" horiz-adv-x="538" unicode="ū"/>
<glyph d="M58 282v389q0 40 34 46q5 1 10 1q37 0 43 -36q1 -6 1 -11v-423q0 -110 86 -155q45 -23 102 -23q114 0 162 79q26 43 26 99v423q0 40 34 46q5 1 10 1q37 0 43 -36q1 -6 1 -11v-389q0 -236 -192 -279q-39 -9 -84 -9q-198 0 -255 155q-21 57 -21 133zM201 857q0 29 24 35 q4 1 7 1q13 0 38 -24q35 -32 66 -33q32 0 66 33q25 23 38 24q24 0 30 -26q1 -6 1 -10q0 -50 -64 -80q-36 -17 -71 -17q-57 0 -101 36q-33 27 -34 61z" glyph-name="Ubreve" horiz-adv-x="668" unicode="Ŭ"/>
<glyph d="M58 206v285q0 40 34 46q5 1 10 1q37 0 43 -36q1 -6 1 -11v-282q2 -138 123 -139q122 2 123 139v282q0 40 34 46q5 1 10 1q37 0 43 -36q1 -6 1 -11v-285q0 -148 -116 -195q-43 -17 -95 -17q-122 0 -177 83q-34 52 -34 129zM137 697q0 29 24 35q4 1 7 1q13 0 38 -24 q35 -32 66 -33q32 0 66 33q25 23 38 24q24 0 30 -26q1 -6 1 -10q0 -50 -64 -80q-36 -17 -71 -17q-57 0 -101 36q-33 27 -34 61z" glyph-name="ubreve" horiz-adv-x="538" unicode="ŭ"/>
<glyph d="M58 282v389q0 40 34 46q5 1 10 1q37 0 43 -36q1 -6 1 -11v-423q0 -110 86 -155q45 -23 102 -23q114 0 162 79q26 43 26 99v423q0 40 34 46q5 1 10 1q37 0 43 -36q1 -6 1 -11v-389q0 -236 -192 -279q-39 -9 -84 -9q-198 0 -255 155q-21 57 -21 133zM242 828q0 52 44 80 q24 14 50 14q52 0 80 -44q14 -24 14 -50q0 -52 -44 -80q-24 -14 -50 -14q-52 0 -80 44q-14 24 -14 50zM290 828q0 -30 28 -42q9 -4 18 -4q30 0 42 28q4 9 4 18q0 30 -28 42q-9 4 -18 4q-30 0 -42 -28q-4 -9 -4 -18z" glyph-name="Uring" horiz-adv-x="668" unicode="Ů"/>
<glyph d="M58 206v285q0 40 34 46q5 1 10 1q37 0 43 -36q1 -6 1 -11v-282q2 -138 123 -139q122 2 123 139v282q0 40 34 46q5 1 10 1q37 0 43 -36q1 -6 1 -11v-285q0 -148 -116 -195q-43 -17 -95 -17q-122 0 -177 83q-34 52 -34 129zM178 678q0 52 44 80q24 14 50 14q52 0 80 -44 q14 -24 14 -50q0 -52 -44 -80q-24 -14 -50 -14q-52 0 -80 44q-14 24 -14 50zM226 678q0 -30 28 -42q9 -4 18 -4q30 0 42 28q4 9 4 18q0 30 -28 42q-9 4 -18 4q-30 0 -42 -28q-4 -9 -4 -18z" glyph-name="uring" horiz-adv-x="538" unicode="ů"/>
<glyph d="M58 282v389q0 40 34 46q5 1 10 1q37 0 43 -36q1 -6 1 -11v-423q0 -110 86 -155q45 -23 102 -23q114 0 162 79q26 43 26 99v423q0 40 34 46q5 1 10 1q37 0 43 -36q1 -6 1 -11v-389q0 -236 -192 -279q-39 -9 -84 -9q-198 0 -255 155q-21 57 -21 133zM364 823l-115 -47 q-22 -9 -34 -9q-27 0 -36 30q-2 7 -2 12q0 22 33 36q1 1 2 1l115 47q22 9 34 9q27 0 36 -30q2 -7 2 -12q0 -22 -33 -36q-1 -1 -2 -1zM584 823l-115 -47q-22 -9 -34 -9q-27 0 -36 30q-2 7 -2 12q0 22 33 36q1 1 2 1l115 47q22 9 34 9q27 0 36 -30q2 -7 2 -12q0 -22 -33 -36 q-1 -1 -2 -1z" glyph-name="Uhungarumlaut" horiz-adv-x="668" unicode="Ű"/>
<glyph d="M58 206v285q0 40 34 46q5 1 10 1q37 0 43 -36q1 -6 1 -11v-282q2 -138 123 -139q122 2 123 139v282q0 40 34 46q5 1 10 1q37 0 43 -36q1 -6 1 -11v-285q0 -148 -116 -195q-43 -17 -95 -17q-122 0 -177 83q-34 52 -34 129zM289 663l-115 -47q-22 -9 -34 -9q-27 0 -36 30 q-2 7 -2 12q0 22 33 36q1 1 2 1l115 47q22 9 34 9q27 0 36 -30q2 -7 2 -12q0 -22 -33 -36q-1 -1 -2 -1zM509 663l-115 -47q-22 -9 -34 -9q-27 0 -36 30q-2 7 -2 12q0 22 33 36q1 1 2 1l115 47q22 9 34 9q27 0 36 -30q2 -7 2 -12q0 -22 -33 -36q-1 -1 -2 -1z" glyph-name="uhungarumlaut" horiz-adv-x="538" unicode="ű"/>
<glyph d="M58 282v389q0 40 34 46q5 1 10 1q37 0 43 -36q1 -6 1 -11v-423q0 -110 86 -155q45 -23 102 -23q114 0 162 79q26 43 26 99v423q0 40 34 46q5 1 10 1q37 0 43 -36q1 -6 1 -11v-389q0 -227 -178 -276q-26 -7 -55 -10l-19 -18q-37 -35 -37 -68q2 -33 37 -34q7 0 40 7 q4 1 7 1q23 -1 24 -23q-5 -37 -85 -39q-66 0 -90 40q-9 15 -9 33q1 45 55 84l20 15q-198 7 -247 172q-15 52 -15 116z" glyph-name="Uogonek" horiz-adv-x="668" unicode="Ų"/>
<glyph d="M58 206v285q0 40 34 46q5 1 10 1q37 0 43 -36q1 -6 1 -11v-282q2 -138 123 -139q122 2 123 139v282q0 40 34 46q5 1 10 1q37 0 43 -36q1 -6 1 -11v-285q0 -149 -117 -195q-27 -11 -57 -15l-19 -18q-37 -35 -37 -68q2 -33 37 -34q7 0 40 7q4 1 7 1q23 -1 24 -23 q-5 -37 -85 -39q-66 0 -90 40q-9 15 -9 33q1 45 55 84l21 16q-121 7 -168 99q-24 48 -24 112z" glyph-name="uogonek" horiz-adv-x="538" unicode="ų"/>
<glyph d="M208 108l164 575q12 34 45 35q34 -2 45 -35l164 -575h2l93 569q9 40 48 41q31 0 39 -29q1 -6 1 -11q0 -20 -5 -45l-108 -581q-20 -53 -63 -58q-41 0 -57 29q-7 12 -12 29l-146 522h-2l-146 -522q-14 -49 -47 -56q-10 -2 -22 -2q-50 0 -62 52q-1 3 -1 6l-108 581 q-5 27 -5 45q0 31 28 38q6 2 12 2q40 -2 48 -41l93 -569h2zM289 840l129 55l129 -55q22 -11 23 -35q0 -29 -25 -36q-6 -2 -11 -2q-11 1 -22 5l-94 37l-94 -37q-12 -5 -22 -5q-28 0 -35 27q-1 6 -1 11q1 25 23 35z" glyph-name="Wcircumflex" horiz-adv-x="834" unicode="Ŵ"/>
<glyph d="M155 40l-146 425q-7 23 -7 34q0 27 25 36q8 3 17 3q34 0 48 -43q1 -1 1 -2l113 -363h2l111 350q14 44 29 53q10 5 23 5q29 0 42 -31q4 -10 10 -27l111 -350h2l113 363q15 44 49 45q34 0 41 -30q1 -5 1 -9q0 -12 -7 -34l-146 -425q-14 -41 -41 -45q-5 -1 -10 -1 q-34 0 -49 42q-1 2 -1 4l-114 359h-2l-114 -359q-17 -45 -50 -46q-32 0 -47 37q-2 5 -4 9zM243 680l129 55l129 -55q22 -11 23 -35q0 -29 -25 -36q-6 -2 -11 -2q-11 1 -22 5l-94 37l-94 -37q-12 -5 -22 -5q-28 0 -35 27q-1 6 -1 11q1 25 23 35z" glyph-name="wcircumflex" horiz-adv-x="742" unicode="ŵ"/>
<glyph d="M206 41v293l-191 311q-14 23 -14 37q0 28 29 35q6 1 11 1q28 -1 44 -28l165 -269l165 269q17 28 44 28q31 0 38 -25q2 -6 2 -11q-1 -16 -14 -37l-191 -311v-293q0 -40 -34 -46q-5 -1 -10 -1q-37 0 -43 36q-1 6 -1 11zM121 840l129 55l129 -55q22 -11 23 -35 q0 -29 -25 -36q-6 -2 -11 -2q-11 1 -22 5l-94 37l-94 -37q-12 -5 -22 -5q-28 0 -35 27q-1 6 -1 11q1 25 23 35z" glyph-name="Ycircumflex" horiz-adv-x="500" unicode="Ŷ"/>
<glyph d="M179 19l-150 433q-12 36 -12 49q0 26 27 35q7 2 13 2q33 -1 44 -33l122 -365h2l120 365q12 32 42 33q27 0 37 -23q3 -7 3 -14q-1 -15 -12 -49l-222 -635q-13 -32 -43 -33q-27 0 -37 23q-3 7 -3 14q1 15 13 49zM97 680l129 55l129 -55q22 -11 23 -35q0 -29 -25 -36 q-6 -2 -11 -2q-11 1 -22 5l-94 37l-94 -37q-12 -5 -22 -5q-28 0 -35 27q-1 6 -1 11q1 25 23 35z" glyph-name="ycircumflex" horiz-adv-x="444" unicode="ŷ"/>
<glyph d="M206 41v293l-191 311q-14 23 -14 37q0 28 29 35q6 1 11 1q28 -1 44 -28l165 -269l165 269q17 28 44 28q31 0 38 -25q2 -6 2 -11q-1 -16 -14 -37l-191 -311v-293q0 -40 -34 -46q-5 -1 -10 -1q-37 0 -43 36q-1 6 -1 11zM103 818q0 34 31 49q11 5 23 5q34 0 49 -31 q5 -11 5 -23q0 -34 -31 -49q-11 -5 -23 -5q-34 0 -49 31q-5 11 -5 23zM289 818q0 34 31 49q11 5 23 5q34 0 49 -31q5 -11 5 -23q0 -34 -31 -49q-11 -5 -23 -5q-34 0 -49 31q-5 11 -5 23z" glyph-name="Ydieresis" horiz-adv-x="500" unicode="Ÿ"/>
<glyph d="M41 87l366 549h-323q-39 7 -43 38q0 33 35 37q4 1 8 1h389q37 0 45 -24q1 -4 1 -7q-1 -25 -22 -56l-367 -549h359q39 -7 43 -38q0 -33 -35 -37q-4 -1 -8 -1h-413q-51 1 -52 40q1 22 17 47zM371 823l-115 -47q-22 -9 -34 -9q-27 0 -36 30q-2 7 -2 12q0 22 33 36q1 1 2 1 l115 47q22 9 34 9q27 0 36 -30q2 -7 2 -12q0 -22 -33 -36q-1 -1 -2 -1z" glyph-name="Zacute" horiz-adv-x="556" unicode="Ź"/>
<glyph d="M141 76h239q43 -2 44 -38q-2 -37 -44 -38h-317q-42 1 -43 31q1 20 18 45l254 380h-218q-43 2 -44 38q2 37 44 38h296q42 -1 43 -31q-1 -20 -18 -45l-257 -378zM315 663l-115 -47q-22 -9 -34 -9q-27 0 -36 30q-2 7 -2 12q0 22 33 36q1 1 2 1l115 47q22 9 34 9q27 0 36 -30 q2 -7 2 -12q0 -22 -33 -36q-1 -1 -2 -1z" glyph-name="zacute" horiz-adv-x="444" unicode="ź"/>
<glyph d="M41 87l366 549h-323q-39 7 -43 38q0 33 35 37q4 1 8 1h389q37 0 45 -24q1 -4 1 -7q-1 -25 -22 -56l-367 -549h359q39 -7 43 -38q0 -33 -35 -37q-4 -1 -8 -1h-413q-51 1 -52 40q1 22 17 47zM224 818q0 34 31 49q11 5 23 5q34 0 49 -31q5 -11 5 -23q0 -34 -31 -49 q-11 -5 -23 -5q-34 0 -49 31q-5 11 -5 23z" glyph-name="Zdotaccent" horiz-adv-x="556" unicode="Ż"/>
<glyph d="M141 76h239q43 -2 44 -38q-2 -37 -44 -38h-317q-42 1 -43 31q1 20 18 45l254 380h-218q-43 2 -44 38q2 37 44 38h296q42 -1 43 -31q-1 -20 -18 -45l-257 -378zM164 658q0 34 31 49q11 5 23 5q34 0 49 -31q5 -11 5 -23q0 -34 -31 -49q-11 -5 -23 -5q-34 0 -49 31 q-5 11 -5 23z" glyph-name="zdotaccent" horiz-adv-x="444" unicode="ż"/>
<glyph d="M41 87l366 549h-323q-39 7 -43 38q0 33 35 37q4 1 8 1h389q37 0 45 -24q1 -4 1 -7q-1 -25 -22 -56l-367 -549h359q39 -7 43 -38q0 -33 -35 -37q-4 -1 -8 -1h-413q-51 1 -52 40q1 22 17 47zM278 767l-129 55q-22 11 -23 35q0 29 25 36q6 2 11 2q11 -1 22 -5l94 -37l94 37 q12 5 22 5q28 0 35 -27q1 -6 1 -11q-1 -25 -23 -35z" glyph-name="Zcaron" horiz-adv-x="556" unicode="Ž"/>
<glyph d="M141 76h239q43 -2 44 -38q-2 -37 -44 -38h-317q-42 1 -43 31q1 20 18 45l254 380h-218q-43 2 -44 38q2 37 44 38h296q42 -1 43 -31q-1 -20 -18 -45l-257 -378zM222 607l-129 55q-22 11 -23 35q0 29 25 36q6 2 11 2q11 -1 22 -5l94 -37l94 37q12 5 22 5q28 0 35 -27 q1 -6 1 -11q-1 -25 -23 -35z" glyph-name="zcaron" horiz-adv-x="444" unicode="ž"/>
<glyph d="M147 432h63l22 124q21 116 81 147q31 15 75 15q64 -2 66 -38q-8 -30 -57 -32q-51 0 -71 -63q-6 -19 -10 -42l-20 -111h62q27 0 36 -25q2 -7 2 -13q0 -27 -25 -36q-7 -2 -13 -2h-75l-72 -396q-20 -106 -55 -141q-37 -35 -110 -35q-64 1 -65 40q2 36 45 37h41q32 0 48 54 q8 25 16 70l66 371h-50q-27 0 -36 25q-2 7 -2 13q0 27 25 36q7 2 13 2z" glyph-name="florin" horiz-adv-x="536" unicode="ƒ"/>
<glyph d="M212 691q0 52 44 80q24 14 50 14q52 0 80 -44q14 -24 14 -50q-1 -34 -20 -58l210 -558q12 -36 12 -44q0 -28 -29 -36q-7 -1 -13 -1q-31 1 -43 33l-46 128h-330l-46 -128q-14 -32 -43 -33q-33 0 -40 26q-2 6 -2 11q0 9 12 44l209 558q-19 26 -19 58zM444 231l-131 366h-15 l-130 -366h276zM253 875l96 41q15 6 29 6q27 0 34 -31q1 -6 1 -12q-2 -21 -32 -36h-1l-96 -37q-15 -6 -28 -6q-22 0 -31 25q-3 8 -3 14q0 22 29 35q1 1 2 1zM260 691q0 -30 28 -42q9 -4 18 -4q30 0 42 28q4 9 4 18q0 30 -28 42q-9 4 -18 4q-30 0 -42 -28q-4 -9 -4 -18z" glyph-name="Aringacute" horiz-adv-x="612" unicode="Ǻ"/>
<glyph d="M498 495v-458q0 -34 -31 -42q-6 -1 -10 -1q-29 0 -38 26q-3 8 -3 17v37h-2q-57 -79 -145 -80q-121 0 -187 103q-47 73 -47 169q0 124 73 203q64 69 161 69q81 -1 145 -71h2v28q0 35 32 42q5 1 9 1q27 0 37 -24q4 -9 4 -19zM123 266q0 -108 57 -162q36 -34 89 -34 q96 0 131 103q15 43 15 93q0 108 -57 162q-36 34 -89 34q-96 0 -131 -103q-15 -43 -15 -93zM184 668q0 52 44 80q24 14 50 14q52 0 80 -44q14 -24 14 -50q0 -52 -44 -80q-24 -14 -50 -14q-52 0 -80 44q-14 24 -14 50zM232 668q0 -30 28 -42q9 -4 18 -4q30 0 42 28q4 9 4 18 q0 30 -28 42q-9 4 -18 4q-30 0 -42 -28q-4 -9 -4 -18zM233 865l96 41q15 6 29 6q27 0 34 -31q1 -6 1 -12q-2 -21 -32 -36h-1l-96 -37q-15 -6 -28 -6q-22 0 -31 25q-3 8 -3 14q0 22 29 35q1 1 2 1z" glyph-name="aringacute" horiz-adv-x="556" unicode="ǻ"/>
<glyph d="M461 315v-233h212q41 -4 43 -41q-3 -39 -43 -41h-253q-44 5 -47 48v107h-231l-68 -133q-14 -28 -42 -28q-30 0 -39 22q-2 6 -2 10q1 16 13 41l311 607q16 32 36 36q9 2 25 2h287q41 -4 43 -41q-3 -39 -43 -41h-202v-233h193q41 -4 43 -41q-3 -39 -43 -41h-193zM373 231 v379h-2l-191 -379h193zM532 823l-115 -47q-22 -9 -34 -9q-27 0 -36 30q-2 7 -2 12q0 22 33 36q1 1 2 1l115 47q22 9 34 9q27 0 36 -30q2 -7 2 -12q0 -22 -33 -36q-1 -1 -2 -1z" glyph-name="AEacute" horiz-adv-x="759" unicode="Ǽ"/>
<glyph d="M123 266q0 -108 57 -162q36 -34 89 -34q96 0 131 103q15 43 15 93q0 108 -57 162q-36 34 -89 34q-96 0 -131 -103q-15 -43 -15 -93zM415 37v37h-2q-56 -79 -144 -80q-121 0 -187 103q-47 73 -47 169q0 124 73 203q64 69 161 69q81 -1 144 -71h2v28q0 35 32 42q5 1 9 1 q27 0 37 -24q4 -9 4 -19v-22h2q17 24 61 46q40 19 79 19q92 0 158 -74q66 -75 66 -185q0 -40 -32 -46q-8 -1 -17 -1h-325q3 -81 60 -127q43 -34 101 -33q69 1 126 45q32 24 44 25q23 0 30 -25q2 -7 2 -14q1 -32 -57 -68q-68 -41 -139 -41q-106 1 -157 64h-2v-21 q0 -34 -31 -42q-6 -1 -10 -1q-29 0 -38 26q-3 8 -3 17zM495 298h280q0 81 -50 129q-38 35 -91 35q-92 0 -126 -89q-13 -35 -13 -75zM545 663l-115 -47q-22 -9 -34 -9q-27 0 -36 30q-2 7 -2 12q0 22 33 36q1 1 2 1l115 47q22 9 34 9q27 0 36 -30q2 -7 2 -12q0 -22 -33 -36 q-1 -1 -2 -1z" glyph-name="aeacute" horiz-adv-x="889" unicode="ǽ"/>
<glyph d="M160 190l332 388q-58 64 -149 64q-135 0 -190 -132q-28 -68 -28 -154q0 -96 35 -166zM527 524l-333 -389q56 -65 149 -65q135 0 190 132q28 68 28 154q0 97 -34 168zM545 639l59 70q15 17 31 17q25 0 30 -21q1 -4 1 -7q-1 -14 -12 -26l-69 -80q70 -100 70 -236 q0 -153 -84 -256q-88 -105 -228 -106q-121 1 -202 80l-61 -72q-15 -15 -31 -16q-22 0 -28 21q-1 3 -1 6q1 14 14 30l66 77q-69 101 -69 236q0 153 84 256q88 105 228 106q120 -1 202 -79zM439 823l-115 -47q-22 -9 -34 -9q-27 0 -36 30q-2 7 -2 12q0 22 33 36q1 1 2 1 l115 47q22 9 34 9q27 0 36 -30q2 -7 2 -12q0 -22 -33 -36q-1 -1 -2 -1z" glyph-name="Oslashacute" horiz-adv-x="686" unicode="Ǿ"/>
<glyph d="M41 39l45 54q-51 70 -51 173q0 124 73 203q64 69 161 69q84 -1 143 -51l41 50q16 18 31 19q24 0 30 -21q1 -4 1 -7q-1 -15 -14 -31l-48 -57q50 -76 50 -174q0 -124 -73 -203q-64 -69 -161 -69q-84 1 -142 52l-42 -51q-15 -18 -32 -19q-21 0 -29 20q-1 4 -1 8q1 15 18 35z M143 162l218 263q-36 37 -92 37q-96 0 -131 -103q-15 -43 -15 -93q0 -59 20 -104zM395 370l-218 -263q36 -37 92 -37q96 0 131 103q15 43 15 93q0 60 -20 104zM374 663l-115 -47q-22 -9 -34 -9q-27 0 -36 30q-2 7 -2 12q0 22 33 36q1 1 2 1l115 47q22 9 34 9q27 0 36 -30 q2 -7 2 -12q0 -22 -33 -36q-1 -1 -2 -1z" glyph-name="oslashacute" horiz-adv-x="538" unicode="ǿ"/>
<glyph d="M238 718q90 0 145 -38q29 -22 30 -45q0 -27 -24 -36q-7 -3 -14 -3q-15 0 -46 20q-43 26 -94 26q-69 0 -99 -50q-14 -23 -14 -51q0 -58 71 -93q9 -4 104 -39q102 -38 136 -91q27 -42 27 -99q0 -105 -76 -169q-66 -56 -165 -56t-161 38q-36 22 -37 48q0 38 29 44q4 1 8 1 q10 0 49 -22q58 -33 113 -33q85 0 125 67q21 35 21 78q0 65 -75 101q-11 5 -105 39q-98 36 -132 86q-26 39 -26 94q0 70 59 126q61 57 151 57zM152 -129l51 69q17 21 36 22q28 0 38 -23q3 -7 3 -14q-1 -15 -10 -26l-55 -62q-15 -17 -33 -17q-25 0 -35 20q-2 6 -2 11 q1 11 7 20z" glyph-name="Scommaaccent" horiz-adv-x="481" unicode="Ș"/>
<glyph d="M46 388q0 84 81 126q46 24 100 24q74 0 133 -36q43 -27 44 -58q0 -29 -29 -35q-6 -1 -11 -1q-15 0 -44 22q-44 32 -93 32q-68 0 -87 -41q-6 -13 -6 -26q0 -35 64 -64q16 -8 51 -21q98 -38 132 -69q37 -36 37 -83q0 -99 -90 -142q-47 -22 -104 -22q-101 0 -165 49 q-34 26 -35 52q0 30 25 38q6 2 11 2q15 0 51 -25q59 -40 116 -40q66 0 93 41q10 16 10 31q0 41 -70 75q-16 8 -53 24q-96 40 -128 71q-33 33 -33 76zM140 -129l51 69q17 21 36 22q28 0 38 -23q3 -7 3 -14q-1 -15 -10 -26l-55 -62q-15 -17 -33 -17q-25 0 -35 20q-2 6 -2 11 q1 11 7 20z" glyph-name="scommaaccent" horiz-adv-x="444" unicode="ș"/>
<glyph d="M178 41v589h-133q-41 4 -43 41q3 39 43 41h354q41 -4 43 -41q-3 -39 -43 -41h-133v-589q0 -40 -34 -46q-5 -1 -10 -1q-37 0 -43 36q-1 6 -1 11zM145 -129l51 69q17 21 36 22q28 0 38 -23q3 -7 3 -14q-1 -15 -10 -26l-55 -62q-15 -17 -33 -17q-25 0 -35 20q-2 6 -2 11 q1 11 7 20z" glyph-name="uni021A" horiz-adv-x="444" unicode="Ț"/>
<glyph d="M86 532v115q0 40 34 46q5 1 10 1q37 0 43 -36q1 -6 1 -11v-115h36q43 -2 44 -38q-2 -37 -44 -38h-36v-415q0 -40 -34 -46q-5 -1 -10 -1q-37 0 -43 36q-1 6 -1 11v415h-36q-43 2 -44 38q2 37 44 38h36zM57 -129l51 69q17 21 36 22q28 0 38 -23q3 -7 3 -14q-1 -15 -10 -26 l-55 -62q-15 -17 -33 -17q-25 0 -35 20q-2 6 -2 11q1 11 7 20z" glyph-name="uni021B" horiz-adv-x="260" unicode="ț"/>
<glyph d="M146 491v-660q0 -40 -34 -46q-5 -1 -10 -1q-37 0 -43 36q-1 6 -1 11v660q0 40 34 46q5 1 10 1q37 0 43 -36q1 -6 1 -11z" glyph-name="dotlessj" unicode="ȷ"/>
<glyph d="M-27 680l129 55l129 -55q22 -11 23 -35q0 -29 -25 -36q-6 -2 -11 -2q-11 1 -22 5l-94 37l-94 -37q-12 -5 -22 -5q-28 0 -35 27q-1 6 -1 11q1 25 23 35z" glyph-name="circumflex" unicode="ˆ"/>
<glyph d="M102 607l-129 55q-22 11 -23 35q0 29 25 36q6 2 11 2q11 -1 22 -5l94 -37l94 37q12 5 22 5q28 0 35 -27q1 -6 1 -11q-1 -25 -23 -35z" glyph-name="caron" unicode="ˇ"/>
<glyph d="M1 689h202q41 -4 43 -41q-3 -39 -43 -41h-202q-41 4 -43 41q3 39 43 41z" glyph-name="uni02C9" unicode="ˉ"/>
<glyph d="M-33 697q0 29 24 35q4 1 7 1q13 0 38 -24q35 -32 66 -33q32 0 66 33q25 23 38 24q24 0 30 -26q1 -6 1 -10q0 -50 -64 -80q-36 -17 -71 -17q-57 0 -101 36q-33 27 -34 61z" glyph-name="breve" unicode="˘"/>
<glyph d="M48 658q0 34 31 49q11 5 23 5q34 0 49 -31q5 -11 5 -23q0 -34 -31 -49q-11 -5 -23 -5q-34 0 -49 31q-5 11 -5 23z" glyph-name="dotaccent" unicode="˙"/>
<glyph d="M8 678q0 52 44 80q24 14 50 14q52 0 80 -44q14 -24 14 -50q0 -52 -44 -80q-24 -14 -50 -14q-52 0 -80 44q-14 24 -14 50zM56 678q0 -30 28 -42q9 -4 18 -4q30 0 42 28q4 9 4 18q0 30 -28 42q-9 4 -18 4q-30 0 -42 -28q-4 -9 -4 -18z" glyph-name="ring" unicode="˚"/>
<glyph d="M146 2h53l-26 -24q-37 -35 -37 -68q2 -33 37 -34q7 0 40 7q4 1 7 1q23 -1 24 -23q-5 -37 -85 -39q-66 0 -90 40q-9 15 -9 33q1 45 55 84z" glyph-name="ogonek" unicode="˛"/>
<glyph d="M-47 655q0 33 40 52q24 11 53 11q21 0 71 -14q23 -6 39 -6q13 0 40 14q12 6 22 6q19 0 29 -22q4 -9 4 -17q0 -33 -40 -52q-24 -11 -53 -11q-21 0 -71 14q-23 6 -39 6q-13 0 -40 -14q-12 -6 -22 -6q-19 0 -29 22q-4 9 -4 17z" glyph-name="tilde" unicode="˜"/>
<glyph d="M68 663l-115 -47q-22 -9 -34 -9q-27 0 -36 30q-2 7 -2 12q0 22 33 36q1 1 2 1l115 47q22 9 34 9q27 0 36 -30q2 -7 2 -12q0 -22 -33 -36q-1 -1 -2 -1zM288 663l-115 -47q-22 -9 -34 -9q-27 0 -36 30q-2 7 -2 12q0 22 33 36q1 1 2 1l115 47q22 9 34 9q27 0 36 -30 q2 -7 2 -12q0 -22 -33 -36q-1 -1 -2 -1z" glyph-name="hungarumlaut" unicode="˝"/>
<glyph d="M24 0v56q134 345 240 625h103l238 -625v-56h-581zM121 80h382q-2 6 -155 407q-33 88 -35 91l-36 -92q-141 -369 -156 -406z" glyph-name="uni0394" horiz-adv-x="630" unicode="Δ"/>
<glyph d="M299 0h-223l-21 5q-25 11 -26 36q0 11 5 19.5t12 12.5t13.5 6.5t11.5 4.5l5 1h84q-103 93 -116 234q-2 19 -2 38q0 151 99 247q91 89 222 89q148 0 237 -106q76 -91 76 -221q0 -167 -115 -278l-5 -5h87l22 -5q23 -12 24 -37q0 -18 -11.5 -28t-23.5 -11l-12 -2h-223v65 q97 65 136 177q18 55 18 111q0 103 -59 179q-61 76 -152 77q-111 0 -173 -100q-43 -71 -43 -157q0 -117 77 -216q35 -44 76 -70v-66z" glyph-name="uni03A9" horiz-adv-x="718" unicode="Ω"/>
<glyph d="M62 -156v644q2 54 45 55q43 -2 44 -55v-291q0 -99 78 -120q19 -5 39 -5q90 0 111 79q6 22 6 46v291q2 54 44 55q44 -2 45 -55v-449q0 -32 -29 -42q-8 -3 -16 -3q-30 1 -41 28q-49 -28 -120 -28q-68 1 -117 42v-192q-2 -53 -44 -54q-44 2 -45 54z" glyph-name="uni03BC" horiz-adv-x="536" unicode="μ"/>
<glyph d="M112 47v417h-22l-21 4q-25 11 -26 36q5 35 47 39h427l21 -4q25 -11 26 -35q0 -18 -12 -28t-24 -11l-11 -1h-28v-341q0 -44 19 -49q4 -1 8 -1q17 1 52 17v-73q-50 -23 -78 -23q-77 0 -91 83q-2 14 -3 29q-1 19 -1 54v304h-190v-417l-4 -20q-13 -26 -43 -27q-20 0 -31.5 12 t-12.5 24z" glyph-name="pi" horiz-adv-x="611" unicode="π"/>
<glyph d="M146 315v-233h212q41 -4 43 -41q-3 -39 -43 -41h-253q-44 5 -47 48v616q6 45 47 48h253q41 -4 43 -41q-3 -39 -43 -41h-212v-233h193q41 -4 43 -41q-3 -39 -43 -41h-193zM261 776l-115 47q-34 14 -35 37q0 25 20 37q9 5 18 5q13 -1 34 -9l115 -47q34 -14 35 -37 q0 -25 -20 -37q-9 -5 -18 -5q-13 1 -34 9z" glyph-name="uni0400" horiz-adv-x="444" unicode="Ѐ"/>
<glyph d="M75 818q0 34 31 49q11 5 23 5q34 0 49 -31q5 -11 5 -23q0 -34 -31 -49q-11 -5 -23 -5q-34 0 -49 31q-5 11 -5 23zM261 818q0 34 31 49q11 5 23 5q34 0 49 -31q5 -11 5 -23q0 -34 -31 -49q-11 -5 -23 -5q-34 0 -49 31q-5 11 -5 23zM146 315v-233h212q41 -4 43 -41 q-3 -39 -43 -41h-253q-44 5 -47 48v616q6 45 47 48h253q41 -4 43 -41q-3 -39 -43 -41h-212v-233h193q41 -4 43 -41q-3 -39 -43 -41h-193z" glyph-name="afii10023" horiz-adv-x="444" unicode="Ё"/>
<glyph d="M265 631v-185h124q167 0 225 -116q24 -50 24 -112q0 -105 -73 -174q-53 -50 -112 -50q-52 2 -53 42q2 36 45 42q61 7 90 65q15 32 15 71q0 133 -130 149q-22 3 -46 3h-109v-319q-2 -52 -45 -53q-41 6 -44 53v584h-127q-37 0 -45 29q-2 6 -2 11q0 32 33 40q7 1 14 1h393 q38 0 46 -31q1 -5 1 -10q0 -29 -30 -38q-9 -2 -17 -2h-177z" glyph-name="afii10051" horiz-adv-x="668" unicode="Ђ"/>
<glyph d="M330 823l-115 -47q-22 -9 -34 -9q-27 0 -36 30q-2 7 -2 12q0 22 33 36q1 1 2 1l115 47q22 9 34 9q27 0 36 -30q2 -7 2 -12q0 -22 -33 -36q-1 -1 -2 -1zM149 631v-584q-2 -52 -44 -53q-41 6 -44 53v621q0 31 28 41q8 3 16 3h285q36 0 44 -30q2 -6 2 -11q0 -30 -31 -38 q-8 -2 -15 -2h-241z" glyph-name="afii10052" horiz-adv-x="434" unicode="Ѓ"/>
<glyph d="M349 718q115 0 179 -60q25 -25 26 -44q0 -35 -29 -41q-4 -1 -8 -1q-14 0 -44 24q-52 42 -111 46h-14q-118 0 -178 -104q-34 -59 -43 -142h268q36 0 44 -29q2 -6 2 -11q0 -32 -32 -40q-7 -1 -14 -1h-269q11 -119 79 -188q57 -57 139 -57q68 0 140 42q37 22 50 22 q26 0 33 -28q2 -7 2 -13q0 -33 -59 -63q-70 -36 -167 -36q-150 0 -237 116q-75 100 -75 246q0 160 90 262q88 100 228 100z" glyph-name="afii10053" horiz-adv-x="602" unicode="Є"/>
<glyph d="M238 718q90 0 145 -38q29 -22 30 -45q0 -27 -24 -36q-7 -3 -14 -3q-15 0 -46 20q-43 26 -94 26q-69 0 -99 -50q-14 -23 -14 -51q0 -58 71 -93q9 -4 104 -39q102 -38 136 -91q27 -42 27 -99q0 -105 -76 -169q-66 -56 -165 -56t-161 38q-36 22 -37 48q0 38 29 44q4 1 8 1 q10 0 49 -22q58 -33 113 -33q85 0 125 67q21 35 21 78q0 65 -75 101q-11 5 -105 39q-98 36 -132 86q-26 39 -26 94q0 70 59 126q61 57 151 57z" glyph-name="afii10054" horiz-adv-x="481" unicode="Ѕ"/>
<glyph d="M146 671v-630q0 -40 -34 -46q-5 -1 -10 -1q-37 0 -43 36q-1 6 -1 11v630q0 40 34 46q5 1 10 1q37 0 43 -36q1 -6 1 -11z" glyph-name="afii10055" unicode="І"/>
<glyph d="M-45 818q0 34 31 49q11 5 23 5q34 0 49 -31q5 -11 5 -23q0 -34 -31 -49q-11 -5 -23 -5q-34 0 -49 31q-5 11 -5 23zM141 818q0 34 31 49q11 5 23 5q34 0 49 -31q5 -11 5 -23q0 -34 -31 -49q-11 -5 -23 -5q-34 0 -49 31q-5 11 -5 23zM146 671v-630q0 -40 -34 -46 q-5 -1 -10 -1q-37 0 -43 36q-1 6 -1 11v630q0 40 34 46q5 1 10 1q37 0 43 -36q1 -6 1 -11z" glyph-name="afii10056" unicode="Ї"/>
<glyph d="M224 172v499q0 40 34 46q5 1 10 1q37 0 43 -36q1 -6 1 -11v-490q-2 -186 -173 -187q-55 0 -105 28q-40 23 -41 52q0 31 27 36q4 1 8 1q17 0 42 -18q33 -23 76 -23q77 2 78 102z" glyph-name="afii10057" horiz-adv-x="370" unicode="Ј"/>
<glyph d="M257 631l-45 -406q-29 -230 -170 -231q-33 0 -40 32q-1 6 -1 12q2 27 30 35q47 10 68 61q19 45 29 137l45 395q6 45 50 46h319q33 0 43 -27q3 -8 3 -15v-253h162q124 0 182 -85q34 -52 34 -123q0 -110 -81 -167q-60 -42 -151 -42h-184q-50 2 -51 46v585h-242zM588 336 v-256h138q116 0 144 82q7 22 7 47q0 83 -74 114q-32 13 -73 13h-142z" glyph-name="afii10058" horiz-adv-x="984" unicode="Љ"/>
<glyph d="M146 336v-289q-2 -52 -44 -53q-41 6 -44 53v618q3 51 44 53q43 -2 44 -53v-248h375v248q3 51 44 53q44 -2 45 -53v-248h161q125 0 183 -86q34 -51 34 -122q0 -110 -81 -167q-60 -42 -151 -42h-184q-50 2 -51 46v290h-375zM610 336v-256h138q116 0 144 82q7 22 7 47 q0 82 -74 113q-33 14 -74 14h-141z" glyph-name="afii10059" horiz-adv-x="1006" unicode="Њ"/>
<glyph d="M265 631v-185h109q154 0 222 -98q42 -60 42 -147v-153q-2 -53 -44 -54q-43 2 -44 54v139q0 153 -136 175q-22 4 -46 4h-103v-319q-2 -52 -45 -53q-41 6 -44 53v584h-127q-37 0 -45 29q-2 6 -2 11q0 32 33 40q7 1 14 1h393q38 0 46 -31q1 -5 1 -10q0 -29 -30 -38 q-9 -2 -17 -2h-177z" glyph-name="afii10060" horiz-adv-x="680" unicode="Ћ"/>
<glyph d="M385 823l-115 -47q-22 -9 -34 -9q-27 0 -36 30q-2 7 -2 12q0 22 33 36q1 1 2 1l115 47q22 9 34 9q27 0 36 -30q2 -7 2 -12q0 -22 -33 -36q-1 -1 -2 -1zM146 339v-298q0 -40 -34 -46q-5 -1 -10 -1q-37 0 -43 36q-1 6 -1 11v630q0 40 34 46q5 1 10 1q37 0 43 -36 q1 -6 1 -11v-260l305 279q30 27 48 28q30 0 37 -28q1 -5 1 -10q-1 -24 -18 -40l-292 -263l319 -308q18 -17 18 -36q0 -25 -26 -36q-9 -3 -17 -3q-24 1 -43 19z" glyph-name="afii10061" horiz-adv-x="574" unicode="Ќ"/>
<glyph d="M523 47v509h-2l-365 -525q-24 -31 -38 -35q-7 -2 -14 -2q-42 2 -43 52v619q3 51 44 53q43 -2 44 -53v-503h2l362 519q24 32 44 36q6 1 11 1q34 0 42 -34q2 -8 2 -16v-621q-3 -51 -44 -53q-44 2 -45 53zM345 776l-115 47q-34 14 -35 37q0 25 20 37q9 5 18 5q13 -1 34 -9 l115 -47q34 -14 35 -37q0 -25 -20 -37q-9 -5 -18 -5q-13 1 -34 9z" glyph-name="uni040D" horiz-adv-x="673" unicode="Ѝ"/>
<glyph d="M164 857q0 29 24 35q4 1 7 1q13 0 38 -24q35 -32 66 -33q32 0 66 33q25 23 38 24q24 0 30 -26q1 -6 1 -10q0 -50 -64 -80q-36 -17 -71 -17q-57 0 -101 36q-33 27 -34 61zM302 269l192 412q18 36 47 37q31 0 41 -26q2 -7 2 -13q-1 -19 -20 -59l-223 -474 q-49 -103 -115 -134q-40 -18 -93 -18q-87 0 -96 40q-1 4 -1 8q0 31 24 40q6 2 11 2q8 0 24 -3q23 -3 38 -3q67 1 103 67l15 29l-221 440q-22 46 -22 63q0 27 25 37q10 4 19 4q29 -1 46 -32z" glyph-name="afii10062" horiz-adv-x="588" unicode="Ў"/>
<glyph d="M523 81v584q2 52 44 53q41 -6 44 -53v-619q-2 -45 -51 -46h-179v-122q-5 -49 -43 -52q-39 9 -43 52v122h-188q-34 0 -44 29q-2 7 -2 13v623q3 51 44 53q43 -2 44 -53v-584h374z" glyph-name="afii10145" horiz-adv-x="667" unicode="Џ"/>
<glyph d="M141 155l-46 -128q-14 -32 -43 -33q-33 0 -40 26q-2 6 -2 11q0 9 12 44l221 589q20 53 63 54q44 -1 63 -54l221 -589q12 -36 12 -44q0 -28 -29 -36q-7 -1 -13 -1q-31 1 -43 33l-46 128h-330zM444 231l-137 385h-2l-137 -385h276z" glyph-name="afii10017" horiz-adv-x="612" unicode="А"/>
<glyph d="M149 417h162q125 0 183 -86q34 -51 34 -122q0 -109 -80 -166q-61 -43 -153 -43h-183q-50 2 -51 46v622q0 31 28 41q8 3 16 3h283q38 0 46 -31q1 -5 1 -10q0 -29 -30 -38q-9 -2 -17 -2h-239v-214zM149 336v-256h139q118 0 144 84q6 21 6 45q0 83 -74 114q-32 13 -73 13 h-142z" glyph-name="afii10018" horiz-adv-x="546" unicode="Б"/>
<glyph d="M146 636v-225h100q77 0 106 61q12 25 12 54q0 81 -68 103q-22 7 -47 7h-103zM146 339v-263h124q86 0 127 59q22 32 22 73q0 75 -62 111q-36 20 -83 20h-128zM58 48v616q6 45 47 48h155q109 0 163 -78q29 -43 29 -92q0 -89 -59 -135q-19 -14 -40 -21v-2q80 -8 125 -77 q29 -45 29 -99q0 -101 -77 -160q-63 -48 -156 -48h-169q-44 5 -47 48z" glyph-name="afii10019" horiz-adv-x="537" unicode="В"/>
<glyph d="M149 631v-584q-2 -52 -44 -53q-41 6 -44 53v621q0 31 28 41q8 3 16 3h285q36 0 44 -30q2 -6 2 -11q0 -30 -31 -38q-8 -2 -15 -2h-241z" glyph-name="afii10020" horiz-adv-x="434" unicode="Г"/>
<glyph d="M650 0h-556v-122q-2 -51 -43 -52q-39 9 -43 52v160q0 32 30 41q7 2 14 2h44q58 54 73 195l46 390q8 45 51 46h317q33 0 43 -27q3 -8 3 -15v-589h63q34 0 42 -30q2 -7 2 -13v-160q-2 -51 -43 -52q-39 9 -43 52v122zM300 631l-46 -391q-14 -105 -54 -159h340v550h-240z" glyph-name="afii10021" horiz-adv-x="750" unicode="Д"/>
<glyph d="M146 315v-233h212q41 -4 43 -41q-3 -39 -43 -41h-253q-44 5 -47 48v616q6 45 47 48h253q41 -4 43 -41q-3 -39 -43 -41h-212v-233h193q41 -4 43 -41q-3 -39 -43 -41h-193z" glyph-name="afii10022" horiz-adv-x="444" unicode="Е"/>
<glyph d="M515 412l301 279q28 27 50 27q28 0 38 -26q2 -7 2 -13q-1 -21 -19 -37l-290 -264l313 -304q21 -21 22 -40q0 -29 -28 -38q-7 -2 -14 -2q-24 1 -53 32l-322 314v-293q-3 -51 -44 -53q-43 2 -44 53v293l-322 -314q-33 -31 -54 -32q-31 0 -39 27q-2 7 -2 13q1 19 21 40 l314 304l-291 264q-19 17 -19 37q0 27 25 36q8 3 15 3q24 -1 50 -27l302 -279v253q2 52 44 53q41 -6 44 -53v-253z" glyph-name="afii10024" horiz-adv-x="942" unicode="Ж"/>
<glyph d="M346 530q0 67 -54 95q-26 13 -57 13q-58 0 -103 -41q-32 -24 -44 -26q-27 0 -38 26q-3 9 -3 17q0 35 50 67q60 39 145 39q122 0 174 -87q25 -41 25 -90q-1 -115 -105 -164q88 -20 121 -97q14 -34 14 -72q0 -109 -85 -171q-65 -47 -156 -47q-123 0 -190 60q-28 27 -29 48 q0 36 30 44q7 2 13 2q15 0 52 -26q67 -43 125 -45q87 0 125 59q19 29 19 66q-2 129 -183 130q-49 6 -54 40q6 40 49 43q112 0 147 67q12 24 12 50z" glyph-name="afii10025" horiz-adv-x="505" unicode="З"/>
<glyph d="M523 47v509h-2l-365 -525q-24 -31 -38 -35q-7 -2 -14 -2q-42 2 -43 52v619q3 51 44 53q43 -2 44 -53v-503h2l362 519q24 32 44 36q6 1 11 1q34 0 42 -34q2 -8 2 -16v-621q-3 -51 -44 -53q-44 2 -45 53z" glyph-name="afii10026" horiz-adv-x="673" unicode="И"/>
<glyph d="M208 857q0 29 24 35q4 1 7 1q13 0 38 -24q35 -32 66 -33q32 0 66 33q25 23 38 24q24 0 30 -26q1 -6 1 -10q0 -50 -64 -80q-36 -17 -71 -17q-57 0 -101 36q-33 27 -34 61zM523 47v509h-2l-365 -525q-24 -31 -38 -35q-7 -2 -14 -2q-42 2 -43 52v619q3 51 44 53 q43 -2 44 -53v-503h2l362 519q24 32 44 36q6 1 11 1q34 0 42 -34q2 -8 2 -16v-621q-3 -51 -44 -53q-44 2 -45 53z" glyph-name="afii10027" horiz-adv-x="673" unicode="Й"/>
<glyph d="M146 339v-298q0 -40 -34 -46q-5 -1 -10 -1q-37 0 -43 36q-1 6 -1 11v630q0 40 34 46q5 1 10 1q37 0 43 -36q1 -6 1 -11v-260l305 279q30 27 48 28q30 0 37 -28q1 -5 1 -10q-1 -24 -18 -40l-292 -263l319 -308q18 -17 18 -36q0 -25 -26 -36q-9 -3 -17 -3q-24 1 -43 19z " glyph-name="afii10028" horiz-adv-x="574" unicode="К"/>
<glyph d="M257 631l-45 -406q-29 -230 -170 -231q-33 0 -40 32q-1 6 -1 12q2 27 30 35q47 10 68 61q19 45 29 137l45 395q6 45 50 46h319q33 0 43 -27q3 -8 3 -15v-623q-3 -51 -44 -53q-44 2 -45 53v584h-242z" glyph-name="afii10029" horiz-adv-x="646" unicode="Л"/>
<glyph d="M200 604l-83 -572q-6 -37 -47 -38q-38 5 -41 45q0 13 5 40l97 572q13 66 69 67q48 0 63 -41q0 -3 1 -5l152 -521h2l152 521q18 44 64 46q56 0 69 -65v-2l97 -572q5 -28 5 -40q-5 -42 -41 -45q-41 2 -47 38l-83 572h-2l-170 -574q-12 -35 -45 -36q-34 2 -45 36l-170 574 h-2z" glyph-name="afii10030" horiz-adv-x="834" unicode="М"/>
<glyph d="M146 319v-272q-3 -51 -44 -53q-41 6 -44 53v618q3 51 44 53q41 -6 44 -53v-270h375v270q3 51 44 53q41 -6 44 -53v-618q-3 -51 -44 -53q-41 6 -44 53v272h-375z" glyph-name="afii10031" horiz-adv-x="667" unicode="Н"/>
<glyph d="M125 356q0 -145 72 -224q57 -62 146 -62q135 0 190 132q28 68 28 154q0 145 -72 224q-57 62 -146 62q-135 0 -190 -132q-28 -68 -28 -154zM31 356q0 153 84 256q88 105 228 106q155 0 242 -125q70 -101 70 -237q0 -153 -84 -256q-88 -105 -228 -106q-155 0 -242 125 q-70 101 -70 237z" glyph-name="afii10032" horiz-adv-x="686" unicode="О"/>
<glyph d="M520 631h-374v-584q-2 -52 -44 -53q-41 6 -44 53v619q2 45 51 46h453q33 0 43 -27q3 -8 3 -15v-623q-3 -51 -44 -53q-43 2 -44 53v584z" glyph-name="afii10033" horiz-adv-x="666" unicode="П"/>
<glyph d="M146 266v-225q0 -40 -34 -46q-5 -1 -10 -1q-37 0 -43 36q-1 6 -1 11v623q6 45 47 48h174q123 0 188 -87q43 -59 43 -137q0 -103 -77 -169q-65 -53 -151 -53h-136zM146 636v-294h130q81 0 123 64q23 37 23 82q0 82 -58 123q-38 25 -92 25h-126z" glyph-name="afii10034" horiz-adv-x="519" unicode="Р"/>
<glyph d="M125 356q0 -129 65 -212q60 -73 153 -74q67 0 140 42q38 22 51 22q29 0 34 -31q1 -5 1 -10q0 -35 -64 -65q-71 -34 -162 -34q-159 0 -246 129q-66 99 -66 233q0 156 86 258q88 103 231 104q108 0 174 -55q31 -27 32 -49q0 -33 -26 -40q-5 -2 -10 -2q-15 0 -45 25 q-51 41 -110 45h-15q-129 0 -188 -123q-35 -73 -35 -163z" glyph-name="afii10035" horiz-adv-x="593" unicode="С"/>
<glyph d="M178 41v589h-133q-41 4 -43 41q3 39 43 41h354q41 -4 43 -41q-3 -39 -43 -41h-133v-589q0 -40 -34 -46q-5 -1 -10 -1q-37 0 -43 36q-1 6 -1 11z" glyph-name="afii10036" horiz-adv-x="444" unicode="Т"/>
<glyph d="M302 269l192 412q18 36 47 37q31 0 41 -26q2 -7 2 -13q-1 -19 -20 -59l-223 -474q-49 -103 -115 -134q-40 -18 -93 -18q-87 0 -96 40q-1 4 -1 8q0 31 24 40q6 2 11 2q8 0 24 -3q23 -3 38 -3q67 1 103 67l15 29l-221 440q-22 46 -22 63q0 27 25 37q10 4 19 4q29 -1 46 -32 z" glyph-name="afii10037" horiz-adv-x="588" unicode="У"/>
<glyph d="M412 68v-36q-6 -49 -44 -53q-38 0 -43 42q-1 6 -1 11v36q-169 13 -253 116q-59 72 -59 173q0 150 125 230q78 49 187 58v36q3 51 44 53q41 -6 44 -53v-36q167 -13 251 -114q61 -73 61 -174q0 -153 -128 -233q-77 -47 -184 -56zM628 357q0 136 -125 184q-42 16 -91 20 v-410q154 15 200 120q16 39 16 86zM109 357q0 -146 141 -191q35 -11 74 -15v410q-140 -11 -191 -104q-24 -43 -24 -100z" glyph-name="afii10038" horiz-adv-x="736" unicode="Ф"/>
<glyph d="M297 313l-204 -291q-21 -28 -44 -28q-26 0 -37 22q-3 8 -3 15q1 16 14 36l223 315l-186 263q-14 20 -14 36q0 27 27 35q6 2 12 2q26 -2 45 -28l167 -244l167 244q21 28 45 28q28 0 37 -24q2 -7 2 -13q-1 -17 -14 -36l-186 -263l223 -315q14 -21 14 -36q0 -24 -25 -34 q-8 -3 -15 -3q-25 2 -44 28z" glyph-name="afii10039" horiz-adv-x="594" unicode="Х"/>
<glyph d="M631 0h-527q-34 0 -44 29q-2 7 -2 13v623q3 51 44 53q43 -2 44 -53v-584h374v584q2 52 44 53q41 -6 44 -53v-584h65q32 0 42 -29q2 -7 2 -14v-160q-5 -49 -43 -52q-39 9 -43 52v122z" glyph-name="afii10040" horiz-adv-x="731" unicode="Ц"/>
<glyph d="M478 280h-158q-137 0 -213 88q-59 69 -59 171v126q3 51 44 53q41 -6 44 -53v-117q0 -120 93 -166q42 -21 94 -21h155v304q2 52 44 53q41 -6 44 -53v-618q-3 -51 -44 -53q-43 2 -44 53v233z" glyph-name="afii10041" horiz-adv-x="624" unicode="Ч"/>
<glyph d="M746 81v584q3 51 44 53q41 -6 44 -53v-621q0 -31 -28 -41q-8 -3 -16 -3h-686q-34 0 -44 29q-2 7 -2 13v623q3 51 44 53q43 -2 44 -53v-584h256v584q3 51 44 53q41 -6 44 -53v-584h256z" glyph-name="afii10042" horiz-adv-x="892" unicode="Ш"/>
<glyph d="M746 81v584q3 51 44 53q41 -6 44 -53v-584h65q34 0 42 -30q2 -7 2 -13v-160q-2 -51 -43 -52q-39 9 -43 52v122h-753q-34 0 -44 29q-2 7 -2 13v623q3 51 44 53q43 -2 44 -53v-584h256v584q3 51 44 53q41 -6 44 -53v-584h256z" glyph-name="afii10043" horiz-adv-x="957" unicode="Щ"/>
<glyph d="M218 631h-169q-37 0 -45 29q-2 6 -2 11q0 32 33 40q7 1 14 1h214q34 0 42 -30q2 -7 2 -13v-252h162q126 0 183 -87q33 -51 33 -121q0 -110 -81 -167q-60 -42 -151 -42h-184q-50 2 -51 46v585zM307 336v-256h138q116 0 144 82q7 22 7 47q0 83 -74 114q-32 13 -73 13h-142z " glyph-name="afii10044" horiz-adv-x="703" unicode="Ъ"/>
<glyph d="M687 665v-618q-2 -52 -45 -53q-41 6 -44 53v618q3 51 44 53q44 -2 45 -53zM149 417h148q125 0 183 -86q34 -51 34 -122q0 -108 -80 -166q-61 -43 -153 -43h-169q-50 2 -51 46v619q3 51 44 53q43 -2 44 -53v-248zM149 336v-256h125q114 0 142 80q8 23 8 49q0 83 -74 114 q-32 13 -73 13h-128z" glyph-name="afii10045" horiz-adv-x="748" unicode="Ы"/>
<glyph d="M149 417h162q125 0 183 -86q34 -51 34 -122q0 -109 -80 -166q-61 -43 -153 -43h-183q-50 2 -51 46v619q3 51 44 53q43 -2 44 -53v-248zM149 336v-256h139q118 0 144 84q6 21 6 45q0 83 -74 114q-32 13 -73 13h-142z" glyph-name="afii10046" horiz-adv-x="546" unicode="Ь"/>
<glyph d="M483 396q-14 160 -122 218q-46 24 -100 24q-75 0 -142 -46q-31 -22 -42 -22q-26 0 -36 27q-3 9 -3 18q0 31 57 63q74 42 171 42q174 0 258 -142q56 -94 56 -223q0 -173 -101 -274q-90 -89 -231 -89q-107 0 -179 51q-37 28 -38 53q5 39 38 43q9 0 41 -22q64 -42 141 -42 q150 0 207 127q22 50 26 113h-269q-37 0 -45 31q-1 5 -1 10q0 30 31 38q8 2 15 2h268z" glyph-name="afii10047" horiz-adv-x="613" unicode="Э"/>
<glyph d="M149 406h136q15 154 108 242q78 72 187 72q149 0 232 -127q65 -100 65 -237q0 -160 -84 -264q-83 -99 -213 -100q-150 0 -233 127q-56 87 -64 205h-134v-277q-2 -52 -44 -53q-41 6 -44 53v618q3 51 44 53q43 -2 44 -53v-259zM579 639q-124 0 -175 -133q-26 -67 -26 -150 q0 -142 66 -221q53 -61 135 -62q124 0 175 133q26 67 26 150q0 142 -66 221q-53 61 -135 62z" glyph-name="afii10048" horiz-adv-x="913" unicode="Ю"/>
<glyph d="M373 41v271l-272 -298q-19 -19 -40 -20q-29 0 -38 23q-2 6 -2 11q1 22 17 40l224 245l-38 1q-130 5 -173 105q-18 41 -18 96q0 99 79 156q59 41 139 41h163q44 -5 47 -48v-623q0 -40 -34 -46q-5 -1 -10 -1q-37 0 -43 36q-1 6 -1 11zM373 383v253h-118q-92 0 -123 -70 q-11 -25 -11 -52q0 -117 117 -129q16 -2 34 -2h101z" glyph-name="afii10049" horiz-adv-x="519" unicode="Я"/>
<glyph d="M498 495v-458q0 -34 -31 -42q-6 -1 -10 -1q-29 0 -38 26q-3 8 -3 17v37h-2q-57 -79 -145 -80q-121 0 -187 103q-47 73 -47 169q0 124 73 203q64 69 161 69q81 -1 145 -71h2v28q0 35 32 42q5 1 9 1q27 0 37 -24q4 -9 4 -19zM123 266q0 -108 57 -162q36 -34 89 -34 q96 0 131 103q15 43 15 93q0 108 -57 162q-36 34 -89 34q-96 0 -131 -103q-15 -43 -15 -93z" glyph-name="afii10065" horiz-adv-x="556" unicode="а"/>
<glyph d="M505 265q0 -148 -88 -222q-61 -51 -151 -51q-154 0 -208 154q-23 67 -23 149q1 330 194 394q28 9 132 23q13 1 23 3q14 2 32 7q19 5 28 5q31 0 36 -33q1 -5 1 -9q-2 -32 -52 -43q-18 -4 -66 -9q-55 -7 -86 -12q-118 -22 -145 -162h3q60 74 155 74q130 0 184 -114 q31 -64 31 -154zM276 459q-105 0 -137 -105q-12 -40 -12 -91q0 -106 54 -160q37 -36 89 -36q93 0 128 101q15 44 15 95q0 182 -119 195q-9 1 -18 1z" glyph-name="afii10066" horiz-adv-x="540" unicode="б"/>
<glyph d="M58 46v441q2 44 50 45h151q140 0 165 -95q5 -18 5 -39q-1 -81 -81 -112v-2q123 -17 124 -129q0 -90 -83 -131q-50 -24 -120 -24h-161q-49 2 -50 46zM145 458v-146h89q101 0 108 64q1 6 1 12q0 56 -64 67q-15 3 -30 3h-104zM145 238v-164h125q101 0 113 64q2 8 2 16 q-2 83 -123 84h-117z" glyph-name="afii10067" horiz-adv-x="500" unicode="в"/>
<glyph d="M145 451v-405q0 -44 -34 -51q-5 -1 -10 -1q-36 0 -42 40q-1 6 -1 12v448q0 33 32 37q4 1 8 1h222q43 -2 44 -40q-4 -39 -44 -41h-175z" glyph-name="afii10068" horiz-adv-x="359" unicode="г"/>
<glyph d="M508 0h-416v-97q-2 -51 -42 -52q-40 4 -42 52v134q0 31 28 41q8 2 15 2h15q43 41 64 147q1 3 1 5l50 256q8 39 39 43q6 1 12 1h229q39 0 45 -31q1 -5 1 -9v-412h42q31 0 41 -28q2 -8 2 -15v-134q-2 -51 -42 -52q-40 4 -42 52v97zM263 452l-48 -255q-15 -74 -46 -117h251 v372h-157z" glyph-name="afii10069" horiz-adv-x="605" unicode="д"/>
<glyph d="M445 232h-331q0 -92 66 -136q39 -26 91 -26q76 0 138 48q31 24 42 24q23 0 30 -25q2 -7 2 -14q0 -32 -61 -67q-73 -42 -152 -42q-147 0 -210 120q-34 66 -34 152q0 124 75 203q66 69 164 69q114 0 181 -97q48 -72 48 -162q0 -40 -32 -46q-8 -1 -17 -1zM114 298h292 q0 81 -50 129q-38 35 -91 35q-105 4 -139 -97q-11 -31 -12 -67z" glyph-name="afii10070" horiz-adv-x="520" unicode="е"/>
<glyph d="M405 331l200 181q29 26 48 26q27 0 36 -25q2 -7 2 -13q-1 -22 -28 -46l-193 -166l215 -206q30 -34 32 -51q0 -27 -25 -35q-7 -2 -13 -2q-24 0 -55 29l-13 13l-206 203v-193q0 -46 -36 -51q-4 -1 -7 -1q-36 0 -43 38q-1 7 -1 14v193l-205 -203q-37 -36 -54 -40 q-8 -2 -15 -2q-26 0 -35 24q-2 7 -2 13q0 18 26 46l5 5l216 206l-194 166q-26 28 -27 46q0 27 25 36q7 2 13 2q20 -1 48 -26l199 -181v155q0 44 34 51q5 1 10 1q36 0 42 -40q1 -6 1 -12v-155z" glyph-name="afii10072" horiz-adv-x="724" unicode="ж"/>
<glyph d="M441 156q0 -82 -76 -128q-60 -36 -149 -36q-121 0 -181 52q-22 21 -23 39q0 35 29 44q5 1 10 1q10 0 42 -22q58 -40 125 -40q102 0 128 57q6 15 6 31q0 66 -88 81q-33 5 -85 5q-41 0 -47 31q-1 4 -1 7q0 25 27 35q10 3 21 3q146 1 147 79q0 57 -66 70q-17 3 -37 3 q-61 -1 -112 -38q-16 -10 -28 -10q-28 0 -35 26q-2 6 -2 11q0 33 60 60q55 25 123 25q127 0 170 -74q16 -28 16 -61q-1 -86 -95 -121q99 -20 117 -98q4 -16 4 -32z" glyph-name="afii10073" horiz-adv-x="469" unicode="з"/>
<glyph d="M401 46v342l-252 -360q-21 -30 -41 -33q-5 -1 -9 -1q-40 2 -41 51v441q5 49 43 52q38 0 43 -41q1 -6 1 -11v-339l248 357q29 32 53 34q35 0 41 -36q1 -7 1 -13v-443q-6 -48 -44 -52q-36 0 -42 40q-1 6 -1 12z" glyph-name="afii10074" horiz-adv-x="546" unicode="и"/>
<glyph d="M142 697q0 29 24 35q4 1 7 1q13 0 38 -24q35 -32 66 -33q32 0 66 33q25 23 38 24q24 0 30 -26q1 -6 1 -10q0 -50 -64 -80q-36 -17 -71 -17q-57 0 -101 36q-33 27 -34 61zM401 46v342l-252 -360q-21 -30 -41 -33q-5 -1 -9 -1q-40 2 -41 51v441q5 49 43 52q38 0 43 -41 q1 -6 1 -11v-339l248 357q29 32 53 34q35 0 41 -36q1 -7 1 -13v-443q-6 -48 -44 -52q-36 0 -42 40q-1 6 -1 12z" glyph-name="afii10075" horiz-adv-x="546" unicode="й"/>
<glyph d="M145 331l199 181q29 26 48 26q27 0 36 -25q2 -7 2 -13q0 -20 -24 -43l-3 -3l-194 -166l216 -206q29 -35 31 -51q0 -26 -25 -35q-6 -2 -12 -2q-24 0 -53 27q-6 6 -16 15l-205 204v-194q0 -44 -34 -51q-5 -1 -10 -1q-36 0 -42 40q-1 6 -1 12v440q0 46 36 51q4 1 7 1 q36 0 43 -38q1 -7 1 -14v-155z" glyph-name="afii10076" horiz-adv-x="463" unicode="к"/>
<glyph d="M237 452l-42 -259q-28 -175 -124 -196q-15 -3 -31 -3q-36 4 -38 40q1 28 29 35q35 8 52 49q14 35 29 121l43 249q8 43 52 44h237q39 0 45 -31q1 -5 1 -9v-446q0 -46 -36 -51q-4 -1 -7 -1q-36 0 -43 38q-1 7 -1 14v406h-166z" glyph-name="afii10077" horiz-adv-x="548" unicode="л"/>
<glyph d="M589 475l50 -363q9 -63 9 -76q0 -34 -34 -41q-5 -1 -10 -1q-37 2 -44 48l-49 390h-2l-123 -385q-14 -45 -39 -50q-6 -1 -10 -1q-32 0 -46 42q-1 3 -2 5l-118 387h-2l-50 -387q-8 -48 -45 -49q-40 4 -42 41q0 7 10 77l50 362q10 63 76 64q52 -1 68 -54l102 -345h2l109 345 q19 53 71 54q58 0 68 -59q1 -2 1 -4z" glyph-name="afii10078" horiz-adv-x="680" unicode="м"/>
<glyph d="M145 236v-190q0 -44 -34 -51q-5 -1 -10 -1q-36 0 -42 40q-1 6 -1 12v440q5 49 43 52q38 0 43 -41q1 -6 1 -11v-173h253v173q5 49 43 52q41 -6 44 -52v-440q-6 -48 -44 -52q-36 0 -42 40q-1 6 -1 12v190h-253z" glyph-name="afii10079" horiz-adv-x="543" unicode="н"/>
<glyph d="M35 266q0 124 73 203q64 69 161 69q121 0 187 -103q47 -73 47 -169q0 -124 -73 -203q-64 -69 -161 -69q-121 0 -187 103q-47 73 -47 169zM123 266q0 -108 57 -162q36 -34 89 -34q96 0 131 103q15 43 15 93q0 108 -57 162q-36 34 -89 34q-96 0 -131 -103q-15 -43 -15 -93z " glyph-name="afii10080" horiz-adv-x="538" unicode="о"/>
<glyph d="M145 452v-406q0 -44 -34 -51q-5 -1 -10 -1q-36 0 -42 40q-1 6 -1 12v439q2 46 44 47h334q34 0 39 -31q1 -4 1 -7v-448q-6 -48 -44 -52q-36 0 -42 40q-1 6 -1 12v406h-244z" glyph-name="afii10081" horiz-adv-x="534" unicode="п"/>
<glyph d="M141 266q0 -108 57 -162q36 -34 89 -34q96 0 131 103q15 43 15 93q0 108 -57 162q-36 34 -89 34q-96 0 -131 -103q-15 -43 -15 -93zM62 -169v660q0 40 34 46q5 1 10 1q37 0 43 -36q1 -6 1 -11v-26h2q39 72 142 73q116 0 180 -102q47 -74 47 -170q0 -124 -71 -203 q-63 -69 -156 -69q-83 0 -134 62q-5 6 -8 10h-2v-235q0 -40 -34 -46q-5 -1 -10 -1q-37 0 -43 36q-1 6 -1 11z" glyph-name="afii10082" horiz-adv-x="556" unicode="р"/>
<glyph d="M35 266q0 132 77 209q64 63 163 63q100 0 133 -41q10 -13 10 -26q0 -24 -22 -34q-7 -3 -14 -3q-13 0 -46 15q-29 13 -61 13q-94 0 -133 -96q-19 -47 -19 -100q0 -99 54 -155q40 -41 98 -41q37 0 78 21q17 9 28 9q31 -6 34 -37q0 -33 -50 -54q-38 -15 -90 -15 q-136 0 -201 113q-39 69 -39 159z" glyph-name="afii10083" horiz-adv-x="444" unicode="с"/>
<glyph d="M158 451h-112q-40 7 -44 41q6 37 44 40h310q42 -3 44 -40q-7 -37 -44 -41h-111v-405q0 -44 -34 -51q-5 -1 -10 -1q-36 0 -42 40q-1 6 -1 12v405z" glyph-name="afii10084" horiz-adv-x="402" unicode="т"/>
<glyph d="M91 500l122 -359h2l123 357q14 39 45 40q31 0 39 -29q2 -6 2 -12q0 -15 -6 -30l-205 -570q-38 -107 -124 -115q-9 -1 -17 -1q-44 4 -47 40q0 26 26 32q4 0 7 1q40 7 60 35q9 14 16 33l38 99l-158 442q-9 25 -9 35q0 28 26 38q8 2 15 2q32 -2 45 -38z" glyph-name="afii10085" horiz-adv-x="429" unicode="у"/>
<glyph d="M377 540q143 -3 211 -108q45 -70 45 -166q0 -147 -100 -222q-66 -49 -156 -52v-157q0 -46 -36 -51q-4 -1 -7 -1q-36 0 -43 38q-1 7 -1 14v157q-149 4 -215 115q-40 67 -40 159q0 143 94 219q66 52 161 55v179q0 46 35 52q5 1 9 1q37 0 42 -42q1 -6 1 -11v-179zM377 464 v-396q95 1 139 87q25 49 25 111q0 110 -67 165q-41 32 -97 33zM290 464q-95 -1 -138 -87q-25 -49 -25 -111q0 -109 66 -164q41 -33 97 -34v396z" glyph-name="afii10086" horiz-adv-x="668" unicode="ф"/>
<glyph d="M24 76l157 206l-138 181q-15 19 -15 35q0 29 25 38q6 2 12 2q22 -1 38 -20l129 -172l129 172q17 20 38 20q26 0 35 -26q2 -7 2 -14q-1 -17 -15 -35l-138 -181l157 -206q18 -25 18 -42q0 -28 -26 -37q-7 -3 -14 -3q-25 1 -39 20l-147 204l-147 -204q-15 -19 -39 -20 q-28 0 -38 26q-2 7 -2 14q1 18 18 42z" glyph-name="afii10087" horiz-adv-x="464" unicode="х"/>
<glyph d="M477 0h-379q-36 6 -40 38v448q0 46 36 51q4 1 7 1q36 0 43 -38q1 -7 1 -14v-406h244v406q0 46 36 51q4 1 7 1q38 0 43 -41q1 -6 1 -11v-406h42q31 0 41 -28q2 -8 2 -15v-134q-3 -50 -42 -52q-41 2 -42 52v97z" glyph-name="afii10088" horiz-adv-x="574" unicode="ц"/>
<glyph d="M355 200h-86q-197 0 -223 175q-4 26 -4 54v57q0 44 34 51q5 1 10 1q36 0 42 -40q1 -6 1 -12v-47q0 -126 81 -152q27 -9 64 -9h81v208q0 46 36 51q4 1 7 1q36 0 43 -38q1 -7 1 -14v-440q0 -44 -34 -51q-5 -1 -10 -1q-36 0 -42 40q-1 6 -1 12v154z" glyph-name="afii10089" horiz-adv-x="500" unicode="ч"/>
<glyph d="M655 80v406q0 44 34 51q5 1 10 1q36 0 42 -40q1 -6 1 -12v-446q-6 -37 -40 -40h-604q-36 6 -40 38v448q0 46 36 51q4 1 7 1q36 0 43 -38q1 -7 1 -14v-406h211v406q0 44 34 51q5 1 10 1q36 0 43 -38q1 -7 1 -14v-406h211z" glyph-name="afii10090" horiz-adv-x="800" unicode="ш"/>
<glyph d="M655 80v406q0 44 34 51q5 1 10 1q36 0 42 -40q1 -6 1 -12v-406h42q33 0 41 -29q2 -7 2 -13v-135q-2 -51 -42 -52q-40 4 -42 52v97h-645q-36 6 -40 38v448q0 46 36 51q4 1 7 1q36 0 43 -38q1 -7 1 -14v-406h211v406q0 44 34 51q5 1 10 1q36 0 43 -38q1 -7 1 -14v-406h211z " glyph-name="afii10091" horiz-adv-x="840" unicode="щ"/>
<glyph d="M158 451h-112q-40 7 -44 41q6 37 44 40h161q37 -2 38 -39v-178h144q140 0 174 -98q9 -27 9 -58q0 -89 -78 -132q-51 -27 -125 -27h-161q-49 2 -50 46v405zM245 239v-161h126q113 2 114 80q-2 80 -114 81h-126z" glyph-name="afii10092" horiz-adv-x="588" unicode="ъ"/>
<glyph d="M616 486v-440q0 -46 -36 -51q-4 -1 -7 -1q-36 0 -43 38q-1 7 -1 14v440q0 44 34 51q5 1 10 1q36 0 42 -40q1 -6 1 -12zM145 315h134q140 0 174 -98q9 -27 9 -58q0 -89 -78 -132q-51 -27 -125 -27h-151q-49 2 -50 46v440q0 46 36 51q4 1 7 1q36 0 43 -38q1 -7 1 -14v-171z M145 239v-161h115q114 2 115 80q-2 80 -115 81h-115z" glyph-name="afii10093" horiz-adv-x="674" unicode="ы"/>
<glyph d="M145 315h144q140 0 174 -98q9 -27 9 -58q0 -89 -78 -132q-51 -27 -125 -27h-161q-49 2 -50 46v440q0 46 36 51q4 1 7 1q36 0 43 -38q1 -7 1 -14v-171zM145 239v-161h125q114 2 115 80q-2 80 -115 81h-125z" glyph-name="afii10094" horiz-adv-x="488" unicode="ь"/>
<glyph d="M422 269q0 -143 -90 -220q-66 -57 -159 -57q-85 0 -129 37q-21 18 -22 39q0 23 23 32q7 3 13 3q4 0 44 -16q39 -15 76 -15q77 0 121 62q27 40 30 92h-196q-35 0 -46 24q-3 7 -3 13q2 38 50 39h195q-8 102 -77 141q-32 18 -70 18q-39 0 -84 -22q-18 -9 -29 -9 q-39 2 -40 41q0 27 52 49q47 20 104 20q149 0 208 -123q29 -64 29 -148z" glyph-name="afii10095" horiz-adv-x="457" unicode="э"/>
<glyph d="M687 266q0 -143 -81 -219q-60 -55 -148 -55q-132 0 -193 113q-29 57 -35 131h-85v-190q0 -44 -34 -51q-5 -1 -10 -1q-36 0 -42 40q-1 6 -1 12v440q5 49 43 52q38 0 43 -41q1 -6 1 -11v-173h87q15 123 96 185q56 42 130 42q125 0 188 -110q41 -72 41 -164zM595 266 q0 110 -55 164q-34 34 -83 34q-87 0 -121 -99q-16 -46 -16 -99q0 -109 54 -164q34 -34 83 -34q90 0 124 103q14 44 14 95z" glyph-name="afii10096" horiz-adv-x="722" unicode="ю"/>
<glyph d="M340 222l-216 -198q-35 -28 -52 -30q-32 0 -38 28q-1 5 -1 9q1 22 28 46l167 149l-43 1q-109 2 -142 82q-12 29 -12 63q0 90 78 133q50 27 122 27h145q51 0 51 -45v-446q-4 -44 -45 -47q-41 2 -42 47v181zM340 291v164h-110q-97 0 -110 -64q-2 -9 -2 -18q2 -81 108 -82 h114z" glyph-name="afii10097" horiz-adv-x="485" unicode="я"/>
<glyph d="M298 616l-115 47q-34 14 -35 37q0 25 20 37q9 5 18 5q13 -1 34 -9l115 -47q34 -14 35 -37q0 -25 -20 -37q-9 -5 -18 -5q-13 1 -34 9zM445 232h-331q0 -92 66 -136q39 -26 91 -26q76 0 138 48q31 24 42 24q23 0 30 -25q2 -7 2 -14q0 -32 -61 -67q-73 -42 -152 -42 q-147 0 -210 120q-34 66 -34 152q0 124 75 203q66 69 164 69q114 0 181 -97q48 -72 48 -162q0 -40 -32 -46q-8 -1 -17 -1zM114 298h292q0 81 -50 129q-38 35 -91 35q-105 4 -139 -97q-11 -31 -12 -67z" glyph-name="uni0450" horiz-adv-x="520" unicode="ѐ"/>
<glyph d="M113 658q0 34 31 49q11 5 23 5q34 0 49 -31q5 -11 5 -23q0 -34 -31 -49q-11 -5 -23 -5q-34 0 -49 31q-5 11 -5 23zM299 658q0 34 31 49q11 5 23 5q34 0 49 -31q5 -11 5 -23q0 -34 -31 -49q-11 -5 -23 -5q-34 0 -49 31q-5 11 -5 23zM445 232h-331q0 -92 66 -136 q39 -26 91 -26q76 0 138 48q31 24 42 24q23 0 30 -25q2 -7 2 -14q0 -32 -61 -67q-73 -42 -152 -42q-147 0 -210 120q-34 66 -34 152q0 124 75 203q66 69 164 69q114 0 181 -97q48 -72 48 -162q0 -40 -32 -46q-8 -1 -17 -1zM114 298h292q0 81 -50 129q-38 35 -91 35 q-105 4 -139 -97q-11 -31 -12 -67z" glyph-name="afii10071" horiz-adv-x="520" unicode="ё"/>
<glyph d="M159 585v-136h2q54 65 138 66q94 0 149 -65q42 -50 42 -124v-359q0 -121 -88 -165q-38 -19 -84 -19q-51 1 -52 38q0 35 37 37h2q71 3 91 63q7 20 7 43v356q0 76 -62 105q-27 12 -60 12q-68 0 -102 -55q-20 -33 -20 -76v-260q0 -44 -34 -51q-5 -1 -10 -1q-36 0 -42 40 q-1 6 -1 12v539h-59q-35 0 -43 28q-1 5 -1 10q0 32 34 37q5 1 10 1h59v58q6 49 43 53q36 0 43 -39q1 -7 1 -14v-58h179q36 0 43 -29q1 -5 1 -9q0 -28 -29 -36q-8 -2 -15 -2h-179z" glyph-name="afii10099" horiz-adv-x="548" unicode="ђ"/>
<glyph d="M293 663l-115 -47q-22 -9 -34 -9q-27 0 -36 30q-2 7 -2 12q0 22 33 36q1 1 2 1l115 47q22 9 34 9q27 0 36 -30q2 -7 2 -12q0 -22 -33 -36q-1 -1 -2 -1zM145 451v-405q0 -44 -34 -51q-5 -1 -10 -1q-36 0 -42 40q-1 6 -1 12v448q0 33 32 37q4 1 8 1h222q43 -2 44 -40 q-4 -39 -44 -41h-175z" glyph-name="afii10100" horiz-adv-x="359" unicode="ѓ"/>
<glyph d="M128 302h195q49 -2 50 -39q0 -28 -34 -35q-8 -2 -15 -2h-196q5 -89 71 -131q36 -23 78 -23q40 0 96 21q14 6 21 6q23 0 33 -21q3 -7 3 -14q0 -42 -74 -62q-37 -10 -81 -10q-131 0 -196 104q-44 70 -44 168q0 141 86 218q66 58 162 58q78 0 126 -36q21 -18 22 -34 q-2 -40 -41 -41q-10 0 -41 15q-34 17 -74 17q-88 0 -127 -80q-17 -36 -20 -79z" glyph-name="afii10101" horiz-adv-x="453" unicode="є"/>
<glyph d="M46 388q0 84 81 126q46 24 100 24q74 0 133 -36q43 -27 44 -58q0 -29 -29 -35q-6 -1 -11 -1q-15 0 -44 22q-44 32 -93 32q-68 0 -87 -41q-6 -13 -6 -26q0 -35 64 -64q16 -8 51 -21q98 -38 132 -69q37 -36 37 -83q0 -99 -90 -142q-47 -22 -104 -22q-101 0 -165 49 q-34 26 -35 52q0 30 25 38q6 2 11 2q15 0 51 -25q59 -40 116 -40q66 0 93 41q10 16 10 31q0 41 -70 75q-16 8 -53 24q-96 40 -128 71q-33 33 -33 76z" glyph-name="afii10102" horiz-adv-x="444" unicode="ѕ"/>
<glyph d="M146 491v-450q0 -40 -34 -46q-5 -1 -10 -1q-37 0 -43 36q-1 6 -1 11v450q0 40 34 46q5 1 10 1q37 0 43 -36q1 -6 1 -11zM48 664q0 34 31 49q11 5 23 5q34 0 49 -31q5 -11 5 -23q0 -34 -31 -49q-11 -5 -23 -5q-34 0 -49 31q-5 11 -5 23z" glyph-name="afii10103" unicode="і"/>
<glyph d="M146 491v-450q0 -40 -34 -46q-5 -1 -10 -1q-37 0 -43 36q-1 6 -1 11v450q0 40 34 46q5 1 10 1q37 0 43 -36q1 -6 1 -11zM-45 658q0 34 31 49q11 5 23 5q34 0 49 -31q5 -11 5 -23q0 -34 -31 -49q-11 -5 -23 -5q-34 0 -49 31q-5 11 -5 23zM141 658q0 34 31 49q11 5 23 5 q34 0 49 -31q5 -11 5 -23q0 -34 -31 -49q-11 -5 -23 -5q-34 0 -49 31q-5 11 -5 23z" glyph-name="afii10104" unicode="ї"/>
<glyph d="M146 491v-660q0 -40 -34 -46q-5 -1 -10 -1q-37 0 -43 36q-1 6 -1 11v660q0 40 34 46q5 1 10 1q37 0 43 -36q1 -6 1 -11zM48 664q0 34 31 49q11 5 23 5q34 0 49 -31q5 -11 5 -23q0 -34 -31 -49q-11 -5 -23 -5q-34 0 -49 31q-5 11 -5 23z" glyph-name="afii10105" unicode="ј"/>
<glyph d="M231 452l-37 -259q-30 -198 -154 -199q-29 0 -36 28q-2 7 -2 14q2 24 29 33q37 10 54 50q14 36 27 120l37 249q15 41 51 44h244q39 0 45 -31q1 -5 1 -9v-177h145q136 0 172 -94q11 -29 11 -62q0 -89 -78 -132q-51 -27 -125 -27h-161q-50 2 -51 46v406h-172zM490 239v-161 h126q114 2 115 80q-2 80 -115 81h-126z" glyph-name="afii10106" horiz-adv-x="834" unicode="љ"/>
<glyph d="M398 315v171q5 49 43 52q41 -6 44 -52v-171h145q136 0 172 -94q11 -29 11 -62q0 -88 -77 -131q-51 -28 -126 -28h-161q-50 2 -51 46v193h-253v-193q0 -44 -34 -51q-5 -1 -10 -1q-36 0 -42 40q-1 6 -1 12v440q5 49 43 52q38 0 43 -41q1 -6 1 -11v-171h253zM485 239v-161 h126q113 2 114 80q-2 80 -114 81h-126z" glyph-name="afii10107" horiz-adv-x="829" unicode="њ"/>
<glyph d="M159 585v-136h2q54 65 138 66q94 0 149 -65q42 -50 42 -124v-280q0 -46 -36 -51q-4 -1 -7 -1q-38 0 -43 41q-1 6 -1 11v274q0 76 -62 105q-27 12 -60 12q-68 0 -102 -55q-20 -33 -20 -76v-260q0 -44 -34 -51q-5 -1 -10 -1q-36 0 -42 40q-1 6 -1 12v539h-59q-35 0 -43 28 q-1 5 -1 10q0 32 34 37q5 1 10 1h59v58q6 49 43 53q36 0 43 -39q1 -7 1 -14v-58h179q36 0 43 -29q1 -5 1 -9q0 -28 -29 -36q-8 -2 -15 -2h-179z" glyph-name="afii10108" horiz-adv-x="548" unicode="ћ"/>
<glyph d="M327 663l-115 -47q-22 -9 -34 -9q-27 0 -36 30q-2 7 -2 12q0 22 33 36q1 1 2 1l115 47q22 9 34 9q27 0 36 -30q2 -7 2 -12q0 -22 -33 -36q-1 -1 -2 -1zM145 331l199 181q29 26 48 26q27 0 36 -25q2 -7 2 -13q0 -20 -24 -43l-3 -3l-194 -166l216 -206q29 -35 31 -51 q0 -26 -25 -35q-6 -2 -12 -2q-24 0 -53 27q-6 6 -16 15l-205 204v-194q0 -44 -34 -51q-5 -1 -10 -1q-36 0 -42 40q-1 6 -1 12v440q0 46 36 51q4 1 7 1q36 0 43 -38q1 -7 1 -14v-155z" glyph-name="afii10109" horiz-adv-x="463" unicode="ќ"/>
<glyph d="M303 616l-115 47q-34 14 -35 37q0 25 20 37q9 5 18 5q13 -1 34 -9l115 -47q34 -14 35 -37q0 -25 -20 -37q-9 -5 -18 -5q-13 1 -34 9zM401 46v342l-252 -360q-21 -30 -41 -33q-5 -1 -9 -1q-40 2 -41 51v441q5 49 43 52q38 0 43 -41q1 -6 1 -11v-339l248 357q29 32 53 34 q35 0 41 -36q1 -7 1 -13v-443q-6 -48 -44 -52q-36 0 -42 40q-1 6 -1 12z" glyph-name="uni045D" horiz-adv-x="546" unicode="ѝ"/>
<glyph d="M77 697q0 29 24 35q4 1 7 1q13 0 38 -24q35 -32 66 -33q32 0 66 33q25 23 38 24q24 0 30 -26q1 -6 1 -10q0 -50 -64 -80q-36 -17 -71 -17q-57 0 -101 36q-33 27 -34 61zM91 500l122 -359h2l123 357q14 39 45 40q31 0 39 -29q2 -6 2 -12q0 -15 -6 -30l-205 -570 q-38 -107 -124 -115q-9 -1 -17 -1q-44 4 -47 40q0 26 26 32q4 0 7 1q40 7 60 35q9 14 16 33l38 99l-158 442q-9 25 -9 35q0 28 26 38q8 2 15 2q32 -2 45 -38z" glyph-name="afii10110" horiz-adv-x="429" unicode="ў"/>
<glyph d="M389 80v406q0 46 36 51q4 1 7 1q38 0 43 -41q1 -6 1 -11v-439q-2 -46 -44 -47h-123v-97q-3 -50 -42 -52q-40 4 -42 52v97h-127q-36 6 -40 38v448q0 46 36 51q4 1 7 1q36 0 43 -38q1 -7 1 -14v-406h244z" glyph-name="afii10193" horiz-adv-x="534" unicode="џ"/>
<glyph d="M222 0q-50 2 -51 46v477h-131q-33 0 -41 28q-2 6 -2 11q0 27 26 37q9 3 17 3h131v63q3 51 44 53q43 -2 44 -53v-63h131q33 0 41 -29q2 -6 2 -11q0 -30 -29 -37q-7 -2 -14 -2h-131v-106h162q125 0 183 -86q34 -51 34 -122q0 -109 -80 -166q-61 -43 -153 -43h-183zM259 80 h139q118 0 144 84q6 21 6 45q0 83 -74 114q-32 13 -73 13h-142v-256z" glyph-name="afii10146" horiz-adv-x="668" unicode="Ѣ"/>
<glyph d="M203 0q-49 2 -50 46v405h-112q-40 7 -44 41q6 37 44 40h112v110q1 53 43 54q38 0 43 -43q1 -6 1 -11v-110h111q42 -3 44 -40q-7 -37 -44 -41h-111v-136h145q138 0 172 -96q10 -28 10 -60q0 -89 -78 -132q-51 -27 -125 -27h-161zM240 78h126q113 2 114 80q-2 80 -114 81 h-126v-161z" glyph-name="afii10194" horiz-adv-x="597" unicode="ѣ"/>
<glyph d="M346 -6q-153 0 -240 124q-71 100 -71 238q0 155 85 258q87 103 226 104q153 0 240 -124q71 -100 71 -238q0 -154 -85 -257q-87 -104 -226 -105zM346 73q133 0 189 133q22 55 27 123q-47 -37 -105 -37q-48 0 -115 39q-62 35 -93 39q-7 1 -14 1q-49 0 -92 -43l-7 -7l-6 -6 q13 -142 97 -205q50 -37 119 -37zM459 368q53 0 97 50l3 3q-21 138 -111 192q-45 26 -102 26q-134 0 -190 -135q-17 -43 -24 -95q48 38 104 38q48 0 118 -40q62 -35 93 -38q7 -1 12 -1z" glyph-name="afii10147" horiz-adv-x="692" unicode="Ѳ"/>
<glyph d="M270 -6q-131 0 -195 109q-40 69 -40 163q0 122 70 200q65 72 165 72q126 0 191 -107q44 -73 44 -165q0 -141 -82 -217q-62 -55 -153 -55zM270 66q93 0 129 101q11 31 15 67q-32 -20 -68 -20q-27 0 -87 29q-44 21 -66 21q-36 -1 -68 -30q10 -104 73 -147q32 -21 72 -21z M346 280q37 1 66 29q-16 112 -88 146q-25 11 -54 11q-93 0 -130 -103q-9 -25 -13 -52q32 20 69 20q28 0 86 -30q42 -21 64 -21z" glyph-name="afii10195" horiz-adv-x="540" unicode="ѳ"/>
<glyph d="M276 -6q-32 1 -49 46l-208 588q-12 32 -12 48q0 31 29 40q8 2 15 2q30 -1 42 -34l182 -542h2l128 384q36 108 60 141q40 51 112 51q33 0 40 -31q1 -6 1 -12q0 -25 -30 -34l-8 -2q-36 -9 -56 -46q-11 -22 -28 -69l-170 -484q-18 -45 -50 -46z" glyph-name="afii10148" horiz-adv-x="594" unicode="Ѵ"/>
<glyph d="M211 -6q-33 1 -42 27l-150 431q-10 28 -10 41q0 34 28 43q7 2 14 2q31 -1 43 -37l116 -365h2l80 254q32 100 72 129q28 19 66 19q39 0 46 -31q1 -5 1 -9q-2 -34 -37 -38q-29 -3 -44 -30q-10 -18 -23 -56l-119 -353q-10 -27 -43 -27z" glyph-name="afii10196" horiz-adv-x="455" unicode="ѵ"/>
<glyph d="M350 712v122q5 49 43 52q39 -9 43 -52v-163q0 -30 -31 -38q-8 -2 -15 -2h-241v-584q-2 -52 -44 -53q-41 6 -44 53v621q0 31 28 41q8 3 16 3h245z" glyph-name="afii10050" horiz-adv-x="434" unicode="Ґ"/>
<glyph d="M280 532v96q2 51 42 52q40 -4 42 -52v-136q-4 -39 -44 -41h-175v-405q0 -44 -34 -51q-5 -1 -10 -1q-36 0 -42 40q-1 6 -1 12v448q0 33 32 37q4 1 8 1h182z" glyph-name="afii10098" horiz-adv-x="359" unicode="ґ"/>
<glyph d="M208 108l164 575q12 34 45 35q34 -2 45 -35l164 -575h2l93 569q9 40 48 41q31 0 39 -29q1 -6 1 -11q0 -20 -5 -45l-108 -581q-20 -53 -63 -58q-41 0 -57 29q-7 12 -12 29l-146 522h-2l-146 -522q-14 -49 -47 -56q-10 -2 -22 -2q-50 0 -62 52q-1 3 -1 6l-108 581 q-5 27 -5 45q0 31 28 38q6 2 12 2q40 -2 48 -41l93 -569h2zM442 776l-115 47q-34 14 -35 37q0 25 20 37q9 5 18 5q13 -1 34 -9l115 -47q34 -14 35 -37q0 -25 -20 -37q-9 -5 -18 -5q-13 1 -34 9z" glyph-name="Wgrave" horiz-adv-x="834" unicode="Ẁ"/>
<glyph d="M155 40l-146 425q-7 23 -7 34q0 27 25 36q8 3 17 3q34 0 48 -43q1 -1 1 -2l113 -363h2l111 350q14 44 29 53q10 5 23 5q29 0 42 -31q4 -10 10 -27l111 -350h2l113 363q15 44 49 45q34 0 41 -30q1 -5 1 -9q0 -12 -7 -34l-146 -425q-14 -41 -41 -45q-5 -1 -10 -1 q-34 0 -49 42q-1 2 -1 4l-114 359h-2l-114 -359q-17 -45 -50 -46q-32 0 -47 37q-2 5 -4 9zM384 616l-115 47q-34 14 -35 37q0 25 20 37q9 5 18 5q13 -1 34 -9l115 -47q34 -14 35 -37q0 -25 -20 -37q-9 -5 -18 -5q-13 1 -34 9z" glyph-name="wgrave" horiz-adv-x="742" unicode="ẁ"/>
<glyph d="M208 108l164 575q12 34 45 35q34 -2 45 -35l164 -575h2l93 569q9 40 48 41q31 0 39 -29q1 -6 1 -11q0 -20 -5 -45l-108 -581q-20 -53 -63 -58q-41 0 -57 29q-7 12 -12 29l-146 522h-2l-146 -522q-14 -49 -47 -56q-10 -2 -22 -2q-50 0 -62 52q-1 3 -1 6l-108 581 q-5 27 -5 45q0 31 28 38q6 2 12 2q40 -2 48 -41l93 -569h2zM519 823l-115 -47q-22 -9 -34 -9q-27 0 -36 30q-2 7 -2 12q0 22 33 36q1 1 2 1l115 47q22 9 34 9q27 0 36 -30q2 -7 2 -12q0 -22 -33 -36q-1 -1 -2 -1z" glyph-name="Wacute" horiz-adv-x="834" unicode="Ẃ"/>
<glyph d="M155 40l-146 425q-7 23 -7 34q0 27 25 36q8 3 17 3q34 0 48 -43q1 -1 1 -2l113 -363h2l111 350q14 44 29 53q10 5 23 5q29 0 42 -31q4 -10 10 -27l111 -350h2l113 363q15 44 49 45q34 0 41 -30q1 -5 1 -9q0 -12 -7 -34l-146 -425q-14 -41 -41 -45q-5 -1 -10 -1 q-34 0 -49 42q-1 2 -1 4l-114 359h-2l-114 -359q-17 -45 -50 -46q-32 0 -47 37q-2 5 -4 9zM471 663l-115 -47q-22 -9 -34 -9q-27 0 -36 30q-2 7 -2 12q0 22 33 36q1 1 2 1l115 47q22 9 34 9q27 0 36 -30q2 -7 2 -12q0 -22 -33 -36q-1 -1 -2 -1z" glyph-name="wacute" horiz-adv-x="742" unicode="ẃ"/>
<glyph d="M208 108l164 575q12 34 45 35q34 -2 45 -35l164 -575h2l93 569q9 40 48 41q31 0 39 -29q1 -6 1 -11q0 -20 -5 -45l-108 -581q-20 -53 -63 -58q-41 0 -57 29q-7 12 -12 29l-146 522h-2l-146 -522q-14 -49 -47 -56q-10 -2 -22 -2q-50 0 -62 52q-1 3 -1 6l-108 581 q-5 27 -5 45q0 31 28 38q6 2 12 2q40 -2 48 -41l93 -569h2zM272 818q0 34 31 49q11 5 23 5q34 0 49 -31q5 -11 5 -23q0 -34 -31 -49q-11 -5 -23 -5q-34 0 -49 31q-5 11 -5 23zM458 818q0 34 31 49q11 5 23 5q34 0 49 -31q5 -11 5 -23q0 -34 -31 -49q-11 -5 -23 -5 q-34 0 -49 31q-5 11 -5 23z" glyph-name="Wdieresis" horiz-adv-x="834" unicode="Ẅ"/>
<glyph d="M155 40l-146 425q-7 23 -7 34q0 27 25 36q8 3 17 3q34 0 48 -43q1 -1 1 -2l113 -363h2l111 350q14 44 29 53q10 5 23 5q29 0 42 -31q4 -10 10 -27l111 -350h2l113 363q15 44 49 45q34 0 41 -30q1 -5 1 -9q0 -12 -7 -34l-146 -425q-14 -41 -41 -45q-5 -1 -10 -1 q-34 0 -49 42q-1 2 -1 4l-114 359h-2l-114 -359q-17 -45 -50 -46q-32 0 -47 37q-2 5 -4 9zM226 658q0 34 31 49q11 5 23 5q34 0 49 -31q5 -11 5 -23q0 -34 -31 -49q-11 -5 -23 -5q-34 0 -49 31q-5 11 -5 23zM412 658q0 34 31 49q11 5 23 5q34 0 49 -31q5 -11 5 -23 q0 -34 -31 -49q-11 -5 -23 -5q-34 0 -49 31q-5 11 -5 23z" glyph-name="wdieresis" horiz-adv-x="742" unicode="ẅ"/>
<glyph d="M206 41v293l-191 311q-14 23 -14 37q0 28 29 35q6 1 11 1q28 -1 44 -28l165 -269l165 269q17 28 44 28q31 0 38 -25q2 -6 2 -11q-1 -16 -14 -37l-191 -311v-293q0 -40 -34 -46q-5 -1 -10 -1q-37 0 -43 36q-1 6 -1 11zM249 776l-115 47q-34 14 -35 37q0 25 20 37q9 5 18 5 q13 -1 34 -9l115 -47q34 -14 35 -37q0 -25 -20 -37q-9 -5 -18 -5q-13 1 -34 9z" glyph-name="Ygrave" horiz-adv-x="500" unicode="Ỳ"/>
<glyph d="M179 19l-150 433q-12 36 -12 49q0 26 27 35q7 2 13 2q33 -1 44 -33l122 -365h2l120 365q12 32 42 33q27 0 37 -23q3 -7 3 -14q-1 -15 -12 -49l-222 -635q-13 -32 -43 -33q-27 0 -37 23q-3 7 -3 14q1 15 13 49zM220 616l-115 47q-34 14 -35 37q0 25 20 37q9 5 18 5 q13 -1 34 -9l115 -47q34 -14 35 -37q0 -25 -20 -37q-9 -5 -18 -5q-13 1 -34 9z" glyph-name="ygrave" horiz-adv-x="444" unicode="ỳ"/>
<glyph d="M279 230h-206q-27 0 -36 25q-2 7 -2 13q0 27 25 36q7 2 13 2h206q27 0 36 -25q2 -7 2 -13q0 -27 -25 -36q-7 -2 -13 -2z" glyph-name="uni2010" horiz-adv-x="352" unicode="‐"/>
<glyph d="M462 230h-424q-27 0 -36 25q-2 7 -2 13q0 27 25 36q7 2 13 2h424q27 0 36 -25q2 -7 2 -13q0 -27 -25 -36q-7 -2 -13 -2z" glyph-name="endash" horiz-adv-x="500" unicode="–"/>
<glyph d="M0 306h1000q27 0 36 -25q2 -7 2 -13q0 -27 -25 -36q-7 -2 -13 -2h-1000q-27 0 -36 25q-2 7 -2 13q0 27 25 36q7 2 13 2z" glyph-name="emdash" horiz-adv-x="1000" unicode="—"/>
<glyph d="M36 571l56 110q17 33 39 36q4 1 8 1q27 0 37 -24q3 -7 3 -14q-1 -16 -11 -37l-56 -110q-17 -33 -39 -36q-4 -1 -8 -1q-27 0 -37 24q-3 7 -3 14q1 16 11 37z" glyph-name="quoteleft" unicode="‘"/>
<glyph d="M36 571l56 110q17 33 39 36q4 1 8 1q27 0 37 -24q3 -7 3 -14q-1 -16 -11 -37l-56 -110q-17 -33 -39 -36q-4 -1 -8 -1q-27 0 -37 24q-3 7 -3 14q1 16 11 37z" glyph-name="quoteright" unicode="’"/>
<glyph d="M36 -51l56 110q17 33 39 36q4 1 8 1q27 0 37 -24q3 -7 3 -14q-1 -16 -11 -37l-56 -110q-17 -33 -39 -36q-4 -1 -8 -1q-27 0 -37 24q-3 7 -3 14q1 16 11 37z" glyph-name="quotesinglbase" unicode="‚"/>
<glyph d="M172 571l56 110q17 33 39 36q4 1 8 1q27 0 37 -24q3 -7 3 -14q-1 -16 -11 -37l-56 -110q-17 -33 -39 -36q-4 -1 -8 -1q-27 0 -37 24q-3 7 -3 14q1 16 11 37zM30 571l56 110q17 33 39 36q4 1 8 1q27 0 37 -24q3 -7 3 -14q-1 -16 -11 -37l-56 -110q-17 -33 -39 -36 q-4 -1 -8 -1q-27 0 -37 24q-3 7 -3 14q1 16 11 37z" glyph-name="quotedblleft" horiz-adv-x="334" unicode="“"/>
<glyph d="M172 571l56 110q17 33 39 36q4 1 8 1q27 0 37 -24q3 -7 3 -14q-1 -16 -11 -37l-56 -110q-17 -33 -39 -36q-4 -1 -8 -1q-27 0 -37 24q-3 7 -3 14q1 16 11 37zM30 571l56 110q17 33 39 36q4 1 8 1q27 0 37 -24q3 -7 3 -14q-1 -16 -11 -37l-56 -110q-17 -33 -39 -36 q-4 -1 -8 -1q-27 0 -37 24q-3 7 -3 14q1 16 11 37z" glyph-name="quotedblright" horiz-adv-x="334" unicode="”"/>
<glyph d="M172 -51l56 110q17 33 39 36q4 1 8 1q27 0 37 -24q3 -7 3 -14q-1 -16 -11 -37l-56 -110q-17 -33 -39 -36q-4 -1 -8 -1q-27 0 -37 24q-3 7 -3 14q1 16 11 37zM30 -51l56 110q17 33 39 36q4 1 8 1q27 0 37 -24q3 -7 3 -14q-1 -16 -11 -37l-56 -110q-17 -33 -39 -36 q-4 -1 -8 -1q-27 0 -37 24q-3 7 -3 14q1 16 11 37z" glyph-name="quotedblbase" horiz-adv-x="334" unicode="„"/>
<glyph d="M265 470v205q4 41 41 43q39 -3 41 -43v-205h195q41 -4 43 -41q-3 -39 -43 -41h-195v-561q-4 -41 -41 -43q-39 3 -41 43v561h-195q-41 4 -43 41q3 39 43 41h195z" glyph-name="dagger" horiz-adv-x="612" unicode="†"/>
<glyph d="M265 94v314h-195q-41 4 -43 41q3 39 43 41h195v185q4 41 41 43q39 -3 41 -43v-185h195q41 -4 43 -41q-3 -39 -43 -41h-195v-314h195q41 -4 43 -41q-3 -39 -43 -41h-195v-185q-4 -41 -41 -43q-39 3 -41 43v185h-195q-41 4 -43 41q3 39 43 41h195z" glyph-name="daggerdbl" horiz-adv-x="612" unicode="‡"/>
<glyph d="M72 356q0 84 66 138q50 40 112 40q84 0 138 -66q40 -50 40 -112q0 -84 -66 -138q-50 -40 -112 -40q-84 0 -138 66q-40 50 -40 112z" glyph-name="bullet" horiz-adv-x="500" unicode="•"/>
<glyph d="M116 45q0 32 29 46q11 5 22 5q32 0 46 -29q5 -11 5 -22q0 -32 -29 -46q-11 -5 -22 -5q-32 0 -46 29q-5 11 -5 22zM449 45q0 32 29 46q11 5 22 5q32 0 46 -29q5 -11 5 -22q0 -32 -29 -46q-11 -5 -22 -5q-32 0 -46 29q-5 11 -5 22zM782 45q0 32 29 46q11 5 22 5 q32 0 46 -29q5 -11 5 -22q0 -32 -29 -46q-11 -5 -22 -5q-32 0 -46 29q-5 11 -5 22z" glyph-name="ellipsis" horiz-adv-x="1000" unicode="…"/>
<glyph d="M211 58l266 638q14 29 35 30q29 0 34 -22q1 -3 1 -5q-1 -11 -14 -45l-266 -638q-14 -29 -37 -30q-28 5 -33 27q1 12 14 45zM545 -6q-92 0 -132 79q-20 41 -20 90q0 92 60 139q39 30 92 30q92 0 132 -79q20 -41 20 -90q0 -92 -60 -139q-39 -30 -92 -30zM545 48q63 0 81 72 q5 21 5 43q0 76 -44 104q-19 11 -42 11q-63 0 -81 -72q-5 -21 -5 -43q0 -76 44 -104q19 -11 42 -11zM198 380q-92 0 -132 79q-20 41 -20 90q0 92 60 139q39 30 92 30q92 0 132 -79q20 -41 20 -90q0 -92 -60 -139q-39 -30 -92 -30zM198 434q63 0 81 72q5 21 5 43 q0 76 -44 104q-19 11 -42 11q-63 0 -81 -72q-5 -21 -5 -43q0 -76 44 -104q19 -11 42 -11zM895 -6q-92 0 -132 79q-20 41 -20 90q0 92 60 139q39 30 92 30q92 0 132 -79q20 -41 20 -90q0 -92 -60 -139q-39 -30 -92 -30zM895 48q63 0 81 72q5 21 5 43q0 76 -44 104 q-19 11 -42 11q-63 0 -81 -72q-5 -21 -5 -43q0 -76 44 -104q19 -11 42 -11z" glyph-name="perthousand" horiz-adv-x="1093" unicode="‰"/>
<glyph d="M43 268l99 178q16 25 34 26q30 0 38 -24q2 -6 2 -11q-1 -13 -11 -31l-83 -138l83 -138q11 -19 11 -31q0 -28 -30 -34q-5 -1 -10 -1q-20 1 -34 26z" glyph-name="guilsinglleft" horiz-adv-x="259" unicode="‹"/>
<glyph d="M54 130l83 138l-83 138q-11 19 -11 31q0 28 30 34q5 1 10 1q20 -1 34 -26l99 -178l-99 -178q-16 -25 -34 -26q-30 0 -38 24q-2 6 -2 11q1 13 11 31z" glyph-name="guilsinglright" horiz-adv-x="259" unicode="›"/>
<glyph d="M213 -6q-32 0 -46 29q-5 11 -5 22q0 32 29 46q11 5 22 5q32 0 46 -29q5 -11 5 -22q0 -32 -29 -46q-11 -5 -22 -5zM213 191q-37 0 -43 36q-1 6 -1 11v292q0 40 34 46q5 1 10 1q37 0 43 -36q1 -6 1 -11v-104q77 32 78 107q0 65 -60 94q-27 13 -55 13q-73 0 -110 -62 q-7 -12 -11 -24q-12 -28 -42 -28q-32 0 -39 30q-1 6 -1 11q0 70 76 116q58 35 126 35q111 0 169 -72q38 -47 38 -111q0 -150 -166 -192q-2 -1 -3 -1v-104q0 -40 -34 -46q-5 -1 -10 -1z" glyph-name="interrobang" horiz-adv-x="444" unicode="‽"/>
<glyph d="M-77 58l266 638q14 29 35 30q29 0 34 -22q1 -3 1 -5q-1 -14 -14 -45l-266 -638q-14 -29 -37 -30q-28 5 -33 27q1 12 14 45z" glyph-name="fraction" horiz-adv-x="168" unicode="⁄"/>
<glyph d="M173 347q58 0 72 102q3 25 3 53q0 122 -50 150q-12 6 -25 6q-57 0 -71 -103q-3 -25 -3 -53q0 -120 48 -148q13 -7 26 -7zM173 285q-72 0 -113 72q-32 58 -32 145q0 141 76 194q32 22 69 22q75 0 116 -74q31 -57 31 -142q0 -142 -77 -195q-32 -22 -70 -22z" glyph-name="zero.superior" horiz-adv-x="348" unicode="⁰"/>
<glyph d="M245 285q-30 6 -34 31v72h-170q-30 1 -31 29q1 13 13 33l149 236q20 32 60 32q45 0 50 -41q1 -5 1 -10v-216h20q24 0 28 -24q1 -4 1 -7q-5 -29 -29 -32h-20v-72q0 -23 -26 -30q-6 -1 -12 -1zM87 451h124v196h-3z" glyph-name="four.superior" horiz-adv-x="348" unicode="⁴"/>
<glyph d="M161 285q-59 0 -103 39q-20 19 -21 34q0 19 18 28q7 3 13 3q11 -1 27 -14q35 -29 67 -29q49 0 67 51q6 19 6 39q0 57 -47 72q-12 3 -24 3q-15 0 -34 -9q-16 -9 -28 -9q-21 0 -25 19q-1 3 -1 6q0 15 2 25l20 131q5 33 26 37q5 1 10 1h132q29 -2 30 -30q-3 -27 -30 -29 h-107l-15 -90q16 5 37 5q64 0 101 -53q23 -33 23 -74q0 -96 -68 -137q-34 -19 -76 -19z" glyph-name="five.superior" horiz-adv-x="348" unicode="⁵"/>
<glyph d="M175 285q-91 0 -127 77q-15 33 -15 67q0 121 114 243q18 20 37 37q18 15 33 15q21 0 30 -22q2 -7 2 -13q-1 -9 -16 -24q-46 -46 -56 -59q-19 -23 -32 -46q24 9 48 9q71 0 104 -62q18 -34 18 -78q0 -72 -51 -114q-37 -30 -89 -30zM173 344q45 0 63 43q7 18 7 39 q0 59 -40 81q-14 7 -30 7q-59 0 -67 -68q-1 -10 -1 -20q0 -51 35 -73q15 -9 33 -9z" glyph-name="six.superior" horiz-adv-x="348" unicode="⁶"/>
<glyph d="M108 285q-24 0 -31 21q-1 5 -1 8q1 8 7 23l141 315h-161q-29 5 -33 29q6 28 33 31h207q31 -1 32 -25q0 -10 -8 -31l-152 -345q-12 -26 -34 -26z" glyph-name="seven.superior" horiz-adv-x="320" unicode="⁷"/>
<glyph d="M174 285q-82 0 -119 65q-17 32 -17 69q0 62 46 98q7 5 14 9q-43 34 -44 87q0 54 49 86q32 20 71 20q65 0 99 -49q19 -27 19 -57q-1 -49 -45 -87q52 -28 62 -88q1 -10 1 -19q0 -73 -56 -111q-35 -23 -80 -23zM174 341q40 0 58 40q8 18 8 39q0 51 -37 70q-14 6 -29 6 q-46 0 -61 -46q-5 -15 -5 -30q0 -54 39 -73q14 -6 27 -6zM174 552q41 0 50 38q2 9 2 17q0 41 -34 52q-9 3 -18 3q-39 0 -50 -37q-2 -9 -2 -18q0 -44 37 -53q8 -2 15 -2z" glyph-name="eight.superior" horiz-adv-x="348" unicode="⁸"/>
<glyph d="M131 285q-21 0 -30 22q-2 7 -2 13q1 9 16 24q46 46 56 59q19 23 32 46q-24 -9 -48 -9q-71 0 -104 62q-18 34 -18 78q0 72 51 114q37 30 89 30q91 0 127 -77q15 -33 15 -67q0 -121 -114 -243q-18 -20 -37 -37q-18 -15 -33 -15zM175 495q59 0 67 68q1 10 1 20q0 51 -35 73 q-15 9 -33 9q-45 0 -63 -43q-7 -18 -7 -39q0 -59 40 -81q14 -7 30 -7z" glyph-name="nine.superior" horiz-adv-x="348" unicode="⁹"/>
<glyph d="M187 288q-25 0 -30 24q-1 4 -1 8v92h-91q-28 0 -32 25q-1 3 -1 6q0 23 23 30q5 1 10 1h91v91q0 27 23 33q5 1 8 1q23 0 30 -22q2 -7 2 -12v-91h89q28 0 33 -24q1 -4 1 -7q0 -26 -27 -30q-4 -1 -7 -1h-89v-92q0 -24 -23 -31q-5 -1 -9 -1z" glyph-name="plus.superior" horiz-adv-x="374" unicode="⁺"/>
<glyph d="M65 412q-28 0 -32 25q-1 3 -1 6q0 23 23 30q5 1 10 1h243q28 0 33 -24q1 -4 1 -7q0 -26 -27 -30q-4 -1 -7 -1h-243z" glyph-name="minus.superior" horiz-adv-x="374" unicode="⁻"/>
<glyph d="M65 353q-28 0 -32 25q-1 3 -1 6q0 23 23 30q5 1 10 1h243q28 0 33 -24q1 -4 1 -7q0 -26 -27 -30q-4 -1 -7 -1h-243zM65 471q-28 0 -32 25q-1 3 -1 6q0 23 23 30q5 1 10 1h243q26 0 33 -23q1 -4 1 -8q0 -26 -27 -30q-4 -1 -7 -1h-243z" glyph-name="equal.superior" horiz-adv-x="374" unicode="⁼"/>
<glyph d="M107 227q-23 2 -36 40q-31 88 -31 214q0 129 31 215q14 39 36 40q27 -2 29 -25q0 -10 -7 -28q-27 -79 -27 -202q0 -126 27 -202q7 -16 7 -27q-2 -24 -29 -25z" glyph-name="parenleft.superior" horiz-adv-x="164" unicode="⁽"/>
<glyph d="M57 227q-28 2 -29 25q0 11 7 27q27 77 27 202q0 124 -27 202q-7 18 -7 28q3 24 29 25q23 -2 36 -40q31 -86 31 -215q0 -127 -31 -214q-14 -39 -36 -40z" glyph-name="parenright.superior" horiz-adv-x="164" unicode="⁾"/>
<glyph d="M76 391q-32 5 -35 40v247q2 39 36 40q23 0 31 -22q2 -5 2 -10q35 32 80 32q84 0 112 -63q11 -24 11 -54v-170q-2 -39 -34 -40q-32 5 -35 40v167q0 49 -46 59q-10 2 -20 2q-38 0 -58 -33q-9 -17 -9 -35v-160q-6 -36 -35 -40z" glyph-name="n.superior" horiz-adv-x="350" unicode="ⁿ"/>
<glyph d="M173 56q58 0 72 102q3 25 3 53q0 122 -50 150q-12 6 -25 6q-57 0 -71 -103q-3 -25 -3 -53q0 -120 48 -148q13 -7 26 -7zM173 -6q-72 0 -113 72q-32 58 -32 145q0 141 76 194q32 22 69 22q75 0 116 -74q31 -57 31 -142q0 -142 -77 -195q-32 -22 -70 -22z" glyph-name="zero.inferior" horiz-adv-x="348" unicode="₀"/>
<glyph d="M123 -6q-32 6 -36 36v331h-51q-27 2 -28 30q2 29 28 30h104q18 -2 19 -14v-377q-3 -34 -36 -36z" glyph-name="one.inferior" horiz-adv-x="229" unicode="₁"/>
<glyph d="M61 0q-28 2 -30 21q1 9 12 23l171 217q25 33 26 56q0 37 -41 47q-11 3 -23 3q-49 0 -74 -45q-10 -19 -10 -37q-1 -23 -29 -24q-30 2 -31 33q0 70 57 108q39 25 91 25q91 0 122 -62q10 -22 10 -46q-1 -41 -36 -84l-145 -175h148q37 -2 38 -30q-2 -29 -38 -30h-218z" glyph-name="two.inferior" horiz-adv-x="348" unicode="₂"/>
<glyph d="M163 -6q-81 0 -118 57q-15 24 -15 48q2 31 28 32q17 0 28 -23q1 -1 1 -2q22 -48 71 -52h10q45 0 68 38q10 18 10 38q-2 62 -67 63q-44 3 -46 25q0 21 24 27l6 2q52 12 58 53q1 7 1 14q0 33 -33 47q-13 6 -28 6q-50 0 -63 -42q-1 -4 -2 -7q-5 -23 -29 -23q-23 4 -25 28 q0 63 56 90q29 14 66 14q86 0 118 -60q12 -23 12 -50q0 -57 -49 -88l-6 -3q64 -19 76 -79q3 -12 3 -24q0 -75 -70 -110q-38 -19 -85 -19z" glyph-name="three.inferior" horiz-adv-x="348" unicode="₃"/>
<glyph d="M245 -6q-30 6 -34 31v72h-170q-30 1 -31 29q1 13 13 33l149 236q20 32 60 32q45 0 50 -41q1 -5 1 -10v-216h20q24 0 28 -24q1 -4 1 -7q-5 -29 -29 -32h-20v-72q0 -23 -26 -30q-6 -1 -12 -1zM87 160h124v196h-3z" glyph-name="four.inferior" horiz-adv-x="348" unicode="₄"/>
<glyph d="M161 -6q-59 0 -103 39q-20 19 -21 34q0 19 18 28q7 3 13 3q11 -1 27 -14q35 -29 67 -29q49 0 67 51q6 19 6 39q0 57 -47 72q-12 3 -24 3q-15 0 -34 -9q-16 -9 -28 -9q-21 0 -25 19q-1 3 -1 6q0 5 2 25l20 131q5 33 26 37q5 1 10 1h132q29 -2 30 -30q-3 -27 -30 -29h-107 l-15 -90q16 5 37 5q64 0 101 -53q23 -33 23 -74q0 -96 -68 -137q-34 -19 -76 -19z" glyph-name="five.inferior" horiz-adv-x="348" unicode="₅"/>
<glyph d="M175 -6q-91 0 -127 77q-15 33 -15 67q0 121 114 243q18 20 37 37q18 15 33 15q21 0 30 -22q2 -7 2 -13q-1 -9 -16 -24q-46 -46 -56 -59q-19 -23 -32 -46q24 9 48 9q71 0 104 -62q18 -34 18 -78q0 -72 -51 -114q-37 -30 -89 -30zM173 53q45 0 63 43q7 18 7 39q0 59 -40 81 q-14 7 -30 7q-59 0 -67 -68q-1 -10 -1 -20q0 -51 35 -73q15 -9 33 -9z" glyph-name="six.inferior" horiz-adv-x="348" unicode="₆"/>
<glyph d="M108 -6q-24 0 -31 21q-1 5 -1 8q1 8 7 23l141 315h-161q-29 5 -33 29q6 28 33 31h207q31 -1 32 -25q0 -2 -8 -31l-152 -345q-12 -26 -34 -26z" glyph-name="seven.inferior" horiz-adv-x="320" unicode="₇"/>
<glyph d="M174 -6q-82 0 -119 65q-17 32 -17 69q0 62 46 98q7 5 14 9q-43 34 -44 87q0 54 49 86q32 20 71 20q65 0 99 -49q19 -27 19 -57q-1 -49 -45 -87q52 -28 62 -88q1 -10 1 -19q0 -73 -56 -111q-35 -23 -80 -23zM174 50q40 0 58 40q8 18 8 39q0 51 -37 70q-14 6 -29 6 q-46 0 -61 -46q-5 -15 -5 -30q0 -54 39 -73q14 -6 27 -6zM174 261q41 0 50 38q2 9 2 17q0 41 -34 52q-9 3 -18 3q-39 0 -50 -37q-2 -9 -2 -18q0 -44 37 -53q8 -2 15 -2z" glyph-name="eight.inferior" horiz-adv-x="348" unicode="₈"/>
<glyph d="M131 -6q-21 0 -30 22q-2 7 -2 13q1 9 16 24q46 46 56 59q19 23 32 46q-24 -9 -48 -9q-71 0 -104 62q-18 34 -18 78q0 72 51 114q37 30 89 30q91 0 127 -77q15 -33 15 -67q0 -121 -114 -243q-18 -20 -37 -37q-18 -15 -33 -15zM175 204q59 0 67 68q1 10 1 20q0 51 -35 73 q-15 9 -33 9q-45 0 -63 -43q-7 -18 -7 -39q0 -59 40 -81q14 -7 30 -7z" glyph-name="nine.inferior" horiz-adv-x="348" unicode="₉"/>
<glyph d="M187 -3q-25 0 -30 24q-1 4 -1 8v92h-91q-28 0 -32 25q-1 3 -1 6q0 23 23 30q5 1 10 1h91v91q0 27 23 33q5 1 8 1q23 0 30 -22q2 -7 2 -12v-91h89q28 0 33 -24q1 -4 1 -7q0 -26 -27 -30q-4 -1 -7 -1h-89v-92q0 -24 -23 -31q-5 -1 -9 -1z" glyph-name="plus.inferior" horiz-adv-x="374" unicode="₊"/>
<glyph d="M65 121q-28 0 -32 25q-1 3 -1 6q0 23 23 30q5 1 10 1h243q28 0 33 -24q1 -4 1 -7q0 -26 -27 -30q-4 -1 -7 -1h-243z" glyph-name="minus.inferior" horiz-adv-x="374" unicode="₋"/>
<glyph d="M65 62q-28 0 -32 25q-1 3 -1 6q0 23 23 30q5 1 10 1h243q28 0 33 -24q1 -4 1 -7q0 -26 -27 -30q-4 -1 -7 -1h-243zM65 180q-28 0 -32 25q-1 3 -1 6q0 23 23 30q5 1 10 1h243q26 0 33 -23q1 -4 1 -8q0 -26 -27 -30q-4 -1 -7 -1h-243z" glyph-name="equal.inferior" horiz-adv-x="374" unicode="₌"/>
<glyph d="M107 -64q-23 2 -36 40q-31 88 -31 214q0 129 31 215q14 39 36 40q27 -2 29 -25q0 -10 -7 -28q-27 -79 -27 -202q0 -126 27 -202q7 -16 7 -27q-2 -24 -29 -25z" glyph-name="parenleft.inferior" horiz-adv-x="164" unicode="₍"/>
<glyph d="M57 -64q-28 2 -29 25q0 11 7 27q27 77 27 202q0 124 -27 202q-7 18 -7 28q3 24 29 25q23 -2 36 -40q31 -86 31 -215q0 -127 -31 -214q-14 -39 -36 -40z" glyph-name="parenright.inferior" horiz-adv-x="164" unicode="₎"/>
<glyph d="M373 396h-223q0 -1 -1 -10q-1 -18 -1 -26v-13q1 -12 1 -22h184q37 -4 41 -33q0 -27 -31 -32q-5 -1 -10 -1h-176q14 -68 44 -115q47 -74 130 -74q45 0 101 39q4 3 7 5q27 20 37 20q25 0 33 -25q3 -8 3 -16q-1 -22 -29 -48q-59 -51 -151 -51q-112 1 -186 81q-62 70 -84 184 h-33q-37 4 -41 33q0 27 31 32q5 1 10 1h26q0 8 -1 18v13v11v8q1 6 1 8v13h-26q-37 4 -41 33q0 27 31 32q5 1 10 1h35q5 29 17 63q17 47 50 92q79 101 200 101q84 -1 143 -59q22 -24 23 -47q-1 -22 -19 -35q-9 -5 -19 -5q-10 1 -19 10l-11 12q-24 26 -47 37q-24 11 -51 11 q-88 -2 -137 -87q-22 -38 -34 -93h213q37 -4 41 -33q0 -27 -31 -32q-5 -1 -10 -1z" glyph-name="Euro" horiz-adv-x="536" unicode="€"/>
<glyph d="M202 391q-92 0 -135 76q-22 41 -22 88q0 77 57 126q44 37 104 37q56 0 87 -26q12 -11 13 -22q0 -24 -21 -31q-6 -1 -10 -1q-8 0 -19 5q-36 16 -53 16q-66 0 -82 -69q-4 -16 -4 -33q0 -69 44 -96q19 -11 42 -11q3 0 6.5 0.5t6.5 0.5t6.5 1t6.5 1.5t6.5 2t5.5 2t5 2 t4.5 1.5t4.5 1l3 2q10 4 18 4q22 0 26 -22q1 -3 1 -6q0 -35 -65 -46q-18 -3 -36 -3zM245 -15q-26 0 -33 21q-1 4 -1 8q1 11 9 31l274 656q12 26 37 27q26 0 32 -22q1 -4 1 -7q-1 -12 -9 -30l-275 -657q-12 -26 -35 -27zM445 159q0 89 62 135q39 28 90 28q87 0 129 -72 q23 -40 23 -91q0 -91 -64 -137q-38 -27 -88 -27q-86 0 -128 71q-24 41 -24 93zM517 159q0 -61 40 -91q18 -13 40 -13q47 0 69 51q11 25 11 53q0 60 -39 89q-19 14 -41 14q-47 0 -70 -51q-10 -25 -10 -52z" glyph-name="afii61248" horiz-adv-x="796" unicode="℅"/>
<glyph d="M391 134h16q7 -6 25 -22q18 -15 26 -22q-70 -98 -184 -99q-148 2 -168 144l-52 -34q-20 37 -21 38q-3 9 -12 23q-2 2 -2 3q68 49 84 63v221q0 237 129 265q20 4 42 4q81 0 119 -72q21 -41 21 -93q0 -140 -133 -280q-34 -36 -78 -74v-9q1 -107 73 -108q57 0 97 32 q12 10 18 20zM203 506v-198q117 125 118 244q-1 85 -55 86q-35 0 -52 -52q-11 -33 -11 -80z" glyph-name="afii61289" horiz-adv-x="518" unicode="ℓ"/>
<glyph d="M730 254h252q34 0 42 -28q2 -6 2 -11q0 -29 -29 -37q-8 -2 -15 -2h-252q-35 0 -43 29q-1 5 -1 10q0 30 30 37q7 2 14 2zM855 655q-66 0 -92 -70q-10 -29 -10 -61q0 -77 46 -113q25 -19 56 -19q66 0 92 70q10 28 10 60q0 81 -48 116q-24 17 -54 17zM855 721q104 0 155 -86 q30 -51 30 -113q0 -93 -62 -150q-50 -46 -123 -46q-102 0 -154 85q-30 51 -30 113q0 94 62 151q50 46 122 46zM587 665v-619q-1 -51 -43 -52q-25 0 -44 27q-4 5 -8 11l-341 516h-2v-501q-2 -52 -44 -53q-41 6 -44 53v621q0 41 33 49q6 1 11 1q28 0 50 -31q3 -4 5 -7 l337 -511h2v496q2 52 44 53q41 -6 44 -53z" glyph-name="afii61352" horiz-adv-x="1078" unicode="№"/>
<glyph d="M400 -6q-146 0 -251 101q-103 99 -110 241q-1 11 -1 20q0 146 101 251q99 103 241 110q11 1 20 1q146 0 251 -101q103 -99 110 -241q1 -11 1 -20q0 -146 -101 -251q-99 -103 -241 -110q-11 -1 -20 -1zM400 70q116 0 199 86q81 84 81 200q0 121 -86 205q-83 81 -194 81 q-116 0 -199 -86q-81 -84 -81 -200q0 -121 86 -205q83 -81 194 -81zM308 137q-33 2 -34 38v360q2 22 25 23h139q141 -2 142 -128q0 -107 -105 -123q-18 -3 -37 -3h-97v-129q-2 -37 -33 -38zM341 357h78q69 0 86 33q9 17 9 43q-2 71 -83 72h-90v-148z" glyph-name="published" horiz-adv-x="800" unicode="℗"/>
<glyph d="M185 341v305h-95q-31 2 -32 33q2 32 32 33h272q31 -2 32 -33q-2 -32 -32 -33h-95v-305q-4 -41 -41 -43q-39 3 -41 43zM474 336v315q2 66 63 67q51 -1 67 -39l100 -261l98 261q17 39 67 39q62 -2 63 -67v-315q0 -27 -25 -36q-7 -2 -13 -2q-27 0 -36 25q-2 7 -2 13v288h-2 l-108 -289q-16 -36 -43 -37q-29 2 -43 37l-108 289h-2v-288q0 -27 -25 -36q-7 -2 -13 -2q-27 0 -36 25q-2 7 -2 13z" glyph-name="trademark" horiz-adv-x="990" unicode="™"/>
<glyph d="M299 0h-223l-21 5q-25 11 -26 36q0 11 5 19.5t12 12.5t13.5 6.5t11.5 4.5l5 1h84q-103 93 -116 234q-2 19 -2 38q0 151 99 247q91 89 222 89q148 0 237 -106q76 -91 76 -221q0 -167 -115 -278l-5 -5h87l22 -5q23 -12 24 -37q0 -18 -11.5 -28t-23.5 -11l-12 -2h-223v65 q97 65 136 177q18 55 18 111q0 103 -59 179q-61 76 -152 77q-111 0 -173 -100q-43 -71 -43 -157q0 -117 77 -216q35 -44 76 -70v-66z" glyph-name="Omega" horiz-adv-x="718" unicode="Ω"/>
<glyph d="M726 354h-532v-240q79 -78 191 -78q139 0 227 117q14 19 27 41l45 -27q-77 -120 -169 -156q-56 -21 -130 -21q-160 0 -256 116q-83 101 -83 248q0 161 98 265q95 99 241 99q161 0 256 -114q83 -100 85 -250zM194 401h383v191q-83 79 -193 79q-113 -1 -190 -79v-191z" glyph-name="estimated" horiz-adv-x="772" unicode="℮"/>
<glyph d="M178 58l266 638q14 29 35 30q29 0 34 -22q1 -3 1 -5q-1 -14 -14 -45l-266 -638q-14 -29 -37 -30q-28 5 -33 27q1 12 14 45zM121 652h-51q-27 2 -28 30q2 29 28 30h104q18 -2 19 -14v-377q-3 -34 -36 -36q-32 6 -36 36v331zM609 427q86 0 118 -60q12 -23 12 -50 q0 -57 -49 -88l-6 -3q64 -19 76 -79q3 -12 3 -24q0 -75 -70 -110q-38 -19 -85 -19q-81 0 -118 57q-15 24 -15 48q2 31 28 32q17 0 28 -23q1 -1 1 -2q22 -48 71 -52h10q45 0 68 38q10 18 10 38q-2 62 -67 63q-44 3 -46 25q0 21 24 27l6 2q52 12 58 53q1 7 1 14q0 33 -33 47 q-13 6 -28 6q-50 0 -63 -42q-1 -4 -2 -7q-5 -23 -29 -23q-23 4 -25 28q0 63 56 90q29 14 66 14z" glyph-name="onethird" horiz-adv-x="805" unicode="⅓"/>
<glyph d="M230 58l266 638q14 29 35 30q29 0 34 -22q1 -3 1 -5q-1 -14 -14 -45l-266 -638q-14 -29 -37 -30q-28 5 -33 27q1 12 14 45zM611 427q86 0 118 -60q12 -23 12 -50q0 -57 -49 -88l-6 -3q64 -19 76 -79q3 -12 3 -24q0 -75 -70 -110q-38 -19 -85 -19q-81 0 -118 57 q-15 24 -15 48q2 31 28 32q17 0 28 -23q1 -1 1 -2q22 -48 71 -52h10q45 0 68 38q10 18 10 38q-2 62 -67 63q-44 3 -46 25q0 21 24 27l6 2q52 12 58 53q1 7 1 14q0 33 -33 47q-13 6 -28 6q-50 0 -63 -42q-1 -4 -2 -7q-5 -23 -29 -23q-23 4 -25 28q0 63 56 90q29 14 66 14z M139 351h138q37 -2 38 -30q-2 -29 -38 -30h-208q-28 2 -30 21q1 9 12 23l171 217q25 33 26 56q0 37 -41 47q-11 3 -23 3q-49 0 -74 -45q-10 -19 -10 -37q-1 -23 -29 -24q-30 2 -31 33q0 70 57 108q39 25 91 25q91 0 122 -62q10 -22 10 -46q-1 -41 -36 -84z" glyph-name="twothirds" horiz-adv-x="805" unicode="⅔"/>
<glyph d="M199 58l266 638q14 29 35 30q29 0 34 -22q1 -3 1 -5q-1 -14 -14 -45l-266 -638q-14 -29 -37 -30q-28 5 -33 27q1 12 14 45zM112 652h-51q-27 2 -28 30q2 29 28 30h104q18 -2 19 -14v-377q-3 -34 -36 -36q-32 6 -36 36v331zM527 327q0 66 60 92q25 10 51 10q63 0 95 -45 q17 -25 17 -57q-1 -54 -46 -89q54 -20 65 -81q2 -12 2 -24q0 -71 -52 -111q-35 -26 -81 -26q-78 0 -114 66q-18 33 -18 71q0 62 48 95q10 6 19 10q-44 41 -46 89zM572 131q0 -54 39 -73q14 -6 27 -6q40 0 58 40q8 18 8 39q0 51 -37 70q-14 6 -29 6q-46 0 -61 -46 q-5 -15 -5 -30zM586 318q0 -44 37 -53q8 -2 15 -2q41 0 50 38q2 9 2 17q0 41 -34 52q-9 3 -18 3q-39 0 -50 -37q-2 -9 -2 -18z" glyph-name="oneeighth" horiz-adv-x="805" unicode="⅛"/>
<glyph d="M249 58l266 638q14 29 35 30q29 0 34 -22q1 -3 1 -5q-1 -14 -14 -45l-266 -638q-14 -29 -37 -30q-28 5 -33 27q1 12 14 45zM163 718q86 0 118 -60q12 -23 12 -50q0 -57 -49 -88l-6 -3q64 -19 76 -79q3 -12 3 -24q0 -75 -70 -110q-38 -19 -85 -19q-81 0 -118 57 q-15 24 -15 48q2 31 28 32q17 0 28 -23q1 -1 1 -2q22 -48 71 -52h10q45 0 68 38q10 18 10 38q-2 62 -67 63q-44 3 -46 25q0 21 24 27l6 2q52 12 58 53q1 7 1 14q0 33 -33 47q-13 6 -28 6q-50 0 -63 -42q-1 -4 -2 -7q-5 -23 -29 -23q-23 4 -25 28q0 63 56 90q29 14 66 14z M532 327q0 66 60 92q25 10 51 10q63 0 95 -45q17 -25 17 -57q-1 -54 -46 -89q54 -20 65 -81q2 -12 2 -24q0 -71 -52 -111q-35 -26 -81 -26q-78 0 -114 66q-18 33 -18 71q0 62 48 95q10 6 19 10q-44 41 -46 89zM577 131q0 -54 39 -73q14 -6 27 -6q40 0 58 40q8 18 8 39 q0 51 -37 70q-14 6 -29 6q-46 0 -61 -46q-5 -15 -5 -30zM591 318q0 -44 37 -53q8 -2 15 -2q41 0 50 38q2 9 2 17q0 41 -34 52q-9 3 -18 3q-39 0 -50 -37q-2 -9 -2 -18z" glyph-name="threeeighths" horiz-adv-x="805" unicode="⅜"/>
<glyph d="M244 58l266 638q14 29 35 30q29 0 34 -22q1 -3 1 -5q-1 -14 -14 -45l-266 -638q-14 -29 -37 -30q-28 5 -33 27q1 12 14 45zM527 327q0 66 60 92q25 10 51 10q63 0 95 -45q17 -25 17 -57q-1 -54 -46 -89q54 -20 65 -81q2 -12 2 -24q0 -71 -52 -111q-35 -26 -81 -26 q-78 0 -114 66q-18 33 -18 71q0 62 48 95q10 6 19 10q-44 41 -46 89zM572 131q0 -54 39 -73q14 -6 27 -6q40 0 58 40q8 18 8 39q0 51 -37 70q-14 6 -29 6q-46 0 -61 -46q-5 -15 -5 -30zM586 318q0 -44 37 -53q8 -2 15 -2q41 0 50 38q2 9 2 17q0 41 -34 52q-9 3 -18 3 q-39 0 -50 -37q-2 -9 -2 -18zM152 658l-15 -97q22 8 48 8q62 0 94 -60q17 -33 17 -71q0 -102 -72 -138q-30 -15 -68 -15q-67 0 -106 43q-15 18 -16 32q5 24 25 28q10 -1 28 -15v1q37 -29 70 -29q48 0 66 47q7 18 7 37q0 66 -47 79q-10 2 -19 2q-22 0 -48 -11q-14 -5 -22 -5 q-22 1 -23 22q0 12 4 36q3 23 21 144q9 17 26 18h142q22 0 28 -20q1 -5 1 -8q0 -21 -21 -27q-4 -1 -8 -1h-112z" glyph-name="fiveeighths" horiz-adv-x="805" unicode="⅝"/>
<glyph d="M218 58l266 638q14 29 35 30q29 0 34 -22q1 -3 1 -5q-1 -14 -14 -45l-266 -638q-14 -29 -37 -30q-28 5 -33 27q1 12 14 45zM501 327q0 66 60 92q25 10 51 10q63 0 95 -45q17 -25 17 -57q-1 -54 -46 -89q54 -20 65 -81q2 -12 2 -24q0 -71 -52 -111q-35 -26 -81 -26 q-78 0 -114 66q-18 33 -18 71q0 62 48 95q10 6 19 10q-44 41 -46 89zM546 131q0 -54 39 -73q14 -6 27 -6q40 0 58 40q8 18 8 39q0 51 -37 70q-14 6 -29 6q-46 0 -61 -46q-5 -15 -5 -30zM560 318q0 -44 37 -53q8 -2 15 -2q41 0 50 38q2 9 2 17q0 41 -34 52q-9 3 -18 3 q-39 0 -50 -37q-2 -9 -2 -18zM252 657h-165q-21 0 -27 20q-1 4 -1 8q0 19 19 26q5 2 9 2h209q31 -2 32 -22q0 -9 -11 -33v-1l-153 -350q-13 -23 -37 -23q-15 0 -22 16q-2 6 -2 11q1 7 8 28z" glyph-name="seveneighths" horiz-adv-x="805" unicode="⅞"/>
<glyph d="M93 630l-11 22q-19 37 -22 43q82 58 181 58q104 0 179 -97q85 -110 85 -284q0 -214 -110 -317q-70 -65 -162 -65q-126 0 -177 100q-25 49 -25 111q0 113 76 186q64 60 150 60q100 -1 160 -68v7q0 148 -75 233q-49 54 -106 55q-81 0 -143 -44zM240 69q81 0 131 92 q29 53 37 119q-25 60 -90 81q-25 8 -52 8q-72 0 -115 -64q-29 -44 -29 -101q0 -93 65 -124q24 -11 53 -11z" glyph-name="partialdiff" horiz-adv-x="546" unicode="∂"/>
<glyph d="M24 0v56q134 345 240 625h103l238 -625v-56h-581zM121 80h382q-2 6 -155 407q-33 88 -35 91l-36 -92q-141 -369 -156 -406z" glyph-name="Delta" horiz-adv-x="630" unicode="∆"/>
<glyph d="M533 -80v746h-384v-746l-4 -20q-13 -25 -42 -26q-21 0 -32.5 11.5t-12.5 22.5l-2 12v827h570v-827l-4 -19q-13 -26 -43 -27q-20 0 -31.5 11.5t-13.5 22.5z" glyph-name="product" horiz-adv-x="682" unicode="∏"/>
</font>
</defs>
</svg>
