<?xml version="1.0" encoding="UTF-8"?>
<!DOCTYPE svg  PUBLIC '-//W3C//DTD SVG 1.1//EN'  'http://www.w3.org/Graphics/SVG/1.1/DTD/svg11.dtd'>
<svg version="1.1" xmlns="http://www.w3.org/2000/svg">
<defs>
<font id="VAGRoundedLTCYR-Black" horiz-adv-x="556">
<font-face font-family="R" font-weight="900" ascent="770" bbox="-173 -315 1140 1023" cap-height="712" descent="-230" panose-1="2 15 9 2 2 2 4 2 2 4" underline-position="-100" underline-thickness="50" unicode-range="U+000D-FB04" units-per-em="1000" x-height="532"/>
<missing-glyph d="M263 111h-53v63h53v-63zM257 222h-46v16q0 66 25 99q12 14 32 32q44 49 46 80q0 48 -38 71q-17 9 -34 9q-60 0 -75 -74l-2 -16l-48 8q11 114 104 128q12 2 24 2q72 0 103 -59q15 -29 15 -65q0 -49 -37 -90q-10 -11 -23 -23q-38 -35 -43 -56q-3 -13 -3 -48v-14zM47 47h391 v585h-391v-585zM0 680h485v-680h-485v680z" horiz-adv-x="485"/>
<glyph d="M201 632v-552q0 -67 -55 -83q-13 -3 -26 -3q-61 0 -77 54q-4 15 -4 32v552q0 67 55 83q13 3 26 3q61 0 77 -54q4 -15 4 -32zM471 248v384q0 67 55 83q13 3 26 3q61 0 77 -54q4 -15 4 -32v-412q0 -181 -123 -223q-40 -13 -92 -13q-76 0 -128 33q-1 1 -2 1q-41 27 -47 57 q-3 12 -3 26q0 51 40 70q16 7 34 7q19 0 54 -22q27 -16 47 -16q42 0 53 47q5 24 5 61z" glyph-name="IJ" horiz-adv-x="672" unicode="IJ"/>
<glyph d="M33 75v382q0 49 40 72q18 9 38 9q49 0 70 -44q8 -18 8 -37v-382q0 -49 -40 -72q-18 -9 -38 -9q-49 0 -70 44q-8 18 -8 37zM18 677q0 53 45 80q23 13 48 13q52 0 79 -44q14 -23 14 -49q0 -53 -45 -80q-23 -13 -48 -13q-52 0 -79 44q-14 23 -14 49zM257 -141v598 q0 49 40 72q18 9 38 9q49 0 70 -44q8 -18 8 -37v-598q0 -49 -40 -72q-18 -9 -38 -9q-49 0 -70 44q-8 18 -8 37zM242 677q0 53 45 80q23 13 48 13q52 0 79 -44q14 -23 14 -49q0 -53 -45 -80q-23 -13 -48 -13q-52 0 -79 44q-14 23 -14 49z" glyph-name="ij" horiz-adv-x="446" unicode="ij"/>
<glyph d="M36 75v382q0 49 40 72q18 9 38 9q51 0 75 -44q2 -3 3 -6q40 60 134 60q123 0 170 -84q24 -42 24 -100v-289q0 -49 -40 -72q-18 -9 -38 -9q-49 0 -70 44q-8 18 -8 37v247q0 64 -48 86q-18 8 -38 8q-59 0 -79 -53q-7 -19 -7 -41v-247q0 -49 -40 -72q-18 -9 -38 -9 q-49 0 -70 44q-8 18 -8 37zM107 711l-35 -84q-14 -35 -44 -39q-6 -1 -12 -1q-50 0 -59 39q-2 7 -2 14q0 13 5 28l27 91q14 43 59 44q49 0 65 -36q4 -11 4 -22q0 -13 -8 -34z" glyph-name="napostrophe" unicode='"n'/>
<glyph d="M364 75v313h-132v-313q0 -49 -40 -72q-18 -9 -38 -9q-49 0 -70 44q-8 18 -8 37v313h-18q-81 2 -82 72q2 71 82 72h18v70q0 89 65 137q42 31 97 31q103 -2 104 -72q-2 -71 -74 -72q-30 0 -35 -31q-1 -9 -1 -20v-43h132v70q0 89 65 137q42 31 97 31q103 -2 104 -72 q-2 -71 -74 -72q-30 0 -35 -31q-1 -9 -1 -20v-43h43q81 -2 82 -72q-2 -71 -82 -72h-43v-313q0 -49 -40 -72q-18 -9 -38 -9q-49 0 -70 44q-8 18 -8 37z" glyph-name="f_f" horiz-adv-x="621" unicode="ff"/>
<glyph d="M367 75v382q0 49 40 72q18 9 38 9q49 0 70 -44q8 -18 8 -37v-382q0 -49 -40 -72q-18 -9 -38 -9q-49 0 -70 44q-8 18 -8 37zM352 677q0 53 45 80q23 13 48 13q52 0 79 -44q14 -23 14 -49q0 -53 -45 -80q-23 -13 -48 -13q-52 0 -79 44q-14 23 -14 49zM76 75v313h-18 q-81 2 -82 72q2 71 82 72h18v70q0 89 65 137q42 31 97 31q103 -2 104 -72q-2 -71 -74 -72q-30 0 -35 -31q-1 -9 -1 -20v-43h43q81 -2 82 -72q-2 -71 -82 -72h-43v-313q0 -49 -40 -72q-18 -9 -38 -9q-49 0 -70 44q-8 18 -8 37z" glyph-name="fi" unicode="fi"/>
<glyph d="M367 75v614q0 49 40 72q18 9 38 9q49 0 70 -44q8 -18 8 -37v-614q0 -49 -40 -72q-18 -9 -38 -9q-49 0 -70 44q-8 18 -8 37zM76 75v313h-18q-81 2 -82 72q2 71 82 72h18v70q0 89 65 137q42 31 97 31q103 -2 104 -72q-2 -71 -74 -72q-30 0 -35 -31q-1 -9 -1 -20v-43h43 q81 -2 82 -72q-2 -71 -82 -72h-43v-313q0 -49 -40 -72q-18 -9 -38 -9q-49 0 -70 44q-8 18 -8 37z" glyph-name="fl" unicode="fl"/>
<glyph d="M364 75v313h-132v-313q0 -49 -40 -72q-18 -9 -38 -9q-49 0 -70 44q-8 18 -8 37v313h-18q-81 2 -82 72q2 71 82 72h18v70q0 89 65 137q42 31 97 31q103 -2 104 -72q-2 -71 -74 -72q-30 0 -35 -31q-1 -9 -1 -20v-43h132v70q0 89 65 137q42 31 97 31q103 -2 104 -72 q-2 -71 -74 -72q-30 0 -35 -31q-1 -9 -1 -20v-43h43q81 -2 82 -72q-2 -71 -82 -72h-43v-313q0 -49 -40 -72q-18 -9 -38 -9q-49 0 -70 44q-8 18 -8 37zM656 75v382q0 49 40 72q18 9 38 9q49 0 70 -44q8 -18 8 -37v-382q0 -49 -40 -72q-18 -9 -38 -9q-49 0 -70 44q-8 18 -8 37 zM641 677q0 53 45 80q23 13 48 13q52 0 79 -44q14 -23 14 -49q0 -53 -45 -80q-23 -13 -48 -13q-52 0 -79 44q-14 23 -14 49z" glyph-name="f_f_i" horiz-adv-x="845" unicode="ffi"/>
<glyph d="M364 75v313h-132v-313q0 -49 -40 -72q-18 -9 -38 -9q-49 0 -70 44q-8 18 -8 37v313h-18q-81 2 -82 72q2 71 82 72h18v70q0 89 65 137q42 31 97 31q103 -2 104 -72q-2 -71 -74 -72q-30 0 -35 -31q-1 -9 -1 -20v-43h132v70q0 89 65 137q42 31 97 31q103 -2 104 -72 q-2 -71 -74 -72q-30 0 -35 -31q-1 -9 -1 -20v-43h43q81 -2 82 -72q-2 -71 -82 -72h-43v-313q0 -49 -40 -72q-18 -9 -38 -9q-49 0 -70 44q-8 18 -8 37zM655 75v614q0 49 40 72q18 9 38 9q49 0 70 -44q8 -18 8 -37v-614q0 -49 -40 -72q-18 -9 -38 -9q-49 0 -70 44q-8 18 -8 37 z" glyph-name="f_f_l" horiz-adv-x="844" unicode="ffl"/>
<glyph d="M263 111h-53v63h53v-63zM257 222h-46v16q0 66 25 99q12 14 32 32q44 49 46 80q0 48 -38 71q-17 9 -34 9q-60 0 -75 -74l-2 -16l-48 8q11 114 104 128q12 2 24 2q72 0 103 -59q15 -29 15 -65q0 -49 -37 -90q-10 -11 -23 -23q-38 -35 -43 -56q-3 -13 -3 -48v-14zM47 47h391 v585h-391v-585zM0 680h485v-680h-485v680z" glyph-name=".notdef" horiz-adv-x="485"/>
<glyph glyph-name=".null" horiz-adv-x="500"/>
<glyph glyph-name="nonmarkingreturn" horiz-adv-x="333"/>
<glyph glyph-name="CR" horiz-adv-x="0" unicode=""/>
<glyph glyph-name="space" horiz-adv-x="278" unicode=" "/>
<glyph d="M208 640v-351q0 -56 -41 -79q-17 -9 -37 -9q-52 0 -71 50q-7 18 -7 38v351q0 56 41 79q17 9 37 9q52 0 71 -50q7 -18 7 -38zM43 71q0 47 41 73q22 14 46 14q47 0 73 -41q14 -22 14 -46q0 -49 -42 -74q-22 -13 -45 -13q-48 0 -74 42q-13 21 -13 45z" glyph-name="exclam" horiz-adv-x="260" unicode="!"/>
<glyph d="M271 479v169q0 49 40 65q12 5 26 5q47 0 62 -42q4 -14 4 -28v-169q0 -49 -40 -65q-12 -5 -26 -5q-47 0 -62 42q-4 14 -4 28zM78 479v169q0 49 40 65q12 5 26 5q47 0 62 -42q4 -14 4 -28v-169q0 -49 -40 -65q-12 -5 -26 -5q-47 0 -62 42q-4 14 -4 28z" glyph-name="quotedbl" horiz-adv-x="481" unicode='"'/>
<glyph d="M115 70l18 130h-38q-43 8 -48 49q0 38 34 46q7 1 14 1h51l16 119h-38q-42 0 -47 39q-1 5 -1 9q0 40 36 47q6 1 12 1h53l21 155q11 50 56 52q33 0 43 -27q2 -7 2 -14q0 -10 -4 -35l-18 -131h90l21 155q11 50 56 52q33 0 43 -27q2 -7 2 -14q0 -10 -4 -35l-18 -131h38 q42 0 47 -39q1 -5 1 -9q0 -37 -32 -46q-8 -2 -16 -2h-51l-16 -119h38q42 0 47 -38q1 -5 1 -9q0 -40 -34 -48q-7 -1 -14 -1h-53l-21 -154q-11 -50 -56 -52q-33 0 -43 27q-2 7 -2 14q0 10 4 35l18 130h-90l-21 -154q-11 -50 -56 -52q-33 0 -43 27q-2 7 -2 14q0 10 4 35z M338 296l16 119h-91l-16 -119h91z" glyph-name="numbersign" horiz-adv-x="600" unicode="#"/>
<glyph d="M285 -60v44q-183 11 -219 83q-7 16 -7 33q0 45 35 71q18 12 37 12q13 0 64 -22q52 -21 90 -21v155q-170 50 -209 132q-14 31 -14 71q0 118 93 184q57 39 130 46v46q2 29 30 30q29 -2 30 -30v-46q112 -4 156 -52q21 -23 21 -54q0 -44 -34 -66q-15 -9 -33 -9q-17 0 -59 22 q-31 15 -51 15v-141q156 -44 202 -126q24 -43 24 -97q0 -127 -104 -195q-57 -37 -122 -41v-44q-2 -29 -30 -30q-29 2 -30 30zM285 460v124q-46 -10 -54 -52q-1 -7 -1 -14q0 -41 49 -56zM345 279v-139q35 0 52 38q6 15 6 30q0 51 -51 69q-4 1 -7 2z" glyph-name="dollar" horiz-adv-x="630" unicode="$"/>
<glyph d="M17 567q0 77 59 126q43 35 97 35q76 0 123 -63q33 -44 33 -98q0 -77 -59 -126q-43 -35 -97 -35q-80 0 -126 65q-30 43 -30 96zM136 114l323 561q25 45 49 51q7 2 13 2q38 0 54 -33q5 -11 5 -23q0 -23 -30 -72q-1 -1 -1 -2l-323 -561q-25 -45 -49 -51q-7 -2 -13 -2 q-38 0 -54 33q-5 11 -5 23q0 23 30 72q1 1 1 2zM131 567q0 -34 27 -44q8 -3 15 -3q31 0 40 32q2 8 2 15q0 34 -27 44q-8 3 -15 3q-31 0 -40 -32q-2 -8 -2 -15zM470 145q0 -34 27 -44q8 -3 15 -3q31 0 40 32q2 8 2 15q0 34 -27 44q-8 3 -15 3q-31 0 -40 -32q-2 -8 -2 -15z M356 145q0 77 59 126q43 35 97 35q76 0 123 -63q33 -44 33 -98q0 -77 -59 -126q-43 -35 -97 -35q-80 0 -126 65q-30 43 -30 96z" glyph-name="percent" horiz-adv-x="685" unicode="%"/>
<glyph d="M405 373l101 -117l39 48q31 39 49 45q10 3 19 3q35 0 59 -33q12 -18 12 -35q0 -31 -49 -82l-6 -6l-36 -37l30 -34q33 -41 35 -61q0 -42 -42 -62q-18 -8 -36 -8q-29 -1 -52 25q-5 5 -12 13l-29 33q-89 -74 -204 -80q-16 -1 -31 -1q-111 0 -179 72q-53 58 -53 140 q0 114 110 185q23 15 51 29q-52 59 -62 99q-5 19 -5 39q0 95 83 142q52 30 120 30q126 0 180 -72q30 -41 30 -99q0 -100 -106 -167q-8 -5 -16 -9zM400 162l-134 149q-79 -47 -88 -92q-2 -9 -2 -17q0 -56 48 -81q22 -11 48 -11q68 1 128 52zM323 612q-39 0 -58 -32 q-7 -14 -7 -29q0 -36 40 -73q9 -9 19 -17q77 36 78 84q0 50 -46 63q-13 4 -26 4z" glyph-name="ampersand" horiz-adv-x="704" unicode="&amp;"/>
<glyph d="M64 479v169q0 49 40 65q12 5 26 5q47 0 62 -42q4 -14 4 -28v-169q0 -49 -40 -65q-12 -5 -26 -5q-47 0 -62 42q-4 14 -4 28z" glyph-name="quotesingle" horiz-adv-x="259" unicode="'"/>
<glyph d="M39 280q0 208 63 364q26 62 49 76q14 8 31 8q50 0 65 -40q4 -11 4 -23q0 -3 -25 -85q-49 -160 -49 -300q0 -150 62 -341q12 -37 12 -44q0 -46 -43 -59q-13 -4 -26 -4q-39 0 -64 48q-7 14 -16 36q-63 156 -63 364z" glyph-name="parenleft" horiz-adv-x="259" unicode="("/>
<glyph d="M220 280q0 -208 -63 -364q-26 -62 -49 -76q-14 -8 -31 -8q-50 0 -65 40q-4 11 -4 23q0 3 25 85q49 159 49 300q0 150 -62 341q-12 37 -12 44q0 46 43 59q13 4 26 4q39 0 64 -48q7 -14 16 -36q63 -156 63 -364z" glyph-name="parenright" horiz-adv-x="259" unicode=")"/>
<glyph d="M194 718q48 0 53 -38q1 -5 1 -9q0 -9 -4 -34q-4 -20 -5 -29q7 4 18 13q38 28 57 28q34 0 49 -34q5 -13 5 -25q0 -28 -44 -46l-15 -6q-18 -6 -25 -10q8 -4 25 -10q47 -18 56 -36q3 -8 3 -16q0 -36 -30 -52q-12 -7 -24 -7q-19 0 -58 29q-11 8 -17 12q1 -9 5 -29 q4 -25 4 -34q0 -41 -43 -46q-6 -1 -11 -1q-48 0 -53 38q-1 5 -1 9q0 9 4 34q4 20 5 29q-7 -4 -19 -13q-39 -28 -57 -28q-35 0 -48 35q-4 12 -4 24q0 28 44 46q4 2 14 6q18 6 25 10q-8 4 -25 10q-47 19 -55 37q-3 8 -3 15q0 37 29 53q11 6 23 6q18 0 60 -30q10 -7 16 -11 q-1 9 -5 29q-4 25 -4 34q0 41 43 46q6 1 11 1z" glyph-name="asterisk" horiz-adv-x="389" unicode="*"/>
<glyph d="M234 349v147q0 56 46 68q10 2 20 2q52 0 64 -49q2 -10 2 -21v-147h147q55 0 67 -45q3 -10 3 -21q0 -52 -48 -64q-11 -2 -22 -2h-147v-147q0 -56 -46 -68q-10 -2 -20 -2q-52 0 -64 49q-2 10 -2 21v147h-147q-46 0 -64 38q-6 14 -6 28q0 52 48 64q11 2 22 2h147z" glyph-name="plus" horiz-adv-x="600" unicode="+"/>
<glyph d="M-3 -35l82 147q27 45 71 46q52 0 70 -40q6 -13 6 -28q0 -21 -15 -47v-1l-82 -147q-27 -45 -71 -46q-52 0 -70 40q-6 13 -6 28q0 21 15 47v1z" glyph-name="comma" horiz-adv-x="278" unicode=","/>
<glyph d="M95 345h236q51 0 63 -44q3 -11 3 -22q0 -51 -44 -63q-11 -3 -22 -3h-236q-51 0 -63 44q-3 11 -3 22q0 51 44 63q11 3 22 3z" glyph-name="hyphen" horiz-adv-x="426" unicode="-"/>
<glyph d="M52 71q0 47 41 73q22 14 46 14q47 0 73 -41q14 -22 14 -46q0 -49 -42 -74q-22 -13 -45 -13q-48 0 -74 42q-13 21 -13 45z" glyph-name="period" horiz-adv-x="278" unicode="."/>
<glyph d="M49 133l269 513q33 63 56 76q11 6 22 6q46 0 55 -40q1 -7 1 -14q-1 -24 -38 -95l-269 -513q-33 -63 -56 -76q-11 -6 -22 -6q-46 0 -55 40q-1 7 -1 14q1 24 38 95z" glyph-name="slash" horiz-adv-x="463" unicode="/"/>
<glyph d="M17 356q0 167 84 271q81 100 214 101q160 0 241 -140q57 -99 57 -232q0 -167 -84 -271q-81 -100 -214 -101q-160 0 -241 140q-57 99 -57 232zM185 356q0 -118 50 -178q33 -37 80 -38q86 0 117 115q13 47 13 101q0 118 -50 178q-33 37 -80 38q-86 0 -117 -115 q-13 -47 -13 -101z" glyph-name="zero" horiz-adv-x="630" unicode="0"/>
<glyph d="M122 80v482h-51q-52 0 -70 46q-5 14 -5 29q0 46 37 66q18 9 38 9h132q80 -2 81 -81v-551q0 -67 -55 -83q-13 -3 -26 -3q-61 0 -77 54q-4 15 -4 32z" glyph-name="one" horiz-adv-x="333" unicode="1"/>
<glyph d="M249 150h170q52 0 70 -46q5 -14 5 -29q0 -46 -37 -66q-18 -9 -38 -9h-327q-63 0 -85 41q-7 14 -7 30q0 46 85 131q33 33 38 38.5t19 20.5q146 163 160 229q2 9 2 15q-2 66 -62 67q-49 0 -70 -49q-3 -9 -10 -28q-17 -50 -37 -64q-16 -10 -38 -10q-53 0 -72 48q-5 15 -5 30 q0 100 76 167q69 62 166 62q109 0 174 -74q52 -59 52 -142q0 -98 -103 -220q-20 -23 -61 -68q-46 -50 -65 -74z" glyph-name="two" horiz-adv-x="500" unicode="2"/>
<glyph d="M0 178q0 39 39 63q18 11 36 11q39 0 67 -38q30 -40 35 -46q30 -28 76 -28q48 0 71 43q10 20 10 42q-2 76 -101 78q-46 1 -63 42q-6 16 -6 34q0 41 34 57q18 9 51 17q60 15 61 66q0 41 -43 51q-9 2 -18 2q-41 0 -78 -38q-32 -32 -47 -39q-17 -8 -35 -8q-41 0 -59 42 q-7 16 -7 32q0 77 87 128q67 39 137 39q112 0 174 -71q45 -51 45 -124q-1 -85 -80 -145q90 -36 111 -133q5 -23 5 -48q0 -105 -85 -170q-70 -53 -165 -53q-118 0 -195 74q-56 55 -57 120z" glyph-name="three" horiz-adv-x="519" unicode="3"/>
<glyph d="M339 82v68h-267q-63 0 -78 46q-3 9 -3 18q0 33 31 79l238 368q34 52 97 56q9 1 18 1q77 0 107 -62q13 -27 13 -60v-302h34q81 -2 82 -72q-2 -71 -82 -72h-34v-66q0 -77 -60 -88q-9 -2 -18 -2q-63 0 -75 61q-3 13 -3 27zM339 294v255h-2l-148 -255h150z" glyph-name="four" horiz-adv-x="611" unicode="4"/>
<glyph d="M224 562l-11 -88q37 10 75 10q121 0 177 -101q33 -59 33 -136q0 -118 -84 -195q-75 -68 -180 -68q-95 0 -170 46q-61 39 -62 87q0 52 39 73q15 8 30 8q26 0 70 -27q50 -31 88 -31q68 0 88 67q7 23 7 50q0 57 -39 83q-19 12 -41 12q-34 0 -70 -21q-28 -15 -52 -15 q-52 0 -63 42q-2 8 -2 17q0 32 5 75l25 195q7 57 55 65q13 2 31 2h244q52 0 70 -46q5 -14 5 -29q0 -46 -37 -66q-18 -9 -38 -9h-193z" glyph-name="five" horiz-adv-x="500" unicode="5"/>
<glyph d="M10 227q1 157 141 332q108 134 145 157q19 12 40 12q50 0 71 -48q7 -17 7 -30q0 -29 -45 -77q-67 -72 -86 -97q-11 -14 -20 -28l2 -2q25 8 63 8q94 0 154 -82q46 -63 46 -141q0 -116 -85 -187q-72 -60 -174 -60q-141 0 -212 94q-47 62 -47 149zM178 231q0 -50 43 -77 q23 -14 48 -14q50 0 77 43q14 23 14 48q0 50 -43 77q-23 14 -48 14q-50 0 -77 -43q-14 -23 -14 -48z" glyph-name="six" horiz-adv-x="538" unicode="6"/>
<glyph d="M89 144l199 418h-216q-52 0 -70 46q-5 14 -5 29q0 46 37 66q18 9 38 9h328q52 0 75 -43q9 -17 9 -34q-1 -24 -23 -74l-227 -490q-23 -51 -46 -65q-19 -12 -45 -12q-50 0 -72 43q-8 16 -8 30q0 5 0.5 10.5t2.5 12t3 10.5t5 12t4.5 10t5.5 12z" glyph-name="seven" horiz-adv-x="481" unicode="7"/>
<glyph d="M278 728q121 0 186 -73q45 -52 45 -127q0 -76 -55 -131q-6 -6 -11 -10q85 -51 95 -149q1 -12 1 -22q0 -110 -85 -176q-72 -56 -176 -56q-135 0 -209 87q-52 62 -52 145q0 98 75 157q11 8 21 14q-43 34 -60 94q-6 24 -6 47q0 116 99 169q58 31 132 31zM185 233 q0 -53 44 -80q23 -13 49 -13q53 0 80 44q13 23 13 49q0 53 -44 80q-23 13 -49 13q-53 0 -80 -44q-13 -23 -13 -49zM209 515q0 -40 36 -60q16 -9 33 -9q40 0 60 36q9 16 9 33q0 40 -36 60q-16 9 -33 9q-40 0 -60 -36q-9 -16 -9 -33z" glyph-name="eight" unicode="8"/>
<glyph d="M528 485q-1 -157 -141 -332q-108 -134 -145 -157q-19 -12 -40 -12q-50 0 -71 48q-7 17 -7 30q0 29 45 77q67 72 86 97q11 14 20 28l-2 2q-25 -8 -63 -8q-94 0 -154 82q-46 63 -46 141q0 116 85 187q72 60 174 60q141 0 212 -94q47 -62 47 -149zM360 481q0 50 -43 77 q-23 14 -48 14q-50 0 -77 -43q-14 -23 -14 -48q0 -50 43 -77q23 -14 48 -14q50 0 77 43q14 23 14 48z" glyph-name="nine" horiz-adv-x="538" unicode="9"/>
<glyph d="M52 71q0 47 41 73q22 14 46 14q47 0 73 -41q14 -22 14 -46q0 -49 -42 -74q-22 -13 -45 -13q-48 0 -74 42q-13 21 -13 45zM52 383q0 47 41 73q22 14 46 14q47 0 73 -41q14 -22 14 -46q0 -49 -42 -74q-22 -13 -45 -13q-48 0 -74 42q-13 21 -13 45z" glyph-name="colon" horiz-adv-x="278" unicode=":"/>
<glyph d="M-3 -35l82 147q27 45 71 46q52 0 70 -40q6 -13 6 -28q0 -21 -15 -47v-1l-82 -147q-27 -45 -71 -46q-52 0 -70 40q-6 13 -6 28q0 21 15 47v1zM52 383q0 47 41 73q22 14 46 14q47 0 73 -41q14 -22 14 -46q0 -49 -42 -74q-22 -13 -45 -13q-48 0 -74 42q-13 21 -13 45z" glyph-name="semicolon" horiz-adv-x="278" unicode=";"/>
<glyph d="M467 39l-407 187q-34 21 -37 57q0 37 34 55q2 1 3 2l407 187q30 14 55 14q42 0 52 -39q3 -10 3 -21q0 -38 -34 -57q-7 -3 -13 -6l-322 -135l322 -135q45 -25 47 -63q0 -47 -38 -58q-9 -2 -17 -2q-27 1 -55 14z" glyph-name="less" horiz-adv-x="600" unicode="&lt;"/>
<glyph d="M87 467h426q55 0 67 -45q3 -10 3 -21q0 -52 -48 -64q-11 -2 -22 -2h-426q-55 0 -67 45q-3 10 -3 21q0 52 48 64q11 2 22 2zM87 231h426q55 0 67 -45q3 -10 3 -21q0 -52 -48 -64q-11 -2 -22 -2h-426q-55 0 -67 45q-3 10 -3 21q0 52 48 64q11 2 22 2z" glyph-name="equal" horiz-adv-x="600" unicode="="/>
<glyph d="M70 148l322 135l-322 135q-45 25 -47 63q0 47 38 58q9 2 17 2q27 -1 55 -14l407 -187q34 -21 37 -57q0 -37 -34 -55q-2 -1 -3 -2l-407 -187q-30 -14 -55 -14q-42 0 -52 39q-3 10 -3 21q0 38 34 57q7 3 13 6z" glyph-name="greater" horiz-adv-x="600" unicode="&gt;"/>
<glyph d="M155 279v80q0 46 43 59q11 3 36 7q75 16 76 76q0 36 -34 55q-18 10 -39 10q-44 0 -75 -37q-27 -33 -35 -38q-20 -15 -46 -15q-42 0 -63 39q-9 18 -9 36q0 87 91 140q65 37 137 37q118 0 189 -74q58 -60 58 -148q-1 -172 -173 -207v-20q0 -52 -44 -71q-16 -7 -34 -7 q-52 0 -71 44q-7 16 -7 34zM146 71q0 47 41 73q22 14 46 14q47 0 73 -41q14 -22 14 -46q0 -49 -42 -74q-22 -13 -45 -13q-48 0 -74 42q-13 21 -13 45z" glyph-name="question" horiz-adv-x="500" unicode="?"/>
<glyph d="M486 -137q-178 0 -306 110t-143 281q-2 20 -2 40q0 174 117 297q113 118 280 135q24 2 47 2q172 0 287 -97q117 -101 118 -259q-1 -170 -94 -249q-76 -59 -182 -61q-59 0 -82 43l-4 10q-61 -53 -138 -53q-91 0 -135 81q-26 50 -26 117q0 132 81 213q64 63 145 63 q84 0 131 -57q6 -7 11 -15l5 21q10 41 55 41q40 0 49 -34q2 -8 2 -16q0 -13 -5 -32l-36 -197q-7 -39 -7 -42q2 -21 22 -22q57 0 85 59q18 39 18 98q0 166 -124 239q-75 44 -179 44q-133 0 -224 -96q-91 -97 -91 -233q0 -166 112 -257q88 -70 213 -70q138 0 213 61 q16 13 34 13q27 0 40 -25q4 -9 4 -18q-1 -19 -13 -31q-67 -64 -171 -90q-53 -14 -107 -14zM433 191q63 0 94 65q16 34 16 73q-3 84 -71 86q-54 0 -85 -60q-19 -36 -19 -76q0 -62 39 -82q12 -6 26 -6z" glyph-name="at" horiz-adv-x="919" unicode="@"/>
<glyph d="M23 160l156 421q32 88 58 115q31 32 77 32q68 0 105 -70q12 -24 32 -77l156 -421q24 -66 24 -100q0 -46 -46 -61q-15 -5 -32 -5q-51 0 -74 51q-5 12 -11 28l-20 64h-266l-20 -64q-19 -58 -49 -72q-16 -7 -36 -7q-56 0 -73 41q-5 12 -5 25q1 36 24 100zM400 287l-81 261 h-2l-87 -261h170z" glyph-name="A" horiz-adv-x="630" unicode="A"/>
<glyph d="M201 568v-134h74q67 0 73 57q1 5 1 10q-7 63 -74 67h-74zM39 81v550q0 54 47 74q16 7 34 7h191q118 0 171 -81q29 -46 29 -105q-1 -86 -85 -136q89 -17 125 -94q18 -38 18 -81q0 -116 -88 -174q-63 -41 -160 -41h-201q-49 0 -71 40q-10 18 -10 41zM201 290v-146h102 q96 3 98 73q0 57 -66 70q-16 3 -32 3h-102z" glyph-name="B" horiz-adv-x="593" unicode="B"/>
<glyph d="M21 356q0 174 107 278q98 94 246 94q132 0 187 -51q28 -27 28 -62q0 -45 -35 -67q-17 -10 -35 -10q-15 0 -65 19q-43 15 -76 15q-120 0 -164 -110q-19 -48 -19 -106q0 -115 66 -173q43 -37 103 -37q61 0 118 23q25 10 41 10q61 0 71 -59q1 -9 1 -16q0 -72 -109 -104 q-55 -16 -115 -16q-176 0 -273 126q-77 101 -77 246z" glyph-name="C" horiz-adv-x="593" unicode="C"/>
<glyph d="M201 562v-412h86q131 0 171 115q14 43 14 96q0 134 -89 181q-39 20 -89 20h-93zM39 81v550q0 54 47 74q16 7 34 7h194q162 0 256 -120q76 -97 76 -231q0 -184 -118 -285q-90 -76 -214 -76h-194q-49 0 -71 40q-10 18 -10 41z" glyph-name="D" horiz-adv-x="667" unicode="D"/>
<glyph d="M39 81v550q0 54 47 74q16 7 34 7h248q61 0 77 -49q4 -13 4 -26q0 -60 -56 -73q-12 -2 -25 -2h-167v-129h153q64 0 78 -51q3 -12 3 -24q0 -58 -53 -72q-14 -3 -28 -3h-153v-133h173q66 0 79 -54q2 -10 2 -21q0 -55 -50 -71q-15 -4 -31 -4h-254q-49 0 -71 40q-10 18 -10 41 z" glyph-name="E" horiz-adv-x="463" unicode="E"/>
<glyph d="M39 80v551q0 54 47 74q16 7 34 7h248q61 0 77 -49q4 -13 4 -26q0 -60 -56 -73q-12 -2 -25 -2h-167v-127h146q64 0 78 -51q3 -12 3 -24q0 -58 -53 -72q-14 -3 -28 -3h-146v-205q0 -67 -55 -83q-13 -3 -26 -3q-61 0 -77 54q-4 15 -4 32z" glyph-name="F" horiz-adv-x="444" unicode="F"/>
<glyph d="M434 422h175q85 -2 86 -99q0 -155 -97 -251q-90 -88 -227 -88q-176 0 -273 126q-77 101 -77 246q0 166 105 272q99 100 245 100q129 0 212 -54q63 -43 64 -102q0 -49 -44 -64q-14 -4 -29 -4q-25 0 -67 29q-56 38 -103 43q-13 2 -26 2q-98 0 -150 -88q-33 -58 -33 -134 q0 -115 64 -177q47 -45 116 -45q90 0 131 70q17 30 21 68h-93q-61 0 -77 49q-4 13 -4 26q0 60 56 73q12 2 25 2z" glyph-name="G" horiz-adv-x="722" unicode="G"/>
<glyph d="M201 290v-210q0 -67 -55 -83q-13 -3 -26 -3q-61 0 -77 54q-4 15 -4 32v552q0 67 55 83q13 3 26 3q61 0 77 -54q4 -15 4 -32v-192h302v192q0 67 55 83q13 3 26 3q61 0 77 -54q4 -15 4 -32v-552q0 -67 -55 -83q-13 -3 -26 -3q-61 0 -77 54q-4 15 -4 32v210h-302z" glyph-name="H" horiz-adv-x="704" unicode="H"/>
<glyph d="M201 632v-552q0 -67 -55 -83q-13 -3 -26 -3q-61 0 -77 54q-4 15 -4 32v552q0 67 55 83q13 3 26 3q61 0 77 -54q4 -15 4 -32z" glyph-name="I" horiz-adv-x="240" unicode="I"/>
<glyph d="M225 248v384q0 67 55 83q13 3 26 3q61 0 77 -54q4 -15 4 -32v-412q0 -181 -123 -223q-40 -13 -92 -13q-76 0 -128 33q-1 1 -2 1q-41 27 -47 57q-3 12 -3 26q0 51 40 70q16 7 34 7q19 0 54 -22q27 -16 47 -16q42 0 53 47q5 24 5 61z" glyph-name="J" horiz-adv-x="426" unicode="J"/>
<glyph d="M39 80v552q0 67 55 83q13 3 26 3q61 0 77 -54q4 -15 4 -32v-198l223 243q40 40 76 41q37 0 64 -34q17 -21 17 -44q-1 -32 -32 -65l-193 -194l211 -229q38 -41 43 -63q2 -8 2 -15q0 -55 -50 -74q-17 -6 -35 -6q-39 0 -87 53q-2 3 -7 8q-4 5 -6 7l-226 254v-236 q0 -67 -55 -83q-13 -3 -26 -3q-61 0 -77 54q-4 15 -4 32z" glyph-name="K" horiz-adv-x="593" unicode="K"/>
<glyph d="M39 81v551q0 67 55 83q13 3 26 3q61 0 77 -54q4 -15 4 -32v-482h174q66 0 79 -54q2 -10 2 -21q0 -55 -50 -71q-15 -4 -31 -4h-255q-49 0 -71 40q-10 18 -10 41z" glyph-name="L" horiz-adv-x="444" unicode="L"/>
<glyph d="M44 250l64 366q19 101 107 102q59 0 87 -43q21 -31 53 -132l79 -245h2l79 245q36 111 59 141q28 34 81 34q88 0 107 -100v-2l64 -366q27 -154 27 -179q0 -42 -35 -65q-19 -12 -41 -12q-66 0 -85 64q-5 17 -9 43l-48 316h-2l-109 -350q-18 -59 -60 -70q-13 -3 -29 -3 q-56 0 -79 47q-5 12 -10 26l-109 350h-2l-48 -316q-10 -72 -41 -93q-21 -14 -53 -14q-47 0 -68 43q-8 17 -8 34q0 27 27 179z" glyph-name="M" horiz-adv-x="870" unicode="M"/>
<glyph d="M39 80v552q0 67 55 83q13 3 26 3q30 0 49 -15.5t63 -71.5l269 -337h2v338q0 67 55 83q13 3 26 3q61 0 77 -54q4 -15 4 -32v-552q0 -67 -55 -83q-13 -3 -26 -3q-36 0 -64 29q-15 15 -48 58l-269 337h-2v-338q0 -67 -55 -83q-13 -3 -26 -3q-61 0 -77 54q-4 15 -4 32z" glyph-name="N" horiz-adv-x="704" unicode="N"/>
<glyph d="M371 728q174 0 270 -120q80 -100 80 -252q0 -188 -116 -291q-94 -81 -234 -81q-174 0 -270 120q-80 100 -80 252q0 188 116 291q94 81 234 81zM371 578q-113 0 -156 -109q-20 -51 -20 -113q0 -125 69 -184q44 -38 107 -38q113 0 156 109q20 51 20 113q0 125 -69 184 q-44 38 -107 38z" glyph-name="O" horiz-adv-x="742" unicode="O"/>
<glyph d="M201 568v-195h87q69 0 96 53q11 21 11 44q0 74 -67 93q-19 5 -40 5h-87zM39 80v551q0 54 47 74q16 7 34 7h199q113 0 183 -74q61 -66 61 -168q0 -132 -90 -197q-61 -44 -149 -44h-123v-149q0 -67 -55 -83q-13 -3 -26 -3q-61 0 -77 54q-4 15 -4 32z" glyph-name="P" horiz-adv-x="574" unicode="P"/>
<glyph d="M593 -10l-43 38q-77 -44 -179 -44q-174 0 -270 120q-80 100 -80 252q0 188 116 291q94 81 234 81q174 0 270 -120q80 -100 80 -252q-1 -137 -64 -230l39 -34q47 -40 51 -66q1 -7 1 -13q0 -45 -38 -63q-14 -6 -29 -6q-32 0 -69 30q-9 7 -19 16zM371 578q-113 0 -156 -109 q-20 -51 -20 -113q0 -125 69 -184q44 -38 107 -38q30 0 49 7l-2 1q-47 40 -51 66q-1 7 -1 13q0 45 38 63q14 6 29 6q32 0 69 -30q9 -7 19 -16l5 -4q21 53 21 116q0 125 -69 184q-44 38 -107 38z" glyph-name="Q" horiz-adv-x="742" unicode="Q"/>
<glyph d="M39 80v551q0 54 47 74q16 7 34 7h195q133 0 198 -88q40 -56 40 -133q0 -112 -85 -168q-36 -23 -81 -32l141 -152q34 -38 34 -70q0 -33 -28 -56q-23 -19 -55 -19q-42 0 -67 28l-10 12l-199 251h-2v-205q0 -67 -55 -83q-13 -3 -26 -3q-61 0 -77 54q-4 15 -4 32zM201 562 v-157h107q59 0 77 48q6 15 6 32q0 52 -47 71q-17 6 -36 6h-107z" glyph-name="R" horiz-adv-x="574" unicode="R"/>
<glyph d="M5 101q0 52 38 76q17 10 38 10q15 0 71 -20q58 -21 104 -21q75 0 85 54q1 7 1 13q0 38 -51 61q-11 4 -103 34q-97 31 -133 74q-38 46 -38 118q0 134 111 194q63 34 145 34q143 0 187 -62q15 -21 15 -45q0 -51 -41 -70q-15 -6 -31 -6q-22 0 -69 16q-35 11 -69 11 q-56 0 -70 -38q-4 -10 -4 -20q0 -27 34 -43q10 -4 118 -40t145 -97q28 -47 28 -112q0 -151 -126 -209q-63 -29 -146 -29q-103 0 -178 39q-60 33 -61 78z" glyph-name="S" horiz-adv-x="537" unicode="S"/>
<glyph d="M151 80v482h-91q-66 0 -81 51q-3 12 -3 24q0 62 61 73q11 2 23 2h344q72 0 82 -58q2 -8 2 -17q0 -57 -54 -71q-14 -4 -30 -4h-91v-482q0 -67 -55 -83q-13 -3 -26 -3q-61 0 -77 54q-4 15 -4 32z" glyph-name="T" horiz-adv-x="464" unicode="T"/>
<glyph d="M196 632v-346q0 -93 73 -130q33 -16 73 -16q84 0 124 62q23 36 23 84v346q0 67 55 83q13 3 26 3q61 0 77 -54q4 -15 4 -32v-346q0 -159 -111 -242q-82 -60 -198 -60q-156 0 -242 102q-66 80 -66 200v346q0 67 55 83q13 3 26 3q61 0 77 -54q4 -15 4 -32z" glyph-name="U" horiz-adv-x="685" unicode="U"/>
<glyph d="M287 281l138 364q19 47 39 60q21 13 51 13q48 0 70 -42q9 -18 9 -37q0 -18 -17 -59l-202 -500q-21 -52 -36 -66q-22 -20 -54 -20q-51 0 -76 52q-4 8 -14 34l-198 500q-17 40 -17 59q0 45 38 68q19 11 41 11q40 0 58 -18t32 -54v-1z" glyph-name="V" horiz-adv-x="574" unicode="V"/>
<glyph d="M120 115l-108 441q-16 68 -16 83q0 48 41 70q19 9 40 9q67 -1 84 -72l83 -384h2l117 373q23 73 72 81q9 2 19 2q56 0 82 -59q5 -11 9 -24l117 -373h2l83 384q18 71 84 72q52 0 73 -43q8 -17 8 -36q0 -17 -16 -83l-108 -441q-19 -78 -45 -100q-25 -21 -69 -21 q-85 0 -114 86q-1 2 -1 3l-104 326h-2l-104 -326q-33 -87 -115 -89q-65 0 -90 48q-12 23 -24 73z" glyph-name="W" horiz-adv-x="908" unicode="W"/>
<glyph d="M306 518l91 126q35 50 55 63q18 11 39 11q59 0 79 -46q6 -14 6 -29q-1 -33 -30 -72l-142 -188l173 -232q30 -40 33 -59q2 -9 2 -19q0 -51 -43 -71q-17 -8 -36 -8q-41 0 -74 41q-3 4 -5 7l-148 202l-148 -202q-39 -46 -79 -48q-49 0 -70 41q-9 18 -9 38q0 22 6.5 35.5 t28.5 42.5l173 232l-142 188q-30 41 -30 72q0 44 39 65q21 10 46 10q39 0 74 -46q6 -8 20 -28z" glyph-name="X" horiz-adv-x="612" unicode="X"/>
<glyph d="M188 80v254l-140 188q-55 77 -62 96q-5 14 -5 28q0 46 46 64q19 8 40 8q20 0 36.5 -9t25.5 -19.5t19 -24.5l1 -2l120 -171l120 171q28 39 51 49q15 6 31 6q56 0 78 -40q8 -15 8 -32q0 -28 -30 -72q-8 -11 -37 -52l-140 -188v-254q0 -67 -55 -83q-13 -3 -26 -3 q-61 0 -77 54q-4 15 -4 32z" glyph-name="Y" horiz-adv-x="538" unicode="Y"/>
<glyph d="M198 150h264q69 0 83 -53q3 -11 3 -22q0 -58 -56 -72q-14 -3 -30 -3h-359q-110 7 -114 89q0 30 28 68q1 2 2 3l306 408h-239q-68 0 -83 50q-3 11 -3 22q0 53 53 68q15 4 33 4h348q87 0 98 -66q1 -8 1 -15q0 -33 -56 -109q-8 -11 -20 -27z" glyph-name="Z" horiz-adv-x="537" unicode="Z"/>
<glyph d="M218 614v-668h68q41 0 53 -36q4 -10 4 -21q0 -41 -36 -54q-10 -3 -21 -3h-137q-68 2 -69 69v758q2 68 69 69h137q41 0 53 -36q4 -10 4 -21q0 -41 -36 -54q-10 -3 -21 -3h-68z" glyph-name="bracketleft" horiz-adv-x="352" unicode="["/>
<glyph d="M318 66l-269 513q-38 72 -38 95q0 44 41 52q7 2 15 2q16 0 31.5 -14t24 -27.5t22.5 -40.5l269 -513q38 -72 38 -95q0 -44 -41 -52q-7 -2 -15 -2q-16 0 -31.5 14t-24 27.5t-22.5 40.5z" glyph-name="backslash" horiz-adv-x="463" unicode="\"/>
<glyph d="M134 -54v668h-68q-41 0 -53 36q-4 10 -4 21q0 41 36 54q10 3 21 3h137q68 -2 69 -69v-758q-2 -68 -69 -69h-137q-41 0 -53 36q-4 10 -4 21q0 41 36 54q10 3 21 3h68z" glyph-name="bracketright" horiz-adv-x="352" unicode="]"/>
<glyph d="M413 355l-113 207l-113 -207q-20 -37 -59 -40h-10q-50 1 -51 36q1 20 13 44l154 280q24 43 66 43q43 -2 66 -43l154 -280q13 -25 13 -44q-7 -33 -51 -36q-42 0 -63 30z" glyph-name="asciicircum" horiz-adv-x="600" unicode="^"/>
<glyph d="M500 -125h-500q-26 3 -29 25q5 22 29 25h500q26 -3 29 -25q-5 -22 -29 -25z" glyph-name="underscore" horiz-adv-x="500" unicode="_"/>
<glyph d="M38 782l150 -65q36 -16 37 -55q0 -46 -37 -63q-13 -6 -28 -6q-21 0 -41 9l-150 65q-36 16 -37 55q0 46 37 63q13 6 28 6q21 0 41 -9z" glyph-name="grave" horiz-adv-x="222" unicode="`"/>
<glyph d="M541 457v-382q0 -49 -40 -72q-18 -9 -38 -9q-50 2 -73 50q-53 -59 -134 -60q-106 0 -177 89q-64 81 -64 193q0 128 80 211q68 71 161 71q83 0 131 -56q2 -3 3 -4q25 48 73 50q49 0 70 -44q8 -18 8 -37zM278 398q-68 0 -95 -67q-12 -30 -12 -65q0 -80 51 -115 q25 -17 56 -17q68 0 95 67q12 30 12 65q0 80 -51 115q-25 17 -56 17z" glyph-name="a" horiz-adv-x="574" unicode="a"/>
<glyph d="M33 75v614q0 49 40 72q18 9 38 9q49 0 70 -44q8 -18 8 -37v-185q55 44 129 44q106 0 177 -89q64 -81 64 -193q0 -128 -80 -211q-68 -71 -161 -71q-83 0 -131 56q-2 3 -3 4q-25 -48 -73 -50q-49 0 -70 44q-8 18 -8 37zM296 398q-68 0 -95 -67q-12 -30 -12 -65 q0 -80 51 -115q25 -17 56 -17q68 0 95 67q12 30 12 65q0 80 -51 115q-25 17 -56 17z" glyph-name="b" horiz-adv-x="574" unicode="b"/>
<glyph d="M15 266q0 131 84 212q73 70 179 70q110 0 159 -45q26 -24 26 -58q0 -48 -37 -66q-13 -7 -27 -7q-16 0 -51 14q-30 12 -61 12q-81 0 -107 -75q-9 -27 -9 -57q0 -80 51 -115q25 -17 56 -17q41 0 97 21q16 6 24 6q36 0 55 -36q9 -17 9 -33q0 -61 -92 -92q-48 -16 -93 -16 q-128 0 -203 97q-60 78 -60 185z" glyph-name="c" horiz-adv-x="463" unicode="c"/>
<glyph d="M541 689v-614q0 -49 -40 -72q-18 -9 -38 -9q-50 2 -73 50q-53 -59 -134 -60q-106 0 -177 89q-64 81 -64 193q0 128 80 211q68 71 161 71q76 -1 129 -44v185q0 49 40 72q18 9 38 9q49 0 70 -44q8 -18 8 -37zM278 398q-68 0 -95 -67q-12 -30 -12 -65q0 -80 51 -115 q25 -17 56 -17q68 0 95 67q12 30 12 65q0 80 -51 115q-25 17 -56 17z" glyph-name="d" horiz-adv-x="574" unicode="d"/>
<glyph d="M465 215h-282q0 -47 46 -71q32 -16 79 -16q46 0 112 33q34 16 48 16q41 0 58 -36q7 -15 7 -31q0 -59 -89 -96q-71 -30 -156 -30q-138 0 -215 100q-58 77 -58 182q0 119 81 202q79 80 192 80q121 0 194 -94q59 -74 59 -171q0 -55 -42 -65q-14 -3 -34 -3zM183 322h202 q0 36 -35 67q-30 27 -66 27q-54 0 -86 -50q-15 -24 -15 -44z" glyph-name="e" unicode="e"/>
<glyph d="M76 75v313h-18q-81 2 -82 72q2 71 82 72h18v70q0 89 65 137q42 31 97 31q103 -2 104 -72q-2 -71 -74 -72q-30 0 -35 -31q-1 -9 -1 -20v-43h43q81 -2 82 -72q-2 -71 -82 -72h-43v-313q0 -49 -40 -72q-18 -9 -38 -9q-49 0 -70 44q-8 18 -8 37z" glyph-name="f" horiz-adv-x="333" unicode="f"/>
<glyph d="M541 457v-405q0 -191 -150 -251q-59 -23 -133 -23q-97 0 -169 36q-63 32 -64 80q0 36 34 58q16 10 31 10q18 0 60 -21q53 -25 105 -25q110 0 127 94q3 20 3 44h-2q-43 -60 -142 -60q-126 0 -187 110q-39 70 -39 162q0 128 80 211q68 71 161 71q83 0 131 -56q2 -3 3 -4 q25 48 73 50q49 0 70 -44q8 -18 8 -37zM385 266q0 80 -51 115q-25 17 -56 17q-68 0 -95 -67q-12 -30 -12 -65q0 -87 55 -120q23 -14 52 -14q70 0 96 69q11 30 11 65z" glyph-name="g" horiz-adv-x="574" unicode="g"/>
<glyph d="M36 75v614q0 49 40 72q18 9 38 9q49 0 70 -44q8 -18 8 -37v-180h2q63 39 132 39q123 0 170 -84q24 -42 24 -100v-289q0 -49 -40 -72q-18 -9 -38 -9q-49 0 -70 44q-8 18 -8 37v247q0 64 -48 86q-18 8 -38 8q-59 0 -79 -53q-7 -19 -7 -41v-247q0 -49 -40 -72q-18 -9 -38 -9 q-49 0 -70 44q-8 18 -8 37z" glyph-name="h" unicode="h"/>
<glyph d="M33 75v382q0 49 40 72q18 9 38 9q49 0 70 -44q8 -18 8 -37v-382q0 -49 -40 -72q-18 -9 -38 -9q-49 0 -70 44q-8 18 -8 37zM18 677q0 53 45 80q23 13 48 13q52 0 79 -44q14 -23 14 -49q0 -53 -45 -80q-23 -13 -48 -13q-52 0 -79 44q-14 23 -14 49z" glyph-name="i" horiz-adv-x="222" unicode="i"/>
<glyph d="M33 -141v598q0 49 40 72q18 9 38 9q49 0 70 -44q8 -18 8 -37v-598q0 -49 -40 -72q-18 -9 -38 -9q-49 0 -70 44q-8 18 -8 37zM18 677q0 53 45 80q23 13 48 13q52 0 79 -44q14 -23 14 -49q0 -53 -45 -80q-23 -13 -48 -13q-52 0 -79 44q-14 23 -14 49z" glyph-name="j" horiz-adv-x="222" unicode="j"/>
<glyph d="M36 75v614q0 49 40 72q18 9 38 9q49 0 70 -44q8 -18 8 -37v-332l127 127q39 39 56 47q16 7 32 7q49 0 69 -41q7 -15 7 -31q0 -27 -34 -62q-8 -7 -21 -20l-84 -83l131 -166q36 -47 37 -69q0 -38 -33 -60q-19 -12 -44 -12q-36 0 -62 26q-10 11 -23 27l-156 204h-2v-176 q0 -49 -40 -72q-18 -9 -38 -9q-49 0 -70 44q-8 18 -8 37z" glyph-name="k" horiz-adv-x="500" unicode="k"/>
<glyph d="M33 75v614q0 49 40 72q18 9 38 9q49 0 70 -44q8 -18 8 -37v-614q0 -49 -40 -72q-18 -9 -38 -9q-49 0 -70 44q-8 18 -8 37z" glyph-name="l" horiz-adv-x="222" unicode="l"/>
<glyph d="M36 75v382q0 49 40 72q18 9 38 9q51 0 75 -44q2 -3 3 -6q34 52 115 59q10 1 19 1q83 0 134 -52q6 -6 11 -12q66 50 112 60q20 4 39 4q123 0 170 -84q24 -42 24 -100v-289q0 -49 -40 -72q-18 -9 -38 -9q-49 0 -70 44q-8 18 -8 37v247q0 59 -40 84q-17 10 -38 10 q-52 0 -71 -54q-7 -19 -7 -40v-247q0 -49 -40 -72q-18 -9 -38 -9q-49 0 -70 44q-8 18 -8 37v247q0 59 -40 84q-17 10 -38 10q-52 0 -71 -54q-7 -19 -7 -40v-247q0 -49 -40 -72q-18 -9 -38 -9q-49 0 -70 44q-8 18 -8 37z" glyph-name="m" horiz-adv-x="852" unicode="m"/>
<glyph d="M36 75v382q0 49 40 72q18 9 38 9q51 0 75 -44q2 -3 3 -6q40 60 134 60q123 0 170 -84q24 -42 24 -100v-289q0 -49 -40 -72q-18 -9 -38 -9q-49 0 -70 44q-8 18 -8 37v247q0 64 -48 86q-18 8 -38 8q-59 0 -79 -53q-7 -19 -7 -41v-247q0 -49 -40 -72q-18 -9 -38 -9 q-49 0 -70 44q-8 18 -8 37z" glyph-name="n" unicode="n"/>
<glyph d="M278 548q128 0 203 -97q60 -78 60 -185q0 -131 -84 -212q-73 -70 -179 -70q-128 0 -203 97q-60 78 -60 185q0 131 84 212q73 70 179 70zM278 398q-68 0 -95 -67q-12 -30 -12 -65q0 -80 51 -115q25 -17 56 -17q68 0 95 67q12 30 12 65q0 80 -51 115q-25 17 -56 17z" glyph-name="o" unicode="o"/>
<glyph d="M33 -141v598q0 49 40 72q18 9 38 9q50 -2 73 -50q53 59 134 60q106 0 177 -89q64 -81 64 -193q0 -128 -80 -211q-68 -71 -161 -71q-76 1 -129 44v-169q0 -49 -40 -72q-18 -9 -38 -9q-49 0 -70 44q-8 18 -8 37zM296 134q68 0 95 67q12 30 12 65q0 80 -51 115 q-25 17 -56 17q-68 0 -95 -67q-12 -30 -12 -65q0 -80 51 -115q25 -17 56 -17z" glyph-name="p" horiz-adv-x="574" unicode="p"/>
<glyph d="M171 266q0 -80 51 -115q25 -17 56 -17q68 0 95 67q12 30 12 65q0 80 -51 115q-25 17 -56 17q-68 0 -95 -67q-12 -30 -12 -65zM541 457v-598q0 -49 -40 -72q-18 -9 -38 -9q-49 0 -70 44q-8 18 -8 37v169q-55 -44 -129 -44q-106 0 -177 89q-64 81 -64 193q0 128 80 211 q68 71 161 71q83 0 131 -56q2 -3 3 -4q26 49 73 50q49 0 70 -44q8 -18 8 -37z" glyph-name="q" horiz-adv-x="574" unicode="q"/>
<glyph d="M36 75v382q0 49 40 72q18 9 38 9q51 0 75 -44q2 -3 3 -6q51 59 108 60q44 0 67 -37q13 -20 13 -44q0 -46 -48 -67q-16 -7 -50 -17q-60 -18 -76 -44q-14 -24 -14 -74v-190q0 -49 -40 -72q-18 -9 -38 -9q-49 0 -70 44q-8 18 -8 37z" glyph-name="r" horiz-adv-x="352" unicode="r"/>
<glyph d="M9 92q0 49 37 68q13 7 27 7q22 0 69 -23q46 -22 81 -22q42 2 44 31q0 21 -29 34q-10 5 -39 16q-33 13 -53 21q-80 33 -104 70q-19 31 -19 77q0 78 64 131q57 46 137 46q75 0 131 -35q48 -31 49 -76q0 -45 -39 -61q-12 -5 -26 -5q-13 0 -61 22q-39 17 -64 17 q-36 0 -40 -27q-1 -3 -1 -6q0 -21 51 -41q8 -3 26 -10q91 -33 126 -66q41 -41 41 -101q0 -96 -83 -145q-52 -30 -117 -30q-104 0 -167 43q-40 28 -41 65z" glyph-name="s" horiz-adv-x="426" unicode="s"/>
<glyph d="M76 75v313h-18q-81 2 -82 72q2 71 82 72h18v102q0 49 40 72q18 9 38 9q49 0 70 -44q8 -18 8 -37v-102h43q81 -2 82 -72q-2 -71 -82 -72h-43v-313q0 -49 -40 -72q-18 -9 -38 -9q-49 0 -70 44q-8 18 -8 37z" glyph-name="t" horiz-adv-x="333" unicode="t"/>
<glyph d="M520 457v-265q0 -131 -113 -182q-57 -26 -129 -26q-137 0 -201 81q-41 52 -41 127v265q0 49 40 72q18 9 38 9q49 0 70 -44q8 -18 8 -37v-243q0 -59 52 -80q17 -6 34 -6q51 0 74 40q12 20 12 46v243q0 49 40 72q18 9 38 9q49 0 70 -44q8 -18 8 -37z" glyph-name="u" unicode="u"/>
<glyph d="M146 57l-127 316q-24 60 -24 87q0 44 39 67q19 11 39 11q51 0 71 -50q2 -5 4 -9l83 -236h2l83 236q25 57 75 59q44 0 67 -39q11 -19 11 -39q0 -28 -24 -87l-127 -316q-27 -62 -86 -63q-60 1 -86 63z" glyph-name="v" horiz-adv-x="464" unicode="v"/>
<glyph d="M128 71l-109 305q-22 60 -24 87q0 51 44 69q16 6 35 6q58 -1 74 -55l76 -253h2l70 219q19 60 42 76q18 13 42 13q20 0 34.5 -7t24 -22.5t14 -27t11.5 -32.5l70 -219h2l76 253q18 53 74 55q59 0 75 -48q4 -13 4 -27q-2 -28 -24 -86v-1l-109 -305q-23 -64 -70 -74 q-13 -3 -27 -3q-54 0 -78 45q-7 15 -15 37l-61 184h-2l-61 -184q-20 -60 -51 -74q-18 -8 -42 -8q-62 0 -89 56q-4 10 -8 21z" glyph-name="w" horiz-adv-x="760" unicode="w"/>
<glyph d="M23 139l133 141l-81 86q-49 52 -56 68q-4 11 -4 23q0 51 43 73q16 8 32 8q42 0 67 -27q5 -5 10 -11l83 -103l83 103q27 34 61 37q8 1 16 1q42 0 64 -38q11 -20 11 -43q0 -25 -28 -57q-9 -9 -32 -34l-81 -86l133 -141q29 -40 31 -67q0 -51 -45 -71q-17 -7 -35 -7 q-34 0 -66 36q-2 3 -3 4l-109 127l-109 -127q-31 -36 -59 -39q-6 -1 -10 -1q-49 0 -71 40q-9 18 -9 38q1 33 31 67z" glyph-name="x" horiz-adv-x="500" unicode="x"/>
<glyph d="M114 -66l52 117l-133 317q-33 77 -33 97q0 48 43 66q16 7 33 7q57 -1 80 -59l92 -238l87 212q29 70 64 82q10 3 21 3q56 0 74 -46q6 -16 6 -33q0 -26 -19 -68l-231 -539q-21 -48 -38 -61q-19 -13 -47 -13q-54 0 -72 46q-5 13 -5 24q0 27 26 85v1z" glyph-name="y" horiz-adv-x="500" unicode="y"/>
<glyph d="M19 113l200 275h-137q-81 2 -82 72q2 71 82 72h300q40 -1 59 -19q14 -15 14 -37q-1 -18 -20 -45l-214 -287h165q81 -2 82 -72q-2 -71 -82 -72h-316q-33 0 -52 11q-23 15 -23 44q1 26 24 58z" glyph-name="z" horiz-adv-x="463" unicode="z"/>
<glyph d="M98 -37v203q0 60 -36 65q-6 1 -12 1q-38 0 -46 35q-2 7 -2 13q0 36 31 46q9 2 17 2q35 0 44 30q4 15 4 36v203q2 130 133 131h74q39 0 44 -36q1 -5 1 -9q0 -39 -37 -44q-4 -1 -8 -1h-25q-43 -2 -44 -58v-198q0 -88 -94 -100q-6 0 -14 -1v-2q77 -7 98 -52q10 -21 10 -49 v-198q1 -57 44 -58h25q39 0 44 -36q1 -5 1 -9q0 -39 -37 -44q-4 -1 -8 -1h-74q-132 2 -133 131z" glyph-name="braceleft" horiz-adv-x="352" unicode="{"/>
<glyph d="M51 -250v1000q0 50 40 62q10 3 20 3q48 0 58 -46q2 -10 2 -19v-1000q0 -50 -40 -62q-10 -3 -20 -3q-48 0 -58 46q-2 10 -2 19z" glyph-name="bar" horiz-adv-x="222" unicode="|"/>
<glyph d="M254 597v-203q0 -60 36 -65q6 -1 12 -1q38 0 46 -35q2 -7 2 -13q0 -36 -31 -46q-9 -2 -17 -2q-35 0 -44 -30q-4 -15 -4 -36v-203q-2 -130 -133 -131h-74q-39 0 -44 36q-1 5 -1 9q0 39 37 44q4 1 8 1h25q43 2 44 58v198q0 88 94 100q6 0 14 1v2q-77 7 -98 52 q-10 21 -10 49v198q-1 57 -44 58h-25q-39 0 -44 36q-1 5 -1 9q0 39 37 44q4 1 8 1h74q132 -2 133 -131z" glyph-name="braceright" horiz-adv-x="352" unicode="}"/>
<glyph d="M559 321q0 -62 -51 -104q-41 -34 -96 -34q-44 0 -133 40q-61 28 -84 28q-29 0 -62 -31q-31 -28 -49 -29q-42 2 -43 54q0 62 50 105q39 33 91 33q48 0 140 -41q61 -27 83 -27q29 0 62 31q31 28 49 29q42 -2 43 -54z" glyph-name="asciitilde" horiz-adv-x="600" unicode="~"/>
<glyph glyph-name="uni00A0" horiz-adv-x="244" unicode=" "/>
<glyph d="M52 -108v351q0 56 41 79q17 9 37 9q52 0 71 -50q7 -18 7 -38v-351q0 -56 -41 -79q-17 -9 -37 -9q-52 0 -71 50q-7 18 -7 38zM217 461q0 -47 -41 -73q-22 -14 -46 -14q-47 0 -73 41q-14 22 -14 46q0 49 42 74q22 13 45 13q48 0 74 -42q13 -21 13 -45z" glyph-name="exclamdown" horiz-adv-x="260" unicode="¡"/>
<glyph d="M326 138v254q-62 -16 -76 -91q-3 -18 -3 -35q0 -80 51 -115q13 -9 28 -13zM326 -80v64q-121 13 -187 114q-48 73 -48 168q0 132 85 213q63 59 150 69v58q0 21 20 29q5 2 10 2q20 0 28 -20q2 -6 2 -11v-58q110 -8 142 -63q11 -18 11 -40q0 -48 -37 -66q-13 -7 -27 -7 q-16 0 -52 14q-19 7 -37 10v-259q20 3 70 20q12 4 19 4q36 0 55 -36q9 -17 9 -33q0 -59 -85 -92q-33 -12 -68 -16v-64q0 -21 -20 -29q-5 -2 -10 -2q-20 0 -28 20q-2 6 -2 11z" glyph-name="cent" horiz-adv-x="630" unicode="¢"/>
<glyph d="M297 433h88q60 0 79 -47q6 -14 6 -28q0 -45 -41 -65q-20 -10 -44 -10h-66q0 -66 -24 -106q-7 -11 -15 -21h265q60 0 81 -45q7 -16 7 -33q0 -51 -48 -71q-18 -7 -40 -7h-369q-72 0 -91 49q-5 14 -5 29q0 34 26 67q34 43 45 80q8 26 11 58h-63q-60 0 -79 47q-6 14 -6 28 q0 45 41 65q20 10 44 10h33q-22 56 -22 87q0 116 103 172q67 36 161 36q159 0 227 -97q29 -43 29 -85q0 -41 -38 -63q-18 -11 -38 -11q-33 0 -56 34q-27 39 -33 46q-33 32 -91 32q-64 0 -87 -44q-9 -17 -9 -37q1 -20 19 -71v1z" glyph-name="sterling" horiz-adv-x="630" unicode="£"/>
<glyph d="M528 79l-59 60q-47 -42 -133 -42q-88 1 -136 40l-60 -58l-75 75l60 58q-32 44 -39 113q-1 12 -1 23q-1 72 35 128q3 4 5 7l-60 57l78 76l57 -56q37 30 110 38q14 1 26 1q73 0 125 -33q5 -3 8 -6l58 56l76 -75l-58 -58q34 -40 41 -112q1 -12 1 -23q0 -73 -33 -124 q-5 -7 -9 -12l58 -58zM336 455q-55 0 -86 -42q-21 -28 -21 -65q0 -67 58 -95q24 -12 49 -12q55 0 86 42q21 28 21 65q0 67 -58 95q-24 12 -49 12z" glyph-name="currency" horiz-adv-x="668" unicode="¤"/>
<glyph d="M396 182v-102q0 -67 -55 -83q-13 -3 -26 -3q-61 0 -77 54q-4 15 -4 32v102h-144q-29 0 -43 28q-5 11 -5 21q0 28 27 42q11 5 21 5h144v56h-144q-29 0 -43 28q-5 11 -5 21q0 28 27 42q11 5 21 5h76l-72 92q-55 77 -62 96q-5 14 -5 28q0 46 46 64q19 8 40 8q20 0 36.5 -9 t25.5 -19.5t19 -24.5l1 -2l120 -171l120 171q28 39 51 49q15 6 31 6q56 0 78 -40q8 -15 8 -32q0 -28 -30 -72q-8 -11 -37 -52l-72 -92h76q28 0 43 -26q5 -11 5 -21q0 -30 -28 -44q-10 -5 -20 -5h-144v-56h144q28 0 43 -26q5 -11 5 -21q0 -30 -28 -44q-10 -5 -20 -5h-144z " glyph-name="yen" horiz-adv-x="630" unicode="¥"/>
<glyph d="M51 390v220q0 50 40 62q10 3 20 3q48 0 58 -46q2 -10 2 -19v-220q0 -50 -40 -62q-10 -3 -20 -3q-48 0 -58 46q-2 10 -2 19zM51 -110v220q0 50 40 62q10 3 20 3q48 0 58 -46q2 -10 2 -19v-220q0 -50 -40 -62q-10 -3 -20 -3q-48 0 -58 46q-2 10 -2 19z" glyph-name="brokenbar" horiz-adv-x="222" unicode="¦"/>
<glyph d="M58 283q1 98 96 154q-44 38 -50 88q-1 12 -1 26q0 91 76 141q54 36 130 36q98 0 162 -54q45 -40 46 -89q0 -36 -30 -57q-16 -10 -32 -10q-28 0 -63 37q-37 38 -57 47q-15 6 -30 6q-37 0 -49 -28q-3 -8 -3 -16q0 -40 67 -77q15 -9 50 -26q98 -49 135 -86q48 -50 48 -115 q-1 -111 -93 -160q53 -46 54 -98q0 -118 -99 -165q-48 -23 -110 -23q-103 0 -168 53q-45 39 -46 88q0 40 33 57q15 8 32 8q25 0 55 -33q33 -36 55 -45q19 -8 40 -8q47 0 56 32q2 6 2 11q0 36 -69 76q-15 9 -49 27q-103 54 -140 92q-48 51 -48 111zM335 311l-98 58 q-40 -26 -41 -64q0 -28 56 -63q6 -4 25 -15l97 -58q40 26 41 64q0 21 -21 38.5t-58 39.5h-1z" glyph-name="section" horiz-adv-x="611" unicode="§"/>
<glyph d="M227 770q46 0 68 -40q10 -18 10 -38q0 -46 -40 -68q-18 -10 -38 -10q-46 0 -68 40q-10 18 -10 38q0 46 40 68q18 10 38 10zM-5 770q46 0 68 -40q10 -18 10 -38q0 -46 -40 -68q-18 -10 -38 -10q-46 0 -68 40q-10 18 -10 38q0 46 40 68q18 10 38 10z" glyph-name="dieresis" horiz-adv-x="222" unicode="¨"/>
<glyph d="M28 356q0 177 123 283q104 89 249 89q148 0 254 -93q118 -107 118 -279q0 -177 -123 -283q-105 -89 -249 -89q-149 0 -254 93q-118 106 -118 279zM142 356q0 -138 90 -219q71 -63 168 -63q116 0 190 87q68 79 68 195q0 137 -90 218q-71 64 -168 64q-119 0 -193 -89 q-65 -79 -65 -193zM216 359q0 116 76 176q51 39 121 39q90 0 140 -59q25 -31 25 -61q0 -38 -32 -47q-6 -2 -10 -2q-33 0 -51 40q-1 2 -1 3q-20 33 -71 36q-60 0 -81 -65q-8 -26 -8 -58q0 -85 51 -115q18 -11 40 -11q49 1 70 38q20 37 40 43q7 2 15 2q34 0 41 -32q1 -6 1 -12 q0 -34 -39 -74q-54 -54 -128 -55q-104 0 -161 83q-38 56 -38 131z" glyph-name="copyright" horiz-adv-x="800" unicode="©"/>
<glyph d="M361 684v-249q0 -36 -40 -43q-7 -1 -14 -1q-34 2 -47 35q-35 -35 -88 -35q-83 0 -130 68q-31 45 -31 102q0 83 62 133q43 34 99 34q56 -1 88 -35q14 34 47 35q51 -4 54 -44zM253 559q0 45 -35 65q-15 8 -32 8q-44 0 -61 -42q-6 -15 -6 -31q0 -43 33 -63q16 -9 34 -9 q45 0 62 43q5 14 5 29z" glyph-name="ordfeminine" horiz-adv-x="372" unicode="ª"/>
<glyph d="M184 136l-84 61q-40 29 -40 82q1 52 40 82l84 61q29 21 51 21q35 0 48 -33q3 -10 3 -20q-1 -35 -27 -53l-89 -58l89 -59q27 -18 27 -52q0 -36 -30 -49q-11 -4 -21 -4q-23 1 -51 21zM431 136l-84 61q-40 29 -40 82q1 52 40 82l84 61q29 21 51 21q35 0 48 -33q3 -10 3 -20 q-1 -35 -27 -53l-89 -58l89 -59q27 -18 27 -52q0 -36 -30 -49q-11 -4 -21 -4q-23 1 -51 21z" glyph-name="guillemotleft" horiz-adv-x="593" unicode="«"/>
<glyph d="M87 467h416q60 0 73 -31q7 -17 7 -49v-203q0 -53 -41 -67q-11 -3 -22 -3q-47 0 -60 45q-3 12 -3 25v151h-370q-55 0 -67 45q-3 10 -3 21q0 52 48 64q11 2 22 2z" glyph-name="logicalnot" horiz-adv-x="600" unicode="¬"/>
<glyph d="M95 345h236q51 0 63 -44q3 -11 3 -22q0 -51 -44 -63q-11 -3 -22 -3h-236q-51 0 -63 44q-3 11 -3 22q0 51 44 63q11 3 22 3z" glyph-name="uni00AD" horiz-adv-x="426" unicode="­"/>
<glyph d="M14 532q0 104 80 156q48 30 106 30q89 0 144 -64q42 -51 42 -122q0 -103 -80 -155q-48 -31 -106 -31q-90 0 -144 64q-42 51 -42 122zM71 532q0 -82 59 -121q32 -20 70 -20q69 0 106 58q23 37 23 83q0 80 -59 120q-32 21 -70 21q-71 0 -107 -59q-22 -36 -22 -82zM126 458 v151q2 22 22 23h63q65 0 71 -47q1 -7 1 -13q0 -44 -35 -54q-6 -2 -11 -2l35 -47q6 -10 6 -17q0 -13 -15 -16q-3 -1 -6 -1q-14 1 -25 17l-46 64h-15v-58q-2 -22 -23 -23q-20 4 -22 23zM171 596v-44h37q26 2 27 22q-2 21 -27 22h-37z" glyph-name="registered" horiz-adv-x="400" unicode="®"/>
<glyph d="M-9 755h240q50 0 61 -44q2 -10 2 -19q0 -50 -44 -61q-9 -2 -19 -2h-240q-49 0 -60 43q-3 10 -3 20q0 49 42 60q11 3 21 3z" glyph-name="macron" horiz-adv-x="222" unicode="¯"/>
<glyph d="M129 585q0 -40 37 -62q16 -9 34 -9q40 0 62 37q9 16 9 34q0 40 -37 62q-16 9 -34 9q-40 0 -62 -37q-9 -16 -9 -34zM57 585q0 74 58 116q38 27 85 27q74 0 116 -58q27 -38 27 -85q0 -74 -58 -116q-38 -27 -85 -27q-74 0 -116 58q-27 38 -27 85z" glyph-name="degree" horiz-adv-x="400" unicode="°"/>
<glyph d="M87 430h147v66q0 56 46 68q10 2 20 2q52 0 64 -49q2 -10 2 -21v-66h147q55 0 67 -45q3 -10 3 -21q0 -52 -48 -64q-11 -2 -22 -2h-147v-66q0 -56 -46 -68q-10 -2 -20 -2q-52 0 -64 49q-2 10 -2 21v66h-147q-55 0 -67 45q-3 10 -3 21q0 52 48 64q11 2 22 2zM87 132h426 q55 0 67 -45q3 -10 3 -21q0 -52 -48 -64q-11 -2 -22 -2h-426q-55 0 -67 45q-3 10 -3 21q0 52 48 64q11 2 22 2z" glyph-name="plusminus" horiz-adv-x="600" unicode="±"/>
<glyph d="M187 387h110q38 0 46 -34q2 -7 2 -14q0 -36 -32 -46q-8 -2 -16 -2h-220q-40 0 -56 25q-5 9 -5 17q0 28 74 95q81 75 100 98q30 38 31 64q0 27 -32 35q-6 1 -12 1q-30 0 -44 -30q-14 -32 -18 -37q-14 -15 -38 -15q-43 0 -52 35q-1 6 -1 11q0 68 60 109q43 29 100 29 q84 0 127 -56q24 -33 24 -74q0 -64 -82 -146q-10 -10 -30 -29z" glyph-name="twosuperior" horiz-adv-x="361" unicode="²"/>
<glyph d="M37 628q0 57 73 85q37 15 77 15q76 0 117 -49q25 -30 25 -68q-1 -53 -56 -85q69 -27 77 -95q1 -7 1 -14q0 -75 -72 -112q-41 -20 -93 -20q-76 0 -129 47q-34 32 -35 68q0 33 31 43q9 3 18 3q26 0 48 -25q23 -26 45 -32q11 -2 23 -2q32 0 46 28q4 9 4 17q0 31 -35 39 l-18 3q-42 6 -51 23q-4 9 -4 20q0 31 36 42q37 11 41 13q14 10 15 28q-2 25 -41 26q-25 0 -52 -23q-25 -20 -48 -20q-30 0 -40 29q-3 9 -3 16z" glyph-name="threesuperior" horiz-adv-x="373" unicode="³"/>
<glyph d="M253 667l-150 -65q-21 -9 -41 -9q-45 0 -60 41q-5 14 -5 28q1 40 37 55l150 65q21 9 41 9q45 0 60 -41q5 -14 5 -28q-1 -40 -37 -55z" glyph-name="acute" horiz-adv-x="222" unicode="´"/>
<glyph d="M36 -141v598q0 49 40 72q18 9 38 9q49 0 70 -44q8 -18 8 -37v-241q0 -59 52 -80q17 -6 34 -6q59 0 79 53q7 19 7 41v233q0 49 40 72q18 9 38 9q49 0 70 -44q8 -18 8 -37v-382q0 -49 -40 -72q-18 -9 -38 -9q-50 2 -73 50q-41 -50 -89 -50q-60 1 -86 49h-2v-184 q0 -49 -40 -72q-18 -9 -38 -9q-49 0 -70 44q-8 18 -8 37z" glyph-name="mu" unicode="µ"/>
<glyph d="M233 -120v483q-165 0 -209 101q-14 32 -14 70q0 140 141 169q44 9 105 9h254q46 0 57 -40q3 -10 3 -20v-772q0 -46 -40 -57q-10 -3 -20 -3q-46 0 -57 40q-3 10 -3 20v742h-97v-742q0 -46 -40 -57q-10 -3 -20 -3q-46 0 -57 40q-3 10 -3 20z" glyph-name="paragraph" horiz-adv-x="620" unicode="¶"/>
<glyph d="M52 278q0 47 41 73q22 14 46 14q47 0 73 -41q14 -22 14 -46q0 -49 -42 -74q-22 -13 -45 -13q-48 0 -74 42q-13 21 -13 45z" glyph-name="periodcentered" horiz-adv-x="278" unicode="·"/>
<glyph d="M171 0l-39 -52q9 1 24 1q54 0 73 -45q7 -16 7 -35q0 -55 -66 -80q-30 -11 -59 -11q-88 0 -99 38q-1 5 -1 9q0 23 18 32q5 2 9 2q7 0 36 -11q12 -4 20 -4q26 0 33 22q1 5 1 10q0 23 -24 27q-4 1 -7 1h-20q-17 0 -22 17q-1 3 -1 6q0 16 26 47l1 1l21 25h69z" glyph-name="cedilla" horiz-adv-x="222" unicode="¸"/>
<glyph d="M72 342v284h-35q-38 0 -46 34q-2 7 -2 14q0 36 32 46q8 2 16 2h92q45 0 55 -38q2 -8 2 -17v-325q0 -39 -33 -52q-12 -5 -24 -5q-43 0 -54 39q-3 9 -3 18z" glyph-name="onesuperior" horiz-adv-x="252" unicode="¹"/>
<glyph d="M354 561q0 -86 -66 -135q-46 -35 -108 -35q-97 0 -145 72q-29 43 -29 98q0 85 65 133q47 34 109 34q95 0 144 -70q30 -43 30 -97zM114 559q0 -44 34 -64q15 -8 32 -8q44 0 61 43q5 14 5 29q0 45 -34 65q-15 8 -32 8q-44 0 -61 -44q-5 -14 -5 -29z" glyph-name="ordmasculine" horiz-adv-x="360" unicode="º"/>
<glyph d="M409 422l84 -61q40 -29 40 -82q-1 -52 -40 -82l-84 -61q-29 -21 -51 -21q-35 0 -48 33q-3 10 -3 20q1 35 27 53l89 58l-89 59q-27 18 -27 52q0 36 30 49q11 4 21 4q23 -1 51 -21zM162 422l84 -61q40 -29 40 -82q-1 -52 -40 -82l-84 -61q-29 -21 -51 -21q-35 0 -48 33 q-3 10 -3 20q1 35 27 53l89 58l-89 59q-27 18 -27 52q0 36 30 49q11 4 21 4q23 -1 51 -21z" glyph-name="guillemotright" horiz-adv-x="593" unicode="»"/>
<glyph d="M214 114l323 561q25 45 49 51q7 2 13 2q38 0 54 -33q5 -11 5 -23q0 -23 -30 -72q-1 -1 -1 -2l-323 -561q-25 -45 -49 -51q-7 -2 -13 -2q-38 0 -54 33q-5 11 -5 23q0 23 30 72q1 1 1 2zM112 342v284h-35q-38 0 -46 34q-2 7 -2 14q0 36 32 46q8 2 16 2h92q45 0 55 -38 q2 -8 2 -17v-325q0 -39 -33 -52q-12 -5 -24 -5q-43 0 -54 39q-3 9 -3 18zM727 41v43h-173q-47 0 -52 34q-1 4 -1 7q0 4 0.5 8t1.5 7t2.5 7t2.5 6.5t3.5 6.5t3.5 5.5t3 5.5l3 4l155 222q21 36 65 39h15q67 0 82 -50q3 -11 3 -23v-183h28q40 0 46 -38q1 -5 1 -10 q0 -42 -38 -47q-5 -1 -9 -1h-28v-43q0 -39 -43 -46q-8 -1 -15 -1q-48 0 -55 37q-1 5 -1 10zM727 180v127h-2l-85 -127h87z" glyph-name="onequarter" horiz-adv-x="945" unicode="¼"/>
<glyph d="M226 114l323 561q25 45 49 51q7 2 13 2q38 0 54 -33q5 -11 5 -23q0 -23 -30 -72q-1 -1 -1 -2l-323 -561q-25 -45 -49 -51q-7 -2 -13 -2q-38 0 -54 33q-5 11 -5 23q0 23 30 72q1 1 1 2zM125 342v284h-35q-38 0 -46 34q-2 7 -2 14q0 36 32 46q8 2 16 2h92q45 0 55 -38 q2 -8 2 -17v-325q0 -39 -33 -52q-12 -5 -24 -5q-43 0 -54 39q-3 9 -3 18zM745 96h110q38 0 46 -34q2 -7 2 -14q0 -36 -32 -46q-8 -2 -16 -2h-220q-40 0 -56 25q-5 9 -5 17q0 28 74 95q81 75 100 98q30 38 31 64q0 27 -32 35q-6 1 -12 1q-30 0 -44 -30q-14 -32 -18 -37 q-14 -15 -38 -15q-43 0 -52 35q-1 6 -1 11q0 68 60 109q43 29 100 29q84 0 127 -56q24 -33 24 -74q0 -64 -82 -146q-10 -10 -30 -29z" glyph-name="onehalf" horiz-adv-x="945" unicode="½"/>
<glyph d="M268 114l323 561q25 45 49 51q7 2 13 2q38 0 54 -33q5 -11 5 -23q0 -23 -30 -72q-1 -1 -1 -2l-323 -561q-25 -45 -49 -51q-7 -2 -13 -2q-38 0 -54 33q-5 11 -5 23q0 23 30 72q1 1 1 2zM44 628q0 57 73 85q37 15 77 15q76 0 117 -49q25 -30 25 -68q-1 -53 -56 -85 q69 -27 77 -95q1 -7 1 -14q0 -75 -72 -112q-41 -20 -93 -20q-76 0 -129 47q-34 32 -35 68q0 33 31 43q9 3 18 3q26 0 48 -25q23 -26 45 -32q11 -2 23 -2q32 0 46 28q4 9 4 17q0 31 -35 39l-18 3q-42 6 -51 23q-4 9 -4 20q0 31 36 42q37 11 41 13q14 10 15 28q-2 25 -41 26 q-25 0 -52 -23q-25 -20 -48 -20q-30 0 -40 29q-3 9 -3 16zM727 41v43h-173q-47 0 -52 34q-1 4 -1 7q0 4 0.5 8t1.5 7t2.5 7t2.5 6.5t3.5 6.5t3.5 5.5t3 5.5l3 4l155 222q31 32 80 34q67 0 82 -50q3 -11 3 -23v-178h28q40 0 46 -38q1 -5 1 -10q0 -42 -38 -47q-5 -1 -9 -1h-28 v-43q0 -39 -43 -46q-8 -1 -15 -1q-48 0 -55 37q-1 5 -1 10zM727 180v127h-2l-85 -127h87z" glyph-name="threequarters" horiz-adv-x="945" unicode="¾"/>
<glyph d="M345 253v-80q0 -46 -43 -59q-11 -3 -36 -7q-75 -16 -76 -76q0 -36 34 -55q18 -10 39 -10q44 0 75 37q27 33 35 38q20 15 46 15q42 0 63 -39q9 -18 9 -36q0 -87 -91 -140q-65 -37 -137 -37q-118 0 -189 74q-58 60 -58 148q1 172 173 207v20q0 52 44 71q16 7 34 7 q52 0 71 -44q7 -16 7 -34zM354 461q0 -47 -41 -73q-22 -14 -46 -14q-47 0 -73 41q-14 22 -14 46q0 49 42 74q22 13 45 13q48 0 74 -42q13 -21 13 -45z" glyph-name="questiondown" horiz-adv-x="500" unicode="¿"/>
<glyph d="M23 160l156 421q32 88 58 115q31 32 77 32q68 0 105 -70q12 -24 32 -77l156 -421q24 -66 24 -100q0 -46 -46 -61q-15 -5 -32 -5q-51 0 -74 51q-5 12 -11 28l-20 64h-266l-20 -64q-19 -58 -49 -72q-16 -7 -36 -7q-56 0 -73 41q-5 12 -5 25q1 36 24 100zM400 287l-81 261 h-2l-87 -261h170zM242 948l150 -65q36 -16 37 -55q0 -46 -37 -63q-13 -6 -28 -6q-21 0 -41 9l-150 65q-36 16 -37 55q0 46 37 63q13 6 28 6q21 0 41 -9z" glyph-name="Agrave" horiz-adv-x="630" unicode="À"/>
<glyph d="M23 160l156 421q32 88 58 115q31 32 77 32q68 0 105 -70q12 -24 32 -77l156 -421q24 -66 24 -100q0 -46 -46 -61q-15 -5 -32 -5q-51 0 -74 51q-5 12 -11 28l-20 64h-266l-20 -64q-19 -58 -49 -72q-16 -7 -36 -7q-56 0 -73 41q-5 12 -5 25q1 36 24 100zM400 287l-81 261 h-2l-87 -261h170zM457 833l-150 -65q-21 -9 -41 -9q-45 0 -60 41q-5 14 -5 28q1 40 37 55l150 65q21 9 41 9q45 0 60 -41q5 -14 5 -28q-1 -40 -37 -55z" glyph-name="Aacute" horiz-adv-x="630" unicode="Á"/>
<glyph d="M23 160l156 421q32 88 58 115q31 32 77 32q68 0 105 -70q12 -24 32 -77l156 -421q24 -66 24 -100q0 -46 -46 -61q-15 -5 -32 -5q-51 0 -74 51q-5 12 -11 28l-20 64h-266l-20 -64q-19 -58 -49 -72q-16 -7 -36 -7q-56 0 -73 41q-5 12 -5 25q1 36 24 100zM400 287l-81 261 h-2l-87 -261h170zM315 818l-96 -44q-34 -15 -54 -15q-30 0 -46 31q-7 14 -7 29q0 43 29 63q10 7 24 13l88 40q50 22 62 22q13 0 62 -22l88 -40q41 -19 49 -45q4 -13 4 -31q0 -37 -31 -54q-11 -6 -22 -6q-21 0 -54 15z" glyph-name="Acircumflex" horiz-adv-x="630" unicode="Â"/>
<glyph d="M23 160l156 421q32 88 58 115q31 32 77 32q68 0 105 -70q12 -24 32 -77l156 -421q24 -66 24 -100q0 -46 -46 -61q-15 -5 -32 -5q-51 0 -74 51q-5 12 -11 28l-20 64h-266l-20 -64q-19 -58 -49 -72q-16 -7 -36 -7q-56 0 -73 41q-5 12 -5 25q1 36 24 100zM400 287l-81 261 h-2l-87 -261h170zM102 823q0 51 42 86q28 23 59 23q43 0 120 -31q41 -16 59 -16q20 0 45 24q24 22 43 23q41 0 54 -40q4 -12 4 -24q0 -51 -42 -86q-28 -23 -59 -23q-43 0 -120 31q-41 16 -59 16q-20 0 -45 -24q-24 -22 -43 -23q-41 0 -54 40q-4 12 -4 24z" glyph-name="Atilde" horiz-adv-x="630" unicode="Ã"/>
<glyph d="M23 160l156 421q32 88 58 115q31 32 77 32q68 0 105 -70q12 -24 32 -77l156 -421q24 -66 24 -100q0 -46 -46 -61q-15 -5 -32 -5q-51 0 -74 51q-5 12 -11 28l-20 64h-266l-20 -64q-19 -58 -49 -72q-16 -7 -36 -7q-56 0 -73 41q-5 12 -5 25q1 36 24 100zM400 287l-81 261 h-2l-87 -261h170zM431 936q46 0 68 -40q10 -18 10 -38q0 -46 -40 -68q-18 -10 -38 -10q-46 0 -68 40q-10 18 -10 38q0 46 40 68q18 10 38 10zM199 936q46 0 68 -40q10 -18 10 -38q0 -46 -40 -68q-18 -10 -38 -10q-46 0 -68 40q-10 18 -10 38q0 46 40 68q18 10 38 10z" glyph-name="Adieresis" horiz-adv-x="630" unicode="Ä"/>
<glyph d="M23 160l156 421q32 88 58 115q31 32 77 32q68 0 105 -70q12 -24 32 -77l156 -421q24 -66 24 -100q0 -46 -46 -61q-15 -5 -32 -5q-51 0 -74 51q-5 12 -11 28l-20 64h-266l-20 -64q-19 -58 -49 -72q-16 -7 -36 -7q-56 0 -73 41q-5 12 -5 25q1 36 24 100zM400 287l-81 261 h-2l-87 -261h170zM216 847q0 53 45 83q26 16 54 16q53 0 83 -45q16 -26 16 -54q0 -53 -45 -83q-26 -16 -54 -16q-53 0 -83 45q-16 26 -16 54zM270 847q0 -28 27 -41q9 -4 18 -4q28 0 41 27q4 9 4 18q0 28 -27 41q-9 4 -18 4q-28 0 -41 -27q-4 -9 -4 -18z" glyph-name="Aring" horiz-adv-x="630" unicode="Å"/>
<glyph d="M21 145l291 495q31 54 67 65q23 7 71 7h306q61 0 77 -49q4 -13 4 -26q0 -60 -56 -73q-12 -2 -25 -2h-167v-129h153q64 0 78 -51q3 -12 3 -24q0 -58 -53 -72q-14 -3 -28 -3h-153v-133h174q66 0 79 -54q2 -10 2 -21q0 -55 -50 -71q-15 -4 -31 -4h-255q-49 0 -71 40 q-10 18 -10 41v56h-227l-31 -62q-25 -52 -44 -66q-21 -15 -55 -15q-48 0 -65 44q-6 16 -6 35q0 35 22 72zM427 287v273h-2l-144 -273h146z" glyph-name="AE" horiz-adv-x="852" unicode="Æ"/>
<glyph d="M357 -15l-27 -37q9 1 24 1q54 0 73 -45q7 -16 7 -35q0 -55 -66 -80q-30 -11 -59 -11q-88 0 -99 38q-1 5 -1 9q0 23 18 32q5 2 9 2q7 0 36 -11q12 -4 20 -4q26 0 33 22q1 5 1 10q0 23 -24 27q-4 1 -7 1h-20q-17 0 -22 17q-1 3 -1 6q0 16 26 47l1 1l13 17q-148 28 -221 159 q-50 91 -50 205q0 174 107 278q98 94 246 94q132 0 187 -51q28 -27 28 -62q0 -45 -35 -67q-17 -10 -35 -10q-15 0 -65 19q-43 15 -76 15q-120 0 -164 -110q-19 -48 -19 -106q0 -115 66 -173q43 -37 103 -37q61 0 118 23q25 10 41 10q61 0 71 -59q1 -9 1 -16q0 -72 -109 -104 q-55 -16 -115 -16q-10 0 -14 1z" glyph-name="Ccedilla" horiz-adv-x="593" unicode="Ç"/>
<glyph d="M39 81v550q0 54 47 74q16 7 34 7h248q61 0 77 -49q4 -13 4 -26q0 -60 -56 -73q-12 -2 -25 -2h-167v-129h153q64 0 78 -51q3 -12 3 -24q0 -58 -53 -72q-14 -3 -28 -3h-153v-133h173q66 0 79 -54q2 -10 2 -21q0 -55 -50 -71q-15 -4 -31 -4h-254q-49 0 -71 40q-10 18 -10 41 zM159 948l150 -65q36 -16 37 -55q0 -46 -37 -63q-13 -6 -28 -6q-21 0 -41 9l-150 65q-36 16 -37 55q0 46 37 63q13 6 28 6q21 0 41 -9z" glyph-name="Egrave" horiz-adv-x="463" unicode="È"/>
<glyph d="M39 81v550q0 54 47 74q16 7 34 7h248q61 0 77 -49q4 -13 4 -26q0 -60 -56 -73q-12 -2 -25 -2h-167v-129h153q64 0 78 -51q3 -12 3 -24q0 -58 -53 -72q-14 -3 -28 -3h-153v-133h173q66 0 79 -54q2 -10 2 -21q0 -55 -50 -71q-15 -4 -31 -4h-254q-49 0 -71 40q-10 18 -10 41 zM374 833l-150 -65q-21 -9 -41 -9q-45 0 -60 41q-5 14 -5 28q1 40 37 55l150 65q21 9 41 9q45 0 60 -41q5 -14 5 -28q-1 -40 -37 -55z" glyph-name="Eacute" horiz-adv-x="463" unicode="É"/>
<glyph d="M39 81v550q0 54 47 74q16 7 34 7h248q61 0 77 -49q4 -13 4 -26q0 -60 -56 -73q-12 -2 -25 -2h-167v-129h153q64 0 78 -51q3 -12 3 -24q0 -58 -53 -72q-14 -3 -28 -3h-153v-133h173q66 0 79 -54q2 -10 2 -21q0 -55 -50 -71q-15 -4 -31 -4h-254q-49 0 -71 40q-10 18 -10 41 zM232 818l-96 -44q-34 -15 -54 -15q-30 0 -46 31q-7 14 -7 29q0 43 29 63q10 7 24 13l88 40q50 22 62 22q13 0 62 -22l88 -40q41 -19 49 -45q4 -13 4 -31q0 -37 -31 -54q-11 -6 -22 -6q-21 0 -54 15z" glyph-name="Ecircumflex" horiz-adv-x="463" unicode="Ê"/>
<glyph d="M39 81v550q0 54 47 74q16 7 34 7h248q61 0 77 -49q4 -13 4 -26q0 -60 -56 -73q-12 -2 -25 -2h-167v-129h153q64 0 78 -51q3 -12 3 -24q0 -58 -53 -72q-14 -3 -28 -3h-153v-133h173q66 0 79 -54q2 -10 2 -21q0 -55 -50 -71q-15 -4 -31 -4h-254q-49 0 -71 40q-10 18 -10 41 zM348 936q46 0 68 -40q10 -18 10 -38q0 -46 -40 -68q-18 -10 -38 -10q-46 0 -68 40q-10 18 -10 38q0 46 40 68q18 10 38 10zM116 936q46 0 68 -40q10 -18 10 -38q0 -46 -40 -68q-18 -10 -38 -10q-46 0 -68 40q-10 18 -10 38q0 46 40 68q18 10 38 10z" glyph-name="Edieresis" horiz-adv-x="463" unicode="Ë"/>
<glyph d="M201 632v-552q0 -67 -55 -83q-13 -3 -26 -3q-61 0 -77 54q-4 15 -4 32v552q0 67 55 83q13 3 26 3q61 0 77 -54q4 -15 4 -32zM47 948l150 -65q36 -16 37 -55q0 -46 -37 -63q-13 -6 -28 -6q-21 0 -41 9l-150 65q-36 16 -37 55q0 46 37 63q13 6 28 6q21 0 41 -9z" glyph-name="Igrave" horiz-adv-x="240" unicode="Ì"/>
<glyph d="M201 632v-552q0 -67 -55 -83q-13 -3 -26 -3q-61 0 -77 54q-4 15 -4 32v552q0 67 55 83q13 3 26 3q61 0 77 -54q4 -15 4 -32zM262 833l-150 -65q-21 -9 -41 -9q-45 0 -60 41q-5 14 -5 28q1 40 37 55l150 65q21 9 41 9q45 0 60 -41q5 -14 5 -28q-1 -40 -37 -55z" glyph-name="Iacute" horiz-adv-x="240" unicode="Í"/>
<glyph d="M201 632v-552q0 -67 -55 -83q-13 -3 -26 -3q-61 0 -77 54q-4 15 -4 32v552q0 67 55 83q13 3 26 3q61 0 77 -54q4 -15 4 -32zM120 818l-96 -44q-34 -15 -54 -15q-30 0 -46 31q-7 14 -7 29q0 43 29 63q10 7 24 13l88 40q50 22 62 22q13 0 62 -22l88 -40q41 -19 49 -45 q4 -13 4 -31q0 -37 -31 -54q-11 -6 -22 -6q-21 0 -54 15z" glyph-name="Icircumflex" horiz-adv-x="240" unicode="Î"/>
<glyph d="M201 632v-552q0 -67 -55 -83q-13 -3 -26 -3q-61 0 -77 54q-4 15 -4 32v552q0 67 55 83q13 3 26 3q61 0 77 -54q4 -15 4 -32zM236 936q46 0 68 -40q10 -18 10 -38q0 -46 -40 -68q-18 -10 -38 -10q-46 0 -68 40q-10 18 -10 38q0 46 40 68q18 10 38 10zM4 936q46 0 68 -40 q10 -18 10 -38q0 -46 -40 -68q-18 -10 -38 -10q-46 0 -68 40q-10 18 -10 38q0 46 40 68q18 10 38 10z" glyph-name="Idieresis" horiz-adv-x="240" unicode="Ï"/>
<glyph d="M39 81v217h-27q-49 0 -60 43q-3 10 -3 20q0 49 42 60q10 3 21 3h27v207q0 54 47 74q16 7 34 7h194q162 0 256 -120q76 -97 76 -231q0 -184 -118 -285q-90 -76 -214 -76h-194q-49 0 -71 40q-10 18 -10 41zM201 562v-138h82q50 0 61 -44q2 -10 2 -19q0 -50 -44 -61 q-9 -2 -19 -2h-82v-148h86q131 0 171 115q14 43 14 96q0 134 -89 181q-39 20 -89 20h-93z" glyph-name="Eth" horiz-adv-x="667" unicode="Ð"/>
<glyph d="M39 80v552q0 67 55 83q13 3 26 3q30 0 49 -15.5t63 -71.5l269 -337h2v338q0 67 55 83q13 3 26 3q61 0 77 -54q4 -15 4 -32v-552q0 -67 -55 -83q-13 -3 -26 -3q-36 0 -64 29q-15 15 -48 58l-269 337h-2v-338q0 -67 -55 -83q-13 -3 -26 -3q-61 0 -77 54q-4 15 -4 32z M139 823q0 51 42 86q28 23 59 23q43 0 120 -31q41 -16 59 -16q20 0 45 24q24 22 43 23q41 0 54 -40q4 -12 4 -24q0 -51 -42 -86q-28 -23 -59 -23q-43 0 -120 31q-41 16 -59 16q-20 0 -45 -24q-24 -22 -43 -23q-41 0 -54 40q-4 12 -4 24z" glyph-name="Ntilde" horiz-adv-x="704" unicode="Ñ"/>
<glyph d="M371 728q174 0 270 -120q80 -100 80 -252q0 -188 -116 -291q-94 -81 -234 -81q-174 0 -270 120q-80 100 -80 252q0 188 116 291q94 81 234 81zM371 578q-113 0 -156 -109q-20 -51 -20 -113q0 -125 69 -184q44 -38 107 -38q113 0 156 109q20 51 20 113q0 125 -69 184 q-44 38 -107 38zM298 948l150 -65q36 -16 37 -55q0 -46 -37 -63q-13 -6 -28 -6q-21 0 -41 9l-150 65q-36 16 -37 55q0 46 37 63q13 6 28 6q21 0 41 -9z" glyph-name="Ograve" horiz-adv-x="742" unicode="Ò"/>
<glyph d="M371 728q174 0 270 -120q80 -100 80 -252q0 -188 -116 -291q-94 -81 -234 -81q-174 0 -270 120q-80 100 -80 252q0 188 116 291q94 81 234 81zM371 578q-113 0 -156 -109q-20 -51 -20 -113q0 -125 69 -184q44 -38 107 -38q113 0 156 109q20 51 20 113q0 125 -69 184 q-44 38 -107 38zM513 833l-150 -65q-21 -9 -41 -9q-45 0 -60 41q-5 14 -5 28q1 40 37 55l150 65q21 9 41 9q45 0 60 -41q5 -14 5 -28q-1 -40 -37 -55z" glyph-name="Oacute" horiz-adv-x="742" unicode="Ó"/>
<glyph d="M371 728q174 0 270 -120q80 -100 80 -252q0 -188 -116 -291q-94 -81 -234 -81q-174 0 -270 120q-80 100 -80 252q0 188 116 291q94 81 234 81zM371 578q-113 0 -156 -109q-20 -51 -20 -113q0 -125 69 -184q44 -38 107 -38q113 0 156 109q20 51 20 113q0 125 -69 184 q-44 38 -107 38zM371 818l-96 -44q-34 -15 -54 -15q-30 0 -46 31q-7 14 -7 29q0 43 29 63q10 7 24 13l88 40q50 22 62 22q13 0 62 -22l88 -40q41 -19 49 -45q4 -13 4 -31q0 -37 -31 -54q-11 -6 -22 -6q-21 0 -54 15z" glyph-name="Ocircumflex" horiz-adv-x="742" unicode="Ô"/>
<glyph d="M371 728q174 0 270 -120q80 -100 80 -252q0 -188 -116 -291q-94 -81 -234 -81q-174 0 -270 120q-80 100 -80 252q0 188 116 291q94 81 234 81zM371 578q-113 0 -156 -109q-20 -51 -20 -113q0 -125 69 -184q44 -38 107 -38q113 0 156 109q20 51 20 113q0 125 -69 184 q-44 38 -107 38zM158 823q0 51 42 86q28 23 59 23q43 0 120 -31q41 -16 59 -16q20 0 45 24q24 22 43 23q41 0 54 -40q4 -12 4 -24q0 -51 -42 -86q-28 -23 -59 -23q-43 0 -120 31q-41 16 -59 16q-20 0 -45 -24q-24 -22 -43 -23q-41 0 -54 40q-4 12 -4 24z" glyph-name="Otilde" horiz-adv-x="742" unicode="Õ"/>
<glyph d="M371 728q174 0 270 -120q80 -100 80 -252q0 -188 -116 -291q-94 -81 -234 -81q-174 0 -270 120q-80 100 -80 252q0 188 116 291q94 81 234 81zM371 578q-113 0 -156 -109q-20 -51 -20 -113q0 -125 69 -184q44 -38 107 -38q113 0 156 109q20 51 20 113q0 125 -69 184 q-44 38 -107 38zM487 936q46 0 68 -40q10 -18 10 -38q0 -46 -40 -68q-18 -10 -38 -10q-46 0 -68 40q-10 18 -10 38q0 46 40 68q18 10 38 10zM255 936q46 0 68 -40q10 -18 10 -38q0 -46 -40 -68q-18 -10 -38 -10q-46 0 -68 40q-10 18 -10 38q0 46 40 68q18 10 38 10z" glyph-name="Odieresis" horiz-adv-x="742" unicode="Ö"/>
<glyph d="M162 510l138 -137l138 137q21 20 41 20q19 -1 45 -24q22 -22 23 -49q-1 -18 -19 -37l-138 -137l138 -138q19 -20 19 -40q-1 -24 -23 -46q-24 -23 -48 -23q-19 1 -38 19l-138 138l-138 -138q-19 -18 -38 -19q-24 1 -48 23q-24 25 -23 45q1 23 18 41l138 138l-138 137 q-17 19 -18 38q1 25 23 48q25 24 46 24q20 -1 40 -20z" glyph-name="multiply" horiz-adv-x="600" unicode="×"/>
<glyph d="M213 251l263 291q-43 36 -105 36q-113 0 -156 -109q-20 -51 -20 -113q0 -60 18 -105zM529 463l-264 -292q43 -37 106 -37q113 0 156 109q20 51 20 113q0 59 -18 107zM30 50l61 67q-70 97 -70 239q0 188 116 291q94 81 234 81q127 -1 214 -66l62 69q22 24 42 25 q35 0 45 -28q2 -7 2 -13q-1 -25 -24 -50l-62 -68q71 -99 71 -241q0 -188 -116 -291q-94 -81 -234 -81q-128 1 -215 67l-61 -67q-22 -24 -42 -25q-35 0 -45 28q-2 7 -2 13q1 25 24 50z" glyph-name="Oslash" horiz-adv-x="742" unicode="Ø"/>
<glyph d="M196 632v-346q0 -93 73 -130q33 -16 73 -16q84 0 124 62q23 36 23 84v346q0 67 55 83q13 3 26 3q61 0 77 -54q4 -15 4 -32v-346q0 -159 -111 -242q-82 -60 -198 -60q-156 0 -242 102q-66 80 -66 200v346q0 67 55 83q13 3 26 3q61 0 77 -54q4 -15 4 -32zM270 948l150 -65 q36 -16 37 -55q0 -46 -37 -63q-13 -6 -28 -6q-21 0 -41 9l-150 65q-36 16 -37 55q0 46 37 63q13 6 28 6q21 0 41 -9z" glyph-name="Ugrave" horiz-adv-x="685" unicode="Ù"/>
<glyph d="M196 632v-346q0 -93 73 -130q33 -16 73 -16q84 0 124 62q23 36 23 84v346q0 67 55 83q13 3 26 3q61 0 77 -54q4 -15 4 -32v-346q0 -159 -111 -242q-82 -60 -198 -60q-156 0 -242 102q-66 80 -66 200v346q0 67 55 83q13 3 26 3q61 0 77 -54q4 -15 4 -32zM485 833l-150 -65 q-21 -9 -41 -9q-45 0 -60 41q-5 14 -5 28q1 40 37 55l150 65q21 9 41 9q45 0 60 -41q5 -14 5 -28q-1 -40 -37 -55z" glyph-name="Uacute" horiz-adv-x="685" unicode="Ú"/>
<glyph d="M196 632v-346q0 -93 73 -130q33 -16 73 -16q84 0 124 62q23 36 23 84v346q0 67 55 83q13 3 26 3q61 0 77 -54q4 -15 4 -32v-346q0 -159 -111 -242q-82 -60 -198 -60q-156 0 -242 102q-66 80 -66 200v346q0 67 55 83q13 3 26 3q61 0 77 -54q4 -15 4 -32zM343 818l-96 -44 q-34 -15 -54 -15q-30 0 -46 31q-7 14 -7 29q0 43 29 63q10 7 24 13l88 40q50 22 62 22q13 0 62 -22l88 -40q41 -19 49 -45q4 -13 4 -31q0 -37 -31 -54q-11 -6 -22 -6q-21 0 -54 15z" glyph-name="Ucircumflex" horiz-adv-x="685" unicode="Û"/>
<glyph d="M196 632v-346q0 -93 73 -130q33 -16 73 -16q84 0 124 62q23 36 23 84v346q0 67 55 83q13 3 26 3q61 0 77 -54q4 -15 4 -32v-346q0 -159 -111 -242q-82 -60 -198 -60q-156 0 -242 102q-66 80 -66 200v346q0 67 55 83q13 3 26 3q61 0 77 -54q4 -15 4 -32zM459 936 q46 0 68 -40q10 -18 10 -38q0 -46 -40 -68q-18 -10 -38 -10q-46 0 -68 40q-10 18 -10 38q0 46 40 68q18 10 38 10zM227 936q46 0 68 -40q10 -18 10 -38q0 -46 -40 -68q-18 -10 -38 -10q-46 0 -68 40q-10 18 -10 38q0 46 40 68q18 10 38 10z" glyph-name="Udieresis" horiz-adv-x="685" unicode="Ü"/>
<glyph d="M188 80v254l-140 188q-55 77 -62 96q-5 14 -5 28q0 46 46 64q19 8 40 8q20 0 36.5 -9t25.5 -19.5t19 -24.5l1 -2l120 -171l120 171q28 39 51 49q15 6 31 6q56 0 78 -40q8 -15 8 -32q0 -28 -30 -72q-8 -11 -37 -52l-140 -188v-254q0 -67 -55 -83q-13 -3 -26 -3 q-61 0 -77 54q-4 15 -4 32zM411 833l-150 -65q-21 -9 -41 -9q-45 0 -60 41q-5 14 -5 28q1 40 37 55l150 65q21 9 41 9q45 0 60 -41q5 -14 5 -28q-1 -40 -37 -55z" glyph-name="Yacute" horiz-adv-x="538" unicode="Ý"/>
<glyph d="M201 462v-194h87q69 0 96 53q11 21 11 44q0 74 -69 92q-18 5 -38 5h-87zM39 80v552q0 73 62 84q10 2 19 2q66 0 78 -60q3 -12 3 -26v-26h118q113 0 183 -74q61 -66 61 -167q0 -131 -89 -196q-61 -45 -150 -45h-123v-44q0 -73 -62 -84q-10 -2 -19 -2q-66 0 -78 60 q-3 12 -3 26z" glyph-name="Thorn" horiz-adv-x="574" unicode="Þ"/>
<glyph d="M36 75v458q0 119 86 187q64 50 151 50q123 0 186 -84q41 -55 41 -130q0 -74 -50 -120q-7 -6 -14 -11q92 -35 114 -139q5 -26 5 -54q0 -113 -83 -188q-67 -60 -150 -60q-68 0 -85 48q-4 13 -4 26q0 60 67 75q7 1 13 2q45 7 69 56q11 24 11 46q0 80 -75 97q-4 1 -7 2 q-66 12 -79 45q-6 14 -6 33q0 47 40 63q6 2 19 7q40 13 51 32q8 15 8 38q0 46 -41 61q-13 5 -28 5q-82 -2 -83 -118v-427q0 -49 -40 -72q-18 -9 -38 -9q-49 0 -70 44q-8 18 -8 37z" glyph-name="germandbls" horiz-adv-x="574" unicode="ß"/>
<glyph d="M541 457v-382q0 -49 -40 -72q-18 -9 -38 -9q-50 2 -73 50q-53 -59 -134 -60q-106 0 -177 89q-64 81 -64 193q0 128 80 211q68 71 161 71q83 0 131 -56q2 -3 3 -4q25 48 73 50q49 0 70 -44q8 -18 8 -37zM278 398q-68 0 -95 -67q-12 -30 -12 -65q0 -80 51 -115 q25 -17 56 -17q68 0 95 67q12 30 12 65q0 80 -51 115q-25 17 -56 17zM214 782l150 -65q36 -16 37 -55q0 -46 -37 -63q-13 -6 -28 -6q-21 0 -41 9l-150 65q-36 16 -37 55q0 46 37 63q13 6 28 6q21 0 41 -9z" glyph-name="agrave" horiz-adv-x="574" unicode="à"/>
<glyph d="M541 457v-382q0 -49 -40 -72q-18 -9 -38 -9q-50 2 -73 50q-53 -59 -134 -60q-106 0 -177 89q-64 81 -64 193q0 128 80 211q68 71 161 71q83 0 131 -56q2 -3 3 -4q25 48 73 50q49 0 70 -44q8 -18 8 -37zM278 398q-68 0 -95 -67q-12 -30 -12 -65q0 -80 51 -115 q25 -17 56 -17q68 0 95 67q12 30 12 65q0 80 -51 115q-25 17 -56 17zM429 667l-150 -65q-21 -9 -41 -9q-45 0 -60 41q-5 14 -5 28q1 40 37 55l150 65q21 9 41 9q45 0 60 -41q5 -14 5 -28q-1 -40 -37 -55z" glyph-name="aacute" horiz-adv-x="574" unicode="á"/>
<glyph d="M541 457v-382q0 -49 -40 -72q-18 -9 -38 -9q-50 2 -73 50q-53 -59 -134 -60q-106 0 -177 89q-64 81 -64 193q0 128 80 211q68 71 161 71q83 0 131 -56q2 -3 3 -4q25 48 73 50q49 0 70 -44q8 -18 8 -37zM278 398q-68 0 -95 -67q-12 -30 -12 -65q0 -80 51 -115 q25 -17 56 -17q68 0 95 67q12 30 12 65q0 80 -51 115q-25 17 -56 17zM287 652l-96 -44q-34 -15 -54 -15q-30 0 -46 31q-7 14 -7 29q0 43 29 63q10 7 24 13l88 40q50 22 62 22q13 0 62 -22l88 -40q41 -19 49 -45q4 -13 4 -31q0 -37 -31 -54q-11 -6 -22 -6q-21 0 -54 15z" glyph-name="acircumflex" horiz-adv-x="574" unicode="â"/>
<glyph d="M541 457v-382q0 -49 -40 -72q-18 -9 -38 -9q-50 2 -73 50q-53 -59 -134 -60q-106 0 -177 89q-64 81 -64 193q0 128 80 211q68 71 161 71q83 0 131 -56q2 -3 3 -4q25 48 73 50q49 0 70 -44q8 -18 8 -37zM278 398q-68 0 -95 -67q-12 -30 -12 -65q0 -80 51 -115 q25 -17 56 -17q68 0 95 67q12 30 12 65q0 80 -51 115q-25 17 -56 17zM74 657q0 51 42 86q28 23 59 23q43 0 120 -31q41 -16 59 -16q20 0 45 24q24 22 43 23q41 0 54 -40q4 -12 4 -24q0 -51 -42 -86q-28 -23 -59 -23q-43 0 -120 31q-41 16 -59 16q-20 0 -45 -24 q-24 -22 -43 -23q-41 0 -54 40q-4 12 -4 24z" glyph-name="atilde" horiz-adv-x="574" unicode="ã"/>
<glyph d="M541 457v-382q0 -49 -40 -72q-18 -9 -38 -9q-50 2 -73 50q-53 -59 -134 -60q-106 0 -177 89q-64 81 -64 193q0 128 80 211q68 71 161 71q83 0 131 -56q2 -3 3 -4q25 48 73 50q49 0 70 -44q8 -18 8 -37zM278 398q-68 0 -95 -67q-12 -30 -12 -65q0 -80 51 -115 q25 -17 56 -17q68 0 95 67q12 30 12 65q0 80 -51 115q-25 17 -56 17zM403 770q46 0 68 -40q10 -18 10 -38q0 -46 -40 -68q-18 -10 -38 -10q-46 0 -68 40q-10 18 -10 38q0 46 40 68q18 10 38 10zM171 770q46 0 68 -40q10 -18 10 -38q0 -46 -40 -68q-18 -10 -38 -10 q-46 0 -68 40q-10 18 -10 38q0 46 40 68q18 10 38 10z" glyph-name="adieresis" horiz-adv-x="574" unicode="ä"/>
<glyph d="M541 457v-382q0 -49 -40 -72q-18 -9 -38 -9q-50 2 -73 50q-53 -59 -134 -60q-106 0 -177 89q-64 81 -64 193q0 128 80 211q68 71 161 71q83 0 131 -56q2 -3 3 -4q25 48 73 50q49 0 70 -44q8 -18 8 -37zM278 398q-68 0 -95 -67q-12 -30 -12 -65q0 -80 51 -115 q25 -17 56 -17q68 0 95 67q12 30 12 65q0 80 -51 115q-25 17 -56 17zM188 667q0 53 45 83q26 16 54 16q53 0 83 -45q16 -26 16 -54q0 -53 -45 -83q-26 -16 -54 -16q-53 0 -83 45q-16 26 -16 54zM242 667q0 -28 27 -41q9 -4 18 -4q28 0 41 27q4 9 4 18q0 28 -27 41 q-9 4 -18 4q-28 0 -41 -27q-4 -9 -4 -18z" glyph-name="aring" horiz-adv-x="574" unicode="å"/>
<glyph d="M541 322h214q0 36 -35 67q-32 27 -72 27q-59 0 -92 -51q-15 -23 -15 -43zM835 215h-294q0 -37 41 -63q38 -24 96 -24q46 0 112 33q34 16 48 16q41 0 58 -36q7 -15 7 -31q0 -59 -89 -96q-71 -30 -156 -30q-92 0 -145 36q-20 -35 -58 -36q-64 2 -65 60h-2q-48 -59 -132 -60 q-106 0 -177 89q-64 81 -64 193q0 128 80 211q68 71 161 71q86 -2 132 -60h2q2 59 67 60q41 -1 58 -36q50 36 143 36q121 0 194 -94q59 -74 59 -171q0 -55 -42 -65q-14 -3 -34 -3zM278 398q-68 0 -95 -67q-12 -30 -12 -65q0 -80 51 -115q25 -17 56 -17q68 0 95 67 q12 30 12 65q0 80 -51 115q-25 17 -56 17z" glyph-name="ae" horiz-adv-x="926" unicode="æ"/>
<glyph d="M280 -16l-27 -36q9 1 24 1q54 0 73 -45q7 -16 7 -35q0 -55 -66 -80q-30 -11 -59 -11q-88 0 -99 38q-1 5 -1 9q0 23 18 32q5 2 9 2q7 0 36 -11q12 -4 20 -4q26 0 33 22q1 5 1 10q0 23 -24 27q-4 1 -7 1h-20q-17 0 -22 17q-1 3 -1 6q0 16 26 47l1 1l13 16q-112 26 -166 131 q-34 65 -34 144q0 131 84 212q73 70 179 70q110 0 159 -45q26 -24 26 -58q0 -48 -37 -66q-13 -7 -27 -7q-16 0 -51 14q-30 12 -61 12q-81 0 -107 -75q-9 -27 -9 -57q0 -80 51 -115q25 -17 56 -17q41 0 97 21q16 6 24 6q36 0 55 -36q9 -17 9 -33q0 -61 -93 -92 q-46 -15 -90 -16z" glyph-name="ccedilla" horiz-adv-x="463" unicode="ç"/>
<glyph d="M465 215h-282q0 -47 46 -71q32 -16 79 -16q46 0 112 33q34 16 48 16q41 0 58 -36q7 -15 7 -31q0 -59 -89 -96q-71 -30 -156 -30q-138 0 -215 100q-58 77 -58 182q0 119 81 202q79 80 192 80q121 0 194 -94q59 -74 59 -171q0 -55 -42 -65q-14 -3 -34 -3zM183 322h202 q0 36 -35 67q-30 27 -66 27q-54 0 -86 -50q-15 -24 -15 -44zM205 782l150 -65q36 -16 37 -55q0 -46 -37 -63q-13 -6 -28 -6q-21 0 -41 9l-150 65q-36 16 -37 55q0 46 37 63q13 6 28 6q21 0 41 -9z" glyph-name="egrave" unicode="è"/>
<glyph d="M465 215h-282q0 -47 46 -71q32 -16 79 -16q46 0 112 33q34 16 48 16q41 0 58 -36q7 -15 7 -31q0 -59 -89 -96q-71 -30 -156 -30q-138 0 -215 100q-58 77 -58 182q0 119 81 202q79 80 192 80q121 0 194 -94q59 -74 59 -171q0 -55 -42 -65q-14 -3 -34 -3zM183 322h202 q0 36 -35 67q-30 27 -66 27q-54 0 -86 -50q-15 -24 -15 -44zM420 667l-150 -65q-21 -9 -41 -9q-45 0 -60 41q-5 14 -5 28q1 40 37 55l150 65q21 9 41 9q45 0 60 -41q5 -14 5 -28q-1 -40 -37 -55z" glyph-name="eacute" unicode="é"/>
<glyph d="M465 215h-282q0 -47 46 -71q32 -16 79 -16q46 0 112 33q34 16 48 16q41 0 58 -36q7 -15 7 -31q0 -59 -89 -96q-71 -30 -156 -30q-138 0 -215 100q-58 77 -58 182q0 119 81 202q79 80 192 80q121 0 194 -94q59 -74 59 -171q0 -55 -42 -65q-14 -3 -34 -3zM183 322h202 q0 36 -35 67q-30 27 -66 27q-54 0 -86 -50q-15 -24 -15 -44zM278 652l-96 -44q-34 -15 -54 -15q-30 0 -46 31q-7 14 -7 29q0 43 29 63q10 7 24 13l88 40q50 22 62 22q13 0 62 -22l88 -40q41 -19 49 -45q4 -13 4 -31q0 -37 -31 -54q-11 -6 -22 -6q-21 0 -54 15z" glyph-name="ecircumflex" unicode="ê"/>
<glyph d="M465 215h-282q0 -47 46 -71q32 -16 79 -16q46 0 112 33q34 16 48 16q41 0 58 -36q7 -15 7 -31q0 -59 -89 -96q-71 -30 -156 -30q-138 0 -215 100q-58 77 -58 182q0 119 81 202q79 80 192 80q121 0 194 -94q59 -74 59 -171q0 -55 -42 -65q-14 -3 -34 -3zM183 322h202 q0 36 -35 67q-30 27 -66 27q-54 0 -86 -50q-15 -24 -15 -44zM394 770q46 0 68 -40q10 -18 10 -38q0 -46 -40 -68q-18 -10 -38 -10q-46 0 -68 40q-10 18 -10 38q0 46 40 68q18 10 38 10zM162 770q46 0 68 -40q10 -18 10 -38q0 -46 -40 -68q-18 -10 -38 -10q-46 0 -68 40 q-10 18 -10 38q0 46 40 68q18 10 38 10z" glyph-name="edieresis" unicode="ë"/>
<glyph d="M33 75v382q0 49 40 72q18 9 38 9q49 0 70 -44q8 -18 8 -37v-382q0 -49 -40 -72q-18 -9 -38 -9q-49 0 -70 44q-8 18 -8 37zM38 782l150 -65q36 -16 37 -55q0 -46 -37 -63q-13 -6 -28 -6q-21 0 -41 9l-150 65q-36 16 -37 55q0 46 37 63q13 6 28 6q21 0 41 -9z" glyph-name="igrave" horiz-adv-x="222" unicode="ì"/>
<glyph d="M33 75v382q0 49 40 72q18 9 38 9q49 0 70 -44q8 -18 8 -37v-382q0 -49 -40 -72q-18 -9 -38 -9q-49 0 -70 44q-8 18 -8 37zM253 667l-150 -65q-21 -9 -41 -9q-45 0 -60 41q-5 14 -5 28q1 40 37 55l150 65q21 9 41 9q45 0 60 -41q5 -14 5 -28q-1 -40 -37 -55z" glyph-name="iacute" horiz-adv-x="222" unicode="í"/>
<glyph d="M33 75v382q0 49 40 72q18 9 38 9q49 0 70 -44q8 -18 8 -37v-382q0 -49 -40 -72q-18 -9 -38 -9q-49 0 -70 44q-8 18 -8 37zM111 652l-96 -44q-34 -15 -54 -15q-30 0 -46 31q-7 14 -7 29q0 43 29 63q10 7 24 13l88 40q50 22 62 22q13 0 62 -22l88 -40q41 -19 49 -45 q4 -13 4 -31q0 -37 -31 -54q-11 -6 -22 -6q-21 0 -54 15z" glyph-name="icircumflex" horiz-adv-x="222" unicode="î"/>
<glyph d="M33 75v382q0 49 40 72q18 9 38 9q49 0 70 -44q8 -18 8 -37v-382q0 -49 -40 -72q-18 -9 -38 -9q-49 0 -70 44q-8 18 -8 37zM227 770q46 0 68 -40q10 -18 10 -38q0 -46 -40 -68q-18 -10 -38 -10q-46 0 -68 40q-10 18 -10 38q0 46 40 68q18 10 38 10zM-5 770q46 0 68 -40 q10 -18 10 -38q0 -46 -40 -68q-18 -10 -38 -10q-46 0 -68 40q-10 18 -10 38q0 46 40 68q18 10 38 10z" glyph-name="idieresis" horiz-adv-x="222" unicode="ï"/>
<glyph d="M15 250q0 134 87 209q66 57 158 57q75 -1 104 -32l2 2q-34 67 -83 102q-9 6 -17 10l-92 -45q-32 -16 -49 -16q-24 0 -34 27q-2 7 -2 13q0 23 25 36q4 3 9 5l61 30q-58 31 -69 50q-7 11 -7 24q0 34 40 50q20 8 44 8q69 0 140 -47q7 -4 12 -8l82 40q17 9 33 9q26 0 35 -26 q2 -8 2 -15q0 -23 -28 -37q-3 -1 -5 -2l-51 -25q129 -114 129 -371q0 -169 -93 -253q-67 -61 -170 -61q-125 0 -200 88q-63 73 -63 178zM278 366q-59 0 -90 -54q-17 -29 -17 -62q0 -60 45 -95q28 -21 62 -21q59 0 90 54q17 29 17 62q0 60 -45 95q-28 21 -62 21z" glyph-name="eth" unicode="ð"/>
<glyph d="M36 75v382q0 49 40 72q18 9 38 9q51 0 75 -44q2 -3 3 -6q40 60 134 60q123 0 170 -84q24 -42 24 -100v-289q0 -49 -40 -72q-18 -9 -38 -9q-49 0 -70 44q-8 18 -8 37v247q0 64 -48 86q-18 8 -38 8q-59 0 -79 -53q-7 -19 -7 -41v-247q0 -49 -40 -72q-18 -9 -38 -9 q-49 0 -70 44q-8 18 -8 37zM65 657q0 51 42 86q28 23 59 23q43 0 120 -31q41 -16 59 -16q20 0 45 24q24 22 43 23q41 0 54 -40q4 -12 4 -24q0 -51 -42 -86q-28 -23 -59 -23q-43 0 -120 31q-41 16 -59 16q-20 0 -45 -24q-24 -22 -43 -23q-41 0 -54 40q-4 12 -4 24z" glyph-name="ntilde" unicode="ñ"/>
<glyph d="M278 548q128 0 203 -97q60 -78 60 -185q0 -131 -84 -212q-73 -70 -179 -70q-128 0 -203 97q-60 78 -60 185q0 131 84 212q73 70 179 70zM278 398q-68 0 -95 -67q-12 -30 -12 -65q0 -80 51 -115q25 -17 56 -17q68 0 95 67q12 30 12 65q0 80 -51 115q-25 17 -56 17z M205 782l150 -65q36 -16 37 -55q0 -46 -37 -63q-13 -6 -28 -6q-21 0 -41 9l-150 65q-36 16 -37 55q0 46 37 63q13 6 28 6q21 0 41 -9z" glyph-name="ograve" unicode="ò"/>
<glyph d="M278 548q128 0 203 -97q60 -78 60 -185q0 -131 -84 -212q-73 -70 -179 -70q-128 0 -203 97q-60 78 -60 185q0 131 84 212q73 70 179 70zM278 398q-68 0 -95 -67q-12 -30 -12 -65q0 -80 51 -115q25 -17 56 -17q68 0 95 67q12 30 12 65q0 80 -51 115q-25 17 -56 17z M420 667l-150 -65q-21 -9 -41 -9q-45 0 -60 41q-5 14 -5 28q1 40 37 55l150 65q21 9 41 9q45 0 60 -41q5 -14 5 -28q-1 -40 -37 -55z" glyph-name="oacute" unicode="ó"/>
<glyph d="M278 548q128 0 203 -97q60 -78 60 -185q0 -131 -84 -212q-73 -70 -179 -70q-128 0 -203 97q-60 78 -60 185q0 131 84 212q73 70 179 70zM278 398q-68 0 -95 -67q-12 -30 -12 -65q0 -80 51 -115q25 -17 56 -17q68 0 95 67q12 30 12 65q0 80 -51 115q-25 17 -56 17z M278 652l-96 -44q-34 -15 -54 -15q-30 0 -46 31q-7 14 -7 29q0 43 29 63q10 7 24 13l88 40q50 22 62 22q13 0 62 -22l88 -40q41 -19 49 -45q4 -13 4 -31q0 -37 -31 -54q-11 -6 -22 -6q-21 0 -54 15z" glyph-name="ocircumflex" unicode="ô"/>
<glyph d="M278 548q128 0 203 -97q60 -78 60 -185q0 -131 -84 -212q-73 -70 -179 -70q-128 0 -203 97q-60 78 -60 185q0 131 84 212q73 70 179 70zM278 398q-68 0 -95 -67q-12 -30 -12 -65q0 -80 51 -115q25 -17 56 -17q68 0 95 67q12 30 12 65q0 80 -51 115q-25 17 -56 17zM65 657 q0 51 42 86q28 23 59 23q43 0 120 -31q41 -16 59 -16q20 0 45 24q24 22 43 23q41 0 54 -40q4 -12 4 -24q0 -51 -42 -86q-28 -23 -59 -23q-43 0 -120 31q-41 16 -59 16q-20 0 -45 -24q-24 -22 -43 -23q-41 0 -54 40q-4 12 -4 24z" glyph-name="otilde" unicode="õ"/>
<glyph d="M278 548q128 0 203 -97q60 -78 60 -185q0 -131 -84 -212q-73 -70 -179 -70q-128 0 -203 97q-60 78 -60 185q0 131 84 212q73 70 179 70zM278 398q-68 0 -95 -67q-12 -30 -12 -65q0 -80 51 -115q25 -17 56 -17q68 0 95 67q12 30 12 65q0 80 -51 115q-25 17 -56 17z M394 770q46 0 68 -40q10 -18 10 -38q0 -46 -40 -68q-18 -10 -38 -10q-46 0 -68 40q-10 18 -10 38q0 46 40 68q18 10 38 10zM162 770q46 0 68 -40q10 -18 10 -38q0 -46 -40 -68q-18 -10 -38 -10q-46 0 -68 40q-10 18 -10 38q0 46 40 68q18 10 38 10z" glyph-name="odieresis" unicode="ö"/>
<glyph d="M87 349h426q55 0 67 -45q3 -10 3 -21q0 -52 -48 -64q-11 -2 -22 -2h-426q-55 0 -67 45q-3 10 -3 21q0 52 48 64q11 2 22 2zM300 588q49 0 78 -43q15 -24 15 -50q0 -49 -43 -78q-24 -15 -50 -15q-49 0 -78 43q-15 24 -15 50q0 49 43 78q24 15 50 15zM300 164q49 0 78 -43 q15 -24 15 -50q0 -49 -43 -78q-24 -15 -50 -15q-49 0 -78 43q-15 24 -15 50q0 49 43 78q24 15 50 15z" glyph-name="divide" horiz-adv-x="600" unicode="÷"/>
<glyph d="M178 216l157 164q-24 18 -57 18q-68 0 -95 -67q-12 -30 -12 -65q0 -28 7 -50zM378 315l-156 -164q25 -17 56 -17q68 0 95 67q12 30 12 65q0 30 -7 49zM8 40l56 58q-49 73 -49 168q0 131 84 212q73 70 179 70q95 -1 163 -56l36 37q29 30 42 33q4 1 8 1q25 0 34 -24 q2 -7 2 -13q-1 -19 -15 -34l-55 -58q48 -73 48 -168q0 -131 -84 -212q-73 -70 -179 -70q-94 1 -163 56l-36 -37q-29 -30 -42 -33q-4 -1 -8 -1q-25 0 -34 24q-2 7 -2 13q1 19 15 34z" glyph-name="oslash" unicode="ø"/>
<glyph d="M520 457v-265q0 -131 -113 -182q-57 -26 -129 -26q-137 0 -201 81q-41 52 -41 127v265q0 49 40 72q18 9 38 9q49 0 70 -44q8 -18 8 -37v-243q0 -59 52 -80q17 -6 34 -6q51 0 74 40q12 20 12 46v243q0 49 40 72q18 9 38 9q49 0 70 -44q8 -18 8 -37zM205 782l150 -65 q36 -16 37 -55q0 -46 -37 -63q-13 -6 -28 -6q-21 0 -41 9l-150 65q-36 16 -37 55q0 46 37 63q13 6 28 6q21 0 41 -9z" glyph-name="ugrave" unicode="ù"/>
<glyph d="M520 457v-265q0 -131 -113 -182q-57 -26 -129 -26q-137 0 -201 81q-41 52 -41 127v265q0 49 40 72q18 9 38 9q49 0 70 -44q8 -18 8 -37v-243q0 -59 52 -80q17 -6 34 -6q51 0 74 40q12 20 12 46v243q0 49 40 72q18 9 38 9q49 0 70 -44q8 -18 8 -37zM420 667l-150 -65 q-21 -9 -41 -9q-45 0 -60 41q-5 14 -5 28q1 40 37 55l150 65q21 9 41 9q45 0 60 -41q5 -14 5 -28q-1 -40 -37 -55z" glyph-name="uacute" unicode="ú"/>
<glyph d="M520 457v-265q0 -131 -113 -182q-57 -26 -129 -26q-137 0 -201 81q-41 52 -41 127v265q0 49 40 72q18 9 38 9q49 0 70 -44q8 -18 8 -37v-243q0 -59 52 -80q17 -6 34 -6q51 0 74 40q12 20 12 46v243q0 49 40 72q18 9 38 9q49 0 70 -44q8 -18 8 -37zM278 652l-96 -44 q-34 -15 -54 -15q-30 0 -46 31q-7 14 -7 29q0 43 29 63q10 7 24 13l88 40q50 22 62 22q13 0 62 -22l88 -40q41 -19 49 -45q4 -13 4 -31q0 -37 -31 -54q-11 -6 -22 -6q-21 0 -54 15z" glyph-name="ucircumflex" unicode="û"/>
<glyph d="M520 457v-265q0 -131 -113 -182q-57 -26 -129 -26q-137 0 -201 81q-41 52 -41 127v265q0 49 40 72q18 9 38 9q49 0 70 -44q8 -18 8 -37v-243q0 -59 52 -80q17 -6 34 -6q51 0 74 40q12 20 12 46v243q0 49 40 72q18 9 38 9q49 0 70 -44q8 -18 8 -37zM394 770q46 0 68 -40 q10 -18 10 -38q0 -46 -40 -68q-18 -10 -38 -10q-46 0 -68 40q-10 18 -10 38q0 46 40 68q18 10 38 10zM162 770q46 0 68 -40q10 -18 10 -38q0 -46 -40 -68q-18 -10 -38 -10q-46 0 -68 40q-10 18 -10 38q0 46 40 68q18 10 38 10z" glyph-name="udieresis" unicode="ü"/>
<glyph d="M114 -66l52 117l-133 317q-33 77 -33 97q0 48 43 66q16 7 33 7q57 -1 80 -59l92 -238l87 212q29 70 64 82q10 3 21 3q56 0 74 -46q6 -16 6 -33q0 -26 -19 -68l-231 -539q-21 -48 -38 -61q-19 -13 -47 -13q-54 0 -72 46q-5 13 -5 24q0 27 26 85v1zM392 667l-150 -65 q-21 -9 -41 -9q-45 0 -60 41q-5 14 -5 28q1 40 37 55l150 65q21 9 41 9q45 0 60 -41q5 -14 5 -28q-1 -40 -37 -55z" glyph-name="yacute" horiz-adv-x="500" unicode="ý"/>
<glyph d="M33 -144v836q0 63 55 76q11 2 23 2q63 0 76 -55q2 -11 2 -23v-188q55 44 129 44q106 0 177 -89q64 -81 64 -193q0 -128 -80 -211q-68 -71 -161 -71q-76 1 -129 44v-172q0 -63 -55 -76q-11 -2 -23 -2q-63 0 -76 55q-2 11 -2 23zM296 134q68 0 95 67q12 30 12 65 q0 80 -51 115q-25 17 -56 17q-68 0 -95 -67q-12 -30 -12 -65q0 -80 51 -115q25 -17 56 -17z" glyph-name="thorn" horiz-adv-x="574" unicode="þ"/>
<glyph d="M114 -66l52 117l-133 317q-33 77 -33 97q0 48 43 66q16 7 33 7q57 -1 80 -59l92 -238l87 212q29 70 64 82q10 3 21 3q56 0 74 -46q6 -16 6 -33q0 -26 -19 -68l-231 -539q-21 -48 -38 -61q-19 -13 -47 -13q-54 0 -72 46q-5 13 -5 24q0 27 26 85v1zM366 770q46 0 68 -40 q10 -18 10 -38q0 -46 -40 -68q-18 -10 -38 -10q-46 0 -68 40q-10 18 -10 38q0 46 40 68q18 10 38 10zM134 770q46 0 68 -40q10 -18 10 -38q0 -46 -40 -68q-18 -10 -38 -10q-46 0 -68 40q-10 18 -10 38q0 46 40 68q18 10 38 10z" glyph-name="ydieresis" horiz-adv-x="500" unicode="ÿ"/>
<glyph d="M23 160l156 421q32 88 58 115q31 32 77 32q68 0 105 -70q12 -24 32 -77l156 -421q24 -66 24 -100q0 -46 -46 -61q-15 -5 -32 -5q-51 0 -74 51q-5 12 -11 28l-20 64h-266l-20 -64q-19 -58 -49 -72q-16 -7 -36 -7q-56 0 -73 41q-5 12 -5 25q1 36 24 100zM400 287l-81 261 h-2l-87 -261h170zM199 921h240q50 0 61 -44q2 -10 2 -19q0 -50 -44 -61q-9 -2 -19 -2h-240q-49 0 -60 43q-3 10 -3 20q0 49 42 60q11 3 21 3z" glyph-name="Amacron" horiz-adv-x="630" unicode="Ā"/>
<glyph d="M541 457v-382q0 -49 -40 -72q-18 -9 -38 -9q-50 2 -73 50q-53 -59 -134 -60q-106 0 -177 89q-64 81 -64 193q0 128 80 211q68 71 161 71q83 0 131 -56q2 -3 3 -4q25 48 73 50q49 0 70 -44q8 -18 8 -37zM278 398q-68 0 -95 -67q-12 -30 -12 -65q0 -80 51 -115 q25 -17 56 -17q68 0 95 67q12 30 12 65q0 80 -51 115q-25 17 -56 17zM166 755h240q50 0 61 -44q2 -10 2 -19q0 -50 -44 -61q-9 -2 -19 -2h-240q-49 0 -60 43q-3 10 -3 20q0 49 42 60q11 3 21 3z" glyph-name="amacron" horiz-adv-x="574" unicode="ā"/>
<glyph d="M23 160l156 421q32 88 58 115q31 32 77 32q68 0 105 -70q12 -24 32 -77l156 -421q24 -66 24 -100q0 -46 -46 -61q-15 -5 -32 -5q-51 0 -74 51q-5 12 -11 28l-20 64h-266l-20 -64q-19 -58 -49 -72q-16 -7 -36 -7q-56 0 -73 41q-5 12 -5 25q1 36 24 100zM400 287l-81 261 h-2l-87 -261h170zM319 856q42 0 64 43q2 5 7 17q17 38 35 46q10 4 20 4q47 0 56 -47q1 -8 1 -16q0 -78 -71 -124q-50 -31 -112 -31q-91 0 -145 59q-38 42 -38 96q0 51 40 61q9 2 17 2q31 0 49 -37q20 -42 23 -47q20 -25 54 -26z" glyph-name="Abreve" horiz-adv-x="630" unicode="Ă"/>
<glyph d="M541 457v-382q0 -49 -40 -72q-18 -9 -38 -9q-50 2 -73 50q-53 -59 -134 -60q-106 0 -177 89q-64 81 -64 193q0 128 80 211q68 71 161 71q83 0 131 -56q2 -3 3 -4q25 48 73 50q49 0 70 -44q8 -18 8 -37zM278 398q-68 0 -95 -67q-12 -30 -12 -65q0 -80 51 -115 q25 -17 56 -17q68 0 95 67q12 30 12 65q0 80 -51 115q-25 17 -56 17zM286 690q42 0 64 43q2 5 7 17q17 38 35 46q10 4 20 4q47 0 56 -47q1 -8 1 -16q0 -78 -71 -124q-50 -31 -112 -31q-91 0 -145 59q-38 42 -38 96q0 51 40 61q9 2 17 2q31 0 49 -37q20 -42 23 -47 q20 -25 54 -26z" glyph-name="abreve" horiz-adv-x="574" unicode="ă"/>
<glyph d="M397 -138q0 60 72 116q22 17 42 26q-26 16 -43 69l-20 64h-266l-20 -64q-19 -58 -49 -72q-16 -7 -36 -7q-56 0 -73 41q-5 12 -5 25q1 36 24 100l156 421q32 88 58 115q31 32 77 32q68 0 105 -70q12 -24 32 -77l156 -421q24 -66 24 -100q-1 -44 -42 -60q-41 -21 -69 -63 q-15 -24 -15 -42q2 -38 35 -39q8 0 20 4q12 3 19 3q20 -2 21 -28q0 -38 -61 -52q-23 -5 -50 -5q-63 0 -85 48q-7 17 -7 36zM400 287l-81 261h-2l-87 -261h170z" glyph-name="Aogonek" horiz-adv-x="630" unicode="Ą"/>
<glyph d="M301 -138q0 60 73 116q25 19 47 28q-21 14 -31 38q-53 -59 -134 -60q-106 0 -177 89q-64 81 -64 193q0 128 80 211q68 71 161 71q83 0 131 -56q2 -3 3 -4q25 48 73 50q49 0 70 -44q8 -18 8 -37v-382q0 -50 -39 -71q-6 -3 -12 -5q-42 -23 -68 -65q-13 -22 -13 -39 q2 -38 35 -39q8 0 20 4q12 3 19 3q20 -2 21 -28q0 -38 -61 -52q-23 -5 -50 -5q-63 0 -85 48q-7 17 -7 36zM278 398q-68 0 -95 -67q-12 -30 -12 -65q0 -80 51 -115q25 -17 56 -17q68 0 95 67q12 30 12 65q0 80 -51 115q-25 17 -56 17z" glyph-name="aogonek" horiz-adv-x="574" unicode="ą"/>
<glyph d="M21 356q0 174 107 278q98 94 246 94q132 0 187 -51q28 -27 28 -62q0 -45 -35 -67q-17 -10 -35 -10q-15 0 -65 19q-43 15 -76 15q-120 0 -164 -110q-19 -48 -19 -106q0 -115 66 -173q43 -37 103 -37q61 0 118 23q25 10 41 10q61 0 71 -59q1 -9 1 -16q0 -72 -109 -104 q-55 -16 -115 -16q-176 0 -273 126q-77 101 -77 246zM510 833l-150 -65q-21 -9 -41 -9q-45 0 -60 41q-5 14 -5 28q1 40 37 55l150 65q21 9 41 9q45 0 60 -41q5 -14 5 -28q-1 -40 -37 -55z" glyph-name="Cacute" horiz-adv-x="593" unicode="Ć"/>
<glyph d="M15 266q0 131 84 212q73 70 179 70q110 0 159 -45q26 -24 26 -58q0 -48 -37 -66q-13 -7 -27 -7q-16 0 -51 14q-30 12 -61 12q-81 0 -107 -75q-9 -27 -9 -57q0 -80 51 -115q25 -17 56 -17q41 0 97 21q16 6 24 6q36 0 55 -36q9 -17 9 -33q0 -61 -92 -92q-48 -16 -93 -16 q-128 0 -203 97q-60 78 -60 185zM398 667l-150 -65q-21 -9 -41 -9q-45 0 -60 41q-5 14 -5 28q1 40 37 55l150 65q21 9 41 9q45 0 60 -41q5 -14 5 -28q-1 -40 -37 -55z" glyph-name="cacute" horiz-adv-x="463" unicode="ć"/>
<glyph d="M21 356q0 174 107 278q98 94 246 94q132 0 187 -51q28 -27 28 -62q0 -45 -35 -67q-17 -10 -35 -10q-15 0 -65 19q-43 15 -76 15q-120 0 -164 -110q-19 -48 -19 -106q0 -115 66 -173q43 -37 103 -37q61 0 118 23q25 10 41 10q61 0 71 -59q1 -9 1 -16q0 -72 -109 -104 q-55 -16 -115 -16q-176 0 -273 126q-77 101 -77 246zM361 818l-96 -44q-34 -15 -54 -15q-30 0 -46 31q-7 14 -7 29q0 43 29 63q10 7 24 13l88 40q50 22 62 22q13 0 62 -22l88 -40q41 -19 49 -45q4 -13 4 -31q0 -37 -31 -54q-11 -6 -22 -6q-21 0 -54 15z" glyph-name="Ccircumflex" horiz-adv-x="593" unicode="Ĉ"/>
<glyph d="M15 266q0 131 84 212q73 70 179 70q110 0 159 -45q26 -24 26 -58q0 -48 -37 -66q-13 -7 -27 -7q-16 0 -51 14q-30 12 -61 12q-81 0 -107 -75q-9 -27 -9 -57q0 -80 51 -115q25 -17 56 -17q41 0 97 21q16 6 24 6q36 0 55 -36q9 -17 9 -33q0 -61 -92 -92q-48 -16 -93 -16 q-128 0 -203 97q-60 78 -60 185zM261 652l-96 -44q-34 -15 -54 -15q-30 0 -46 31q-7 14 -7 29q0 43 29 63q10 7 24 13l88 40q50 22 62 22q13 0 62 -22l88 -40q41 -19 49 -45q4 -13 4 -31q0 -37 -31 -54q-11 -6 -22 -6q-21 0 -54 15z" glyph-name="ccircumflex" horiz-adv-x="463" unicode="ĉ"/>
<glyph d="M21 356q0 174 107 278q98 94 246 94q132 0 187 -51q28 -27 28 -62q0 -45 -35 -67q-17 -10 -35 -10q-15 0 -65 19q-43 15 -76 15q-120 0 -164 -110q-19 -48 -19 -106q0 -115 66 -173q43 -37 103 -37q61 0 118 23q25 10 41 10q61 0 71 -59q1 -9 1 -16q0 -72 -109 -104 q-55 -16 -115 -16q-176 0 -273 126q-77 101 -77 246zM361 936q46 0 68 -40q10 -18 10 -38q0 -46 -40 -68q-18 -10 -38 -10q-46 0 -68 40q-10 18 -10 38q0 46 40 68q18 10 38 10z" glyph-name="Cdotaccent" horiz-adv-x="593" unicode="Ċ"/>
<glyph d="M15 266q0 131 84 212q73 70 179 70q110 0 159 -45q26 -24 26 -58q0 -48 -37 -66q-13 -7 -27 -7q-16 0 -51 14q-30 12 -61 12q-81 0 -107 -75q-9 -27 -9 -57q0 -80 51 -115q25 -17 56 -17q41 0 97 21q16 6 24 6q36 0 55 -36q9 -17 9 -33q0 -61 -92 -92q-48 -16 -93 -16 q-128 0 -203 97q-60 78 -60 185zM261 770q46 0 68 -40q10 -18 10 -38q0 -46 -40 -68q-18 -10 -38 -10q-46 0 -68 40q-10 18 -10 38q0 46 40 68q18 10 38 10z" glyph-name="cdotaccent" horiz-adv-x="463" unicode="ċ"/>
<glyph d="M21 356q0 174 107 278q98 94 246 94q132 0 187 -51q28 -27 28 -62q0 -45 -35 -67q-17 -10 -35 -10q-15 0 -65 19q-43 15 -76 15q-120 0 -164 -110q-19 -48 -19 -106q0 -115 66 -173q43 -37 103 -37q61 0 118 23q25 10 41 10q61 0 71 -59q1 -9 1 -16q0 -72 -109 -104 q-55 -16 -115 -16q-176 0 -273 126q-77 101 -77 246zM361 898l96 44q34 15 54 15q30 0 46 -31q7 -14 7 -29q0 -43 -29 -63q-10 -7 -24 -13l-88 -40q-50 -22 -62 -22q-13 0 -62 22l-88 40q-41 19 -49 45q-4 13 -4 31q0 37 31 54q11 6 22 6q21 0 54 -15z" glyph-name="Ccaron" horiz-adv-x="593" unicode="Č"/>
<glyph d="M15 266q0 131 84 212q73 70 179 70q110 0 159 -45q26 -24 26 -58q0 -48 -37 -66q-13 -7 -27 -7q-16 0 -51 14q-30 12 -61 12q-81 0 -107 -75q-9 -27 -9 -57q0 -80 51 -115q25 -17 56 -17q41 0 97 21q16 6 24 6q36 0 55 -36q9 -17 9 -33q0 -61 -92 -92q-48 -16 -93 -16 q-128 0 -203 97q-60 78 -60 185zM261 732l96 44q34 15 54 15q30 0 46 -31q7 -14 7 -29q0 -43 -29 -63q-10 -7 -24 -13l-88 -40q-50 -22 -62 -22q-13 0 -62 22l-88 40q-41 19 -49 45q-4 13 -4 31q0 37 31 54q11 6 22 6q21 0 54 -15z" glyph-name="ccaron" horiz-adv-x="463" unicode="č"/>
<glyph d="M201 562v-412h86q131 0 171 115q14 43 14 96q0 134 -89 181q-39 20 -89 20h-93zM39 81v550q0 54 47 74q16 7 34 7h194q162 0 256 -120q76 -97 76 -231q0 -184 -118 -285q-90 -76 -214 -76h-194q-49 0 -71 40q-10 18 -10 41zM276 898l96 44q34 15 54 15q30 0 46 -31 q7 -14 7 -29q0 -43 -29 -63q-10 -7 -24 -13l-88 -40q-50 -22 -62 -22q-13 0 -62 22l-88 40q-41 19 -49 45q-4 13 -4 31q0 37 31 54q11 6 22 6q21 0 54 -15z" glyph-name="Dcaron" horiz-adv-x="667" unicode="Ď"/>
<glyph d="M541 689v-614q0 -49 -40 -72q-18 -9 -38 -9q-50 2 -73 50q-53 -59 -134 -60q-106 0 -177 89q-64 81 -64 193q0 128 80 211q68 71 161 71q76 -1 129 -44v185q0 49 40 72q18 9 38 9q49 0 70 -44q8 -18 8 -37zM278 398q-68 0 -95 -67q-12 -30 -12 -65q0 -80 51 -115 q25 -17 56 -17q68 0 95 67q12 30 12 65q0 80 -51 115q-25 17 -56 17zM733 711l-35 -84q-14 -35 -44 -39q-6 -1 -12 -1q-50 0 -59 39q-2 7 -2 14q0 13 5 28l27 91q14 43 59 44q49 0 65 -36q4 -11 4 -22q0 -13 -8 -34z" glyph-name="dcaron" horiz-adv-x="574" unicode="ď"/>
<glyph d="M39 81v217h-27q-49 0 -60 43q-3 10 -3 20q0 49 42 60q10 3 21 3h27v207q0 54 47 74q16 7 34 7h194q162 0 256 -120q76 -97 76 -231q0 -184 -118 -285q-90 -76 -214 -76h-194q-49 0 -71 40q-10 18 -10 41zM201 562v-138h82q50 0 61 -44q2 -10 2 -19q0 -50 -44 -61 q-9 -2 -19 -2h-82v-148h86q131 0 171 115q14 43 14 96q0 134 -89 181q-39 20 -89 20h-93z" glyph-name="Dcroat" horiz-adv-x="667" unicode="Đ"/>
<glyph d="M303 671h82v18q0 49 40 72q18 9 38 9q49 0 70 -44q8 -18 8 -37v-18h33q40 0 46 -38q1 -5 1 -10q0 -40 -36 -46q-6 -1 -11 -1h-33v-501q0 -49 -40 -72q-18 -9 -38 -9q-50 2 -73 50q-53 -59 -134 -60q-106 0 -177 89q-64 81 -64 193q0 128 80 211q68 71 161 71 q76 -1 129 -44v72h-82q-37 0 -45 34q-2 6 -2 13q0 40 35 47q6 1 12 1zM278 398q-68 0 -95 -67q-12 -30 -12 -65q0 -80 51 -115q25 -17 56 -17q68 0 95 67q12 30 12 65q0 80 -51 115q-25 17 -56 17z" glyph-name="dcroat" horiz-adv-x="574" unicode="đ"/>
<glyph d="M39 81v550q0 54 47 74q16 7 34 7h248q61 0 77 -49q4 -13 4 -26q0 -60 -56 -73q-12 -2 -25 -2h-167v-129h153q64 0 78 -51q3 -12 3 -24q0 -58 -53 -72q-14 -3 -28 -3h-153v-133h173q66 0 79 -54q2 -10 2 -21q0 -55 -50 -71q-15 -4 -31 -4h-254q-49 0 -71 40q-10 18 -10 41 zM117 921h240q50 0 61 -44q2 -10 2 -19q0 -50 -44 -61q-9 -2 -19 -2h-240q-49 0 -60 43q-3 10 -3 20q0 49 42 60q11 3 21 3z" glyph-name="Emacron" horiz-adv-x="463" unicode="Ē"/>
<glyph d="M465 215h-282q0 -47 46 -71q32 -16 79 -16q46 0 112 33q34 16 48 16q41 0 58 -36q7 -15 7 -31q0 -59 -89 -96q-71 -30 -156 -30q-138 0 -215 100q-58 77 -58 182q0 119 81 202q79 80 192 80q121 0 194 -94q59 -74 59 -171q0 -55 -42 -65q-14 -3 -34 -3zM183 322h202 q0 36 -35 67q-30 27 -66 27q-54 0 -86 -50q-15 -24 -15 -44zM161 755h240q50 0 61 -44q2 -10 2 -19q0 -50 -44 -61q-9 -2 -19 -2h-240q-49 0 -60 43q-3 10 -3 20q0 49 42 60q11 3 21 3z" glyph-name="emacron" unicode="ē"/>
<glyph d="M39 81v550q0 54 47 74q16 7 34 7h248q61 0 77 -49q4 -13 4 -26q0 -60 -56 -73q-12 -2 -25 -2h-167v-129h153q64 0 78 -51q3 -12 3 -24q0 -58 -53 -72q-14 -3 -28 -3h-153v-133h173q66 0 79 -54q2 -10 2 -21q0 -55 -50 -71q-15 -4 -31 -4h-254q-49 0 -71 40q-10 18 -10 41 zM237 856q42 0 64 43q2 5 7 17q17 38 35 46q10 4 20 4q47 0 56 -47q1 -8 1 -16q0 -78 -71 -124q-50 -31 -112 -31q-91 0 -145 59q-38 42 -38 96q0 51 40 61q9 2 17 2q31 0 49 -37q20 -42 23 -47q20 -25 54 -26z" glyph-name="Ebreve" horiz-adv-x="463" unicode="Ĕ"/>
<glyph d="M465 215h-282q0 -47 46 -71q32 -16 79 -16q46 0 112 33q34 16 48 16q41 0 58 -36q7 -15 7 -31q0 -59 -89 -96q-71 -30 -156 -30q-138 0 -215 100q-58 77 -58 182q0 119 81 202q79 80 192 80q121 0 194 -94q59 -74 59 -171q0 -55 -42 -65q-14 -3 -34 -3zM183 322h202 q0 36 -35 67q-30 27 -66 27q-54 0 -86 -50q-15 -24 -15 -44zM281 690q42 0 64 43q2 5 7 17q17 38 35 46q10 4 20 4q47 0 56 -47q1 -8 1 -16q0 -78 -71 -124q-50 -31 -112 -31q-91 0 -145 59q-38 42 -38 96q0 51 40 61q9 2 17 2q31 0 49 -37q20 -42 23 -47q20 -25 54 -26z " glyph-name="ebreve" unicode="ĕ"/>
<glyph d="M39 81v550q0 54 47 74q16 7 34 7h248q61 0 77 -49q4 -13 4 -26q0 -60 -56 -73q-12 -2 -25 -2h-167v-129h153q64 0 78 -51q3 -12 3 -24q0 -58 -53 -72q-14 -3 -28 -3h-153v-133h173q66 0 79 -54q2 -10 2 -21q0 -55 -50 -71q-15 -4 -31 -4h-254q-49 0 -71 40q-10 18 -10 41 zM237 936q46 0 68 -40q10 -18 10 -38q0 -46 -40 -68q-18 -10 -38 -10q-46 0 -68 40q-10 18 -10 38q0 46 40 68q18 10 38 10z" glyph-name="Edotaccent" horiz-adv-x="463" unicode="Ė"/>
<glyph d="M465 215h-282q0 -47 46 -71q32 -16 79 -16q46 0 112 33q34 16 48 16q41 0 58 -36q7 -15 7 -31q0 -59 -89 -96q-71 -30 -156 -30q-138 0 -215 100q-58 77 -58 182q0 119 81 202q79 80 192 80q121 0 194 -94q59 -74 59 -171q0 -55 -42 -65q-14 -3 -34 -3zM183 322h202 q0 36 -35 67q-30 27 -66 27q-54 0 -86 -50q-15 -24 -15 -44zM281 770q46 0 68 -40q10 -18 10 -38q0 -46 -40 -68q-18 -10 -38 -10q-46 0 -68 40q-10 18 -10 38q0 46 40 68q18 10 38 10z" glyph-name="edotaccent" unicode="ė"/>
<glyph d="M172 -138q0 62 69 114q22 16 42 24h-163q-49 0 -71 40q-10 18 -10 41v550q0 54 47 74q16 7 34 7h248q61 0 77 -49q4 -13 4 -26q0 -60 -56 -73q-12 -2 -25 -2h-167v-129h153q64 0 78 -51q3 -12 3 -24q0 -58 -53 -72q-14 -3 -28 -3h-153v-133h173q66 0 79 -54q2 -10 2 -21 q0 -55 -50 -71q-15 -4 -31 -4h-10q-41 -21 -69 -63q-15 -24 -15 -42q2 -38 35 -39q8 0 19 4q13 3 20 3q20 -2 21 -28q0 -38 -61 -52q-23 -5 -50 -5q-63 0 -85 48q-7 17 -7 36z" glyph-name="Eogonek" horiz-adv-x="463" unicode="Ę"/>
<glyph d="M172 -138q0 65 74 118q5 3 9 6q-128 12 -195 116q-45 72 -45 164q0 119 81 202q79 80 192 80q121 0 194 -94q59 -74 59 -171q0 -55 -42 -65q-14 -3 -34 -3h-282q0 -47 46 -71q32 -16 79 -16q46 0 112 33q34 16 48 16q41 0 58 -36q7 -15 7 -31q0 -59 -91 -97 q-44 -18 -98 -25q-50 -37 -62 -77q-2 -9 -2 -16q2 -38 35 -39q8 0 19 4q13 3 20 3q20 -2 21 -28q0 -38 -61 -52q-23 -5 -50 -5q-63 0 -85 48q-7 17 -7 36zM183 322h202q0 36 -35 67q-30 27 -66 27q-54 0 -86 -50q-15 -24 -15 -44z" glyph-name="eogonek" unicode="ę"/>
<glyph d="M39 81v550q0 54 47 74q16 7 34 7h248q61 0 77 -49q4 -13 4 -26q0 -60 -56 -73q-12 -2 -25 -2h-167v-129h153q64 0 78 -51q3 -12 3 -24q0 -58 -53 -72q-14 -3 -28 -3h-153v-133h173q66 0 79 -54q2 -10 2 -21q0 -55 -50 -71q-15 -4 -31 -4h-254q-49 0 -71 40q-10 18 -10 41 zM237 898l96 44q34 15 54 15q30 0 46 -31q7 -14 7 -29q0 -43 -29 -63q-10 -7 -24 -13l-88 -40q-50 -22 -62 -22q-13 0 -62 22l-88 40q-41 19 -49 45q-4 13 -4 31q0 37 31 54q11 6 22 6q21 0 54 -15z" glyph-name="Ecaron" horiz-adv-x="463" unicode="Ě"/>
<glyph d="M465 215h-282q0 -47 46 -71q32 -16 79 -16q46 0 112 33q34 16 48 16q41 0 58 -36q7 -15 7 -31q0 -59 -89 -96q-71 -30 -156 -30q-138 0 -215 100q-58 77 -58 182q0 119 81 202q79 80 192 80q121 0 194 -94q59 -74 59 -171q0 -55 -42 -65q-14 -3 -34 -3zM183 322h202 q0 36 -35 67q-30 27 -66 27q-54 0 -86 -50q-15 -24 -15 -44zM281 732l96 44q34 15 54 15q30 0 46 -31q7 -14 7 -29q0 -43 -29 -63q-10 -7 -24 -13l-88 -40q-50 -22 -62 -22q-13 0 -62 22l-88 40q-41 19 -49 45q-4 13 -4 31q0 37 31 54q11 6 22 6q21 0 54 -15z" glyph-name="ecaron" unicode="ě"/>
<glyph d="M434 422h175q85 -2 86 -99q0 -155 -97 -251q-90 -88 -227 -88q-176 0 -273 126q-77 101 -77 246q0 166 105 272q99 100 245 100q129 0 212 -54q63 -43 64 -102q0 -49 -44 -64q-14 -4 -29 -4q-25 0 -67 29q-56 38 -103 43q-13 2 -26 2q-98 0 -150 -88q-33 -58 -33 -134 q0 -115 64 -177q47 -45 116 -45q90 0 131 70q17 30 21 68h-93q-61 0 -77 49q-4 13 -4 26q0 60 56 73q12 2 25 2zM351 818l-96 -44q-34 -15 -54 -15q-30 0 -46 31q-7 14 -7 29q0 43 29 63q10 7 24 13l88 40q50 22 62 22q13 0 62 -22l88 -40q41 -19 49 -45q4 -13 4 -31 q0 -37 -31 -54q-11 -6 -22 -6q-21 0 -54 15z" glyph-name="Gcircumflex" horiz-adv-x="722" unicode="Ĝ"/>
<glyph d="M541 457v-405q0 -191 -150 -251q-59 -23 -133 -23q-97 0 -169 36q-63 32 -64 80q0 36 34 58q16 10 31 10q18 0 60 -21q53 -25 105 -25q110 0 127 94q3 20 3 44h-2q-43 -60 -142 -60q-126 0 -187 110q-39 70 -39 162q0 128 80 211q68 71 161 71q83 0 131 -56q2 -3 3 -4 q25 48 73 50q49 0 70 -44q8 -18 8 -37zM385 266q0 80 -51 115q-25 17 -56 17q-68 0 -95 -67q-12 -30 -12 -65q0 -87 55 -120q23 -14 52 -14q70 0 96 69q11 30 11 65zM301 652l-96 -44q-34 -15 -54 -15q-30 0 -46 31q-7 14 -7 29q0 43 29 63q10 7 24 13l88 40q50 22 62 22 q13 0 62 -22l88 -40q41 -19 49 -45q4 -13 4 -31q0 -37 -31 -54q-11 -6 -22 -6q-21 0 -54 15z" glyph-name="gcircumflex" horiz-adv-x="574" unicode="ĝ"/>
<glyph d="M434 422h175q85 -2 86 -99q0 -155 -97 -251q-90 -88 -227 -88q-176 0 -273 126q-77 101 -77 246q0 166 105 272q99 100 245 100q129 0 212 -54q63 -43 64 -102q0 -49 -44 -64q-14 -4 -29 -4q-25 0 -67 29q-56 38 -103 43q-13 2 -26 2q-98 0 -150 -88q-33 -58 -33 -134 q0 -115 64 -177q47 -45 116 -45q90 0 131 70q17 30 21 68h-93q-61 0 -77 49q-4 13 -4 26q0 60 56 73q12 2 25 2zM351 856q42 0 64 43q2 5 7 17q17 38 35 46q10 4 20 4q47 0 56 -47q1 -8 1 -16q0 -78 -71 -124q-50 -31 -112 -31q-91 0 -145 59q-38 42 -38 96q0 51 40 61 q9 2 17 2q31 0 49 -37q20 -42 23 -47q20 -25 54 -26z" glyph-name="Gbreve" horiz-adv-x="722" unicode="Ğ"/>
<glyph d="M541 457v-405q0 -191 -150 -251q-59 -23 -133 -23q-97 0 -169 36q-63 32 -64 80q0 36 34 58q16 10 31 10q18 0 60 -21q53 -25 105 -25q110 0 127 94q3 20 3 44h-2q-43 -60 -142 -60q-126 0 -187 110q-39 70 -39 162q0 128 80 211q68 71 161 71q83 0 131 -56q2 -3 3 -4 q25 48 73 50q49 0 70 -44q8 -18 8 -37zM385 266q0 80 -51 115q-25 17 -56 17q-68 0 -95 -67q-12 -30 -12 -65q0 -87 55 -120q23 -14 52 -14q70 0 96 69q11 30 11 65zM301 690q42 0 64 43q2 5 7 17q17 38 35 46q10 4 20 4q47 0 56 -47q1 -8 1 -16q0 -78 -71 -124 q-50 -31 -112 -31q-91 0 -145 59q-38 42 -38 96q0 51 40 61q9 2 17 2q31 0 49 -37q20 -42 23 -47q20 -25 54 -26z" glyph-name="gbreve" horiz-adv-x="574" unicode="ğ"/>
<glyph d="M434 422h175q85 -2 86 -99q0 -155 -97 -251q-90 -88 -227 -88q-176 0 -273 126q-77 101 -77 246q0 166 105 272q99 100 245 100q129 0 212 -54q63 -43 64 -102q0 -49 -44 -64q-14 -4 -29 -4q-25 0 -67 29q-56 38 -103 43q-13 2 -26 2q-98 0 -150 -88q-33 -58 -33 -134 q0 -115 64 -177q47 -45 116 -45q90 0 131 70q17 30 21 68h-93q-61 0 -77 49q-4 13 -4 26q0 60 56 73q12 2 25 2zM351 936q46 0 68 -40q10 -18 10 -38q0 -46 -40 -68q-18 -10 -38 -10q-46 0 -68 40q-10 18 -10 38q0 46 40 68q18 10 38 10z" glyph-name="Gdotaccent" horiz-adv-x="722" unicode="Ġ"/>
<glyph d="M541 457v-405q0 -191 -150 -251q-59 -23 -133 -23q-97 0 -169 36q-63 32 -64 80q0 36 34 58q16 10 31 10q18 0 60 -21q53 -25 105 -25q110 0 127 94q3 20 3 44h-2q-43 -60 -142 -60q-126 0 -187 110q-39 70 -39 162q0 128 80 211q68 71 161 71q83 0 131 -56q2 -3 3 -4 q25 48 73 50q49 0 70 -44q8 -18 8 -37zM385 266q0 80 -51 115q-25 17 -56 17q-68 0 -95 -67q-12 -30 -12 -65q0 -87 55 -120q23 -14 52 -14q70 0 96 69q11 30 11 65zM301 770q46 0 68 -40q10 -18 10 -38q0 -46 -40 -68q-18 -10 -38 -10q-46 0 -68 40q-10 18 -10 38 q0 46 40 68q18 10 38 10z" glyph-name="gdotaccent" horiz-adv-x="574" unicode="ġ"/>
<glyph d="M434 422h175q85 -2 86 -99q0 -155 -97 -251q-90 -88 -227 -88q-176 0 -273 126q-77 101 -77 246q0 166 105 272q99 100 245 100q129 0 212 -54q63 -43 64 -102q0 -49 -44 -64q-14 -4 -29 -4q-25 0 -67 29q-56 38 -103 43q-13 2 -26 2q-98 0 -150 -88q-33 -58 -33 -134 q0 -115 64 -177q47 -45 116 -45q90 0 131 70q17 30 21 68h-93q-61 0 -77 49q-4 13 -4 26q0 60 56 73q12 2 25 2zM433 -118l-55 -74q-23 -30 -66 -30q-52 2 -53 44q0 15 7 27l47 81q24 39 61 40q50 0 66 -35q4 -11 4 -22q-1 -17 -11 -31z" glyph-name="Gcommaaccent" horiz-adv-x="722" unicode="Ģ"/>
<glyph d="M541 457v-405q0 -191 -150 -251q-59 -23 -133 -23q-97 0 -169 36q-63 32 -64 80q0 36 34 58q16 10 31 10q18 0 60 -21q53 -25 105 -25q110 0 127 94q3 20 3 44h-2q-43 -60 -142 -60q-126 0 -187 110q-39 70 -39 162q0 128 80 211q68 71 161 71q83 0 131 -56q2 -3 3 -4 q25 48 73 50q49 0 70 -44q8 -18 8 -37zM385 266q0 80 -51 115q-25 17 -56 17q-68 0 -95 -67q-12 -30 -12 -65q0 -87 55 -120q23 -14 52 -14q70 0 96 69q11 30 11 65zM256 679l35 84q14 35 44 39q6 1 12 1q50 0 59 -39q2 -7 2 -14q0 -13 -5 -28l-27 -91q-14 -43 -59 -44 q-49 0 -65 36q-4 11 -4 22q0 13 8 34z" glyph-name="gcommaaccent" horiz-adv-x="574" unicode="ģ"/>
<glyph d="M201 290v-210q0 -67 -55 -83q-13 -3 -26 -3q-61 0 -77 54q-4 15 -4 32v552q0 67 55 83q13 3 26 3q61 0 77 -54q4 -15 4 -32v-192h302v192q0 67 55 83q13 3 26 3q61 0 77 -54q4 -15 4 -32v-552q0 -67 -55 -83q-13 -3 -26 -3q-61 0 -77 54q-4 15 -4 32v210h-302zM354 818 l-96 -44q-34 -15 -54 -15q-30 0 -46 31q-7 14 -7 29q0 43 29 63q10 7 24 13l88 40q50 22 62 22q13 0 62 -22l88 -40q41 -19 49 -45q4 -13 4 -31q0 -37 -31 -54q-11 -6 -22 -6q-21 0 -54 15z" glyph-name="Hcircumflex" horiz-adv-x="704" unicode="Ĥ"/>
<glyph d="M36 75v614q0 49 40 72q18 9 38 9q49 0 70 -44q8 -18 8 -37v-180h2q63 39 132 39q123 0 170 -84q24 -42 24 -100v-289q0 -49 -40 -72q-18 -9 -38 -9q-49 0 -70 44q-8 18 -8 37v247q0 64 -48 86q-18 8 -38 8q-59 0 -79 -53q-7 -19 -7 -41v-247q0 -49 -40 -72q-18 -9 -38 -9 q-49 0 -70 44q-8 18 -8 37zM239 884l-96 -44q-34 -15 -54 -15q-30 0 -46 31q-7 14 -7 29q0 43 29 63q10 7 24 13l88 40q50 22 62 22q13 0 62 -22l88 -40q41 -19 49 -45q4 -13 4 -31q0 -37 -31 -54q-11 -6 -22 -6q-21 0 -54 15z" glyph-name="hcircumflex" unicode="ĥ"/>
<glyph d="M201 290v-210q0 -67 -55 -83q-13 -3 -26 -3q-61 0 -77 54q-4 15 -4 32v552q0 67 55 83q13 3 26 3q61 0 77 -54q4 -15 4 -32v-10h302v10q0 67 55 83q13 3 26 3q61 0 77 -54q4 -15 4 -32v-552q0 -67 -55 -83q-13 -3 -26 -3q-61 0 -77 54q-4 15 -4 32v210h-302zM201 440h302 v66h-302v-66z" glyph-name="Hbar" horiz-adv-x="704" unicode="Ħ"/>
<glyph d="M36 75v501h-32q-40 0 -46 37q-1 5 -1 10q0 42 38 47q5 1 9 1h32v18q0 49 40 72q18 9 38 9q49 0 70 -44q8 -18 8 -37v-18h83q39 0 46 -36q1 -6 1 -12q0 -37 -33 -45q-7 -2 -14 -2h-83v-67h2q63 39 132 39q123 0 170 -84q24 -42 24 -100v-289q0 -49 -40 -72q-18 -9 -38 -9 q-49 0 -70 44q-8 18 -8 37v247q0 64 -48 86q-18 8 -38 8q-59 0 -79 -53q-7 -19 -7 -41v-247q0 -49 -40 -72q-18 -9 -38 -9q-49 0 -70 44q-8 18 -8 37z" glyph-name="hbar" unicode="ħ"/>
<glyph d="M201 632v-552q0 -67 -55 -83q-13 -3 -26 -3q-61 0 -77 54q-4 15 -4 32v552q0 67 55 83q13 3 26 3q61 0 77 -54q4 -15 4 -32zM-92 823q0 51 42 86q28 23 59 23q43 0 120 -31q41 -16 59 -16q20 0 45 24q24 22 43 23q41 0 54 -40q4 -12 4 -24q0 -51 -42 -86q-28 -23 -59 -23 q-43 0 -120 31q-41 16 -59 16q-20 0 -45 -24q-24 -22 -43 -23q-41 0 -54 40q-4 12 -4 24z" glyph-name="Itilde" horiz-adv-x="240" unicode="Ĩ"/>
<glyph d="M33 75v382q0 49 40 72q18 9 38 9q49 0 70 -44q8 -18 8 -37v-382q0 -49 -40 -72q-18 -9 -38 -9q-49 0 -70 44q-8 18 -8 37zM-102 657q0 51 42 86q28 23 59 23q43 0 120 -31q41 -16 59 -16q20 0 45 24q24 22 43 23q41 0 54 -40q4 -12 4 -24q0 -51 -42 -86q-28 -23 -59 -23 q-43 0 -120 31q-41 16 -59 16q-20 0 -45 -24q-24 -22 -43 -23q-41 0 -54 40q-4 12 -4 24z" glyph-name="itilde" horiz-adv-x="222" unicode="ĩ"/>
<glyph d="M201 632v-552q0 -67 -55 -83q-13 -3 -26 -3q-61 0 -77 54q-4 15 -4 32v552q0 67 55 83q13 3 26 3q61 0 77 -54q4 -15 4 -32zM1 921h240q50 0 61 -44q2 -10 2 -19q0 -50 -44 -61q-9 -2 -19 -2h-240q-49 0 -60 43q-3 10 -3 20q0 49 42 60q11 3 21 3z" glyph-name="Imacron" horiz-adv-x="240" unicode="Ī"/>
<glyph d="M33 75v382q0 49 40 72q18 9 38 9q49 0 70 -44q8 -18 8 -37v-382q0 -49 -40 -72q-18 -9 -38 -9q-49 0 -70 44q-8 18 -8 37zM-9 755h240q50 0 61 -44q2 -10 2 -19q0 -50 -44 -61q-9 -2 -19 -2h-240q-49 0 -60 43q-3 10 -3 20q0 49 42 60q11 3 21 3z" glyph-name="imacron" horiz-adv-x="222" unicode="ī"/>
<glyph d="M201 632v-552q0 -67 -55 -83q-13 -3 -26 -3q-61 0 -77 54q-4 15 -4 32v552q0 67 55 83q13 3 26 3q61 0 77 -54q4 -15 4 -32zM121 856q42 0 64 43q2 5 7 17q17 38 35 46q10 4 20 4q47 0 56 -47q1 -8 1 -16q0 -78 -71 -124q-50 -31 -112 -31q-91 0 -145 59q-38 42 -38 96 q0 51 40 61q9 2 17 2q31 0 49 -37q20 -42 23 -47q20 -25 54 -26z" glyph-name="Ibreve" horiz-adv-x="240" unicode="Ĭ"/>
<glyph d="M33 75v382q0 49 40 72q18 9 38 9q49 0 70 -44q8 -18 8 -37v-382q0 -49 -40 -72q-18 -9 -38 -9q-49 0 -70 44q-8 18 -8 37zM111 690q42 0 64 43q2 5 7 17q17 38 35 46q10 4 20 4q47 0 56 -47q1 -8 1 -16q0 -78 -71 -124q-50 -31 -112 -31q-91 0 -145 59q-38 42 -38 96 q0 51 40 61q9 2 17 2q31 0 49 -37q20 -42 23 -47q20 -25 54 -26z" glyph-name="ibreve" horiz-adv-x="222" unicode="ĭ"/>
<glyph d="M-39 -138q0 60 72 115q24 17 45 26q-38 22 -39 77v552q0 67 55 83q13 3 26 3q61 0 77 -54q4 -15 4 -32v-552q-1 -64 -50 -81q-41 -21 -68 -63q-14 -23 -14 -41q2 -38 35 -39q8 0 20 4q12 3 19 3q20 -2 21 -28q0 -38 -61 -52q-23 -5 -50 -5q-63 0 -85 48q-7 17 -7 36z" glyph-name="Iogonek" horiz-adv-x="240" unicode="Į"/>
<glyph d="M-52 -138q0 58 71 114q26 20 49 30q-34 25 -35 69v382q0 49 40 72q18 9 38 9q49 0 70 -44q8 -18 8 -37v-382q0 -50 -39 -71q-8 -4 -15 -6q-44 -26 -68 -67q-11 -20 -11 -36q2 -38 35 -39q8 0 19 4q13 3 20 3q20 -2 21 -28q0 -38 -61 -52q-23 -5 -50 -5q-63 0 -85 48 q-7 17 -7 36zM18 677q0 53 45 80q23 13 48 13q52 0 79 -44q14 -23 14 -49q0 -53 -45 -80q-23 -13 -48 -13q-52 0 -79 44q-14 23 -14 49z" glyph-name="iogonek" horiz-adv-x="222" unicode="į"/>
<glyph d="M201 632v-552q0 -67 -55 -83q-13 -3 -26 -3q-61 0 -77 54q-4 15 -4 32v552q0 67 55 83q13 3 26 3q61 0 77 -54q4 -15 4 -32zM121 936q46 0 68 -40q10 -18 10 -38q0 -46 -40 -68q-18 -10 -38 -10q-46 0 -68 40q-10 18 -10 38q0 46 40 68q18 10 38 10z" glyph-name="Idotaccent" horiz-adv-x="240" unicode="İ"/>
<glyph d="M33 75v382q0 49 40 72q18 9 38 9q49 0 70 -44q8 -18 8 -37v-382q0 -49 -40 -72q-18 -9 -38 -9q-49 0 -70 44q-8 18 -8 37z" glyph-name="dotlessi" horiz-adv-x="222" unicode="ı"/>
<glyph d="M225 248v384q0 67 55 83q13 3 26 3q61 0 77 -54q4 -15 4 -32v-412q0 -181 -123 -223q-40 -13 -92 -13q-76 0 -128 33q-1 1 -2 1q-41 27 -47 57q-3 12 -3 26q0 51 40 70q16 7 34 7q19 0 54 -22q27 -16 47 -16q42 0 53 47q5 24 5 61zM305 818l-96 -44q-34 -15 -54 -15 q-30 0 -46 31q-7 14 -7 29q0 43 29 63q10 7 24 13l88 40q50 22 62 22q13 0 62 -22l88 -40q41 -19 49 -45q4 -13 4 -31q0 -37 -31 -54q-11 -6 -22 -6q-21 0 -54 15z" glyph-name="Jcircumflex" horiz-adv-x="426" unicode="Ĵ"/>
<glyph d="M33 -141v598q0 49 40 72q18 9 38 9q49 0 70 -44q8 -18 8 -37v-598q0 -49 -40 -72q-18 -9 -38 -9q-49 0 -70 44q-8 18 -8 37zM111 652l-96 -44q-34 -15 -54 -15q-30 0 -46 31q-7 14 -7 29q0 43 29 63q10 7 24 13l88 40q50 22 62 22q13 0 62 -22l88 -40q41 -19 49 -45 q4 -13 4 -31q0 -37 -31 -54q-11 -6 -22 -6q-21 0 -54 15z" glyph-name="jcircumflex" horiz-adv-x="222" unicode="ĵ"/>
<glyph d="M39 80v552q0 67 55 83q13 3 26 3q61 0 77 -54q4 -15 4 -32v-198l223 243q40 40 76 41q37 0 64 -34q17 -21 17 -44q-1 -32 -32 -65l-193 -194l211 -229q38 -41 43 -63q2 -8 2 -15q0 -55 -50 -74q-17 -6 -35 -6q-39 0 -87 53q-2 3 -7 8q-4 5 -6 7l-226 254v-236 q0 -67 -55 -83q-13 -3 -26 -3q-61 0 -77 54q-4 15 -4 32zM369 -118l-55 -74q-23 -30 -66 -30q-52 2 -53 44q0 15 7 27l47 81q24 39 61 40q50 0 66 -35q4 -11 4 -22q-1 -17 -11 -31z" glyph-name="Kcommaaccent" horiz-adv-x="593" unicode="Ķ"/>
<glyph d="M36 75v614q0 49 40 72q18 9 38 9q49 0 70 -44q8 -18 8 -37v-332l127 127q39 39 56 47q16 7 32 7q49 0 69 -41q7 -15 7 -31q0 -27 -34 -62q-8 -7 -21 -20l-84 -83l131 -166q36 -47 37 -69q0 -38 -33 -60q-19 -12 -44 -12q-36 0 -62 26q-10 11 -23 27l-156 204h-2v-176 q0 -49 -40 -72q-18 -9 -38 -9q-49 0 -70 44q-8 18 -8 37zM324 -118l-55 -74q-23 -30 -66 -30q-52 2 -53 44q0 15 7 27l47 81q24 39 61 40q50 0 66 -35q4 -11 4 -22q-1 -17 -11 -31z" glyph-name="kcommaaccent" horiz-adv-x="500" unicode="ķ"/>
<glyph d="M36 75v382q0 49 40 72q18 9 38 9q49 0 70 -44q8 -18 8 -37v-100l127 127q39 39 56 47q16 7 32 7q49 0 69 -41q7 -15 7 -31q0 -27 -34 -62q-8 -7 -21 -20l-84 -83l131 -166q36 -47 37 -69q0 -38 -33 -60q-19 -12 -44 -12q-36 0 -62 26q-10 11 -23 27l-156 204h-2v-176 q0 -49 -40 -72q-18 -9 -38 -9q-49 0 -70 44q-8 18 -8 37z" glyph-name="kgreenlandic" horiz-adv-x="500" unicode="ĸ"/>
<glyph d="M39 81v551q0 67 55 83q13 3 26 3q61 0 77 -54q4 -15 4 -32v-482h174q66 0 79 -54q2 -10 2 -21q0 -55 -50 -71q-15 -4 -31 -4h-255q-49 0 -71 40q-10 18 -10 41zM270 833l-150 -65q-21 -9 -41 -9q-45 0 -60 41q-5 14 -5 28q1 40 37 55l150 65q21 9 41 9q45 0 60 -41 q5 -14 5 -28q-1 -40 -37 -55z" glyph-name="Lacute" horiz-adv-x="444" unicode="Ĺ"/>
<glyph d="M33 75v614q0 49 40 72q18 9 38 9q49 0 70 -44q8 -18 8 -37v-614q0 -49 -40 -72q-18 -9 -38 -9q-49 0 -70 44q-8 18 -8 37zM249 865l-150 -65q-21 -9 -41 -9q-45 0 -60 41q-5 14 -5 28q1 40 37 55l150 65q21 9 41 9q45 0 60 -41q5 -14 5 -28q-1 -40 -37 -55z" glyph-name="lacute" horiz-adv-x="222" unicode="ĺ"/>
<glyph d="M39 81v551q0 67 55 83q13 3 26 3q61 0 77 -54q4 -15 4 -32v-482h174q66 0 79 -54q2 -10 2 -21q0 -55 -50 -71q-15 -4 -31 -4h-255q-49 0 -71 40q-10 18 -10 41zM306 -118l-55 -74q-23 -30 -66 -30q-52 2 -53 44q0 15 7 27l47 81q24 39 61 40q50 0 66 -35q4 -11 4 -22 q-1 -17 -11 -31z" glyph-name="Lcommaaccent" horiz-adv-x="444" unicode="Ļ"/>
<glyph d="M33 75v614q0 49 40 72q18 9 38 9q49 0 70 -44q8 -18 8 -37v-614q0 -49 -40 -72q-18 -9 -38 -9q-49 0 -70 44q-8 18 -8 37zM175 -118l-55 -74q-23 -30 -66 -30q-52 2 -53 44q0 15 7 27l47 81q24 39 61 40q50 0 66 -35q4 -11 4 -22q-1 -17 -11 -31z" glyph-name="lcommaaccent" horiz-adv-x="222" unicode="ļ"/>
<glyph d="M39 81v551q0 67 55 83q13 3 26 3q61 0 77 -54q4 -15 4 -32v-482h174q66 0 79 -54q2 -10 2 -21q0 -55 -50 -71q-15 -4 -31 -4h-255q-49 0 -71 40q-10 18 -10 41zM401 711l-35 -84q-14 -35 -44 -39q-6 -1 -12 -1q-50 0 -59 39q-2 7 -2 14q0 13 5 28l27 91q14 43 59 44 q49 0 65 -36q4 -11 4 -22q0 -13 -8 -34z" glyph-name="Lcaron" horiz-adv-x="444" unicode="Ľ"/>
<glyph d="M33 75v614q0 49 40 72q18 9 38 9q49 0 70 -44q8 -18 8 -37v-614q0 -49 -40 -72q-18 -9 -38 -9q-49 0 -70 44q-8 18 -8 37zM377 711l-35 -84q-14 -35 -44 -39q-6 -1 -12 -1q-50 0 -59 39q-2 7 -2 14q0 13 5 28l27 91q14 43 59 44q49 0 65 -36q4 -11 4 -22q0 -13 -8 -34z " glyph-name="lcaron" horiz-adv-x="222" unicode="ľ"/>
<glyph d="M39 81v551q0 67 55 83q13 3 26 3q61 0 77 -54q4 -15 4 -32v-482h174q66 0 79 -54q2 -10 2 -21q0 -55 -50 -71q-15 -4 -31 -4h-255q-49 0 -71 40q-10 18 -10 41zM342 453q46 0 68 -40q10 -18 10 -38q0 -46 -40 -68q-18 -10 -38 -10q-46 0 -68 40q-10 18 -10 38q0 46 40 68 q18 10 38 10z" glyph-name="Ldot" horiz-adv-x="444" unicode="Ŀ"/>
<glyph d="M33 75v614q0 49 40 72q18 9 38 9q49 0 70 -44q8 -18 8 -37v-614q0 -49 -40 -72q-18 -9 -38 -9q-49 0 -70 44q-8 18 -8 37zM289 453q46 0 68 -40q10 -18 10 -38q0 -46 -40 -68q-18 -10 -38 -10q-46 0 -68 40q-10 18 -10 38q0 46 40 68q18 10 38 10z" glyph-name="ldot" horiz-adv-x="351" unicode="ŀ"/>
<glyph d="M39 81v152q-35 -24 -48 -25q-37 0 -44 40q-1 7 -1 13q0 30 38 57q3 2 4 3l51 37v274q0 67 55 83q13 3 26 3q61 0 77 -54q4 -15 4 -32v-156l73 53q40 28 54 29q37 0 44 -40q1 -7 1 -13q0 -30 -38 -57q-3 -2 -4 -3l-130 -95v-200h174q66 0 79 -54q2 -10 2 -21 q0 -55 -50 -71q-15 -4 -31 -4h-255q-49 0 -71 40q-10 18 -10 41z" glyph-name="Lslash" horiz-adv-x="444" unicode="Ł"/>
<glyph d="M33 75v172l-5 -5q-25 -24 -43 -25q-34 0 -44 34q-3 9 -3 18q1 21 21 41l74 74v305q0 49 40 72q18 9 38 9q49 0 70 -44q8 -18 8 -37v-148l5 5q25 24 43 25q34 0 44 -34q3 -9 3 -18q-1 -21 -21 -41l-74 -74v-329q0 -49 -40 -72q-18 -9 -38 -9q-49 0 -70 44q-8 18 -8 37z " glyph-name="lslash" horiz-adv-x="222" unicode="ł"/>
<glyph d="M39 80v552q0 67 55 83q13 3 26 3q30 0 49 -15.5t63 -71.5l269 -337h2v338q0 67 55 83q13 3 26 3q61 0 77 -54q4 -15 4 -32v-552q0 -67 -55 -83q-13 -3 -26 -3q-36 0 -64 29q-15 15 -48 58l-269 337h-2v-338q0 -67 -55 -83q-13 -3 -26 -3q-61 0 -77 54q-4 15 -4 32z M496 833l-150 -65q-21 -9 -41 -9q-45 0 -60 41q-5 14 -5 28q1 40 37 55l150 65q21 9 41 9q45 0 60 -41q5 -14 5 -28q-1 -40 -37 -55z" glyph-name="Nacute" horiz-adv-x="704" unicode="Ń"/>
<glyph d="M36 75v382q0 49 40 72q18 9 38 9q51 0 75 -44q2 -3 3 -6q40 60 134 60q123 0 170 -84q24 -42 24 -100v-289q0 -49 -40 -72q-18 -9 -38 -9q-49 0 -70 44q-8 18 -8 37v247q0 64 -48 86q-18 8 -38 8q-59 0 -79 -53q-7 -19 -7 -41v-247q0 -49 -40 -72q-18 -9 -38 -9 q-49 0 -70 44q-8 18 -8 37zM436 667l-150 -65q-21 -9 -41 -9q-45 0 -60 41q-5 14 -5 28q1 40 37 55l150 65q21 9 41 9q45 0 60 -41q5 -14 5 -28q-1 -40 -37 -55z" glyph-name="nacute" unicode="ń"/>
<glyph d="M39 80v552q0 67 55 83q13 3 26 3q30 0 49 -15.5t63 -71.5l269 -337h2v338q0 67 55 83q13 3 26 3q61 0 77 -54q4 -15 4 -32v-552q0 -67 -55 -83q-13 -3 -26 -3q-36 0 -64 29q-15 15 -48 58l-269 337h-2v-338q0 -67 -55 -83q-13 -3 -26 -3q-61 0 -77 54q-4 15 -4 32z M439 -118l-55 -74q-23 -30 -66 -30q-52 2 -53 44q0 15 7 27l47 81q24 39 61 40q50 0 66 -35q4 -11 4 -22q-1 -17 -11 -31z" glyph-name="Ncommaaccent" horiz-adv-x="704" unicode="Ņ"/>
<glyph d="M36 75v382q0 49 40 72q18 9 38 9q51 0 75 -44q2 -3 3 -6q40 60 134 60q123 0 170 -84q24 -42 24 -100v-289q0 -49 -40 -72q-18 -9 -38 -9q-49 0 -70 44q-8 18 -8 37v247q0 64 -48 86q-18 8 -38 8q-59 0 -79 -53q-7 -19 -7 -41v-247q0 -49 -40 -72q-18 -9 -38 -9 q-49 0 -70 44q-8 18 -8 37zM343 -118l-55 -74q-23 -30 -66 -30q-52 2 -53 44q0 15 7 27l47 81q24 39 61 40q50 0 66 -35q4 -11 4 -22q-1 -17 -11 -31z" glyph-name="ncommaaccent" unicode="ņ"/>
<glyph d="M39 80v552q0 67 55 83q13 3 26 3q30 0 49 -15.5t63 -71.5l269 -337h2v338q0 67 55 83q13 3 26 3q61 0 77 -54q4 -15 4 -32v-552q0 -67 -55 -83q-13 -3 -26 -3q-36 0 -64 29q-15 15 -48 58l-269 337h-2v-338q0 -67 -55 -83q-13 -3 -26 -3q-61 0 -77 54q-4 15 -4 32z M353 898l96 44q34 15 54 15q30 0 46 -31q7 -14 7 -29q0 -43 -29 -63q-10 -7 -24 -13l-88 -40q-50 -22 -62 -22q-13 0 -62 22l-88 40q-41 19 -49 45q-4 13 -4 31q0 37 31 54q11 6 22 6q21 0 54 -15z" glyph-name="Ncaron" horiz-adv-x="704" unicode="Ň"/>
<glyph d="M36 75v382q0 49 40 72q18 9 38 9q51 0 75 -44q2 -3 3 -6q40 60 134 60q123 0 170 -84q24 -42 24 -100v-289q0 -49 -40 -72q-18 -9 -38 -9q-49 0 -70 44q-8 18 -8 37v247q0 64 -48 86q-18 8 -38 8q-59 0 -79 -53q-7 -19 -7 -41v-247q0 -49 -40 -72q-18 -9 -38 -9 q-49 0 -70 44q-8 18 -8 37zM271 732l96 44q34 15 54 15q30 0 46 -31q7 -14 7 -29q0 -43 -29 -63q-10 -7 -24 -13l-88 -40q-50 -22 -62 -22q-13 0 -62 22l-88 40q-41 19 -49 45q-4 13 -4 31q0 37 31 54q11 6 22 6q21 0 54 -15z" glyph-name="ncaron" unicode="ň"/>
<glyph d="M647 640v-646q0 -163 -126 -202q-34 -10 -72 -10q-90 0 -144 40q-39 30 -40 74q0 32 27 51q14 10 29 10q18 0 65 -22q33 -15 55 -15q54 0 56 69v15v37l-306 404h-2v-373q0 -57 -47 -74q-14 -4 -28 -4q-53 0 -70 45q-5 16 -5 33v568q0 57 47 74q14 4 28 4q28 0 55 -24 q5 -5 8 -9l317 -423h2v378q0 57 47 74q14 4 28 4q53 0 70 -45q6 -16 6 -33z" glyph-name="Eng" horiz-adv-x="685" unicode="Ŋ"/>
<glyph d="M515 350l1 -356q0 -169 -130 -204q-30 -8 -63 -8q-90 0 -144 40q-39 30 -40 74q0 32 27 51q14 10 29 10q18 0 65 -22q33 -15 55 -15q54 0 56 69v15v321q0 74 -60 94q-16 5 -34 5q-64 0 -85 -57q-7 -20 -7 -42v-251q0 -56 -43 -74q-14 -6 -29 -6q-48 0 -66 44q-6 17 -6 36 v384q0 56 43 74q14 6 29 6q54 0 65 -47q1 -4 1 -6q44 59 139 59q109 0 163 -76q34 -50 34 -118z" glyph-name="eng" unicode="ŋ"/>
<glyph d="M371 728q174 0 270 -120q80 -100 80 -252q0 -188 -116 -291q-94 -81 -234 -81q-174 0 -270 120q-80 100 -80 252q0 188 116 291q94 81 234 81zM371 578q-113 0 -156 -109q-20 -51 -20 -113q0 -125 69 -184q44 -38 107 -38q113 0 156 109q20 51 20 113q0 125 -69 184 q-44 38 -107 38zM251 921h240q50 0 61 -44q2 -10 2 -19q0 -50 -44 -61q-9 -2 -19 -2h-240q-49 0 -60 43q-3 10 -3 20q0 49 42 60q11 3 21 3z" glyph-name="Omacron" horiz-adv-x="742" unicode="Ō"/>
<glyph d="M278 548q128 0 203 -97q60 -78 60 -185q0 -131 -84 -212q-73 -70 -179 -70q-128 0 -203 97q-60 78 -60 185q0 131 84 212q73 70 179 70zM278 398q-68 0 -95 -67q-12 -30 -12 -65q0 -80 51 -115q25 -17 56 -17q68 0 95 67q12 30 12 65q0 80 -51 115q-25 17 -56 17z M161 755h240q50 0 61 -44q2 -10 2 -19q0 -50 -44 -61q-9 -2 -19 -2h-240q-49 0 -60 43q-3 10 -3 20q0 49 42 60q11 3 21 3z" glyph-name="omacron" unicode="ō"/>
<glyph d="M371 728q174 0 270 -120q80 -100 80 -252q0 -188 -116 -291q-94 -81 -234 -81q-174 0 -270 120q-80 100 -80 252q0 188 116 291q94 81 234 81zM371 578q-113 0 -156 -109q-20 -51 -20 -113q0 -125 69 -184q44 -38 107 -38q113 0 156 109q20 51 20 113q0 125 -69 184 q-44 38 -107 38zM371 856q42 0 64 43q2 5 7 17q17 38 35 46q10 4 20 4q47 0 56 -47q1 -8 1 -16q0 -78 -71 -124q-50 -31 -112 -31q-91 0 -145 59q-38 42 -38 96q0 51 40 61q9 2 17 2q31 0 49 -37q20 -42 23 -47q20 -25 54 -26z" glyph-name="Obreve" horiz-adv-x="742" unicode="Ŏ"/>
<glyph d="M278 548q128 0 203 -97q60 -78 60 -185q0 -131 -84 -212q-73 -70 -179 -70q-128 0 -203 97q-60 78 -60 185q0 131 84 212q73 70 179 70zM278 398q-68 0 -95 -67q-12 -30 -12 -65q0 -80 51 -115q25 -17 56 -17q68 0 95 67q12 30 12 65q0 80 -51 115q-25 17 -56 17z M281 690q42 0 64 43q2 5 7 17q17 38 35 46q10 4 20 4q47 0 56 -47q1 -8 1 -16q0 -78 -71 -124q-50 -31 -112 -31q-91 0 -145 59q-38 42 -38 96q0 51 40 61q9 2 17 2q31 0 49 -37q20 -42 23 -47q20 -25 54 -26z" glyph-name="obreve" unicode="ŏ"/>
<glyph d="M371 728q174 0 270 -120q80 -100 80 -252q0 -188 -116 -291q-94 -81 -234 -81q-174 0 -270 120q-80 100 -80 252q0 188 116 291q94 81 234 81zM371 578q-113 0 -156 -109q-20 -51 -20 -113q0 -125 69 -184q44 -38 107 -38q113 0 156 109q20 51 20 113q0 125 -69 184 q-44 38 -107 38zM389 833l-150 -65q-21 -9 -41 -9q-45 0 -60 41q-5 14 -5 28q1 40 37 55l150 65q21 9 41 9q45 0 60 -41q5 -14 5 -28q-1 -40 -37 -55zM722 833l-150 -65q-21 -9 -41 -9q-45 0 -60 41q-5 14 -5 28q1 40 37 55l150 65q21 9 41 9q45 0 60 -41q5 -14 5 -28 q-1 -40 -37 -55z" glyph-name="Ohungarumlaut" horiz-adv-x="742" unicode="Ő"/>
<glyph d="M278 548q128 0 203 -97q60 -78 60 -185q0 -131 -84 -212q-73 -70 -179 -70q-128 0 -203 97q-60 78 -60 185q0 131 84 212q73 70 179 70zM278 398q-68 0 -95 -67q-12 -30 -12 -65q0 -80 51 -115q25 -17 56 -17q68 0 95 67q12 30 12 65q0 80 -51 115q-25 17 -56 17z M303 667l-150 -65q-21 -9 -41 -9q-45 0 -60 41q-5 14 -5 28q1 40 37 55l150 65q21 9 41 9q45 0 60 -41q5 -14 5 -28q-1 -40 -37 -55zM636 667l-150 -65q-21 -9 -41 -9q-45 0 -60 41q-5 14 -5 28q1 40 37 55l150 65q21 9 41 9q45 0 60 -41q5 -14 5 -28q-1 -40 -37 -55z" glyph-name="ohungarumlaut" unicode="ő"/>
<glyph d="M703 562v-129h153q64 0 78 -51q3 -12 3 -24q0 -58 -53 -72q-14 -3 -28 -3h-153v-133h171q66 0 79 -54q2 -10 2 -21q0 -55 -50 -71q-15 -4 -31 -4h-242q-64 1 -79 46q-66 -55 -156 -61q-13 -1 -26 -1q-179 0 -274 124q-76 99 -76 248q0 189 116 291q93 81 234 81 q102 0 164 -42q7 -5 22 -16q10 32 38 39q13 3 27 3h248q61 0 77 -49q4 -13 4 -26q0 -60 -56 -73q-12 -2 -25 -2h-167zM371 578q-123 0 -162 -121q-14 -45 -14 -101q0 -147 86 -199q39 -23 90 -23q111 0 152 112q18 49 18 110q0 190 -127 218q-20 4 -43 4z" glyph-name="OE" horiz-adv-x="963" unicode="Œ"/>
<glyph d="M835 215h-294q0 -37 41 -63q38 -24 96 -24q46 0 112 33q34 16 48 16q41 0 58 -36q7 -15 7 -31q0 -59 -89 -96q-71 -30 -156 -30q-117 1 -192 72q-68 -72 -188 -72q-128 0 -203 97q-60 78 -60 185q0 131 84 212q73 70 179 70q97 0 166 -47q16 -11 32 -24q76 71 182 71 q121 0 194 -94q59 -74 59 -171q0 -55 -42 -65q-14 -3 -34 -3zM278 398q-68 0 -95 -67q-12 -30 -12 -65q0 -80 51 -115q25 -17 56 -17q68 0 95 67q12 30 12 65q0 80 -51 115q-25 17 -56 17zM541 322h214q0 36 -35 67q-32 27 -72 27q-59 0 -92 -51q-15 -23 -15 -43z" glyph-name="oe" horiz-adv-x="926" unicode="œ"/>
<glyph d="M39 80v551q0 54 47 74q16 7 34 7h195q133 0 198 -88q40 -56 40 -133q0 -112 -85 -168q-36 -23 -81 -32l141 -152q34 -38 34 -70q0 -33 -28 -56q-23 -19 -55 -19q-42 0 -67 28l-10 12l-199 251h-2v-205q0 -67 -55 -83q-13 -3 -26 -3q-61 0 -77 54q-4 15 -4 32zM201 562 v-157h107q59 0 77 48q6 15 6 32q0 52 -47 71q-17 6 -36 6h-107zM407 833l-150 -65q-21 -9 -41 -9q-45 0 -60 41q-5 14 -5 28q1 40 37 55l150 65q21 9 41 9q45 0 60 -41q5 -14 5 -28q-1 -40 -37 -55z" glyph-name="Racute" horiz-adv-x="574" unicode="Ŕ"/>
<glyph d="M36 75v382q0 49 40 72q18 9 38 9q51 0 75 -44q2 -3 3 -6q51 59 108 60q44 0 67 -37q13 -20 13 -44q0 -46 -48 -67q-16 -7 -50 -17q-60 -18 -76 -44q-14 -24 -14 -74v-190q0 -49 -40 -72q-18 -9 -38 -9q-49 0 -70 44q-8 18 -8 37zM325 667l-150 -65q-21 -9 -41 -9 q-45 0 -60 41q-5 14 -5 28q1 40 37 55l150 65q21 9 41 9q45 0 60 -41q5 -14 5 -28q-1 -40 -37 -55z" glyph-name="racute" horiz-adv-x="352" unicode="ŕ"/>
<glyph d="M39 80v551q0 54 47 74q16 7 34 7h195q133 0 198 -88q40 -56 40 -133q0 -112 -85 -168q-36 -23 -81 -32l141 -152q34 -38 34 -70q0 -33 -28 -56q-23 -19 -55 -19q-42 0 -67 28l-10 12l-199 251h-2v-205q0 -67 -55 -83q-13 -3 -26 -3q-61 0 -77 54q-4 15 -4 32zM201 562 v-157h107q59 0 77 48q6 15 6 32q0 52 -47 71q-17 6 -36 6h-107zM344 -118l-55 -74q-23 -30 -66 -30q-52 2 -53 44q0 15 7 27l47 81q24 39 61 40q50 0 66 -35q4 -11 4 -22q-1 -17 -11 -31z" glyph-name="Rcommaaccent" horiz-adv-x="574" unicode="Ŗ"/>
<glyph d="M36 75v382q0 49 40 72q18 9 38 9q51 0 75 -44q2 -3 3 -6q51 59 108 60q44 0 67 -37q13 -20 13 -44q0 -46 -48 -67q-16 -7 -50 -17q-60 -18 -76 -44q-14 -24 -14 -74v-190q0 -49 -40 -72q-18 -9 -38 -9q-49 0 -70 44q-8 18 -8 37zM178 -118l-55 -74q-23 -30 -66 -30 q-52 2 -53 44q0 15 7 27l47 81q24 39 61 40q50 0 66 -35q4 -11 4 -22q-1 -17 -11 -31z" glyph-name="rcommaaccent" horiz-adv-x="352" unicode="ŗ"/>
<glyph d="M39 80v551q0 54 47 74q16 7 34 7h195q133 0 198 -88q40 -56 40 -133q0 -112 -85 -168q-36 -23 -81 -32l141 -152q34 -38 34 -70q0 -33 -28 -56q-23 -19 -55 -19q-42 0 -67 28l-10 12l-199 251h-2v-205q0 -67 -55 -83q-13 -3 -26 -3q-61 0 -77 54q-4 15 -4 32zM201 562 v-157h107q59 0 77 48q6 15 6 32q0 52 -47 71q-17 6 -36 6h-107zM271 898l96 44q34 15 54 15q30 0 46 -31q7 -14 7 -29q0 -43 -29 -63q-10 -7 -24 -13l-88 -40q-50 -22 -62 -22q-13 0 -62 22l-88 40q-41 19 -49 45q-4 13 -4 31q0 37 31 54q11 6 22 6q21 0 54 -15z" glyph-name="Rcaron" horiz-adv-x="574" unicode="Ř"/>
<glyph d="M36 75v382q0 49 40 72q18 9 38 9q51 0 75 -44q2 -3 3 -6q51 59 108 60q44 0 67 -37q13 -20 13 -44q0 -46 -48 -67q-16 -7 -50 -17q-60 -18 -76 -44q-14 -24 -14 -74v-190q0 -49 -40 -72q-18 -9 -38 -9q-49 0 -70 44q-8 18 -8 37zM179 732l96 44q34 15 54 15q30 0 46 -31 q7 -14 7 -29q0 -43 -29 -63q-10 -7 -24 -13l-88 -40q-50 -22 -62 -22q-13 0 -62 22l-88 40q-41 19 -49 45q-4 13 -4 31q0 37 31 54q11 6 22 6q21 0 54 -15z" glyph-name="rcaron" horiz-adv-x="352" unicode="ř"/>
<glyph d="M5 101q0 52 38 76q17 10 38 10q15 0 71 -20q58 -21 104 -21q75 0 85 54q1 7 1 13q0 38 -51 61q-11 4 -103 34q-97 31 -133 74q-38 46 -38 118q0 134 111 194q63 34 145 34q143 0 187 -62q15 -21 15 -45q0 -51 -41 -70q-15 -6 -31 -6q-22 0 -69 16q-35 11 -69 11 q-56 0 -70 -38q-4 -10 -4 -20q0 -27 34 -43q10 -4 118 -40t145 -97q28 -47 28 -112q0 -151 -126 -209q-63 -29 -146 -29q-103 0 -178 39q-60 33 -61 78zM402 833l-150 -65q-21 -9 -41 -9q-45 0 -60 41q-5 14 -5 28q1 40 37 55l150 65q21 9 41 9q45 0 60 -41q5 -14 5 -28 q-1 -40 -37 -55z" glyph-name="Sacute" horiz-adv-x="537" unicode="Ś"/>
<glyph d="M9 92q0 49 37 68q13 7 27 7q22 0 69 -23q46 -22 81 -22q42 2 44 31q0 21 -29 34q-10 5 -39 16q-33 13 -53 21q-80 33 -104 70q-19 31 -19 77q0 78 64 131q57 46 137 46q75 0 131 -35q48 -31 49 -76q0 -45 -39 -61q-12 -5 -26 -5q-13 0 -61 22q-39 17 -64 17 q-36 0 -40 -27q-1 -3 -1 -6q0 -21 51 -41q8 -3 26 -10q91 -33 126 -66q41 -41 41 -101q0 -96 -83 -145q-52 -30 -117 -30q-104 0 -167 43q-40 28 -41 65zM351 667l-150 -65q-21 -9 -41 -9q-45 0 -60 41q-5 14 -5 28q1 40 37 55l150 65q21 9 41 9q45 0 60 -41q5 -14 5 -28 q-1 -40 -37 -55z" glyph-name="sacute" horiz-adv-x="426" unicode="ś"/>
<glyph d="M5 101q0 52 38 76q17 10 38 10q15 0 71 -20q58 -21 104 -21q75 0 85 54q1 7 1 13q0 38 -51 61q-11 4 -103 34q-97 31 -133 74q-38 46 -38 118q0 134 111 194q63 34 145 34q143 0 187 -62q15 -21 15 -45q0 -51 -41 -70q-15 -6 -31 -6q-22 0 -69 16q-35 11 -69 11 q-56 0 -70 -38q-4 -10 -4 -20q0 -27 34 -43q10 -4 118 -40t145 -97q28 -47 28 -112q0 -151 -126 -209q-63 -29 -146 -29q-103 0 -178 39q-60 33 -61 78zM271 818l-96 -44q-34 -15 -54 -15q-30 0 -46 31q-7 14 -7 29q0 43 29 63q10 7 24 13l88 40q50 22 62 22q13 0 62 -22 l88 -40q41 -19 49 -45q4 -13 4 -31q0 -37 -31 -54q-11 -6 -22 -6q-21 0 -54 15z" glyph-name="Scircumflex" horiz-adv-x="537" unicode="Ŝ"/>
<glyph d="M9 92q0 49 37 68q13 7 27 7q22 0 69 -23q46 -22 81 -22q42 2 44 31q0 21 -29 34q-10 5 -39 16q-33 13 -53 21q-80 33 -104 70q-19 31 -19 77q0 78 64 131q57 46 137 46q75 0 131 -35q48 -31 49 -76q0 -45 -39 -61q-12 -5 -26 -5q-13 0 -61 22q-39 17 -64 17 q-36 0 -40 -27q-1 -3 -1 -6q0 -21 51 -41q8 -3 26 -10q91 -33 126 -66q41 -41 41 -101q0 -96 -83 -145q-52 -30 -117 -30q-104 0 -167 43q-40 28 -41 65zM211 652l-96 -44q-34 -15 -54 -15q-30 0 -46 31q-7 14 -7 29q0 43 29 63q10 7 24 13l88 40q50 22 62 22q13 0 62 -22 l88 -40q41 -19 49 -45q4 -13 4 -31q0 -37 -31 -54q-11 -6 -22 -6q-21 0 -54 15z" glyph-name="scircumflex" horiz-adv-x="426" unicode="ŝ"/>
<glyph d="M5 101q0 52 38 76q17 10 38 10q15 0 71 -20q58 -21 104 -21q75 0 85 54q1 7 1 13q0 38 -51 61q-11 4 -103 34q-97 31 -133 74q-38 46 -38 118q0 134 111 194q63 34 145 34q143 0 187 -62q15 -21 15 -45q0 -51 -41 -70q-15 -6 -31 -6q-22 0 -69 16q-35 11 -69 11 q-56 0 -70 -38q-4 -10 -4 -20q0 -27 34 -43q10 -4 118 -40t145 -97q28 -47 28 -112q0 -149 -124 -208q-43 -20 -97 -27l-29 -39q9 1 24 1q54 0 73 -45q7 -16 7 -35q0 -55 -66 -80q-30 -11 -59 -11q-88 0 -99 38q-1 5 -1 9q0 23 18 32q5 2 9 2q7 0 36 -11q12 -4 20 -4 q26 0 33 22q1 5 1 10q0 23 -24 27q-4 1 -7 1h-20q-17 0 -22 17q-1 3 -1 6q0 16 26 47l1 1l8 10q-115 6 -178 51q-39 29 -40 65z" glyph-name="Scedilla" horiz-adv-x="537" unicode="Ş"/>
<glyph d="M9 92q0 49 37 68q13 7 27 7q22 0 69 -23q46 -22 81 -22q42 2 44 31q0 21 -29 34q-10 5 -39 16q-33 13 -53 21q-80 33 -104 70q-19 31 -19 77q0 78 64 131q57 46 137 46q75 0 131 -35q48 -31 49 -76q0 -45 -39 -61q-12 -5 -26 -5q-13 0 -61 22q-39 17 -64 17 q-36 0 -40 -27q-1 -3 -1 -6q0 -21 51 -41q8 -3 26 -10q91 -33 126 -66q41 -41 41 -101q0 -95 -82 -144q-38 -22 -83 -28l-29 -39q9 1 24 1q54 0 73 -45q7 -16 7 -35q0 -55 -66 -80q-30 -11 -59 -11q-88 0 -99 38q-1 5 -1 9q0 23 18 32q5 2 9 2q7 0 36 -11q12 -4 20 -4 q26 0 33 22q1 5 1 10q0 23 -24 27q-4 1 -7 1h-20q-17 0 -22 17q-1 3 -1 6q0 16 26 47l1 1l9 11q-107 10 -152 58q-20 23 -20 48z" glyph-name="scedilla" horiz-adv-x="426" unicode="ş"/>
<glyph d="M5 101q0 52 38 76q17 10 38 10q15 0 71 -20q58 -21 104 -21q75 0 85 54q1 7 1 13q0 38 -51 61q-11 4 -103 34q-97 31 -133 74q-38 46 -38 118q0 134 111 194q63 34 145 34q143 0 187 -62q15 -21 15 -45q0 -51 -41 -70q-15 -6 -31 -6q-22 0 -69 16q-35 11 -69 11 q-56 0 -70 -38q-4 -10 -4 -20q0 -27 34 -43q10 -4 118 -40t145 -97q28 -47 28 -112q0 -151 -126 -209q-63 -29 -146 -29q-103 0 -178 39q-60 33 -61 78zM269 898l96 44q34 15 54 15q30 0 46 -31q7 -14 7 -29q0 -43 -29 -63q-10 -7 -24 -13l-88 -40q-50 -22 -62 -22 q-13 0 -62 22l-88 40q-41 19 -49 45q-4 13 -4 31q0 37 31 54q11 6 22 6q21 0 54 -15z" glyph-name="Scaron" horiz-adv-x="537" unicode="Š"/>
<glyph d="M9 92q0 49 37 68q13 7 27 7q22 0 69 -23q46 -22 81 -22q42 2 44 31q0 21 -29 34q-10 5 -39 16q-33 13 -53 21q-80 33 -104 70q-19 31 -19 77q0 78 64 131q57 46 137 46q75 0 131 -35q48 -31 49 -76q0 -45 -39 -61q-12 -5 -26 -5q-13 0 -61 22q-39 17 -64 17 q-36 0 -40 -27q-1 -3 -1 -6q0 -21 51 -41q8 -3 26 -10q91 -33 126 -66q41 -41 41 -101q0 -96 -83 -145q-52 -30 -117 -30q-104 0 -167 43q-40 28 -41 65zM213 732l96 44q34 15 54 15q30 0 46 -31q7 -14 7 -29q0 -43 -29 -63q-10 -7 -24 -13l-88 -40q-50 -22 -62 -22 q-13 0 -62 22l-88 40q-41 19 -49 45q-4 13 -4 31q0 37 31 54q11 6 22 6q21 0 54 -15z" glyph-name="scaron" horiz-adv-x="426" unicode="š"/>
<glyph d="M151 80v482h-91q-66 0 -81 51q-3 12 -3 24q0 62 61 73q11 2 23 2h344q72 0 82 -58q2 -8 2 -17q0 -57 -54 -71q-14 -4 -30 -4h-91v-482q0 -67 -55 -83q-13 -3 -26 -3q-61 0 -77 54q-4 15 -4 32zM295 -118l-55 -74q-23 -30 -66 -30q-52 2 -53 44q0 15 7 27l47 81 q24 39 61 40q50 0 66 -35q4 -11 4 -22q-1 -17 -11 -31z" glyph-name="Tcommaaccent" horiz-adv-x="464" unicode="Ţ"/>
<glyph d="M76 75v313h-18q-81 2 -82 72q2 71 82 72h18v102q0 49 40 72q18 9 38 9q49 0 70 -44q8 -18 8 -37v-102h43q81 -2 82 -72q-2 -71 -82 -72h-43v-313q0 -49 -40 -72q-18 -9 -38 -9q-49 0 -70 44q-8 18 -8 37zM215 -118l-55 -74q-23 -30 -66 -30q-52 2 -53 44q0 15 7 27l47 81 q24 39 61 40q50 0 66 -35q4 -11 4 -22q-1 -17 -11 -31z" glyph-name="tcommaaccent" horiz-adv-x="333" unicode="ţ"/>
<glyph d="M151 80v482h-91q-66 0 -81 51q-3 12 -3 24q0 62 61 73q11 2 23 2h344q72 0 82 -58q2 -8 2 -17q0 -57 -54 -71q-14 -4 -30 -4h-91v-482q0 -67 -55 -83q-13 -3 -26 -3q-61 0 -77 54q-4 15 -4 32zM232 898l96 44q34 15 54 15q30 0 46 -31q7 -14 7 -29q0 -43 -29 -63 q-10 -7 -24 -13l-88 -40q-50 -22 -62 -22q-13 0 -62 22l-88 40q-41 19 -49 45q-4 13 -4 31q0 37 31 54q11 6 22 6q21 0 54 -15z" glyph-name="Tcaron" horiz-adv-x="464" unicode="Ť"/>
<glyph d="M76 75v313h-18q-81 2 -82 72q2 71 82 72h18v102q0 49 40 72q18 9 38 9q49 0 70 -44q8 -18 8 -37v-102h43q81 -2 82 -72q-2 -71 -82 -72h-43v-313q0 -49 -40 -72q-18 -9 -38 -9q-49 0 -70 44q-8 18 -8 37zM430 711l-35 -84q-14 -35 -44 -39q-6 -1 -12 -1q-50 0 -59 39 q-2 7 -2 14q0 13 5 28l27 91q14 43 59 44q49 0 65 -36q4 -11 4 -22q0 -13 -8 -34z" glyph-name="tcaron" horiz-adv-x="333" unicode="ť"/>
<glyph d="M96 455h55v107h-91q-66 0 -81 51q-3 12 -3 24q0 62 61 73q11 2 23 2h344q72 0 82 -58q2 -8 2 -17q0 -57 -54 -71q-14 -4 -30 -4h-91v-107h55q50 0 61 -44q2 -10 2 -19q0 -50 -44 -61q-9 -2 -19 -2h-55v-249q0 -67 -55 -83q-13 -3 -26 -3q-61 0 -77 54q-4 15 -4 32v249 h-55q-49 0 -60 43q-3 10 -3 20q0 49 42 60q11 3 21 3z" glyph-name="Tbar" horiz-adv-x="464" unicode="Ŧ"/>
<glyph d="M39 348h37v40h-18q-81 2 -82 72q2 71 82 72h18v102q0 49 40 72q18 9 38 9q49 0 70 -44q8 -18 8 -37v-102h43q81 -2 82 -72q-2 -71 -82 -72h-43v-40h62q50 0 61 -44q2 -10 2 -19q0 -50 -44 -61q-9 -2 -19 -2h-62v-147q0 -49 -40 -72q-18 -9 -38 -9q-49 0 -70 44 q-8 18 -8 37v147h-37q-49 0 -60 43q-3 10 -3 20q0 49 42 60q11 3 21 3z" glyph-name="tbar" horiz-adv-x="333" unicode="ŧ"/>
<glyph d="M196 632v-346q0 -93 73 -130q33 -16 73 -16q84 0 124 62q23 36 23 84v346q0 67 55 83q13 3 26 3q61 0 77 -54q4 -15 4 -32v-346q0 -159 -111 -242q-82 -60 -198 -60q-156 0 -242 102q-66 80 -66 200v346q0 67 55 83q13 3 26 3q61 0 77 -54q4 -15 4 -32zM133 823 q0 51 42 86q28 23 59 23q43 0 120 -31q41 -16 59 -16q20 0 45 24q24 22 43 23q41 0 54 -40q4 -12 4 -24q0 -51 -42 -86q-28 -23 -59 -23q-43 0 -120 31q-41 16 -59 16q-20 0 -45 -24q-24 -22 -43 -23q-41 0 -54 40q-4 12 -4 24z" glyph-name="Utilde" horiz-adv-x="685" unicode="Ũ"/>
<glyph d="M520 457v-265q0 -131 -113 -182q-57 -26 -129 -26q-137 0 -201 81q-41 52 -41 127v265q0 49 40 72q18 9 38 9q49 0 70 -44q8 -18 8 -37v-243q0 -59 52 -80q17 -6 34 -6q51 0 74 40q12 20 12 46v243q0 49 40 72q18 9 38 9q49 0 70 -44q8 -18 8 -37zM68 657q0 51 42 86 q28 23 59 23q43 0 120 -31q41 -16 59 -16q20 0 45 24q24 22 43 23q41 0 54 -40q4 -12 4 -24q0 -51 -42 -86q-28 -23 -59 -23q-43 0 -120 31q-41 16 -59 16q-20 0 -45 -24q-24 -22 -43 -23q-41 0 -54 40q-4 12 -4 24z" glyph-name="utilde" unicode="ũ"/>
<glyph d="M196 632v-346q0 -93 73 -130q33 -16 73 -16q84 0 124 62q23 36 23 84v346q0 67 55 83q13 3 26 3q61 0 77 -54q4 -15 4 -32v-346q0 -159 -111 -242q-82 -60 -198 -60q-156 0 -242 102q-66 80 -66 200v346q0 67 55 83q13 3 26 3q61 0 77 -54q4 -15 4 -32zM226 921h240 q50 0 61 -44q2 -10 2 -19q0 -50 -44 -61q-9 -2 -19 -2h-240q-49 0 -60 43q-3 10 -3 20q0 49 42 60q11 3 21 3z" glyph-name="Umacron" horiz-adv-x="685" unicode="Ū"/>
<glyph d="M520 457v-265q0 -131 -113 -182q-57 -26 -129 -26q-137 0 -201 81q-41 52 -41 127v265q0 49 40 72q18 9 38 9q49 0 70 -44q8 -18 8 -37v-243q0 -59 52 -80q17 -6 34 -6q51 0 74 40q12 20 12 46v243q0 49 40 72q18 9 38 9q49 0 70 -44q8 -18 8 -37zM161 755h240 q50 0 61 -44q2 -10 2 -19q0 -50 -44 -61q-9 -2 -19 -2h-240q-49 0 -60 43q-3 10 -3 20q0 49 42 60q11 3 21 3z" glyph-name="umacron" unicode="ū"/>
<glyph d="M196 632v-346q0 -93 73 -130q33 -16 73 -16q84 0 124 62q23 36 23 84v346q0 67 55 83q13 3 26 3q61 0 77 -54q4 -15 4 -32v-346q0 -159 -111 -242q-82 -60 -198 -60q-156 0 -242 102q-66 80 -66 200v346q0 67 55 83q13 3 26 3q61 0 77 -54q4 -15 4 -32zM346 856 q42 0 64 43q2 5 7 17q17 38 35 46q10 4 20 4q47 0 56 -47q1 -8 1 -16q0 -78 -71 -124q-50 -31 -112 -31q-91 0 -145 59q-38 42 -38 96q0 51 40 61q9 2 17 2q31 0 49 -37q20 -42 23 -47q20 -25 54 -26z" glyph-name="Ubreve" horiz-adv-x="685" unicode="Ŭ"/>
<glyph d="M520 457v-265q0 -131 -113 -182q-57 -26 -129 -26q-137 0 -201 81q-41 52 -41 127v265q0 49 40 72q18 9 38 9q49 0 70 -44q8 -18 8 -37v-243q0 -59 52 -80q17 -6 34 -6q51 0 74 40q12 20 12 46v243q0 49 40 72q18 9 38 9q49 0 70 -44q8 -18 8 -37zM281 690q42 0 64 43 q2 5 7 17q17 38 35 46q10 4 20 4q47 0 56 -47q1 -8 1 -16q0 -78 -71 -124q-50 -31 -112 -31q-91 0 -145 59q-38 42 -38 96q0 51 40 61q9 2 17 2q31 0 49 -37q20 -42 23 -47q20 -25 54 -26z" glyph-name="ubreve" unicode="ŭ"/>
<glyph d="M196 632v-346q0 -93 73 -130q33 -16 73 -16q84 0 124 62q23 36 23 84v346q0 67 55 83q13 3 26 3q61 0 77 -54q4 -15 4 -32v-346q0 -159 -111 -242q-82 -60 -198 -60q-156 0 -242 102q-66 80 -66 200v346q0 67 55 83q13 3 26 3q61 0 77 -54q4 -15 4 -32zM247 847 q0 53 45 83q26 16 54 16q53 0 83 -45q16 -26 16 -54q0 -53 -45 -83q-26 -16 -54 -16q-53 0 -83 45q-16 26 -16 54zM301 847q0 -28 27 -41q9 -4 18 -4q28 0 41 27q4 9 4 18q0 28 -27 41q-9 4 -18 4q-28 0 -41 -27q-4 -9 -4 -18z" glyph-name="Uring" horiz-adv-x="685" unicode="Ů"/>
<glyph d="M520 457v-265q0 -131 -113 -182q-57 -26 -129 -26q-137 0 -201 81q-41 52 -41 127v265q0 49 40 72q18 9 38 9q49 0 70 -44q8 -18 8 -37v-243q0 -59 52 -80q17 -6 34 -6q51 0 74 40q12 20 12 46v243q0 49 40 72q18 9 38 9q49 0 70 -44q8 -18 8 -37zM182 667q0 53 45 83 q26 16 54 16q53 0 83 -45q16 -26 16 -54q0 -53 -45 -83q-26 -16 -54 -16q-53 0 -83 45q-16 26 -16 54zM236 667q0 -28 27 -41q9 -4 18 -4q28 0 41 27q4 9 4 18q0 28 -27 41q-9 4 -18 4q-28 0 -41 -27q-4 -9 -4 -18z" glyph-name="uring" unicode="ů"/>
<glyph d="M196 632v-346q0 -93 73 -130q33 -16 73 -16q84 0 124 62q23 36 23 84v346q0 67 55 83q13 3 26 3q61 0 77 -54q4 -15 4 -32v-346q0 -159 -111 -242q-82 -60 -198 -60q-156 0 -242 102q-66 80 -66 200v346q0 67 55 83q13 3 26 3q61 0 77 -54q4 -15 4 -32zM370 833l-150 -65 q-21 -9 -41 -9q-45 0 -60 41q-5 14 -5 28q1 40 37 55l150 65q21 9 41 9q45 0 60 -41q5 -14 5 -28q-1 -40 -37 -55zM703 833l-150 -65q-21 -9 -41 -9q-45 0 -60 41q-5 14 -5 28q1 40 37 55l150 65q21 9 41 9q45 0 60 -41q5 -14 5 -28q-1 -40 -37 -55z" glyph-name="Uhungarumlaut" horiz-adv-x="685" unicode="Ű"/>
<glyph d="M520 457v-265q0 -131 -113 -182q-57 -26 -129 -26q-137 0 -201 81q-41 52 -41 127v265q0 49 40 72q18 9 38 9q49 0 70 -44q8 -18 8 -37v-243q0 -59 52 -80q17 -6 34 -6q51 0 74 40q12 20 12 46v243q0 49 40 72q18 9 38 9q49 0 70 -44q8 -18 8 -37zM299 667l-150 -65 q-21 -9 -41 -9q-45 0 -60 41q-5 14 -5 28q1 40 37 55l150 65q21 9 41 9q45 0 60 -41q5 -14 5 -28q-1 -40 -37 -55zM632 667l-150 -65q-21 -9 -41 -9q-45 0 -60 41q-5 14 -5 28q1 40 37 55l150 65q21 9 41 9q45 0 60 -41q5 -14 5 -28q-1 -40 -37 -55z" glyph-name="uhungarumlaut" unicode="ű"/>
<glyph d="M234 -138q0 61 68 113q7 6 14 10q-151 10 -228 117q-54 76 -54 184v346q0 67 55 83q13 3 26 3q61 0 77 -54q4 -15 4 -32v-346q0 -93 73 -130q33 -16 73 -16q84 0 124 62q23 36 23 84v346q0 67 55 83q13 3 26 3q61 0 77 -54q4 -15 4 -32v-346q0 -159 -112 -242 q-56 -41 -130 -54q-46 -32 -62 -73q-5 -12 -5 -22q2 -38 35 -39q8 0 19 4q13 3 20 3q20 -2 21 -28q0 -38 -61 -52q-23 -5 -50 -5q-63 0 -85 48q-7 17 -7 36z" glyph-name="Uogonek" horiz-adv-x="685" unicode="Ų"/>
<glyph d="M164 -138q0 61 67 112q9 6 16 11q-136 12 -187 105q-24 44 -24 102v265q0 49 40 72q18 9 38 9q49 0 70 -44q8 -18 8 -37v-243q0 -59 52 -80q17 -6 34 -6q51 0 74 40q12 20 12 46v243q0 49 40 72q18 9 38 9q49 0 70 -44q8 -18 8 -37v-265q0 -128 -110 -181 q-33 -15 -72 -22q-49 -35 -63 -76q-3 -10 -3 -18q2 -38 35 -39q8 0 19 4q13 3 20 3q20 -2 21 -28q0 -38 -61 -52q-23 -5 -50 -5q-63 0 -85 48q-7 17 -7 36z" glyph-name="uogonek" unicode="ų"/>
<glyph d="M120 115l-108 441q-16 68 -16 83q0 48 41 70q19 9 40 9q67 -1 84 -72l83 -384h2l117 373q23 73 72 81q9 2 19 2q56 0 82 -59q5 -11 9 -24l117 -373h2l83 384q18 71 84 72q52 0 73 -43q8 -17 8 -36q0 -17 -16 -83l-108 -441q-19 -78 -45 -100q-25 -21 -69 -21 q-85 0 -114 86q-1 2 -1 3l-104 326h-2l-104 -326q-33 -87 -115 -89q-65 0 -90 48q-12 23 -24 73zM454 818l-96 -44q-34 -15 -54 -15q-30 0 -46 31q-7 14 -7 29q0 43 29 63q10 7 24 13l88 40q50 22 62 22q13 0 62 -22l88 -40q41 -19 49 -45q4 -13 4 -31q0 -37 -31 -54 q-11 -6 -22 -6q-21 0 -54 15z" glyph-name="Wcircumflex" horiz-adv-x="908" unicode="Ŵ"/>
<glyph d="M128 71l-109 305q-22 60 -24 87q0 51 44 69q16 6 35 6q58 -1 74 -55l76 -253h2l70 219q19 60 42 76q18 13 42 13q20 0 34.5 -7t24 -22.5t14 -27t11.5 -32.5l70 -219h2l76 253q18 53 74 55q59 0 75 -48q4 -13 4 -27q-2 -28 -24 -86v-1l-109 -305q-23 -64 -70 -74 q-13 -3 -27 -3q-54 0 -78 45q-7 15 -15 37l-61 184h-2l-61 -184q-20 -60 -51 -74q-18 -8 -42 -8q-62 0 -89 56q-4 10 -8 21zM381 652l-96 -44q-34 -15 -54 -15q-30 0 -46 31q-7 14 -7 29q0 43 29 63q10 7 24 13l88 40q50 22 62 22q13 0 62 -22l88 -40q41 -19 49 -45 q4 -13 4 -31q0 -37 -31 -54q-11 -6 -22 -6q-21 0 -54 15z" glyph-name="wcircumflex" horiz-adv-x="760" unicode="ŵ"/>
<glyph d="M188 80v254l-140 188q-55 77 -62 96q-5 14 -5 28q0 46 46 64q19 8 40 8q20 0 36.5 -9t25.5 -19.5t19 -24.5l1 -2l120 -171l120 171q28 39 51 49q15 6 31 6q56 0 78 -40q8 -15 8 -32q0 -28 -30 -72q-8 -11 -37 -52l-140 -188v-254q0 -67 -55 -83q-13 -3 -26 -3 q-61 0 -77 54q-4 15 -4 32zM267 818l-96 -44q-34 -15 -54 -15q-30 0 -46 31q-7 14 -7 29q0 43 29 63q10 7 24 13l88 40q50 22 62 22q13 0 62 -22l88 -40q41 -19 49 -45q4 -13 4 -31q0 -37 -31 -54q-11 -6 -22 -6q-21 0 -54 15z" glyph-name="Ycircumflex" horiz-adv-x="538" unicode="Ŷ"/>
<glyph d="M114 -66l52 117l-133 317q-33 77 -33 97q0 48 43 66q16 7 33 7q57 -1 80 -59l92 -238l87 212q29 70 64 82q10 3 21 3q56 0 74 -46q6 -16 6 -33q0 -26 -19 -68l-231 -539q-21 -48 -38 -61q-19 -13 -47 -13q-54 0 -72 46q-5 13 -5 24q0 27 26 85v1zM250 652l-96 -44 q-34 -15 -54 -15q-30 0 -46 31q-7 14 -7 29q0 43 29 63q10 7 24 13l88 40q50 22 62 22q13 0 62 -22l88 -40q41 -19 49 -45q4 -13 4 -31q0 -37 -31 -54q-11 -6 -22 -6q-21 0 -54 15z" glyph-name="ycircumflex" horiz-adv-x="500" unicode="ŷ"/>
<glyph d="M188 80v254l-140 188q-55 77 -62 96q-5 14 -5 28q0 46 46 64q19 8 40 8q20 0 36.5 -9t25.5 -19.5t19 -24.5l1 -2l120 -171l120 171q28 39 51 49q15 6 31 6q56 0 78 -40q8 -15 8 -32q0 -28 -30 -72q-8 -11 -37 -52l-140 -188v-254q0 -67 -55 -83q-13 -3 -26 -3 q-61 0 -77 54q-4 15 -4 32zM385 936q46 0 68 -40q10 -18 10 -38q0 -46 -40 -68q-18 -10 -38 -10q-46 0 -68 40q-10 18 -10 38q0 46 40 68q18 10 38 10zM153 936q46 0 68 -40q10 -18 10 -38q0 -46 -40 -68q-18 -10 -38 -10q-46 0 -68 40q-10 18 -10 38q0 46 40 68 q18 10 38 10z" glyph-name="Ydieresis" horiz-adv-x="538" unicode="Ÿ"/>
<glyph d="M198 150h264q69 0 83 -53q3 -11 3 -22q0 -58 -56 -72q-14 -3 -30 -3h-359q-110 7 -114 89q0 30 28 68q1 2 2 3l306 408h-239q-68 0 -83 50q-3 11 -3 22q0 53 53 68q15 4 33 4h348q87 0 98 -66q1 -8 1 -15q0 -33 -56 -109q-8 -11 -20 -27zM399 833l-150 -65q-21 -9 -41 -9 q-45 0 -60 41q-5 14 -5 28q1 40 37 55l150 65q21 9 41 9q45 0 60 -41q5 -14 5 -28q-1 -40 -37 -55z" glyph-name="Zacute" horiz-adv-x="537" unicode="Ź"/>
<glyph d="M19 113l200 275h-137q-81 2 -82 72q2 71 82 72h300q40 -1 59 -19q14 -15 14 -37q-1 -18 -20 -45l-214 -287h165q81 -2 82 -72q-2 -71 -82 -72h-316q-33 0 -52 11q-23 15 -23 44q1 26 24 58zM356 667l-150 -65q-21 -9 -41 -9q-45 0 -60 41q-5 14 -5 28q1 40 37 55l150 65 q21 9 41 9q45 0 60 -41q5 -14 5 -28q-1 -40 -37 -55z" glyph-name="zacute" horiz-adv-x="463" unicode="ź"/>
<glyph d="M198 150h264q69 0 83 -53q3 -11 3 -22q0 -58 -56 -72q-14 -3 -30 -3h-359q-110 7 -114 89q0 30 28 68q1 2 2 3l306 408h-239q-68 0 -83 50q-3 11 -3 22q0 53 53 68q15 4 33 4h348q87 0 98 -66q1 -8 1 -15q0 -33 -56 -109q-8 -11 -20 -27zM268 936q46 0 68 -40 q10 -18 10 -38q0 -46 -40 -68q-18 -10 -38 -10q-46 0 -68 40q-10 18 -10 38q0 46 40 68q18 10 38 10z" glyph-name="Zdotaccent" horiz-adv-x="537" unicode="Ż"/>
<glyph d="M19 113l200 275h-137q-81 2 -82 72q2 71 82 72h300q40 -1 59 -19q14 -15 14 -37q-1 -18 -20 -45l-214 -287h165q81 -2 82 -72q-2 -71 -82 -72h-316q-33 0 -52 11q-23 15 -23 44q1 26 24 58zM235 770q46 0 68 -40q10 -18 10 -38q0 -46 -40 -68q-18 -10 -38 -10 q-46 0 -68 40q-10 18 -10 38q0 46 40 68q18 10 38 10z" glyph-name="zdotaccent" horiz-adv-x="463" unicode="ż"/>
<glyph d="M198 150h264q69 0 83 -53q3 -11 3 -22q0 -58 -56 -72q-14 -3 -30 -3h-359q-110 7 -114 89q0 30 28 68q1 2 2 3l306 408h-239q-68 0 -83 50q-3 11 -3 22q0 53 53 68q15 4 33 4h348q87 0 98 -66q1 -8 1 -15q0 -33 -56 -109q-8 -11 -20 -27zM269 898l96 44q34 15 54 15 q30 0 46 -31q7 -14 7 -29q0 -43 -29 -63q-10 -7 -24 -13l-88 -40q-50 -22 -62 -22q-13 0 -62 22l-88 40q-41 19 -49 45q-4 13 -4 31q0 37 31 54q11 6 22 6q21 0 54 -15z" glyph-name="Zcaron" horiz-adv-x="537" unicode="Ž"/>
<glyph d="M19 113l200 275h-137q-81 2 -82 72q2 71 82 72h300q40 -1 59 -19q14 -15 14 -37q-1 -18 -20 -45l-214 -287h165q81 -2 82 -72q-2 -71 -82 -72h-316q-33 0 -52 11q-23 15 -23 44q1 26 24 58zM232 732l96 44q34 15 54 15q30 0 46 -31q7 -14 7 -29q0 -43 -29 -63 q-10 -7 -24 -13l-88 -40q-50 -22 -62 -22q-13 0 -62 22l-88 40q-41 19 -49 45q-4 13 -4 31q0 37 31 54q11 6 22 6q21 0 54 -15z" glyph-name="zcaron" horiz-adv-x="463" unicode="ž"/>
<glyph d="M368 322l-64 -352q-18 -101 -64 -133q-40 -27 -121 -27q-78 0 -91 47q-2 7 -2 13q0 47 27 56q14 4 37 4q46 0 61 23q8 15 13 41l61 328h-65q-49 2 -50 45q2 44 50 45h82l30 162q18 99 61 130q37 24 108 24q94 0 106 -43q2 -8 2 -17q0 -44 -27 -54q-17 -6 -51 -6 q-41 0 -50 -24q-3 -6 -4 -13l-32 -159h65q49 -2 50 -45q-2 -44 -50 -45h-82z" glyph-name="florin" horiz-adv-x="630" unicode="ƒ"/>
<glyph d="M224 701q0 50 42 76q22 13 47 13q51 0 77 -44q12 -21 12 -45q0 -15 -5 -30q35 -39 54 -90l156 -421q24 -66 24 -100q0 -46 -46 -61q-15 -5 -32 -5q-51 0 -74 51q-5 12 -11 28l-20 64h-266l-20 -64q-19 -58 -49 -72q-16 -7 -36 -7q-56 0 -73 41q-5 12 -5 25q1 36 24 100 l156 421q19 50 51 87q-6 15 -6 33zM400 287l-81 261h-2l-87 -261h170zM273 701q0 -29 26 -39q7 -2 14 -2q29 0 39 27q2 7 2 14q0 27 -25 37q-8 3 -16 3q-28 0 -37 -26q-3 -7 -3 -14zM409 856l-118 -45q-14 -7 -32 -7q-43 0 -51 36q-1 6 -1 12q1 27 29 39l118 46q17 7 32 7 q41 0 50 -35q1 -7 1 -13q-1 -28 -28 -40z" glyph-name="Aringacute" horiz-adv-x="630" unicode="Ǻ"/>
<glyph d="M541 457v-382q0 -49 -40 -72q-18 -9 -38 -9q-50 2 -73 50q-53 -59 -134 -60q-106 0 -177 89q-64 81 -64 193q0 128 80 211q68 71 161 71q83 0 131 -56q2 -3 3 -4q25 48 73 50q49 0 70 -44q8 -18 8 -37zM278 398q-68 0 -95 -67q-12 -30 -12 -65q0 -80 51 -115 q25 -17 56 -17q68 0 95 67q12 30 12 65q0 80 -51 115q-25 17 -56 17zM188 667q0 53 45 83q26 16 54 16q53 0 83 -45q16 -26 16 -54q0 -53 -45 -83q-26 -16 -54 -16q-53 0 -83 45q-16 26 -16 54zM242 667q0 -28 27 -41q9 -4 18 -4q28 0 41 27q4 9 4 18q0 28 -27 41 q-9 4 -18 4q-28 0 -41 -27q-4 -9 -4 -18zM398 845l-121 -51q-16 -8 -33 -8q-40 0 -51 36q-2 9 -2 18q1 33 30 44l121 52q14 8 33 8q39 0 50 -36q2 -9 2 -18q-1 -32 -29 -45z" glyph-name="aringacute" horiz-adv-x="574" unicode="ǻ"/>
<glyph d="M21 145l291 495q31 54 67 65q23 7 71 7h306q61 0 77 -49q4 -13 4 -26q0 -60 -56 -73q-12 -2 -25 -2h-167v-129h153q64 0 78 -51q3 -12 3 -24q0 -58 -53 -72q-14 -3 -28 -3h-153v-133h174q66 0 79 -54q2 -10 2 -21q0 -55 -50 -71q-15 -4 -31 -4h-255q-49 0 -71 40 q-10 18 -10 41v56h-227l-31 -62q-25 -52 -44 -66q-21 -15 -55 -15q-48 0 -65 44q-6 16 -6 35q0 35 22 72zM427 287v273h-2l-144 -273h146zM642 833l-150 -65q-21 -9 -41 -9q-45 0 -60 41q-5 14 -5 28q1 40 37 55l150 65q21 9 41 9q45 0 60 -41q5 -14 5 -28q-1 -40 -37 -55z " glyph-name="AEacute" horiz-adv-x="852" unicode="Ǽ"/>
<glyph d="M541 322h214q0 36 -35 67q-32 27 -72 27q-59 0 -92 -51q-15 -23 -15 -43zM835 215h-294q0 -37 41 -63q38 -24 96 -24q46 0 112 33q34 16 48 16q41 0 58 -36q7 -15 7 -31q0 -59 -89 -96q-71 -30 -156 -30q-92 0 -145 36q-20 -35 -58 -36q-64 2 -65 60h-2q-48 -59 -132 -60 q-106 0 -177 89q-64 81 -64 193q0 128 80 211q68 71 161 71q86 -2 132 -60h2q2 59 67 60q41 -1 58 -36q50 36 143 36q121 0 194 -94q59 -74 59 -171q0 -55 -42 -65q-14 -3 -34 -3zM278 398q-68 0 -95 -67q-12 -30 -12 -65q0 -80 51 -115q25 -17 56 -17q68 0 95 67 q12 30 12 65q0 80 -51 115q-25 17 -56 17zM597 667l-150 -65q-21 -9 -41 -9q-45 0 -60 41q-5 14 -5 28q1 40 37 55l150 65q21 9 41 9q45 0 60 -41q5 -14 5 -28q-1 -40 -37 -55z" glyph-name="aeacute" horiz-adv-x="926" unicode="ǽ"/>
<glyph d="M213 251l263 291q-43 36 -105 36q-113 0 -156 -109q-20 -51 -20 -113q0 -60 18 -105zM529 463l-264 -292q43 -37 106 -37q113 0 156 109q20 51 20 113q0 59 -18 107zM30 50l61 67q-70 97 -70 239q0 188 116 291q94 81 234 81q127 -1 214 -66l62 69q22 24 42 25 q35 0 45 -28q2 -7 2 -13q-1 -25 -24 -50l-62 -68q71 -99 71 -241q0 -188 -116 -291q-94 -81 -234 -81q-128 1 -215 67l-61 -67q-22 -24 -42 -25q-35 0 -45 28q-2 7 -2 13q1 25 24 50zM520 833l-150 -65q-21 -9 -41 -9q-45 0 -60 41q-5 14 -5 28q1 40 37 55l150 65q21 9 41 9 q45 0 60 -41q5 -14 5 -28q-1 -40 -37 -55z" glyph-name="Oslashacute" horiz-adv-x="742" unicode="Ǿ"/>
<glyph d="M178 216l157 164q-24 18 -57 18q-68 0 -95 -67q-12 -30 -12 -65q0 -28 7 -50zM378 315l-156 -164q25 -17 56 -17q68 0 95 67q12 30 12 65q0 30 -7 49zM8 40l56 58q-49 73 -49 168q0 131 84 212q73 70 179 70q95 -1 163 -56l36 37q29 30 42 33q4 1 8 1q25 0 34 -24 q2 -7 2 -13q-1 -19 -15 -34l-55 -58q48 -73 48 -168q0 -131 -84 -212q-73 -70 -179 -70q-94 1 -163 56l-36 -37q-29 -30 -42 -33q-4 -1 -8 -1q-25 0 -34 24q-2 7 -2 13q1 19 15 34zM436 667l-150 -65q-21 -9 -41 -9q-45 0 -60 41q-5 14 -5 28q1 40 37 55l150 65q21 9 41 9 q45 0 60 -41q5 -14 5 -28q-1 -40 -37 -55z" glyph-name="oslashacute" unicode="ǿ"/>
<glyph d="M5 101q0 52 38 76q17 10 38 10q15 0 71 -20q58 -21 104 -21q75 0 85 54q1 7 1 13q0 38 -51 61q-11 4 -103 34q-97 31 -133 74q-38 46 -38 118q0 134 111 194q63 34 145 34q143 0 187 -62q15 -21 15 -45q0 -51 -41 -70q-15 -6 -31 -6q-22 0 -69 16q-35 11 -69 11 q-56 0 -70 -38q-4 -10 -4 -20q0 -27 34 -43q10 -4 118 -40t145 -97q28 -47 28 -112q0 -151 -126 -209q-63 -29 -146 -29q-103 0 -178 39q-60 33 -61 78zM317 -118l-55 -74q-23 -30 -66 -30q-52 2 -53 44q0 15 7 27l47 81q24 39 61 40q50 0 66 -35q4 -11 4 -22 q-1 -17 -11 -31z" glyph-name="Scommaaccent" horiz-adv-x="537" unicode="Ș"/>
<glyph d="M9 92q0 49 37 68q13 7 27 7q22 0 69 -23q46 -22 81 -22q42 2 44 31q0 21 -29 34q-10 5 -39 16q-33 13 -53 21q-80 33 -104 70q-19 31 -19 77q0 78 64 131q57 46 137 46q75 0 131 -35q48 -31 49 -76q0 -45 -39 -61q-12 -5 -26 -5q-13 0 -61 22q-39 17 -64 17 q-36 0 -40 -27q-1 -3 -1 -6q0 -21 51 -41q8 -3 26 -10q91 -33 126 -66q41 -41 41 -101q0 -96 -83 -145q-52 -30 -117 -30q-104 0 -167 43q-40 28 -41 65zM270 -118l-55 -74q-23 -30 -66 -30q-52 2 -53 44q0 15 7 27l47 81q24 39 61 40q50 0 66 -35q4 -11 4 -22 q-1 -17 -11 -31z" glyph-name="scommaaccent" horiz-adv-x="426" unicode="ș"/>
<glyph d="M151 80v482h-91q-66 0 -81 51q-3 12 -3 24q0 62 61 73q11 2 23 2h344q72 0 82 -58q2 -8 2 -17q0 -57 -54 -71q-14 -4 -30 -4h-91v-482q0 -67 -55 -83q-13 -3 -26 -3q-61 0 -77 54q-4 15 -4 32zM295 -118l-55 -74q-23 -30 -66 -30q-52 2 -53 44q0 15 7 27l47 81 q24 39 61 40q50 0 66 -35q4 -11 4 -22q-1 -17 -11 -31z" glyph-name="uni021A" horiz-adv-x="464" unicode="Ț"/>
<glyph d="M76 75v313h-18q-81 2 -82 72q2 71 82 72h18v102q0 49 40 72q18 9 38 9q49 0 70 -44q8 -18 8 -37v-102h43q81 -2 82 -72q-2 -71 -82 -72h-43v-313q0 -49 -40 -72q-18 -9 -38 -9q-49 0 -70 44q-8 18 -8 37zM215 -118l-55 -74q-23 -30 -66 -30q-52 2 -53 44q0 15 7 27l47 81 q24 39 61 40q50 0 66 -35q4 -11 4 -22q-1 -17 -11 -31z" glyph-name="uni021B" horiz-adv-x="333" unicode="ț"/>
<glyph d="M33 -141v598q0 49 40 72q18 9 38 9q49 0 70 -44q8 -18 8 -37v-598q0 -49 -40 -72q-18 -9 -38 -9q-49 0 -70 44q-8 18 -8 37z" glyph-name="dotlessj" horiz-adv-x="222" unicode="ȷ"/>
<glyph d="M111 652l-96 -44q-34 -15 -54 -15q-30 0 -46 31q-7 14 -7 29q0 43 29 63q10 7 24 13l88 40q50 22 62 22q13 0 62 -22l88 -40q41 -19 49 -45q4 -13 4 -31q0 -37 -31 -54q-11 -6 -22 -6q-21 0 -54 15z" glyph-name="circumflex" horiz-adv-x="222" unicode="ˆ"/>
<glyph d="M111 732l96 44q34 15 54 15q30 0 46 -31q7 -14 7 -29q0 -43 -29 -63q-10 -7 -24 -13l-88 -40q-50 -22 -62 -22q-13 0 -62 22l-88 40q-41 19 -49 45q-4 13 -4 31q0 37 31 54q11 6 22 6q21 0 54 -15z" glyph-name="caron" horiz-adv-x="222" unicode="ˇ"/>
<glyph d="M-9 755h240q50 0 61 -44q2 -10 2 -19q0 -50 -44 -61q-9 -2 -19 -2h-240q-49 0 -60 43q-3 10 -3 20q0 49 42 60q11 3 21 3z" glyph-name="uni02C9" horiz-adv-x="222" unicode="ˉ"/>
<glyph d="M111 690q42 0 64 43q2 5 7 17q17 38 35 46q10 4 20 4q47 0 56 -47q1 -8 1 -16q0 -78 -71 -124q-50 -31 -112 -31q-91 0 -145 59q-38 42 -38 96q0 51 40 61q9 2 17 2q31 0 49 -37q20 -42 23 -47q20 -25 54 -26z" glyph-name="breve" horiz-adv-x="222" unicode="˘"/>
<glyph d="M111 770q46 0 68 -40q10 -18 10 -38q0 -46 -40 -68q-18 -10 -38 -10q-46 0 -68 40q-10 18 -10 38q0 46 40 68q18 10 38 10z" glyph-name="dotaccent" horiz-adv-x="222" unicode="˙"/>
<glyph d="M12 667q0 53 45 83q26 16 54 16q53 0 83 -45q16 -26 16 -54q0 -53 -45 -83q-26 -16 -54 -16q-53 0 -83 45q-16 26 -16 54zM66 667q0 -28 27 -41q9 -4 18 -4q28 0 41 27q4 9 4 18q0 28 -27 41q-9 4 -18 4q-28 0 -41 -27q-4 -9 -4 -18z" glyph-name="ring" horiz-adv-x="222" unicode="˚"/>
<glyph d="M9 -138q0 62 69 114q22 16 42 24h81q-41 -21 -69 -63q-15 -24 -15 -42q2 -38 35 -39q8 0 20 4q12 3 19 3q20 -2 21 -28q0 -38 -61 -52q-23 -5 -50 -5q-63 0 -85 48q-7 17 -7 36z" glyph-name="ogonek" horiz-adv-x="222" unicode="˛"/>
<glyph d="M-102 657q0 51 42 86q28 23 59 23q43 0 120 -31q41 -16 59 -16q20 0 45 24q24 22 43 23q41 0 54 -40q4 -12 4 -24q0 -51 -42 -86q-28 -23 -59 -23q-43 0 -120 31q-41 16 -59 16q-20 0 -45 -24q-24 -22 -43 -23q-41 0 -54 40q-4 12 -4 24z" glyph-name="tilde" horiz-adv-x="222" unicode="˜"/>
<glyph d="M83 667l-150 -65q-21 -9 -41 -9q-45 0 -60 41q-5 14 -5 28q1 40 37 55l150 65q21 9 41 9q45 0 60 -41q5 -14 5 -28q-1 -40 -37 -55zM416 667l-150 -65q-21 -9 -41 -9q-45 0 -60 41q-5 14 -5 28q1 40 37 55l150 65q21 9 41 9q45 0 60 -41q5 -14 5 -28q-1 -40 -37 -55z" glyph-name="hungarumlaut" horiz-adv-x="222" unicode="˝"/>
<glyph d="M16 0v80l238 600h185l225 -576q0 -7 4 -26q4 -20 4 -29v-49h-656zM162 119h355q-11 26 -36 87q-34 84 -51 127q-10 24 -29 73q-16 42 -24 61q-1 3 -36 92q-6 -13 -21 -53q-11 -30 -16 -41q-16 -37 -33 -78q-53 -133 -109 -268z" glyph-name="uni0394" horiz-adv-x="689" unicode="Δ"/>
<glyph d="M361 0h-260l-25 5q-41 16 -42 61q0 50 54 60l13 1h62q-84 66 -109 172q-8 35 -8 71q0 134 97 229q104 99 258 99q166 0 265 -108q80 -89 80 -210q-1 -154 -121 -253h65l25 -4q41 -16 42 -57q0 -29 -16.5 -45.5t-33.5 -18.5l-17 -2h-257v100q117 81 139 204q4 24 4 48 q0 97 -59 161q-50 53 -118 53q-92 0 -145 -82q-37 -58 -37 -131q0 -98 66 -184q35 -45 78 -69v-100z" glyph-name="uni03A9" horiz-adv-x="793" unicode="Ω"/>
<glyph d="M41 -138v596q0 56 43 74q14 6 29 6q48 0 66 -44q6 -17 6 -36v-257q0 -61 52 -84q19 -9 41 -9q55 0 80 44q13 22 13 49v257q0 56 43 74q14 6 29 6q48 0 66 -44q6 -17 6 -36v-384q0 -56 -43 -74q-14 -6 -29 -6q-50 0 -67 41q-5 13 -5 28h-2q-24 -61 -76 -73q-8 -2 -16 -2 q-41 0 -76 34q-9 8 -14 16h-2v-176q0 -56 -43 -74q-14 -6 -29 -6q-48 0 -66 44q-6 17 -6 36z" glyph-name="uni03BC" unicode="μ"/>
<glyph d="M267 413v-343l-5 -24q-19 -46 -78 -47q-62 0 -73 57l-2 14v343h-11l-25 5q-41 16 -42 60q0 49 54 59l13 1h484l25 -4q41 -15 42 -56q0 -53 -54 -64l-13 -1h-10v-238q0 -53 19 -60q5 -2 10 -2q15 0 50 15v-107q-57 -30 -110 -30q-96 1 -121 98q-6 28 -6 59v265h-147z" glyph-name="pi" horiz-adv-x="692" unicode="π"/>
<glyph d="M201 562v-129h153q64 0 78 -51q3 -12 3 -24q0 -58 -53 -72q-14 -3 -28 -3h-153v-133h173q66 0 79 -54q2 -10 2 -21q0 -55 -50 -71q-15 -4 -31 -4h-254q-49 0 -71 40q-10 18 -10 41v550q0 54 47 74q16 7 34 7h248q61 0 77 -49q4 -13 4 -26q0 -60 -56 -73q-12 -2 -25 -2 h-167zM159 948l150 -65q36 -16 37 -55q0 -46 -37 -63q-13 -6 -28 -6q-21 0 -41 9l-150 65q-36 16 -37 55q0 46 37 63q13 6 28 6q21 0 41 -9z" glyph-name="uni0400" horiz-adv-x="463" unicode="Ѐ"/>
<glyph d="M201 562v-129h153q64 0 78 -51q3 -12 3 -24q0 -58 -53 -72q-14 -3 -28 -3h-153v-133h173q66 0 79 -54q2 -10 2 -21q0 -55 -50 -71q-15 -4 -31 -4h-254q-49 0 -71 40q-10 18 -10 41v550q0 54 47 74q16 7 34 7h248q61 0 77 -49q4 -13 4 -26q0 -60 -56 -73q-12 -2 -25 -2 h-167zM347 930q46 0 68 -40q10 -18 10 -38q0 -46 -40 -68q-18 -10 -38 -10q-46 0 -68 40q-10 18 -10 38q0 46 40 68q18 10 38 10zM115 930q46 0 68 -40q10 -18 10 -38q0 -46 -40 -68q-18 -10 -38 -10q-46 0 -68 40q-10 18 -10 38q0 46 40 68q18 10 38 10z" glyph-name="afii10023" horiz-adv-x="463" unicode="Ё"/>
<glyph d="M307 562v-100h85q154 0 226 -94q44 -59 44 -141q0 -137 -93 -198q-54 -35 -128 -35q-87 2 -88 71q2 63 67 69q80 9 81 84q0 75 -78 91q-27 6 -64 6h-52v-235q0 -67 -55 -83q-13 -3 -26 -3q-61 0 -77 54q-4 15 -4 32v482h-81q-66 0 -81 51q-3 12 -3 24q0 62 61 73 q11 2 23 2h374q72 0 82 -58q2 -8 2 -17q0 -57 -54 -71q-14 -4 -30 -4h-131z" glyph-name="afii10051" horiz-adv-x="683" unicode="Ђ"/>
<glyph d="M371 827l-150 -65q-21 -9 -41 -9q-45 0 -60 41q-5 14 -5 28q1 40 37 55l150 65q21 9 41 9q45 0 60 -41q5 -14 5 -28q-1 -40 -37 -55zM201 562v-482q0 -67 -55 -83q-13 -3 -26 -3q-61 0 -77 54q-4 15 -4 32v551q0 54 47 74q16 7 34 7h248q61 0 77 -49q4 -13 4 -26 q0 -60 -56 -73q-12 -2 -25 -2h-167z" glyph-name="afii10052" horiz-adv-x="429" unicode="Ѓ"/>
<glyph d="M374 728q144 0 196 -61q19 -24 19 -52q0 -45 -35 -67q-17 -10 -35 -10q-14 0 -59 18q-42 16 -82 16q-137 0 -173 -129q-1 -6 -2 -10h222q64 0 78 -51q3 -12 3 -24q0 -58 -53 -72q-14 -3 -28 -3h-223q26 -117 135 -134q18 -3 36 -3q55 0 109 23q25 10 41 10q61 0 71 -59 q1 -9 1 -16q0 -72 -109 -104q-55 -16 -115 -16q-176 0 -273 126q-77 101 -77 246q0 174 107 278q98 94 246 94z" glyph-name="afii10053" horiz-adv-x="598" unicode="Є"/>
<glyph d="M5 101q0 52 38 76q17 10 38 10q15 0 71 -20q58 -21 104 -21q75 0 85 54q1 7 1 13q0 38 -51 61q-11 4 -103 34q-97 31 -133 74q-38 46 -38 118q0 134 111 194q63 34 145 34q143 0 187 -62q15 -21 15 -45q0 -51 -41 -70q-15 -6 -31 -6q-22 0 -69 16q-35 11 -69 11 q-56 0 -70 -38q-4 -10 -4 -20q0 -27 34 -43q10 -4 118 -40t145 -97q28 -47 28 -112q0 -151 -126 -209q-63 -29 -146 -29q-103 0 -178 39q-60 33 -61 78z" glyph-name="afii10054" horiz-adv-x="537" unicode="Ѕ"/>
<glyph d="M201 632v-552q0 -67 -55 -83q-13 -3 -26 -3q-61 0 -77 54q-4 15 -4 32v552q0 67 55 83q13 3 26 3q61 0 77 -54q4 -15 4 -32z" glyph-name="afii10055" horiz-adv-x="240" unicode="І"/>
<glyph d="M201 632v-552q0 -67 -55 -83q-13 -3 -26 -3q-61 0 -77 54q-4 15 -4 32v552q0 67 55 83q13 3 26 3q61 0 77 -54q4 -15 4 -32zM227 930q46 0 68 -40q10 -18 10 -38q0 -46 -40 -68q-18 -10 -38 -10q-46 0 -68 40q-10 18 -10 38q0 46 40 68q18 10 38 10zM-5 930q46 0 68 -40 q10 -18 10 -38q0 -46 -40 -68q-18 -10 -38 -10q-46 0 -68 40q-10 18 -10 38q0 46 40 68q18 10 38 10z" glyph-name="afii10056" horiz-adv-x="240" unicode="Ї"/>
<glyph d="M387 632v-412q0 -181 -123 -223q-40 -13 -92 -13q-76 0 -128 33q-1 1 -2 1q-41 27 -47 57q-3 12 -3 26q0 51 40 70q16 7 34 7q19 0 54 -22q27 -16 47 -16q42 0 53 47q5 24 5 61v384q0 67 55 83q13 3 26 3q61 0 77 -54q4 -15 4 -32z" glyph-name="afii10057" horiz-adv-x="426" unicode="Ј"/>
<glyph d="M316 562l-42 -336q-18 -147 -109 -205q-43 -27 -91 -27q-59 0 -75 53q-4 14 -4 30q1 44 43 64q45 20 63 63q12 29 18 74l44 354q7 63 59 77q11 3 22 3h343q49 0 71 -40q10 -18 10 -41v-181h148q145 0 206 -103q31 -52 31 -116q0 -130 -93 -191q-62 -40 -155 -40h-218 q-49 0 -71 40q-10 18 -10 41v481h-190zM668 300v-156h119q75 0 93 50q5 13 5 28q0 72 -86 78h-12h-119z" glyph-name="afii10058" horiz-adv-x="1069" unicode="Љ"/>
<glyph d="M201 300v-220q0 -67 -55 -83q-13 -3 -26 -3q-61 0 -77 54q-4 15 -4 32v552q0 67 55 83q13 3 26 3q61 0 77 -54q4 -15 4 -32v-182h302v182q0 67 55 83q13 3 26 3q61 0 77 -54q4 -15 4 -32v-182h148q145 0 206 -103q31 -52 31 -116q0 -130 -93 -191q-62 -40 -155 -40h-218 q-49 0 -71 40q-10 18 -10 41v219h-302zM665 300v-156h119q75 0 93 50q5 13 5 28q0 72 -86 78h-12h-119z" glyph-name="afii10059" horiz-adv-x="1066" unicode="Њ"/>
<glyph d="M307 562v-100h57q263 0 294 -220q4 -28 4 -59v-101q0 -76 -63 -87q-9 -1 -18 -1q-70 0 -79 70q-1 9 -1 18v64q0 114 -63 148q-39 21 -110 21h-21v-235q0 -67 -55 -83q-13 -3 -26 -3q-61 0 -77 54q-4 15 -4 32v482h-81q-66 0 -81 51q-3 12 -3 24q0 62 61 73q11 2 23 2h374 q72 0 82 -58q2 -8 2 -17q0 -57 -54 -71q-14 -4 -30 -4h-131z" glyph-name="afii10060" horiz-adv-x="687" unicode="Ћ"/>
<glyph d="M201 434l223 243q40 40 76 41q37 0 64 -34q17 -21 17 -44q-1 -32 -32 -65l-193 -194l211 -229q38 -41 43 -63q2 -8 2 -15q0 -55 -50 -74q-17 -6 -35 -6q-39 0 -87 53q-2 3 -7 8q-4 5 -6 7l-226 254v-236q0 -67 -55 -83q-13 -3 -26 -3q-61 0 -77 54q-4 15 -4 32v552 q0 67 55 83q13 3 26 3q61 0 77 -54q4 -15 4 -32v-198zM434 827l-150 -65q-21 -9 -41 -9q-45 0 -60 41q-5 14 -5 28q1 40 37 55l150 65q21 9 41 9q45 0 60 -41q5 -14 5 -28q-1 -40 -37 -55z" glyph-name="afii10061" horiz-adv-x="593" unicode="Ќ"/>
<glyph d="M503 80v338h-2l-269 -337q-51 -63 -69 -75t-43 -12q-61 0 -77 54q-4 15 -4 32v552q0 67 55 83q13 3 26 3q61 0 77 -54q4 -15 4 -32v-338h2l269 337q51 64 69 76q19 11 43 11q61 0 77 -54q4 -15 4 -32v-552q0 -67 -55 -83q-13 -3 -26 -3q-61 0 -77 54q-4 15 -4 32z M299 948l150 -65q36 -16 37 -55q0 -46 -37 -63q-13 -6 -28 -6q-21 0 -41 9l-150 65q-36 16 -37 55q0 46 37 63q13 6 28 6q21 0 41 -9z" glyph-name="uni040D" horiz-adv-x="704" unicode="Ѝ"/>
<glyph d="M309 359l132 285q21 44 35 56q22 18 56 18q48 0 70 -42q9 -18 9 -37q0 -24 -18 -61l-177 -372q-63 -132 -135 -176q-57 -34 -143 -34q-80 0 -111 42q-12 17 -12 35q0 56 36 76q12 6 25 6q10 0 28 -5q26 -6 45 -6q48 1 70 34l7 11l-213 389q-18 34 -18 61q0 46 41 68 q20 11 45 11q46 0 71 -41q7 -11 16 -30zM305 748q-91 0 -145 59q-38 42 -38 96q0 51 40 61q9 2 17 2q31 0 49 -37q20 -42 23 -47q20 -25 54 -26q42 0 64 43q2 5 7 17q17 38 35 46q10 4 20 4q47 0 56 -47q1 -8 1 -16q0 -78 -71 -124q-50 -31 -112 -31z" glyph-name="afii10062" horiz-adv-x="596" unicode="Ў"/>
<glyph d="M493 150v482q0 67 55 83q13 3 26 3q61 0 77 -54q4 -15 4 -32v-552q0 -55 -48 -74q-16 -6 -33 -6h-152v-93q0 -66 -54 -79q-10 -2 -21 -2q-55 0 -71 50q-4 15 -4 31v93h-152q-49 0 -71 40q-10 18 -10 41v551q0 67 55 83q13 3 26 3q61 0 77 -54q4 -15 4 -32v-482h292z" glyph-name="afii10145" horiz-adv-x="694" unicode="Џ"/>
<glyph d="M448 137h-266l-20 -64q-19 -58 -49 -72q-16 -7 -36 -7q-56 0 -73 41q-5 12 -5 25q1 36 24 100l156 421q32 88 58 115q31 32 77 32q68 0 105 -70q12 -24 32 -77l156 -421q24 -66 24 -100q0 -46 -46 -61q-15 -5 -32 -5q-51 0 -74 51q-5 12 -11 28zM400 287l-81 261h-2 l-87 -261h170z" glyph-name="afii10017" horiz-adv-x="630" unicode="А"/>
<glyph d="M201 450h148q145 0 206 -103q31 -52 31 -116q0 -130 -93 -191q-62 -40 -155 -40h-218q-49 0 -71 40q-10 18 -10 41v550q0 54 47 74q16 7 34 7h284q72 0 82 -58q2 -8 2 -17q0 -57 -54 -71q-14 -4 -30 -4h-203v-112zM201 300v-156h119q75 0 93 50q5 13 5 28q0 72 -86 78 h-12h-119z" glyph-name="afii10018" horiz-adv-x="607" unicode="Б"/>
<glyph d="M39 81v550q0 54 47 74q16 7 34 7h191q118 0 171 -81q29 -46 29 -105q-1 -86 -85 -136q89 -17 125 -94q18 -38 18 -81q0 -116 -88 -174q-63 -41 -160 -41h-201q-49 0 -71 40q-10 18 -10 41zM201 568v-134h74q67 0 73 57q1 5 1 10q-7 63 -74 67h-74zM201 290v-146h102 q96 3 98 73q0 57 -66 70q-16 3 -32 3h-102z" glyph-name="afii10019" horiz-adv-x="593" unicode="В"/>
<glyph d="M201 562v-482q0 -67 -55 -83q-13 -3 -26 -3q-61 0 -77 54q-4 15 -4 32v551q0 54 47 74q16 7 34 7h248q61 0 77 -49q4 -13 4 -26q0 -60 -56 -73q-12 -2 -25 -2h-167z" glyph-name="afii10020" horiz-adv-x="429" unicode="Г"/>
<glyph d="M661 0h-501v-93q0 -66 -54 -79q-10 -2 -21 -2q-55 0 -71 50q-4 15 -4 31v168q0 55 50 71q15 4 31 4h12q30 51 46 153l50 329q11 70 66 79q7 1 14 1h335q49 0 71 -40q10 -18 10 -41v-481h35q66 0 79 -54q2 -10 2 -21v-168q0 -66 -54 -79q-10 -2 -21 -2q-55 0 -71 50 q-4 15 -4 31v93zM352 562l-43 -283q-12 -77 -35 -129h259v412h-181z" glyph-name="afii10021" horiz-adv-x="827" unicode="Д"/>
<glyph d="M201 562v-129h153q64 0 78 -51q3 -12 3 -24q0 -58 -53 -72q-14 -3 -28 -3h-153v-133h173q66 0 79 -54q2 -10 2 -21q0 -55 -50 -71q-15 -4 -31 -4h-254q-49 0 -71 40q-10 18 -10 41v550q0 54 47 74q16 7 34 7h248q61 0 77 -49q4 -13 4 -26q0 -60 -56 -73q-12 -2 -25 -2 h-167z" glyph-name="afii10022" horiz-adv-x="463" unicode="Е"/>
<glyph d="M561 434l223 243q40 40 76 41q37 0 64 -34q17 -21 17 -44q-1 -32 -32 -65l-193 -194l211 -229q38 -41 43 -63q2 -8 2 -15q0 -55 -50 -74q-17 -6 -35 -6q-39 0 -87 53q-2 3 -7 8q-4 5 -6 7l-226 254v-236q0 -67 -55 -83q-13 -3 -26 -3q-61 0 -77 54q-4 15 -4 32v236 l-226 -254q-41 -45 -61 -57q-20 -11 -39 -11q-55 0 -76 42q-9 17 -9 38q0 29 36 68q3 4 9 10l211 229l-193 194q-31 34 -32 65q0 41 41 66q21 12 40 12q35 0 66 -31l10 -10l223 -244v199q0 67 55 83q13 3 26 3q61 0 77 -54q4 -15 4 -32v-198z" glyph-name="afii10024" horiz-adv-x="960" unicode="Ж"/>
<glyph d="M316 509q0 51 -51 63q-11 2 -23 2q-37 0 -80 -24q-33 -18 -56 -18q-48 0 -65 45q-5 16 -5 32q0 46 58 81q64 38 171 38q139 0 196 -89q29 -45 29 -103q0 -111 -92 -156l-10 -4q113 -30 131 -124q4 -21 4 -45q0 -131 -116 -189q-67 -34 -158 -34q-103 0 -179 39 q-62 32 -62 78q0 53 40 75q16 9 36 9q15 0 66 -20q55 -22 102 -22q85 0 96 55q1 7 1 13q0 63 -90 76q-27 4 -63 4q-74 0 -86 52q-2 9 -2 17q0 70 70 77q7 1 14 1q95 0 119 49q5 11 5 22z" glyph-name="afii10025" horiz-adv-x="547" unicode="З"/>
<glyph d="M503 80v338h-2l-269 -337q-51 -63 -69 -75t-43 -12q-61 0 -77 54q-4 15 -4 32v552q0 67 55 83q13 3 26 3q61 0 77 -54q4 -15 4 -32v-338h2l269 337q51 64 69 76q19 11 43 11q61 0 77 -54q4 -15 4 -32v-552q0 -67 -55 -83q-13 -3 -26 -3q-61 0 -77 54q-4 15 -4 32z" glyph-name="afii10026" horiz-adv-x="704" unicode="И"/>
<glyph d="M356 742q-91 0 -145 59q-38 42 -38 96q0 51 40 61q9 2 17 2q31 0 49 -37q20 -42 23 -47q20 -25 54 -26q42 0 64 43q2 5 7 17q17 38 35 46q10 4 20 4q47 0 56 -47q1 -8 1 -16q0 -78 -71 -124q-50 -31 -112 -31zM503 80v338h-2l-269 -337q-51 -63 -69 -75t-43 -12 q-61 0 -77 54q-4 15 -4 32v552q0 67 55 83q13 3 26 3q61 0 77 -54q4 -15 4 -32v-338h2l269 337q51 64 69 76q19 11 43 11q61 0 77 -54q4 -15 4 -32v-552q0 -67 -55 -83q-13 -3 -26 -3q-61 0 -77 54q-4 15 -4 32z" glyph-name="afii10027" horiz-adv-x="704" unicode="Й"/>
<glyph d="M201 434l223 243q40 40 76 41q37 0 64 -34q17 -21 17 -44q-1 -32 -32 -65l-193 -194l211 -229q38 -41 43 -63q2 -8 2 -15q0 -55 -50 -74q-17 -6 -35 -6q-39 0 -87 53q-2 3 -7 8q-4 5 -6 7l-226 254v-236q0 -67 -55 -83q-13 -3 -26 -3q-61 0 -77 54q-4 15 -4 32v552 q0 67 55 83q13 3 26 3q61 0 77 -54q4 -15 4 -32v-198z" glyph-name="afii10028" horiz-adv-x="593" unicode="К"/>
<glyph d="M316 562l-42 -336q-18 -147 -109 -205q-43 -27 -91 -27q-59 0 -75 53q-4 14 -4 30q1 44 43 64q45 20 63 63q12 29 18 74l44 354q7 63 59 77q11 3 22 3h343q49 0 71 -40q10 -18 10 -41v-551q0 -67 -55 -83q-13 -3 -26 -3q-61 0 -77 54q-4 15 -4 32v482h-190z" glyph-name="afii10029" horiz-adv-x="707" unicode="Л"/>
<glyph d="M762 616l64 -366q27 -154 27 -175q0 -47 -36 -70q-19 -11 -40 -11q-66 0 -85 64q-5 17 -9 43l-48 316h-2l-109 -350q-18 -59 -60 -70q-13 -3 -29 -3q-56 0 -79 47q-5 12 -10 26l-109 350h-2l-48 -316q-10 -72 -41 -93q-21 -14 -53 -14q-52 0 -70 44q-6 16 -6 33 q0 38 21 152l70 393q19 101 107 102q63 0 90 -44q16 -26 39 -97l90 -279h2l92 285q27 84 50 108q28 27 77 27q88 0 107 -100v-2z" glyph-name="afii10030" horiz-adv-x="870" unicode="М"/>
<glyph d="M201 290v-210q0 -67 -55 -83q-13 -3 -26 -3q-61 0 -77 54q-4 15 -4 32v552q0 67 55 83q13 3 26 3q61 0 77 -54q4 -15 4 -32v-192h302v192q0 67 55 83q13 3 26 3q61 0 77 -54q4 -15 4 -32v-552q0 -67 -55 -83q-13 -3 -26 -3q-61 0 -77 54q-4 15 -4 32v210h-302z" glyph-name="afii10031" horiz-adv-x="704" unicode="Н"/>
<glyph d="M721 356q0 -188 -116 -291q-94 -81 -234 -81q-174 0 -270 120q-80 100 -80 252q0 188 116 291q94 81 234 81q174 0 270 -120q80 -100 80 -252zM547 356q0 125 -69 184q-44 38 -107 38q-113 0 -156 -109q-20 -51 -20 -113q0 -125 69 -184q44 -38 107 -38q113 0 156 109 q20 51 20 113z" glyph-name="afii10032" horiz-adv-x="742" unicode="О"/>
<glyph d="M493 562h-292v-482q0 -67 -55 -83q-13 -3 -26 -3q-61 0 -77 54q-4 15 -4 32v552q0 55 48 74q16 6 33 6h454q49 0 71 -40q10 -18 10 -41v-551q0 -67 -55 -83q-13 -3 -26 -3q-61 0 -77 54q-4 15 -4 32v482z" glyph-name="afii10033" horiz-adv-x="694" unicode="П"/>
<glyph d="M201 229v-149q0 -67 -55 -83q-13 -3 -26 -3q-61 0 -77 54q-4 15 -4 32v551q0 54 47 74q16 7 34 7h199q113 0 183 -74q61 -66 61 -168q0 -132 -90 -197q-61 -44 -149 -44h-123zM201 568v-195h87q69 0 96 53q11 21 11 44q0 74 -67 93q-19 5 -40 5h-87z" glyph-name="afii10034" horiz-adv-x="574" unicode="Р"/>
<glyph d="M21 356q0 174 107 278q98 94 246 94q132 0 187 -51q28 -27 28 -62q0 -45 -35 -67q-17 -10 -35 -10q-15 0 -65 19q-43 15 -76 15q-120 0 -164 -110q-19 -48 -19 -106q0 -115 66 -173q43 -37 103 -37q61 0 118 23q25 10 41 10q61 0 71 -59q1 -9 1 -16q0 -72 -109 -104 q-55 -16 -115 -16q-176 0 -273 126q-77 101 -77 246z" glyph-name="afii10035" horiz-adv-x="593" unicode="С"/>
<glyph d="M317 562v-482q0 -67 -55 -83q-13 -3 -26 -3q-61 0 -77 54q-4 15 -4 32v482h-91q-66 0 -81 51q-3 12 -3 24q0 62 61 73q11 2 23 2h344q72 0 82 -58q2 -8 2 -17q0 -57 -54 -71q-14 -4 -30 -4h-91z" glyph-name="afii10036" horiz-adv-x="472" unicode="Т"/>
<glyph d="M309 359l132 285q21 44 35 56q22 18 56 18q48 0 70 -42q9 -18 9 -37q0 -24 -18 -61l-177 -372q-63 -132 -135 -176q-57 -34 -143 -34q-80 0 -111 42q-12 17 -12 35q0 56 36 76q12 6 25 6q10 0 28 -5q26 -6 45 -6q48 1 70 34l7 11l-213 389q-18 34 -18 61q0 46 41 68 q20 11 45 11q46 0 71 -41q7 -11 16 -30z" glyph-name="afii10037" horiz-adv-x="596" unicode="У"/>
<glyph d="M461 83v-17q0 -71 -57 -84q-11 -2 -22 -2q-62 0 -76 57q-3 14 -3 29v17q-197 23 -264 152q-29 56 -29 124q0 148 126 222q69 41 167 53v18q0 71 57 84q11 2 22 2q62 0 76 -57q3 -14 3 -29v-18q191 -23 261 -146q32 -58 32 -129q0 -150 -129 -225q-68 -39 -164 -51z M580 360q0 76 -71 110q-23 10 -48 15v-250q89 16 112 84q7 20 7 41zM184 360q0 -80 77 -113q20 -8 42 -12v250q-88 -15 -112 -83q-7 -20 -7 -42z" glyph-name="afii10038" horiz-adv-x="764" unicode="Ф"/>
<glyph d="M306 518l91 126q35 50 55 63q18 11 39 11q59 0 79 -46q6 -14 6 -29q-1 -33 -30 -72l-142 -188l173 -232q30 -40 33 -59q2 -9 2 -19q0 -51 -43 -71q-17 -8 -36 -8q-41 0 -74 41q-3 4 -5 7l-148 202l-148 -202q-39 -46 -79 -48q-49 0 -70 41q-9 18 -9 38q0 22 6.5 35.5 t28.5 42.5l173 232l-142 188q-30 41 -30 72q0 44 39 65q21 10 46 10q39 0 74 -46q6 -8 20 -28z" glyph-name="afii10039" horiz-adv-x="612" unicode="Х"/>
<glyph d="M629 0h-509q-49 0 -71 40q-10 18 -10 41v551q0 67 55 83q13 3 26 3q61 0 77 -54q4 -15 4 -32v-482h292v482q0 67 55 83q13 3 26 3q61 0 77 -54q4 -15 4 -32v-482h43q66 0 79 -54q2 -10 2 -21v-168q0 -66 -54 -79q-10 -2 -21 -2q-55 0 -71 50q-4 15 -4 31v93z" glyph-name="afii10040" horiz-adv-x="795" unicode="Ц"/>
<glyph d="M443 240h-119q-233 0 -283 197q-12 50 -12 109v86q0 67 55 83q13 3 26 3q61 0 77 -54q4 -15 4 -32v-74q0 -138 96 -162q24 -6 52 -6h104v242q0 67 55 83q13 3 26 3q61 0 77 -54q4 -15 4 -32v-552q0 -67 -55 -83q-13 -3 -26 -3q-61 0 -77 54q-4 15 -4 32v160z" glyph-name="afii10041" horiz-adv-x="644" unicode="Ч"/>
<glyph d="M789 150v482q0 67 55 83q13 3 26 3q61 0 77 -54q4 -15 4 -32v-552q0 -55 -48 -74q-16 -6 -33 -6h-750q-49 0 -71 40q-10 18 -10 41v551q0 67 55 83q13 3 26 3q61 0 77 -54q4 -15 4 -32v-482h213v482q0 67 55 83q13 3 26 3q61 0 77 -54q4 -15 4 -32v-482h213z" glyph-name="afii10042" horiz-adv-x="990" unicode="Ш"/>
<glyph d="M789 150v482q0 67 55 83q13 3 26 3q61 0 77 -54q4 -15 4 -32v-482h43q66 0 79 -54q2 -10 2 -21v-168q0 -66 -54 -79q-10 -2 -21 -2q-55 0 -71 50q-4 15 -4 31v93h-805q-49 0 -71 40q-10 18 -10 41v551q0 67 55 83q13 3 26 3q61 0 77 -54q4 -15 4 -32v-482h213v482 q0 67 55 83q13 3 26 3q61 0 77 -54q4 -15 4 -32v-482h213z" glyph-name="afii10043" horiz-adv-x="1091" unicode="Щ"/>
<glyph d="M155 562h-91q-66 0 -81 51q-3 12 -3 24q0 62 61 73q11 2 23 2h174q78 -2 79 -75v-187h148q145 0 206 -103q31 -52 31 -116q0 -130 -93 -191q-62 -40 -155 -40h-218q-49 0 -71 40q-10 18 -10 41v481zM317 300v-156h119q75 0 93 50q5 13 5 28q0 72 -86 78h-12h-119z" glyph-name="afii10044" horiz-adv-x="718" unicode="Ъ"/>
<glyph d="M794 632v-552q0 -67 -55 -83q-13 -3 -26 -3q-61 0 -77 54q-4 15 -4 32v552q0 67 55 83q13 3 26 3q61 0 77 -54q4 -15 4 -32zM201 450h138q145 0 206 -103q31 -52 31 -116q0 -130 -93 -191q-62 -40 -155 -40h-208q-49 0 -71 40q-10 18 -10 41v551q0 67 55 83q13 3 26 3 q61 0 77 -54q4 -15 4 -32v-182zM201 300v-156h109q75 0 93 50q5 13 5 28q0 72 -86 78h-12h-109z" glyph-name="afii10045" horiz-adv-x="833" unicode="Ы"/>
<glyph d="M201 450h148q145 0 206 -103q31 -52 31 -116q0 -130 -93 -191q-62 -40 -155 -40h-218q-49 0 -71 40q-10 18 -10 41v551q0 67 55 83q13 3 26 3q61 0 77 -54q4 -15 4 -32v-182zM201 300v-156h119q75 0 93 50q5 13 5 28q0 72 -86 78h-12h-119z" glyph-name="afii10046" horiz-adv-x="602" unicode="Ь"/>
<glyph d="M398 433q-27 129 -147 138q-9 1 -18 1q-48 0 -106 -25q-27 -11 -42 -11q-43 0 -62 42q-8 17 -8 35q0 61 84 93q59 22 142 22q191 0 281 -140q58 -91 58 -218q0 -221 -141 -322q-89 -64 -210 -64q-109 0 -176 41q-49 33 -50 79q0 53 40 69q15 6 32 6q15 0 56 -16 q44 -17 96 -17q148 2 172 137h-223q-64 0 -78 51q-3 12 -3 24q0 58 53 72q14 3 28 3h222z" glyph-name="afii10047" horiz-adv-x="601" unicode="Э"/>
<glyph d="M201 440h109q28 166 153 241q79 47 181 47q169 0 263 -120q77 -100 77 -252q0 -189 -114 -292q-91 -80 -226 -80q-170 0 -264 121q-58 76 -72 185h-107v-210q0 -67 -55 -83q-13 -3 -26 -3q-61 0 -77 54q-4 15 -4 32v552q0 67 55 83q13 3 26 3q61 0 77 -54q4 -15 4 -32 v-192zM644 578q-106 0 -147 -109q-19 -51 -19 -113q0 -128 68 -187q40 -35 98 -35q106 0 147 109q19 51 19 113q0 128 -68 187q-40 35 -98 35z" glyph-name="afii10048" horiz-adv-x="1005" unicode="Ю"/>
<glyph d="M371 285h-2l-198 -246q-32 -40 -66 -44q-7 -1 -13 -1q-58 0 -76 52q-4 12 -4 22q1 34 34 70l136 150q-104 19 -144 110q-19 43 -19 93q0 120 91 181q61 40 147 40h195q49 0 71 -40q10 -18 10 -41v-551q0 -67 -55 -83q-13 -3 -26 -3q-61 0 -77 54q-4 15 -4 32v205z M371 405v157h-107q-54 0 -75 -42q-8 -16 -8 -35q0 -55 49 -74q18 -6 38 -6h103z" glyph-name="afii10049" horiz-adv-x="572" unicode="Я"/>
<glyph d="M541 457v-382q0 -49 -40 -72q-18 -9 -38 -9q-50 2 -73 50q-53 -59 -134 -60q-106 0 -177 89q-64 81 -64 193q0 128 80 211q68 71 161 71q83 0 131 -56q2 -3 3 -4q25 48 73 50q49 0 70 -44q8 -18 8 -37zM385 266q0 80 -51 115q-25 17 -56 17q-68 0 -95 -67 q-12 -30 -12 -65q0 -80 51 -115q25 -17 56 -17q68 0 95 67q12 30 12 65z" glyph-name="afii10065" horiz-adv-x="577" unicode="а"/>
<glyph d="M541 260q0 -144 -95 -221q-69 -55 -168 -55q-181 0 -239 162q-24 68 -24 156q1 317 207 385q30 10 128 24q8 1 15 2q14 2 37 9q24 6 34 6q49 0 63 -49q4 -13 4 -25q-2 -57 -61 -72q-11 -3 -122 -17q-15 -1 -25 -3q-85 -14 -105 -85q-2 -6 -3 -11h3q56 44 134 44 q113 0 174 -90q43 -66 43 -160zM278 372q-69 0 -96 -63q-11 -27 -11 -58q0 -74 51 -106q25 -16 56 -16q68 0 96 63q11 27 11 59q0 74 -51 106q-25 15 -56 15z" glyph-name="afii10066" horiz-adv-x="539" unicode="б"/>
<glyph d="M36 81v377q0 54 47 74q16 7 34 7h191q128 0 167 -78q13 -26 13 -57q0 -74 -62 -106q-9 -4 -18 -7v-1q85 -14 108 -87q6 -21 6 -42q0 -142 -188 -159q-27 -2 -56 -2h-161q-49 0 -71 40q-10 18 -10 41zM192 409v-81h90q55 1 56 41q-2 39 -52 40h-94zM192 218v-88h111 q62 1 63 43q-2 44 -63 45h-111z" glyph-name="afii10067" horiz-adv-x="542" unicode="в"/>
<glyph d="M192 388v-313q0 -49 -40 -72q-18 -9 -38 -9q-49 0 -70 44q-8 18 -8 37v385q2 71 82 72h187q81 -2 82 -72q-2 -71 -82 -72h-113z" glyph-name="afii10068" horiz-adv-x="385" unicode="г"/>
<glyph d="M528 0h-387v-92q0 -68 -53 -78q-7 -1 -15 -1q-53 0 -66 51q-3 14 -3 28v162q0 56 48 70q13 4 26 4h4q21 34 34 110l35 206q11 67 72 72h12h256q81 -2 82 -72v-316h19q58 0 71 -50q3 -12 3 -24v-162q0 -65 -51 -77q-9 -2 -18 -2q-50 0 -65 48q-4 15 -4 31v92zM293 388 l-25 -148q-10 -59 -26 -96h175v244h-124z" glyph-name="afii10069" horiz-adv-x="674" unicode="д"/>
<glyph d="M465 215h-282q0 -47 46 -71q32 -16 79 -16q46 0 112 33q34 16 48 16q41 0 58 -36q7 -15 7 -31q0 -59 -89 -96q-71 -30 -156 -30q-138 0 -215 100q-58 77 -58 182q0 119 81 202q79 80 192 80q121 0 194 -94q59 -74 59 -171q0 -55 -42 -65q-14 -3 -34 -3zM183 322h202 q0 36 -35 67q-30 27 -66 27q-54 0 -86 -50q-15 -24 -15 -44z" glyph-name="afii10070" unicode="е"/>
<glyph d="M458 339l139 145q39 42 64 50q12 4 24 4q51 0 69 -41q6 -14 6 -29q0 -30 -40 -71q-6 -7 -14 -14l-96 -92l124 -156q33 -40 35 -64q1 -5 1 -10q0 -38 -37 -58q-17 -9 -37 -9q-37 0 -63 25q-10 10 -23 27l-152 191v-162q0 -49 -40 -72q-18 -9 -38 -9q-49 0 -70 44 q-8 18 -8 37v162l-152 -191q-33 -42 -58 -49q-12 -3 -28 -3q-46 0 -66 37q-8 15 -8 30q0 28 27 63q5 5 9 11l124 156l-96 92q-48 47 -53 73q-1 7 -1 12q0 44 39 62q17 8 36 8q18 0 34.5 -8.5t26.5 -17.5t27 -28l139 -146v119q0 49 40 72q18 9 38 9q49 0 70 -44q8 -18 8 -37 v-118z" glyph-name="afii10072" horiz-adv-x="760" unicode="ж"/>
<glyph d="M440 147q0 -78 -75 -124q-64 -39 -162 -39t-160 46q-37 29 -38 62q0 50 40 66q12 4 24 4q22 0 55 -17q52 -28 91 -28q67 4 71 42q0 39 -60 45q-18 2 -43 2q-69 5 -72 62q2 56 80 61q77 6 78 44q-2 42 -55 43q-28 0 -79 -25q-28 -14 -43 -14q-50 0 -62 40q-3 10 -3 20 q0 67 100 97q49 14 104 14q104 0 158 -63q33 -39 33 -91q0 -73 -66 -108q-10 -6 -20 -9q103 -34 104 -130z" glyph-name="afii10073" horiz-adv-x="460" unicode="з"/>
<glyph d="M376 75v214l-163 -223q-39 -53 -66 -65q-17 -7 -36 -7q-57 0 -71 53q-4 14 -4 28v383q0 49 40 72q18 9 38 9q49 0 70 -44q8 -18 8 -37v-225l170 237q37 52 65 63q16 6 35 6q46 0 63 -45q7 -17 7 -36v-383q0 -49 -40 -72q-18 -9 -38 -9q-49 0 -70 44q-8 18 -8 37z" glyph-name="afii10074" horiz-adv-x="568" unicode="и"/>
<glyph d="M288 582q-91 0 -145 59q-38 42 -38 96q0 51 40 61q9 2 17 2q31 0 49 -37q20 -42 23 -47q20 -25 54 -26q42 0 64 43q2 5 7 17q17 38 35 46q10 4 20 4q47 0 56 -47q1 -8 1 -16q0 -78 -71 -124q-50 -31 -112 -31zM376 75v214l-163 -223q-39 -53 -66 -65q-17 -7 -36 -7 q-57 0 -71 53q-4 14 -4 28v383q0 49 40 72q18 9 38 9q49 0 70 -44q8 -18 8 -37v-225l170 237q37 52 65 63q16 6 35 6q46 0 63 -45q7 -17 7 -36v-383q0 -49 -40 -72q-18 -9 -38 -9q-49 0 -70 44q-8 18 -8 37z" glyph-name="afii10075" horiz-adv-x="568" unicode="й"/>
<glyph d="M192 339l139 145q39 42 64 50q12 4 24 4q51 0 69 -41q6 -14 6 -29q0 -30 -40 -71q-6 -7 -14 -14l-96 -92l124 -156q33 -40 35 -64q1 -5 1 -10q0 -38 -37 -58q-17 -9 -37 -9q-38 0 -62 24q-10 10 -24 28l-152 193v-164q0 -49 -40 -72q-18 -9 -38 -9q-49 0 -70 44 q-8 18 -8 37v382q0 49 40 72q18 9 38 9q49 0 70 -44q8 -18 8 -37v-118z" glyph-name="afii10076" horiz-adv-x="494" unicode="к"/>
<glyph d="M273 388l-34 -215q-30 -178 -186 -179q-34 0 -51 34q-7 16 -7 35q0 39 29 53q4 2 7 3q39 16 53 66q5 17 9 41l38 234q11 67 72 72h12h246q81 -2 82 -72v-385q0 -49 -40 -72q-18 -9 -38 -9q-49 0 -70 44q-8 18 -8 37v313h-114z" glyph-name="afii10077" horiz-adv-x="579" unicode="л"/>
<glyph d="M657 442l42 -281q12 -76 12 -92q0 -51 -44 -69q-16 -6 -35 -6q-56 0 -72 56q-2 8 -3 15l-31 237h-2l-71 -219q-20 -60 -41 -76q-18 -13 -46 -13q-47 0 -69 41q-9 17 -22 53l-74 214h-2l-24 -228q-6 -58 -50 -75q-13 -5 -26 -5q-59 0 -75 48q-4 13 -4 27q0 29 13 107 l43 270q13 81 89 91q10 1 19 1q80 -1 105 -77l76 -233h2l80 232q25 72 97 78h14q84 -2 99 -96z" glyph-name="afii10078" horiz-adv-x="731" unicode="м"/>
<glyph d="M192 213v-138q0 -49 -40 -72q-18 -9 -38 -9q-49 0 -70 44q-8 18 -8 37v383q0 49 40 72q18 9 38 9q49 0 70 -44q8 -18 8 -37v-116h172v116q0 49 40 72q18 9 38 9q49 0 70 -44q8 -18 8 -37v-383q0 -49 -40 -72q-18 -9 -38 -9q-49 0 -70 44q-8 18 -8 37v138h-172z" glyph-name="afii10079" unicode="н"/>
<glyph d="M278 548q128 0 203 -97q60 -78 60 -185q0 -131 -84 -212q-73 -70 -179 -70q-128 0 -203 97q-60 78 -60 185q0 131 84 212q73 70 179 70zM278 398q-68 0 -95 -67q-12 -30 -12 -65q0 -80 51 -115q25 -17 56 -17q68 0 95 67q12 30 12 65q0 80 -51 115q-25 17 -56 17z" glyph-name="afii10080" unicode="о"/>
<glyph d="M192 388v-313q0 -49 -40 -72q-18 -9 -38 -9q-49 0 -70 44q-8 18 -8 37v385q2 71 82 72h320q81 -2 82 -72v-385q0 -49 -40 -72q-18 -9 -38 -9q-49 0 -70 44q-8 18 -8 37v313h-172z" glyph-name="afii10081" unicode="п"/>
<glyph d="M36 -141v598q0 49 40 72q18 9 38 9q50 -2 73 -50q53 59 134 60q106 0 177 -89q64 -81 64 -193q0 -128 -80 -211q-68 -71 -161 -71q-76 1 -129 44v-169q0 -49 -40 -72q-18 -9 -38 -9q-49 0 -70 44q-8 18 -8 37zM299 134q68 0 95 67q12 30 12 65q0 80 -51 115 q-25 17 -56 17q-68 0 -95 -67q-12 -30 -12 -65q0 -80 51 -115q25 -17 56 -17z" glyph-name="afii10082" horiz-adv-x="577" unicode="р"/>
<glyph d="M15 266q0 131 84 212q73 70 179 70q110 0 159 -45q26 -24 26 -58q0 -48 -37 -66q-13 -7 -27 -7q-16 0 -51 14q-30 12 -61 12q-81 0 -107 -75q-9 -27 -9 -57q0 -80 51 -115q25 -17 56 -17q41 0 97 21q16 6 24 6q36 0 55 -36q9 -17 9 -33q0 -61 -92 -92q-48 -16 -93 -16 q-128 0 -203 97q-60 78 -60 185z" glyph-name="afii10083" horiz-adv-x="463" unicode="с"/>
<glyph d="M156 388h-76q-81 2 -82 72q2 71 82 72h305q81 -2 82 -72q-2 -71 -82 -72h-73v-313q0 -49 -40 -72q-18 -9 -38 -9q-49 0 -70 44q-8 18 -8 37v313z" glyph-name="afii10084" horiz-adv-x="465" unicode="т"/>
<glyph d="M156 479l91 -238h2l92 227q23 56 56 67q11 3 23 3q56 0 74 -46q6 -16 6 -33q0 -26 -19 -68l-199 -464q-50 -114 -134 -140q-30 -9 -66 -9q-64 0 -71 57q-1 6 -1 12q2 49 50 59q52 12 73 63l33 82l-133 317q-33 77 -33 97q0 48 43 66q16 7 33 7q53 0 75 -48q3 -6 5 -11z " glyph-name="afii10085" horiz-adv-x="500" unicode="у"/>
<glyph d="M434 548q137 -9 210 -109q53 -74 53 -173q0 -137 -94 -217q-70 -58 -169 -65v-125q0 -49 -40 -72q-18 -9 -38 -9q-49 0 -70 44q-8 18 -8 37v125q-137 9 -210 109q-53 74 -53 173q0 137 94 217q70 58 169 65v141q0 49 40 72q18 9 38 9q49 0 70 -44q8 -18 8 -37v-141z M434 398v-264q72 4 97 73q10 27 10 59q0 83 -55 117q-24 14 -52 15zM278 398q-72 -4 -97 -73q-10 -27 -10 -59q0 -84 56 -117q23 -13 51 -15v264z" glyph-name="afii10086" horiz-adv-x="712" unicode="ф"/>
<glyph d="M23 139l133 141l-81 86q-49 52 -56 68q-4 11 -4 23q0 51 43 73q16 8 32 8q42 0 67 -27q5 -5 10 -11l83 -103l83 103q27 34 61 37q8 1 16 1q42 0 64 -38q11 -20 11 -43q0 -25 -28 -57q-9 -9 -32 -34l-81 -86l133 -141q29 -40 31 -67q0 -51 -45 -71q-17 -7 -35 -7 q-34 0 -66 36q-2 3 -3 4l-109 127l-109 -127q-31 -36 -59 -39q-6 -1 -10 -1q-49 0 -71 40q-9 18 -9 38q1 33 31 67z" glyph-name="afii10087" horiz-adv-x="500" unicode="х"/>
<glyph d="M475 0h-357q-81 2 -82 72v385q0 49 40 72q18 9 38 9q49 0 70 -44q8 -18 8 -37v-313h172v313q0 49 40 72q18 9 38 9q49 0 70 -44q8 -18 8 -37v-313h19q60 0 72 -52q2 -10 2 -21v-163q0 -65 -51 -77q-9 -2 -18 -2q-55 0 -67 54q-2 12 -2 25v92z" glyph-name="afii10088" horiz-adv-x="621" unicode="ц"/>
<glyph d="M329 161h-83q-136 0 -193 95q-33 56 -33 135v66q0 49 40 72q18 9 38 9q49 0 70 -44q8 -18 8 -37v-49q0 -102 73 -113q11 -2 23 -2h57v164q0 49 40 72q18 9 38 9q49 0 70 -44q8 -18 8 -37v-382q0 -49 -40 -72q-18 -9 -38 -9q-49 0 -70 44q-8 18 -8 37v86z" glyph-name="afii10089" horiz-adv-x="521" unicode="ч"/>
<glyph d="M660 144v313q0 49 40 72q18 9 38 9q49 0 70 -44q8 -18 8 -37v-378q0 -53 -46 -72q-18 -7 -40 -7h-612q-81 2 -82 72v385q0 49 40 72q18 9 38 9q49 0 70 -44q8 -18 8 -37v-313h156v313q0 49 40 72q18 9 38 9q49 0 70 -44q8 -18 8 -37v-313h156z" glyph-name="afii10090" horiz-adv-x="852" unicode="ш"/>
<glyph d="M660 144v313q0 49 40 72q18 9 38 9q49 0 70 -44q8 -18 8 -37v-313h19q66 0 73 -58q1 -6 1 -12v-166q0 -65 -51 -77q-9 -2 -18 -2q-50 0 -65 48q-4 15 -4 31v92h-653q-81 2 -82 72v385q0 49 40 72q18 9 38 9q49 0 70 -44q8 -18 8 -37v-313h156v313q0 49 40 72q18 9 38 9 q49 0 70 -44q8 -18 8 -37v-313h156z" glyph-name="afii10091" horiz-adv-x="917" unicode="щ"/>
<glyph d="M156 388h-76q-81 2 -82 72q2 71 82 72h150q81 -2 82 -72v-108h138q123 0 171 -86q21 -39 21 -85q0 -139 -148 -172q-43 -9 -96 -9h-161q-49 0 -71 40q-10 18 -10 41v307zM312 228v-98h111q55 0 62 41q1 5 1 9q0 40 -47 47q-8 1 -16 1h-111z" glyph-name="afii10092" horiz-adv-x="652" unicode="ъ"/>
<glyph d="M717 457v-382q0 -49 -40 -72q-18 -9 -38 -9q-49 0 -70 44q-8 18 -8 37v382q0 49 40 72q18 9 38 9q49 0 70 -44q8 -18 8 -37zM192 352h128q123 0 171 -86q21 -39 21 -85q0 -139 -148 -172q-43 -9 -96 -9h-151q-49 0 -71 40q-10 18 -10 41v376q0 49 40 72q18 9 38 9 q49 0 70 -44q8 -18 8 -37v-105zM192 228v-98h101q55 0 62 41q1 5 1 9q0 40 -47 47q-8 1 -16 1h-101z" glyph-name="afii10093" horiz-adv-x="753" unicode="ы"/>
<glyph d="M192 352h138q123 0 171 -86q21 -39 21 -85q0 -139 -148 -172q-43 -9 -96 -9h-161q-49 0 -71 40q-10 18 -10 41v376q0 49 40 72q18 9 38 9q49 0 70 -44q8 -18 8 -37v-105zM192 228v-98h111q55 0 62 41q1 5 1 9q0 40 -47 47q-8 1 -16 1h-111z" glyph-name="afii10094" horiz-adv-x="532" unicode="ь"/>
<glyph d="M464 280q0 -175 -119 -252q-68 -44 -154 -44q-120 0 -167 55q-19 22 -19 47q0 37 33 56q15 8 31 8q6 0 48 -14q36 -12 70 -12q82 0 108 60q3 9 5 17h-138q-80 2 -81 64q2 63 81 64h138q-21 75 -108 76q-31 0 -81 -16q-20 -7 -33 -7q-43 0 -59 39q-5 15 -5 30q0 47 65 75 q52 22 127 22q154 0 221 -117q37 -65 37 -151z" glyph-name="afii10095" horiz-adv-x="479" unicode="э"/>
<glyph d="M752 266q0 -132 -82 -213q-70 -69 -171 -69q-125 0 -197 98q-41 56 -53 131h-57v-138q0 -49 -40 -72q-18 -9 -38 -9q-49 0 -70 44q-8 18 -8 37v383q0 49 40 72q18 9 38 9q49 0 70 -44q8 -18 8 -37v-116h61q27 118 121 173q56 33 125 33q123 0 195 -97q58 -78 58 -185z M596 266q0 84 -49 118q-22 14 -48 14q-62 0 -87 -67q-11 -30 -11 -65q0 -83 49 -117q22 -15 49 -15q63 0 87 68q10 30 10 64z" glyph-name="afii10096" horiz-adv-x="767" unicode="ю"/>
<glyph d="M334 201l-163 -162q-46 -44 -85 -45q-53 0 -70 45q-4 11 -4 21q0 33 27 59q4 4 8 7l118 104h-8q-80 0 -120 59q-22 34 -22 78q0 153 195 170q24 2 49 2h150q49 0 71 -40q10 -18 10 -41v-383q0 -49 -40 -72q-18 -9 -38 -9q-49 0 -70 44q-8 18 -8 37v126zM334 321v88h-100 q-62 -1 -63 -43q2 -44 63 -45h100z" glyph-name="afii10097" horiz-adv-x="526" unicode="я"/>
<glyph d="M465 215h-282q0 -47 46 -71q32 -16 79 -16q46 0 112 33q34 16 48 16q41 0 58 -36q7 -15 7 -31q0 -59 -89 -96q-71 -30 -156 -30q-138 0 -215 100q-58 77 -58 182q0 119 81 202q79 80 192 80q121 0 194 -94q59 -74 59 -171q0 -55 -42 -65q-14 -3 -34 -3zM183 322h202 q0 36 -35 67q-30 27 -66 27q-54 0 -86 -50q-15 -24 -15 -44zM205 782l150 -65q36 -16 37 -55q0 -46 -37 -63q-13 -6 -28 -6q-21 0 -41 9l-150 65q-36 16 -37 55q0 46 37 63q13 6 28 6q21 0 41 -9z" glyph-name="uni0450" unicode="ѐ"/>
<glyph d="M465 215h-282q0 -47 46 -71q32 -16 79 -16q46 0 112 33q34 16 48 16q41 0 58 -36q7 -15 7 -31q0 -59 -89 -96q-71 -30 -156 -30q-138 0 -215 100q-58 77 -58 182q0 119 81 202q79 80 192 80q121 0 194 -94q59 -74 59 -171q0 -55 -42 -65q-14 -3 -34 -3zM183 322h202 q0 36 -35 67q-30 27 -66 27q-54 0 -86 -50q-15 -24 -15 -44zM385 770q46 0 68 -40q10 -18 10 -38q0 -46 -40 -68q-18 -10 -38 -10q-46 0 -68 40q-10 18 -10 38q0 46 40 68q18 10 38 10zM153 770q46 0 68 -40q10 -18 10 -38q0 -46 -40 -68q-18 -10 -38 -10q-46 0 -68 40 q-10 18 -10 38q0 46 40 68q18 10 38 10z" glyph-name="afii10071" unicode="ё"/>
<glyph d="M202 545v-83h2q63 39 132 39q123 0 170 -84q24 -42 24 -100v-310q0 -154 -111 -210q-48 -24 -105 -24q-63 0 -69 58q-1 6 -1 11q1 48 44 58q85 19 86 110v265q0 64 -48 86q-18 8 -38 8q-59 0 -79 -53q-7 -19 -7 -41v-200q0 -49 -40 -72q-18 -9 -38 -9q-49 0 -70 44 q-8 18 -8 37v470h-15q-55 0 -67 45q-3 10 -3 21q0 52 48 64q11 2 22 2h15v12q0 49 40 72q18 9 38 9q49 0 70 -44q8 -18 8 -37v-12h151q55 0 67 -45q3 -10 3 -21q0 -52 -48 -64q-11 -2 -22 -2h-151z" glyph-name="afii10099" horiz-adv-x="566" unicode="ђ"/>
<glyph d="M337 667l-150 -65q-21 -9 -41 -9q-45 0 -60 41q-5 14 -5 28q1 40 37 55l150 65q21 9 41 9q45 0 60 -41q5 -14 5 -28q-1 -40 -37 -55zM192 388v-313q0 -49 -40 -72q-18 -9 -38 -9q-49 0 -70 44q-8 18 -8 37v385q2 71 82 72h187q81 -2 82 -72q-2 -71 -82 -72h-113z" glyph-name="afii10100" horiz-adv-x="385" unicode="ѓ"/>
<glyph d="M179 329h138q80 -2 81 -64q-2 -63 -81 -64h-138q16 -67 85 -76q9 -1 17 -1q41 0 100 20q16 6 24 6q38 0 56 -35q8 -14 8 -29q0 -48 -68 -78q-54 -24 -129 -24q-134 0 -205 100q-52 74 -52 182q0 150 100 227q72 55 175 55q122 0 164 -56q15 -20 15 -41q0 -48 -39 -64 q-12 -5 -25 -5q-12 0 -53 13q-31 10 -61 10q-89 0 -111 -72q-1 -2 -1 -4z" glyph-name="afii10101" horiz-adv-x="474" unicode="є"/>
<glyph d="M9 92q0 49 37 68q13 7 27 7q22 0 69 -23q46 -22 81 -22q42 2 44 31q0 21 -29 34q-10 5 -39 16q-33 13 -53 21q-80 33 -104 70q-19 31 -19 77q0 78 64 131q57 46 137 46q75 0 131 -35q48 -31 49 -76q0 -45 -39 -61q-12 -5 -26 -5q-13 0 -61 22q-39 17 -64 17 q-36 0 -40 -27q-1 -3 -1 -6q0 -21 51 -41q8 -3 26 -10q91 -33 126 -66q41 -41 41 -101q0 -96 -83 -145q-52 -30 -117 -30q-104 0 -167 43q-40 28 -41 65z" glyph-name="afii10102" horiz-adv-x="426" unicode="ѕ"/>
<glyph d="M33 75v382q0 49 40 72q18 9 38 9q49 0 70 -44q8 -18 8 -37v-382q0 -49 -40 -72q-18 -9 -38 -9q-49 0 -70 44q-8 18 -8 37zM18 677q0 53 45 80q23 13 48 13q52 0 79 -44q14 -23 14 -49q0 -53 -45 -80q-23 -13 -48 -13q-52 0 -79 44q-14 23 -14 49z" glyph-name="afii10103" horiz-adv-x="222" unicode="і"/>
<glyph d="M33 75v382q0 49 40 72q18 9 38 9q49 0 70 -44q8 -18 8 -37v-382q0 -49 -40 -72q-18 -9 -38 -9q-49 0 -70 44q-8 18 -8 37zM227 770q46 0 68 -40q10 -18 10 -38q0 -46 -40 -68q-18 -10 -38 -10q-46 0 -68 40q-10 18 -10 38q0 46 40 68q18 10 38 10zM-5 770q46 0 68 -40 q10 -18 10 -38q0 -46 -40 -68q-18 -10 -38 -10q-46 0 -68 40q-10 18 -10 38q0 46 40 68q18 10 38 10z" glyph-name="afii10104" horiz-adv-x="222" unicode="ї"/>
<glyph d="M33 -141v598q0 49 40 72q18 9 38 9q49 0 70 -44q8 -18 8 -37v-598q0 -49 -40 -72q-18 -9 -38 -9q-49 0 -70 44q-8 18 -8 37zM18 677q0 53 45 80q23 13 48 13q52 0 79 -44q14 -23 14 -49q0 -53 -45 -80q-23 -13 -48 -13q-52 0 -79 44q-14 23 -14 49z" glyph-name="afii10105" horiz-adv-x="222" unicode="ј"/>
<glyph d="M273 388l-34 -215q-30 -178 -186 -179q-34 0 -51 34q-7 16 -7 35q0 39 29 53q4 2 7 3q39 16 53 66q5 17 9 41l38 234q11 67 72 72h12h246q81 -2 82 -72v-108h138q123 0 171 -86q21 -39 21 -85q0 -139 -148 -172q-43 -9 -96 -9h-161q-49 0 -71 40q-10 18 -10 41v307h-114z M543 228v-98h111q55 0 62 41q1 5 1 9q0 40 -47 47q-8 1 -16 1h-111z" glyph-name="afii10106" horiz-adv-x="883" unicode="љ"/>
<glyph d="M364 352v106q0 49 40 72q18 9 38 9q49 0 70 -44q8 -18 8 -37v-106h138q123 0 171 -86q21 -39 21 -85q0 -139 -148 -172q-43 -9 -96 -9h-161q-49 0 -71 40q-10 18 -10 41v147h-172v-153q0 -49 -40 -72q-18 -9 -38 -9q-49 0 -70 44q-8 18 -8 37v383q0 49 40 72q18 9 38 9 q49 0 70 -44q8 -18 8 -37v-106h172zM520 228v-98h111q55 0 62 41q1 5 1 9q0 40 -47 47q-8 1 -16 1h-111z" glyph-name="afii10107" horiz-adv-x="860" unicode="њ"/>
<glyph d="M202 545v-83h2q63 39 132 39q123 0 170 -84q24 -42 24 -100v-242q0 -49 -40 -72q-18 -9 -38 -9q-49 0 -70 44q-8 18 -8 37v200q0 64 -48 86q-18 8 -38 8q-59 0 -79 -53q-7 -19 -7 -41v-200q0 -49 -40 -72q-18 -9 -38 -9q-49 0 -70 44q-8 18 -8 37v470h-15q-55 0 -67 45 q-3 10 -3 21q0 52 48 64q11 2 22 2h15v12q0 49 40 72q18 9 38 9q49 0 70 -44q8 -18 8 -37v-12h151q55 0 67 -45q3 -10 3 -21q0 -52 -48 -64q-11 -2 -22 -2h-151z" glyph-name="afii10108" horiz-adv-x="566" unicode="ћ"/>
<glyph d="M385 667l-150 -65q-21 -9 -41 -9q-45 0 -60 41q-5 14 -5 28q1 40 37 55l150 65q21 9 41 9q45 0 60 -41q5 -14 5 -28q-1 -40 -37 -55zM192 339l139 145q39 42 64 50q12 4 24 4q51 0 69 -41q6 -14 6 -29q0 -30 -40 -71q-6 -7 -14 -14l-96 -92l124 -156q33 -40 35 -64 q1 -5 1 -10q0 -38 -37 -58q-17 -9 -37 -9q-38 0 -62 24q-10 10 -24 28l-152 193v-164q0 -49 -40 -72q-18 -9 -38 -9q-49 0 -70 44q-8 18 -8 37v382q0 49 40 72q18 9 38 9q49 0 70 -44q8 -18 8 -37v-118z" glyph-name="afii10109" horiz-adv-x="494" unicode="ќ"/>
<glyph d="M376 75v214l-163 -223q-39 -53 -66 -65q-17 -7 -36 -7q-57 0 -71 53q-4 14 -4 28v383q0 49 40 72q18 9 38 9q49 0 70 -44q8 -18 8 -37v-225l170 237q37 52 65 63q16 6 35 6q46 0 63 -45q7 -17 7 -36v-383q0 -49 -40 -72q-18 -9 -38 -9q-49 0 -70 44q-8 18 -8 37zM243 782 l150 -65q36 -16 37 -55q0 -46 -37 -63q-13 -6 -28 -6q-21 0 -41 9l-150 65q-36 16 -37 55q0 46 37 63q13 6 28 6q21 0 41 -9z" glyph-name="uni045D" horiz-adv-x="568" unicode="ѝ"/>
<glyph d="M156 479l91 -238h2l92 227q23 56 56 67q11 3 23 3q56 0 74 -46q6 -16 6 -33q0 -26 -19 -68l-199 -464q-50 -114 -134 -140q-30 -9 -66 -9q-64 0 -71 57q-1 6 -1 12q2 49 50 59q52 12 73 63l33 82l-133 317q-33 77 -33 97q0 48 43 66q16 7 33 7q53 0 75 -48q3 -6 5 -11z M247 582q-91 0 -145 59q-38 42 -38 96q0 51 40 61q9 2 17 2q31 0 49 -37q20 -42 23 -47q20 -25 54 -26q42 0 64 43q2 5 7 17q17 38 35 46q10 4 20 4q47 0 56 -47q1 -8 1 -16q0 -78 -71 -124q-50 -31 -112 -31z" glyph-name="afii10110" horiz-adv-x="500" unicode="ў"/>
<glyph d="M364 144v313q0 49 40 72q18 9 38 9q49 0 70 -44q8 -18 8 -37v-385q-2 -71 -82 -72h-91v-92q0 -65 -51 -77q-9 -2 -18 -2q-50 0 -65 48q-4 15 -4 31v92h-91q-81 2 -82 72v385q0 49 40 72q18 9 38 9q49 0 70 -44q8 -18 8 -37v-313h172z" glyph-name="afii10193" unicode="џ"/>
<glyph d="M120 0q-49 0 -71 40q-10 18 -10 41v404h-93q-81 2 -82 72q2 71 82 72h93v4q0 69 57 82q12 3 24 3q63 0 78 -56q3 -14 3 -29v-4h93q81 -2 82 -72q-2 -71 -82 -72h-93v-35h148q145 0 206 -103q31 -52 31 -116q0 -130 -93 -191q-62 -40 -155 -40h-218zM201 144h119 q75 0 93 50q5 13 5 28q0 72 -86 78h-12h-119v-156z" glyph-name="afii10146" horiz-adv-x="602" unicode="Ѣ"/>
<glyph d="M117 0q-49 0 -71 40q-10 18 -10 41v307h-76q-81 2 -82 72q2 71 82 72h76v102q0 49 40 72q18 9 38 9q49 0 70 -44q8 -18 8 -37v-102h81q81 -2 82 -72q-2 -71 -82 -72h-81v-36h138q123 0 171 -86q21 -39 21 -85q0 -139 -148 -172q-43 -9 -96 -9h-161zM192 130h111 q55 0 62 41q1 5 1 9q0 40 -47 47q-8 1 -16 1h-111v-98z" glyph-name="afii10194" horiz-adv-x="532" unicode="ѣ"/>
<glyph d="M371 -16q-174 0 -270 120q-80 100 -80 252q0 188 116 291q94 81 234 81q174 0 270 -120q80 -100 80 -252q0 -188 -116 -291q-94 -81 -234 -81zM371 126q119 0 163 115q7 20 12 43q-36 -20 -76 -20q-49 0 -114 38q-63 32 -92 34q-41 -1 -72 -28q17 -126 104 -166 q34 -16 75 -16zM472 393q45 1 74 31q-23 119 -113 152q-29 10 -62 10q-120 0 -164 -119q-3 -9 -6 -17q32 14 64 14q49 0 117 -38q62 -32 90 -33z" glyph-name="afii10147" horiz-adv-x="742" unicode="Ѳ"/>
<glyph d="M278 -16q-128 0 -203 97q-60 78 -60 185q0 131 84 212q73 70 179 70q128 0 203 -97q60 -78 60 -185q0 -131 -84 -212q-73 -70 -179 -70zM278 127q70 0 99 67q6 14 9 29q-25 -13 -53 -13q-22 0 -71 17q-25 8 -43 8q-29 0 -50 -13q17 -72 76 -90q16 -5 33 -5zM329 309 q30 1 52 17q-25 71 -90 78q-7 1 -13 1q-71 0 -100 -69q-2 -5 -3 -8q22 7 40 7q23 0 70 -17q26 -9 44 -9z" glyph-name="afii10195" unicode="ѳ"/>
<glyph d="M277 -6q-53 0 -78 56q-5 10 -12 30l-190 500q-17 40 -17 59q0 45 38 68q19 11 41 11q58 0 81 -50q4 -9 9 -23l130 -364l99 288q56 146 200 149q64 0 71 -57q1 -6 1 -12q-2 -49 -50 -59q-41 -8 -61 -58q-2 -4 -3 -7l-169 -445q-20 -55 -41 -71q-21 -15 -49 -15z" glyph-name="afii10148" horiz-adv-x="574" unicode="Ѵ"/>
<glyph d="M227 -6q-60 1 -86 63l-122 316q-24 60 -24 87q0 44 39 67q19 11 39 11q54 0 74 -55q1 -3 1 -4l78 -236h2l44 146q42 141 174 149h15q64 0 71 -57q1 -6 1 -12q-2 -49 -50 -59q-37 -7 -55 -47q-4 -8 -7 -16l-108 -290q-25 -62 -86 -63z" glyph-name="afii10196" horiz-adv-x="464" unicode="ѵ"/>
<glyph d="M449 805v-168q0 -60 -56 -73q-12 -2 -25 -2h-167v-482q0 -67 -55 -83q-13 -3 -26 -3q-61 0 -77 54q-4 15 -4 32v551q0 54 47 74q16 7 34 7h179v93q0 66 54 79q10 2 21 2q55 0 71 -50q4 -15 4 -31z" glyph-name="afii10050" horiz-adv-x="429" unicode="Ґ"/>
<glyph d="M249 532v92q0 65 51 77q9 2 18 2q50 0 65 -48q4 -15 4 -31v-164q-2 -71 -82 -72h-113v-313q0 -49 -40 -72q-18 -9 -38 -9q-49 0 -70 44q-8 18 -8 37v385q2 71 82 72h131z" glyph-name="afii10098" horiz-adv-x="385" unicode="ґ"/>
<glyph d="M120 115l-108 441q-16 68 -16 83q0 48 41 70q19 9 40 9q67 -1 84 -72l83 -384h2l117 373q23 73 72 81q9 2 19 2q56 0 82 -59q5 -11 9 -24l117 -373h2l83 384q18 71 84 72q52 0 73 -43q8 -17 8 -36q0 -17 -16 -83l-108 -441q-19 -78 -45 -100q-25 -21 -69 -21 q-85 0 -114 86q-1 2 -1 3l-104 326h-2l-104 -326q-33 -87 -115 -89q-65 0 -90 48q-12 23 -24 73zM381 948l150 -65q36 -16 37 -55q0 -46 -37 -63q-13 -6 -28 -6q-21 0 -41 9l-150 65q-36 16 -37 55q0 46 37 63q13 6 28 6q21 0 41 -9z" glyph-name="Wgrave" horiz-adv-x="908" unicode="Ẁ"/>
<glyph d="M128 71l-109 305q-22 60 -24 87q0 51 44 69q16 6 35 6q58 -1 74 -55l76 -253h2l70 219q19 60 42 76q18 13 42 13q20 0 34.5 -7t24 -22.5t14 -27t11.5 -32.5l70 -219h2l76 253q18 53 74 55q59 0 75 -48q4 -13 4 -27q-2 -28 -24 -86v-1l-109 -305q-23 -64 -70 -74 q-13 -3 -27 -3q-54 0 -78 45q-7 15 -15 37l-61 184h-2l-61 -184q-20 -60 -51 -74q-18 -8 -42 -8q-62 0 -89 56q-4 10 -8 21zM302 782l150 -65q36 -16 37 -55q0 -46 -37 -63q-13 -6 -28 -6q-21 0 -41 9l-150 65q-36 16 -37 55q0 46 37 63q13 6 28 6q21 0 41 -9z" glyph-name="wgrave" horiz-adv-x="760" unicode="ẁ"/>
<glyph d="M120 115l-108 441q-16 68 -16 83q0 48 41 70q19 9 40 9q67 -1 84 -72l83 -384h2l117 373q23 73 72 81q9 2 19 2q56 0 82 -59q5 -11 9 -24l117 -373h2l83 384q18 71 84 72q52 0 73 -43q8 -17 8 -36q0 -17 -16 -83l-108 -441q-19 -78 -45 -100q-25 -21 -69 -21 q-85 0 -114 86q-1 2 -1 3l-104 326h-2l-104 -326q-33 -87 -115 -89q-65 0 -90 48q-12 23 -24 73zM613 833l-150 -65q-21 -9 -41 -9q-45 0 -60 41q-5 14 -5 28q1 40 37 55l150 65q21 9 41 9q45 0 60 -41q5 -14 5 -28q-1 -40 -37 -55z" glyph-name="Wacute" horiz-adv-x="908" unicode="Ẃ"/>
<glyph d="M128 71l-109 305q-22 60 -24 87q0 51 44 69q16 6 35 6q58 -1 74 -55l76 -253h2l70 219q19 60 42 76q18 13 42 13q20 0 34.5 -7t24 -22.5t14 -27t11.5 -32.5l70 -219h2l76 253q18 53 74 55q59 0 75 -48q4 -13 4 -27q-2 -28 -24 -86v-1l-109 -305q-23 -64 -70 -74 q-13 -3 -27 -3q-54 0 -78 45q-7 15 -15 37l-61 184h-2l-61 -184q-20 -60 -51 -74q-18 -8 -42 -8q-62 0 -89 56q-4 10 -8 21zM527 667l-150 -65q-21 -9 -41 -9q-45 0 -60 41q-5 14 -5 28q1 40 37 55l150 65q21 9 41 9q45 0 60 -41q5 -14 5 -28q-1 -40 -37 -55z" glyph-name="wacute" horiz-adv-x="760" unicode="ẃ"/>
<glyph d="M120 115l-108 441q-16 68 -16 83q0 48 41 70q19 9 40 9q67 -1 84 -72l83 -384h2l117 373q23 73 72 81q9 2 19 2q56 0 82 -59q5 -11 9 -24l117 -373h2l83 384q18 71 84 72q52 0 73 -43q8 -17 8 -36q0 -17 -16 -83l-108 -441q-19 -78 -45 -100q-25 -21 -69 -21 q-85 0 -114 86q-1 2 -1 3l-104 326h-2l-104 -326q-33 -87 -115 -89q-65 0 -90 48q-12 23 -24 73zM570 936q46 0 68 -40q10 -18 10 -38q0 -46 -40 -68q-18 -10 -38 -10q-46 0 -68 40q-10 18 -10 38q0 46 40 68q18 10 38 10zM338 936q46 0 68 -40q10 -18 10 -38q0 -46 -40 -68 q-18 -10 -38 -10q-46 0 -68 40q-10 18 -10 38q0 46 40 68q18 10 38 10z" glyph-name="Wdieresis" horiz-adv-x="908" unicode="Ẅ"/>
<glyph d="M128 71l-109 305q-22 60 -24 87q0 51 44 69q16 6 35 6q58 -1 74 -55l76 -253h2l70 219q19 60 42 76q18 13 42 13q20 0 34.5 -7t24 -22.5t14 -27t11.5 -32.5l70 -219h2l76 253q18 53 74 55q59 0 75 -48q4 -13 4 -27q-2 -28 -24 -86v-1l-109 -305q-23 -64 -70 -74 q-13 -3 -27 -3q-54 0 -78 45q-7 15 -15 37l-61 184h-2l-61 -184q-20 -60 -51 -74q-18 -8 -42 -8q-62 0 -89 56q-4 10 -8 21zM498 770q46 0 68 -40q10 -18 10 -38q0 -46 -40 -68q-18 -10 -38 -10q-46 0 -68 40q-10 18 -10 38q0 46 40 68q18 10 38 10zM266 770q46 0 68 -40 q10 -18 10 -38q0 -46 -40 -68q-18 -10 -38 -10q-46 0 -68 40q-10 18 -10 38q0 46 40 68q18 10 38 10z" glyph-name="wdieresis" horiz-adv-x="760" unicode="ẅ"/>
<glyph d="M188 80v254l-140 188q-55 77 -62 96q-5 14 -5 28q0 46 46 64q19 8 40 8q20 0 36.5 -9t25.5 -19.5t19 -24.5l1 -2l120 -171l120 171q28 39 51 49q15 6 31 6q56 0 78 -40q8 -15 8 -32q0 -28 -30 -72q-8 -11 -37 -52l-140 -188v-254q0 -67 -55 -83q-13 -3 -26 -3 q-61 0 -77 54q-4 15 -4 32zM175 948l150 -65q36 -16 37 -55q0 -46 -37 -63q-13 -6 -28 -6q-21 0 -41 9l-150 65q-36 16 -37 55q0 46 37 63q13 6 28 6q21 0 41 -9z" glyph-name="Ygrave" horiz-adv-x="538" unicode="Ỳ"/>
<glyph d="M114 -66l52 117l-133 317q-33 77 -33 97q0 48 43 66q16 7 33 7q57 -1 80 -59l92 -238l87 212q29 70 64 82q10 3 21 3q56 0 74 -46q6 -16 6 -33q0 -26 -19 -68l-231 -539q-21 -48 -38 -61q-19 -13 -47 -13q-54 0 -72 46q-5 13 -5 24q0 27 26 85v1zM157 782l150 -65 q36 -16 37 -55q0 -46 -37 -63q-13 -6 -28 -6q-21 0 -41 9l-150 65q-36 16 -37 55q0 46 37 63q13 6 28 6q21 0 41 -9z" glyph-name="ygrave" horiz-adv-x="500" unicode="ỳ"/>
<glyph d="M95 345h236q51 0 63 -44q3 -11 3 -22q0 -51 -44 -63q-11 -3 -22 -3h-236q-51 0 -63 44q-3 11 -3 22q0 51 44 63q11 3 22 3z" glyph-name="uni2010" horiz-adv-x="426" unicode="‐"/>
<glyph d="M66 345h368q51 0 63 -44q3 -11 3 -22q0 -51 -44 -63q-11 -3 -22 -3h-368q-51 0 -63 44q-3 11 -3 22q0 51 44 63q11 3 22 3z" glyph-name="endash" horiz-adv-x="500" unicode="–"/>
<glyph d="M0 345h1000q51 0 63 -44q3 -11 3 -22q0 -51 -44 -63q-11 -3 -22 -3h-1000q-51 0 -63 44q-3 11 -3 22q0 51 44 63q11 3 22 3z" glyph-name="emdash" horiz-adv-x="1000" unicode="—"/>
<glyph d="M16 525l82 147q27 45 71 46q52 0 70 -40q6 -13 6 -28q0 -21 -15 -47v-1l-82 -147q-27 -45 -71 -46q-52 0 -70 40q-6 13 -6 28q0 21 15 47v1z" glyph-name="quoteleft" horiz-adv-x="259" unicode="‘"/>
<glyph d="M230 602l-82 -147q-27 -45 -71 -46q-52 0 -70 40q-6 13 -6 28q0 21 15 47v1l82 147q27 45 71 46q52 0 70 -40q6 -13 6 -28q0 -21 -15 -47v-1z" glyph-name="quoteright" horiz-adv-x="259" unicode="’"/>
<glyph d="M16 -35l82 147q27 45 71 46q52 0 70 -40q6 -13 6 -28q0 -21 -15 -47v-1l-82 -147q-27 -45 -71 -46q-52 0 -70 40q-6 13 -6 28q0 21 15 47v1z" glyph-name="quotesinglbase" horiz-adv-x="259" unicode="‚"/>
<glyph d="M16 525l82 147q27 45 71 46q52 0 70 -40q6 -13 6 -28q0 -21 -15 -47v-1l-82 -147q-27 -45 -71 -46q-52 0 -70 40q-6 13 -6 28q0 21 15 47v1zM238 525l82 147q27 45 71 46q52 0 70 -40q6 -13 6 -28q0 -21 -15 -47v-1l-82 -147q-27 -45 -71 -46q-52 0 -70 40q-6 13 -6 28 q0 21 15 47v1z" glyph-name="quotedblleft" horiz-adv-x="481" unicode="“"/>
<glyph d="M230 602l-82 -147q-27 -45 -71 -46q-52 0 -70 40q-6 13 -6 28q0 21 15 47v1l82 147q27 45 71 46q52 0 70 -40q6 -13 6 -28q0 -21 -15 -47v-1zM452 602l-82 -147q-27 -45 -71 -46q-52 0 -70 40q-6 13 -6 28q0 21 15 47v1l82 147q27 45 71 46q52 0 70 -40q6 -13 6 -28 q0 -21 -15 -47v-1z" glyph-name="quotedblright" horiz-adv-x="481" unicode="”"/>
<glyph d="M238 -35l82 147q27 45 71 46q52 0 70 -40q6 -13 6 -28q0 -21 -15 -47v-1l-82 -147q-27 -45 -71 -46q-52 0 -70 40q-6 13 -6 28q0 21 15 47v1zM16 -35l82 147q27 45 71 46q52 0 70 -40q6 -13 6 -28q0 -21 -15 -47v-1l-82 -147q-27 -45 -71 -46q-52 0 -70 40q-6 13 -6 28 q0 21 15 47v1z" glyph-name="quotedblbase" horiz-adv-x="481" unicode="„"/>
<glyph d="M218 508v151q0 55 49 67q10 2 20 2q55 0 67 -48q2 -10 2 -21v-151h134q42 0 54 -37q3 -10 3 -20q0 -42 -37 -54q-10 -3 -20 -3h-134v-505q0 -55 -49 -67q-10 -2 -20 -2q-55 0 -67 48q-2 10 -2 21v505h-134q-42 0 -54 37q-3 10 -3 20q0 42 37 54q10 3 20 3h134z" glyph-name="dagger" horiz-adv-x="574" unicode="†"/>
<glyph d="M218 508v151q0 55 49 67q10 2 20 2q55 0 67 -48q2 -10 2 -21v-151h134q42 0 54 -37q3 -10 3 -20q0 -42 -37 -54q-10 -3 -20 -3h-134v-240h134q42 0 54 -37q3 -10 3 -20q0 -42 -37 -54q-10 -3 -20 -3h-134v-151q0 -55 -49 -67q-10 -2 -20 -2q-55 0 -67 48q-2 10 -2 21v151 h-134q-42 0 -54 37q-3 10 -3 20q0 42 37 54q10 3 20 3h134v240h-134q-42 0 -54 37q-3 10 -3 20q0 42 37 54q10 3 20 3h134z" glyph-name="daggerdbl" horiz-adv-x="574" unicode="‡"/>
<glyph d="M72 356q0 84 66 138q50 40 112 40q84 0 138 -66q40 -50 40 -112q0 -84 -66 -138q-50 -40 -112 -40q-84 0 -138 66q-40 50 -40 112z" glyph-name="bullet" horiz-adv-x="500" unicode="•"/>
<glyph d="M80 71q0 47 41 73q22 14 46 14q47 0 73 -41q14 -22 14 -46q0 -49 -42 -74q-22 -13 -45 -13q-48 0 -74 42q-13 21 -13 45zM413 71q0 47 41 73q22 14 46 14q47 0 73 -41q14 -22 14 -46q0 -49 -42 -74q-22 -13 -45 -13q-48 0 -74 42q-13 21 -13 45zM746 71q0 47 41 73 q22 14 46 14q47 0 73 -41q14 -22 14 -46q0 -49 -42 -74q-22 -13 -45 -13q-48 0 -74 42q-13 21 -13 45z" glyph-name="ellipsis" horiz-adv-x="1000" unicode="…"/>
<glyph d="M470 144q0 -30 28 -42q9 -4 18 -4q30 0 42 28q4 9 4 18q0 30 -28 42q-9 4 -18 4q-30 0 -42 -28q-4 -9 -4 -18zM356 144q0 77 61 125q44 35 99 35q77 0 125 -61q35 -44 35 -99q0 -77 -61 -125q-44 -35 -99 -35q-77 0 -125 61q-35 44 -35 99zM705 144q0 77 61 125 q44 35 99 35q77 0 125 -61q35 -44 35 -99q0 -77 -61 -125q-44 -35 -99 -35q-77 0 -125 61q-35 44 -35 99zM819 144q0 -30 28 -42q9 -4 18 -4q30 0 42 28q4 9 4 18q0 30 -28 42q-9 4 -18 4q-30 0 -42 -28q-4 -9 -4 -18zM126 568q0 -30 28 -42q9 -4 18 -4q30 0 42 28q4 9 4 18 q0 30 -28 42q-9 4 -18 4q-30 0 -42 -28q-4 -9 -4 -18zM12 568q0 77 61 125q44 35 99 35q77 0 125 -61q35 -44 35 -99q0 -77 -61 -125q-44 -35 -99 -35q-77 0 -125 61q-35 44 -35 99zM137 114l323 561q25 45 49 51q7 2 13 2q38 0 54 -33q5 -11 5 -23q0 -23 -30 -72 q-1 -1 -1 -2l-323 -561q-25 -45 -49 -51q-7 -2 -13 -2q-38 0 -54 33q-5 11 -5 23q0 23 30 72q1 1 1 2z" glyph-name="perthousand" horiz-adv-x="1037" unicode="‰"/>
<glyph d="M196 136l-84 61q-40 29 -40 82q1 52 40 82l84 61q29 21 51 21q35 0 48 -33q3 -10 3 -20q-1 -35 -27 -53l-89 -58l89 -59q27 -18 27 -52q0 -36 -30 -49q-11 -4 -21 -4q-23 1 -51 21z" glyph-name="guilsinglleft" horiz-adv-x="370" unicode="‹"/>
<glyph d="M174 422l84 -61q40 -29 40 -82q-1 -52 -40 -82l-84 -61q-29 -21 -51 -21q-35 0 -48 33q-3 10 -3 20q1 35 27 53l89 58l-89 59q-27 18 -27 52q0 36 30 49q11 4 21 4q23 -1 51 -21z" glyph-name="guilsinglright" horiz-adv-x="370" unicode="›"/>
<glyph d="M233 -16q-48 0 -74 42q-13 21 -13 45q0 47 41 73q22 14 46 14q47 0 73 -41q14 -22 14 -46q0 -49 -42 -74q-22 -13 -45 -13zM233 201q-52 0 -71 44q-7 16 -7 34v167q0 56 41 79q17 9 37 9q53 0 72 -52l4 -16q6 13 6 32q0 41 -35 64q-18 11 -40 11q-46 0 -78 -39 q-28 -33 -36 -39q-21 -15 -48 -15q-49 0 -64 46q-5 14 -5 30q0 77 86 130q68 42 142 42q118 0 189 -74q58 -60 58 -148q-1 -172 -173 -207v-20q0 -52 -44 -71q-16 -7 -34 -7z" glyph-name="interrobang" horiz-adv-x="500" unicode="‽"/>
<glyph d="M-123 114l323 561q25 45 49 51q7 2 13 2q38 0 54 -33q5 -11 5 -23q0 -23 -30 -72q-1 -1 -1 -2l-323 -561q-25 -45 -49 -51q-7 -2 -13 -2q-38 0 -54 33q-5 11 -5 23q0 23 30 72q1 1 1 2z" glyph-name="fraction" horiz-adv-x="167" unicode="⁄"/>
<glyph d="M195 285q-114 0 -158 108q-21 51 -21 114q0 121 67 181q46 40 112 40q112 0 157 -106q22 -52 22 -115q0 -121 -67 -182q-46 -40 -112 -40zM195 378q65 1 65 129q-1 127 -65 128q-65 -1 -65 -128q1 -128 65 -129z" glyph-name="zero.superior" horiz-adv-x="390" unicode="⁰"/>
<glyph d="M283 286q-48 0 -55 37q-1 5 -1 10v43h-173q-47 0 -52 34q-1 4 -1 7q0 4 0.5 8t1.5 7t2.5 7t2.5 6.5t3.5 6.5t3.5 5.5t3 5.5l3 4l155 222q21 36 65 39h15q67 0 82 -50q3 -11 3 -23v-183h28q40 0 46 -38q1 -5 1 -10q0 -42 -38 -47q-5 -1 -9 -1h-28v-43q0 -39 -43 -46 q-8 -1 -15 -1zM140 472h87v127h-2z" glyph-name="four.superior" horiz-adv-x="400" unicode="⁴"/>
<glyph d="M168 285q-68 0 -114 35q-27 22 -28 47q0 39 30 51q9 4 18 4q20 -1 43 -16q32 -17 48 -17q44 6 47 59q0 36 -26 45q-6 2 -12 2q-20 0 -34 -9l-1 -1q-19 -11 -35 -11q-43 4 -45 42q0 27 2 45l15 112q5 40 39 44q7 1 18 1h141q39 0 49 -36q2 -8 2 -15q0 -34 -30 -46 q-10 -4 -21 -4h-105l-3 -33q16 3 33 3q81 0 115 -71q15 -33 15 -73q0 -81 -64 -127q-43 -31 -97 -31z" glyph-name="five.superior" horiz-adv-x="361" unicode="⁵"/>
<glyph d="M189 285q-98 0 -142 67q-22 35 -22 79q1 93 89 196q72 83 94 95q12 6 24 6q35 0 48 -34q3 -8 3 -15q0 -16 -34 -50l-3 -3l-3 -3q-30 -29 -52 -59q19 2 36 2q67 0 105 -58q23 -35 23 -74q0 -78 -66 -121q-43 -28 -100 -28zM189 381q32 0 45 31q4 11 4 22q0 36 -30 47 q-10 3 -19 3q-31 0 -43 -30q-4 -10 -4 -20q0 -37 29 -50q9 -3 18 -3z" glyph-name="six.superior" horiz-adv-x="373" unicode="⁶"/>
<glyph d="M120 290q-35 0 -49 33q-4 9 -4 18q1 16 16 47l110 231h-114q-38 0 -49 34q-2 8 -2 16q0 35 30 47q10 4 21 4h190q38 0 53 -32q4 -11 4 -20q-1 -19 -15 -46q-19 -42 -60 -129q-48 -103 -71 -153q-17 -37 -35 -45q-12 -5 -25 -5z" glyph-name="seven.superior" horiz-adv-x="350" unicode="⁷"/>
<glyph d="M190 285q-94 0 -137 64q-21 33 -21 73q1 62 50 100q-32 36 -33 81q0 78 74 107q31 12 67 12q86 0 123 -55q18 -28 18 -64q-1 -48 -33 -81q49 -39 50 -100q0 -75 -65 -114q-40 -23 -93 -23zM190 391q31 0 43 28q3 8 3 17q0 30 -28 42q-9 4 -18 4q-30 0 -42 -28 q-4 -9 -4 -18q0 -31 29 -42q9 -3 17 -3zM190 567q24 0 31 22q1 6 1 10q0 24 -22 31q-6 1 -10 1q-24 0 -31 -22q-1 -6 -1 -10q0 -24 22 -31q6 -1 10 -1z" glyph-name="eight.superior" horiz-adv-x="380" unicode="⁸"/>
<glyph d="M148 285q-35 0 -48 34q-3 8 -3 15q0 16 34 50l3 3l3 3q30 29 52 59q-19 -2 -36 -2q-67 0 -105 58q-23 35 -23 74q0 78 66 121q43 28 100 28q98 0 142 -67q22 -35 22 -79q-1 -93 -89 -196q-72 -83 -94 -95q-12 -6 -24 -6zM191 529q31 0 43 30q4 10 4 20q0 37 -29 50 q-9 3 -18 3q-32 0 -45 -31q-4 -11 -4 -22q0 -36 30 -47q10 -3 19 -3z" glyph-name="nine.superior" horiz-adv-x="373" unicode="⁹"/>
<glyph d="M200 287q-39 0 -43 37q-1 5 -1 9v84h-84q-33 0 -43 29q-3 8 -3 15q0 38 37 42q5 1 9 1h84v85q0 38 33 45q6 1 11 1q37 0 43 -36q1 -5 1 -10v-85h84q40 0 45 -34q1 -5 1 -9q0 -37 -36 -43q-5 -1 -10 -1h-84v-84q-7 -42 -44 -46z" glyph-name="plus.superior" horiz-adv-x="400" unicode="⁺"/>
<glyph d="M72 417q-33 0 -43 29q-3 8 -3 15q0 38 37 42q5 1 9 1h256q40 0 45 -34q1 -5 1 -9q0 -37 -36 -43q-5 -1 -10 -1h-256z" glyph-name="minus.superior" horiz-adv-x="400" unicode="⁻"/>
<glyph d="M72 346q-39 0 -45 34q-1 5 -1 10q0 35 33 42q7 2 13 2h256q36 0 44 -31q2 -7 2 -13q0 -37 -36 -43q-5 -1 -10 -1h-256zM72 488q-42 7 -46 44q0 38 37 42q5 1 9 1h256q40 0 45 -34q1 -5 1 -9q0 -39 -37 -43q-5 -1 -9 -1h-256z" glyph-name="equal.superior" horiz-adv-x="400" unicode="⁼"/>
<glyph d="M131 195q-28 0 -46 34q-3 8 -8 18q-39 88 -39 214t39 215q19 43 37 50q8 3 17 3q34 0 44 -27q3 -7 3 -14t-8 -28q-38 -109 -38 -199q0 -92 38 -197q8 -21 8 -28q0 -30 -31 -39q-8 -2 -16 -2z" glyph-name="parenleft.superior" horiz-adv-x="190" unicode="⁽"/>
<glyph d="M59 195q-35 0 -45 28q-2 7 -2 13q0 7 8 28q38 106 38 197t-38 199q-8 21 -8 28q0 29 30 38q9 3 17 3q28 0 46 -35q3 -7 8 -18q39 -90 39 -215q0 -127 -39 -214q-19 -42 -37 -49q-8 -3 -17 -3z" glyph-name="parenright.superior" horiz-adv-x="190" unicode="⁾"/>
<glyph d="M73 395q-36 0 -47 32q-3 9 -3 17v229q0 34 30 45q10 4 20 4q36 -1 51 -30q28 36 89 36q90 0 117 -62q10 -22 10 -49v-173q0 -34 -32 -46q-10 -3 -20 -3q-34 0 -47 30q-4 9 -4 19v142q0 43 -37 54q-10 3 -19 3q-44 0 -55 -39q-2 -9 -2 -18v-142q0 -34 -31 -46 q-10 -3 -20 -3z" glyph-name="n.superior" horiz-adv-x="360" unicode="ⁿ"/>
<glyph d="M195 -6q-114 0 -158 108q-21 51 -21 114q0 121 67 181q46 40 112 40q112 0 157 -106q22 -52 22 -115q0 -121 -67 -182q-46 -40 -112 -40zM195 87q65 1 65 129q-1 127 -65 128q-65 -1 -65 -128q1 -128 65 -129z" glyph-name="zero.inferior" horiz-adv-x="390" unicode="₀"/>
<glyph d="M129 -6q-43 0 -54 39q-3 9 -3 18v284h-35q-38 0 -46 34q-2 7 -2 14q0 36 32 46q8 2 16 2h92q45 0 55 -38q2 -8 2 -17v-325q0 -39 -33 -52q-12 -5 -24 -5z" glyph-name="one.inferior" horiz-adv-x="252" unicode="₁"/>
</font>
</defs>
</svg>
